<?xml version="1.0" encoding="UTF-8">
<svg
   width="600px"
   height="400px"
   viewBox="0 0 600 400"
   version="1.1"
   id="svg1"
   xmlns="http://www.w3.org/2000/svg"
   xmlns:svg="http://www.w3.org/2000/svg">
  <g
     id="layer1">
    <rect
       style="fill:#ffffff"
       id="rect3"
       width="600"
       height="400"
       x="0"
       y="0" />
    <path
       d="m 135.26216,295.34424 q -0.60678,0 -1.04423,-0.23989 -0.43744,-0.23989 -0.73377,-0.59267 -0.28223,-0.36689 -0.42334,-0.73377 -0.14111,-0.36689 -0.14111,-0.62089 v -3.66889 q 0,-0.254 0.14111,-0.62089 0.14111,-0.36689 0.42334,-0.70555 0.29633,-0.35278 0.71966,-0.57856 0.43745,-0.23989 1.03011,-0.23989 h 0.46567 v 1.82034 h -0.46567 q -0.21166,0 -0.32455,0.0988 -0.0988,0.0847 -0.14111,0.18345 -0.0282,0.0988 -0.0282,0.11289 v 3.57011 q 0,0.0141 0.0423,0.11288 0.0423,0.0847 0.15522,0.18345 0.11289,0.0847 0.32456,0.0847 h 0.43744 v 1.83444 z m 1.18533,0 v -10.10355 h 1.96144 l -0.0141,10.10355 z m 5.61622,0.0141 q -0.508,0 -0.97366,-0.18344 -0.45156,-0.18345 -0.80434,-0.52212 -0.35277,-0.33866 -0.56444,-0.81844 -0.19756,-0.47978 -0.19756,-1.07244 v -2.76578 q 0,-0.59266 0.18345,-1.08655 0.18344,-0.49389 0.52211,-0.84667 0.33867,-0.36689 0.80433,-0.56444 0.46567,-0.19756 1.03011,-0.19756 v 1.83444 q -0.21166,0 -0.36689,0.11289 -0.14111,0.11289 -0.22577,0.32456 -0.0847,0.21166 -0.0847,0.508 v 2.61055 q 0,0.23989 0.0847,0.43745 0.0847,0.18344 0.23988,0.29633 0.15523,0.0988 0.35278,0.0988 z m 0.70556,0 v -1.83444 q 0.19755,0 0.35277,-0.0988 0.15523,-0.11289 0.23989,-0.29633 0.0847,-0.19756 0.0847,-0.43745 v -2.61055 q 0,-0.29634 -0.0847,-0.508 -0.0705,-0.21167 -0.22577,-0.32456 -0.15523,-0.11289 -0.36689,-0.11289 v -1.83444 q 0.56444,0 1.03011,0.19756 0.46566,0.19755 0.80433,0.56444 0.33867,0.35278 0.52211,0.84667 0.18345,0.49389 0.18345,1.08655 v 2.76578 q 0,0.59266 -0.21167,1.07244 -0.19756,0.47978 -0.55033,0.81844 -0.35278,0.33867 -0.81845,0.52212 -0.45155,0.18344 -0.95955,0.18344 z m 9.44032,-0.0141 -2.45533,-8.04333 h 2.10255 l 2.06022,6.096 -0.635,1.94733 z m -3.95111,0 -2.45533,-8.04333 h 2.10256 l 2.06022,6.096 -0.635,1.94733 z m 1.905,-3.23144 -1.00189,-2.87867 0.59267,-1.93322 h 2.10255 l -1.50988,4.81189 z m 3.95111,0 -1.00189,-2.87867 0.59267,-1.93322 h 2.10255 l -1.50989,4.81189 z m 2.32832,-2.11667 q 0,-0.59266 0.18345,-1.08655 0.18344,-0.49389 0.52211,-0.84667 0.33867,-0.36689 0.80433,-0.56444 0.46567,-0.19756 1.03011,-0.19756 v 1.83444 q -0.21166,0 -0.36689,0.11289 -0.14111,0.11289 -0.22577,0.32456 -0.0847,0.21166 -0.0847,0.508 v 5.26344 h -1.86267 z m 3.92289,0.0847 q 0,-0.29634 -0.0847,-0.508 -0.0705,-0.21167 -0.22577,-0.32456 -0.15523,-0.11289 -0.36689,-0.11289 v -1.83444 q 0.56444,0 1.03011,0.19756 0.46566,0.19755 0.80433,0.56444 0.33867,0.35278 0.52211,0.84667 0.18344,0.49389 0.18344,1.08655 v 5.34811 h -1.86266 z m 3.00566,5.26344 v -10.10355 h 2.032 v 10.10355 z m 5.70089,0.0141 q -0.508,0 -0.97366,-0.18344 -0.45156,-0.18345 -0.80434,-0.52212 -0.35277,-0.33866 -0.56444,-0.81844 -0.19756,-0.47978 -0.19756,-1.07244 v -2.76578 q 0,-0.59266 0.18345,-1.08655 0.18344,-0.49389 0.52211,-0.84667 0.33866,-0.36689 0.80433,-0.56444 0.46567,-0.19756 1.03011,-0.19756 v 1.83444 q -0.21167,0 -0.36689,0.11289 -0.14111,0.11289 -0.22577,0.32456 -0.0847,0.21166 -0.0847,0.508 v 2.61055 q 0,0.23989 0.0847,0.43745 0.0847,0.18344 0.23988,0.29633 0.15523,0.0988 0.35278,0.0988 z m 0.70556,0 v -1.83444 q 0.19755,0 0.35277,-0.0988 0.15523,-0.11289 0.23989,-0.29633 0.0847,-0.19756 0.0847,-0.43745 v -2.61055 q 0,-0.29634 -0.0847,-0.508 -0.0705,-0.21167 -0.22578,-0.32456 -0.15522,-0.11289 -0.36688,-0.11289 v -1.83444 q 0.56444,0 1.03011,0.19756 0.46566,0.19755 0.80433,0.56444 0.33867,0.35278 0.52211,0.84667 0.18344,0.49389 0.18344,1.08655 v 2.76578 q 0,0.59266 -0.21166,1.07244 -0.19756,0.47978 -0.55034,0.81844 -0.35277,0.33867 -0.81844,0.52212 -0.45155,0.18344 -0.95955,0.18344 z m 5.67266,-0.0141 q -0.74789,0 -1.28411,-0.28222 -0.53623,-0.28223 -0.81845,-0.70556 -0.28222,-0.43744 -0.28222,-0.87489 v -0.71966 q 0,-0.14111 0.0282,-0.381 0.0423,-0.254 0.19756,-0.53622 0.15522,-0.28223 0.53622,-0.47978 0.22578,-0.127 0.59267,-0.254 0.381,-0.127 0.79022,-0.254 0.40922,-0.14111 0.77611,-0.28222 0.36689,-0.15523 0.59266,-0.31045 0.23989,-0.16933 0.23989,-0.35278 v -0.32455 q 0,-0.15522 -0.0705,-0.26811 -0.0565,-0.127 -0.19756,-0.19756 -0.127,-0.0847 -0.35278,-0.0847 v -1.73567 q 0.81845,0 1.35467,0.36689 0.53622,0.35278 0.80433,0.86078 0.26811,0.508 0.26811,0.93133 v 3.683 q 0,0.0847 0.0564,0.26811 0.0705,0.18344 0.33866,0.18344 v 1.74978 q -0.45155,0 -0.80433,-0.11289 -0.33867,-0.127 -0.57855,-0.33867 -0.26811,0.22578 -0.62089,0.33867 -0.35278,0.11289 -0.80433,0.11289 v -1.73567 q 0.25399,0 0.38099,-0.0988 0.127,-0.0988 0.16934,-0.22578 0.0564,-0.14111 0.0564,-0.23989 v -1.15711 q -0.22578,0.127 -0.52211,0.23989 -0.29633,0.11289 -0.60678,0.19755 -0.31044,0.0706 -0.55033,0.14111 -0.22578,0.0706 -0.32455,0.11289 -0.18345,0.0847 -0.18345,0.32456 v 0.19755 q 0,0.16934 0.0565,0.28223 0.0705,0.11288 0.23989,0.16933 0.18344,0.0564 0.52211,0.0564 z m -0.64911,-5.40455 -1.63689,-0.62089 q 0,-0.57856 0.33866,-1.03011 0.35278,-0.45156 0.87489,-0.71967 0.53622,-0.26811 1.08656,-0.26811 v 1.73567 q -0.21167,0 -0.36689,0.0988 -0.14111,0.0988 -0.22578,0.29634 -0.0705,0.19755 -0.0705,0.508 z m 7.35188,5.40455 q -0.60678,0 -1.04422,-0.23989 -0.43744,-0.23989 -0.73378,-0.59267 -0.28222,-0.36689 -0.42333,-0.73377 -0.14111,-0.36689 -0.14111,-0.62089 v -3.66889 q 0,-0.254 0.14111,-0.62089 0.14111,-0.36689 0.42333,-0.70555 0.29634,-0.35278 0.71967,-0.57856 0.43744,-0.23989 1.03011,-0.23989 h 0.46567 v 1.82034 h -0.46567 q -0.21167,0 -0.32456,0.0988 -0.0988,0.0847 -0.14111,0.18345 -0.0282,0.0988 -0.0282,0.11289 v 3.57011 q 0,0.0141 0.0423,0.11288 0.0423,0.0847 0.15523,0.18345 0.11288,0.0847 0.32455,0.0847 h 0.43745 v 1.83444 z m 1.18533,0 v -10.10355 h 1.96145 l -0.0141,10.10355 z m 9.24277,0.0705 v -1.77799 q 0.16934,0 0.36689,-0.0706 0.19756,-0.0706 0.33867,-0.21167 0.14111,-0.14111 0.14111,-0.35277 0,-0.28223 -0.28222,-0.45156 -0.26811,-0.18344 -0.69145,-0.29633 -0.40922,-0.127 -0.86077,-0.23989 -0.43745,-0.11289 -0.77611,-0.26811 -0.31045,-0.14111 -0.62089,-0.40922 -0.29633,-0.26812 -0.508,-0.69145 -0.19756,-0.42333 -0.19756,-1.03011 0,-0.70555 0.254,-1.15711 0.26811,-0.46566 0.66323,-0.73378 0.39511,-0.26811 0.80433,-0.381 0.40922,-0.11288 0.70555,-0.11288 v 1.74977 q -0.32455,0 -0.47977,0.0988 -0.14112,0.0988 -0.18345,0.21167 -0.0282,0.11289 -0.0282,0.18344 0,0.254 0.23989,0.47978 0.254,0.21166 0.79022,0.40922 0.55033,0.18344 1.42522,0.381 0.28222,0.0564 0.55033,0.21167 0.28223,0.15522 0.508,0.40922 0.22578,0.254 0.36689,0.635 0.14111,0.36689 0.14111,0.87489 0,0.80433 -0.36689,1.38288 -0.35277,0.56445 -0.95955,0.86078 -0.60678,0.29633 -1.34056,0.29633 z m -0.63499,0 q -0.90312,0 -1.46756,-0.33866 -0.55033,-0.33867 -0.81844,-0.83256 -0.254,-0.508 -0.254,-1.016 l 1.74977,-0.32455 q 0,0.21166 0.11289,0.381 0.127,0.15522 0.31045,0.254 0.18344,0.0847 0.36689,0.0988 z m 1.42522,-5.67266 q 0,-0.35278 -0.18345,-0.508 -0.16933,-0.15522 -0.36689,-0.19755 -0.19755,-0.0565 -0.26811,-0.0565 l 0.0141,-1.74977 q 0.762,0 1.32645,0.33866 0.57855,0.33867 0.889,0.84667 0.32455,0.508 0.32455,1.03011 z m 5.74322,5.60211 q -0.94544,0 -1.46756,-0.32456 -0.52211,-0.32455 -0.73377,-0.90311 -0.19756,-0.59266 -0.19756,-1.38289 v -3.61244 h -0.98777 v -1.82033 h 0.98777 v -2.06022 h 1.89089 v 2.06022 h 0.93133 v 1.83444 h -0.93133 v 3.73945 q 0,0.15522 0.0988,0.33866 0.0988,0.18345 0.42333,0.18345 h 0.40922 l 0.42334,1.94733 z m 4.03577,0 q -0.62089,0 -1.10067,-0.22578 -0.46566,-0.23989 -0.77611,-0.59267 -0.31044,-0.35277 -0.46566,-0.71966 -0.15523,-0.36689 -0.15523,-0.64911 v -3.69711 q 0,-0.28222 0.15523,-0.64911 0.15522,-0.36689 0.46566,-0.70556 0.32456,-0.35277 0.79022,-0.57855 0.46567,-0.22578 1.07245,-0.22578 v 1.778 q -0.18345,0 -0.32456,0.0847 -0.127,0.0847 -0.21166,0.19755 -0.0706,0.11289 -0.0706,0.22578 v 0.70555 h 2.10255 v -0.69144 q 0,-0.22578 -0.11288,-0.33867 -0.11289,-0.11288 -0.28223,-0.14111 -0.16933,-0.0423 -0.33866,-0.0423 v -1.778 q 0.57855,0 1.143,0.26811 0.57855,0.26811 0.95955,0.74789 0.39511,0.47978 0.39511,1.12889 v 2.667 h -3.86644 v 1.04422 q 0,0.0988 0.0564,0.21166 0.0565,0.0988 0.18345,0.16934 0.14111,0.0705 0.381,0.0705 z m 0.74789,0 v -1.72156 q 0.29633,0 0.49389,-0.0988 0.19755,-0.0988 0.31044,-0.254 0.11289,-0.16934 0.16933,-0.36689 l 1.53811,0.57855 q -0.0988,0.45156 -0.43744,0.889 -0.33867,0.42334 -0.87489,0.70556 -0.52211,0.26811 -1.19944,0.26811 z m 3.58422,-5.34811 q 0,-0.59266 0.18344,-1.08655 0.18345,-0.49389 0.52211,-0.84667 0.33867,-0.36689 0.80434,-0.56444 0.46566,-0.19756 1.03011,-0.19756 v 1.83444 q -0.21167,0 -0.36689,0.11289 -0.14111,0.11289 -0.22578,0.32456 -0.0847,0.21166 -0.0847,0.508 v 5.26344 h -1.86267 z m 3.92289,0.0847 q 0,-0.29634 -0.0847,-0.508 -0.0706,-0.21167 -0.22578,-0.32456 -0.15522,-0.11289 -0.36689,-0.11289 v -1.83444 q 0.56445,0 1.03011,0.19756 0.46567,0.19755 0.80434,0.56444 0.33866,0.35278 0.52211,0.84667 0.18344,0.49389 0.18344,1.08655 v 5.34811 h -1.86266 z m 5.46099,5.26344 q -0.69145,0 -1.17122,-0.22578 -0.46567,-0.23989 -0.762,-0.59267 -0.29634,-0.35277 -0.43745,-0.71966 -0.127,-0.381 -0.127,-0.64911 v -3.69711 q 0,-0.28222 0.14111,-0.64911 0.14111,-0.36689 0.43745,-0.70556 0.31044,-0.35277 0.77611,-0.57855 0.47977,-0.22578 1.12889,-0.22578 v 1.80622 q -0.23989,0 -0.39512,0.0706 -0.14111,0.0564 -0.19755,0.14111 -0.0565,0.0847 -0.0565,0.16933 v 3.66889 q 0,0.14111 0.0706,0.22578 0.0706,0.0847 0.21167,0.127 0.15522,0.0282 0.381,0.0423 z m 0.635,0.0141 v -1.82033 q 0.254,0 0.40922,-0.0423 0.16933,-0.0564 0.254,-0.18344 0.0847,-0.14111 0.0847,-0.39511 v -0.46567 l 1.72156,0.66322 q 0.0141,0.60678 -0.35278,1.12889 -0.35278,0.508 -0.93133,0.81845 -0.56445,0.31044 -1.18533,0.29633 z m 0.57855,-5.16466 v -0.46567 q 0,-0.23989 -0.0705,-0.36689 -0.0706,-0.127 -0.21167,-0.18344 -0.127,-0.0564 -0.29633,-0.0564 v -1.82033 q 0.635,0 1.15711,0.31045 0.52211,0.29633 0.83255,0.80433 0.31045,0.508 0.31045,1.11478 z m 2.97744,5.15055 v -7.93044 h 1.89088 v 7.93044 z m 0.93133,-8.62188 q -0.42333,0 -0.73378,-0.29634 -0.29633,-0.31044 -0.29633,-0.71966 0,-0.40923 0.29633,-0.70556 0.31045,-0.31044 0.73378,-0.31044 0.40922,0 0.70555,0.31044 0.31045,0.29633 0.31045,0.70556 0,0.40922 -0.31045,0.71966 -0.29633,0.29634 -0.70555,0.29634 z m 2.31423,8.62188 v -10.10355 h 2.032 v 10.10355 z m 6.08189,0.0705 v -1.77799 q 0.16933,0 0.36689,-0.0706 0.19755,-0.0706 0.33867,-0.21167 0.14111,-0.14111 0.14111,-0.35277 0,-0.28223 -0.28223,-0.45156 -0.26811,-0.18344 -0.69144,-0.29633 -0.40922,-0.127 -0.86078,-0.23989 -0.43744,-0.11289 -0.77611,-0.26811 -0.31044,-0.14111 -0.62089,-0.40922 -0.29633,-0.26812 -0.50799,-0.69145 -0.19756,-0.42333 -0.19756,-1.03011 0,-0.70555 0.254,-1.15711 0.26811,-0.46566 0.66322,-0.73378 0.39511,-0.26811 0.80433,-0.381 0.40923,-0.11288 0.70556,-0.11288 v 1.74977 q -0.32456,0 -0.47978,0.0988 -0.14111,0.0988 -0.18344,0.21167 -0.0282,0.11289 -0.0282,0.18344 0,0.254 0.23988,0.47978 0.254,0.21166 0.79023,0.40922 0.55033,0.18344 1.42522,0.381 0.28222,0.0564 0.55033,0.21167 0.28222,0.15522 0.508,0.40922 0.22578,0.254 0.36689,0.635 0.14111,0.36689 0.14111,0.87489 0,0.80433 -0.36689,1.38288 -0.35278,0.56445 -0.95955,0.86078 -0.60678,0.29633 -1.34056,0.29633 z m -0.635,0 q -0.90311,0 -1.46755,-0.33866 -0.55034,-0.33867 -0.81845,-0.83256 -0.254,-0.508 -0.254,-1.016 l 1.74978,-0.32455 q 0,0.21166 0.11289,0.381 0.127,0.15522 0.31044,0.254 0.18345,0.0847 0.36689,0.0988 z m 1.42522,-5.67266 q 0,-0.35278 -0.18344,-0.508 -0.16934,-0.15522 -0.36689,-0.19755 -0.19756,-0.0565 -0.26811,-0.0565 l 0.0141,-1.74977 q 0.762,0 1.32644,0.33866 0.57856,0.33867 0.889,0.84667 0.32456,0.508 0.32456,1.03011 z m 6.604,5.60211 v -5.48922 h -0.98778 v -1.83444 h 0.98778 v -0.55034 q 0,-0.254 0.14111,-0.62088 0.14111,-0.36689 0.43744,-0.73378 0.29634,-0.36689 0.74789,-0.62089 0.45156,-0.254 1.05833,-0.26811 h 0.94545 l -0.42334,1.82033 h -0.508 q -0.21166,0 -0.32455,0.0988 -0.11289,0.0988 -0.15522,0.19755 -0.0282,0.0988 -0.0282,0.127 v 0.55034 h 1.01599 v 1.83444 h -1.01599 v 5.48922 z m 3.92288,0 v -8.04333 h 1.91911 v 0.889 q 0.16933,-0.21167 0.45155,-0.42333 0.29633,-0.22578 0.67733,-0.381 0.381,-0.15522 0.80434,-0.15522 0.127,0 0.254,0 0.127,0 0.254,0 l -0.43745,1.89088 q -0.508,0 -0.97366,0.29634 -0.45156,0.28222 -0.74789,0.71966 -0.28222,0.43745 -0.28222,0.90311 v 4.30389 z m 7.57766,0.0141 q -0.508,0 -0.97367,-0.18344 -0.45155,-0.18345 -0.80433,-0.52212 -0.35278,-0.33866 -0.56444,-0.81844 -0.19756,-0.47978 -0.19756,-1.07244 v -2.76578 q 0,-0.59266 0.18344,-1.08655 0.18345,-0.49389 0.52211,-0.84667 0.33867,-0.36689 0.80434,-0.56444 0.46566,-0.19756 1.03011,-0.19756 v 1.83444 q -0.21167,0 -0.36689,0.11289 -0.14111,0.11289 -0.22578,0.32456 -0.0847,0.21166 -0.0847,0.508 v 2.61055 q 0,0.23989 0.0847,0.43745 0.0847,0.18344 0.23989,0.29633 0.15522,0.0988 0.35278,0.0988 z m 0.70555,0 v -1.83444 q 0.19756,0 0.35278,-0.0988 0.15522,-0.11289 0.23989,-0.29633 0.0847,-0.19756 0.0847,-0.43745 v -2.61055 q 0,-0.29634 -0.0847,-0.508 -0.0706,-0.21167 -0.22578,-0.32456 -0.15522,-0.11289 -0.36689,-0.11289 v -1.83444 q 0.56445,0 1.03011,0.19756 0.46567,0.19755 0.80434,0.56444 0.33866,0.35278 0.52211,0.84667 0.18344,0.49389 0.18344,1.08655 v 2.76578 q 0,0.59266 -0.21167,1.07244 -0.19755,0.47978 -0.55033,0.81844 -0.35278,0.33867 -0.81844,0.52212 -0.45156,0.18344 -0.95956,0.18344 z m 7.35188,-0.0141 v -5.61622 q 0,-0.23989 -0.15522,-0.39511 -0.14111,-0.16933 -0.52211,-0.16933 v -1.87678 q 0.53622,0 0.93133,0.14111 0.39511,0.14111 0.70556,0.381 0.31044,-0.254 0.70555,-0.381 0.39511,-0.14111 0.91722,-0.14111 v 1.87678 q -0.381,0 -0.52211,0.16933 -0.14111,0.16933 -0.14111,0.39511 v 5.61622 z m -3.88055,0 v -5.85611 q 0,-0.29633 0.15522,-0.66322 0.16934,-0.381 0.49389,-0.73378 0.32456,-0.35277 0.79022,-0.57855 0.47978,-0.22578 1.11478,-0.22578 v 1.87678 q -0.36689,0 -0.508,0.19755 -0.127,0.18345 -0.127,0.36689 v 5.61622 z m 7.76111,0 v -5.61622 q 0,-0.254 -0.14112,-0.40922 -0.14111,-0.15522 -0.52211,-0.15522 v -1.87678 q 0.635,0 1.11478,0.23989 0.49389,0.22578 0.81844,0.57855 0.32456,0.35278 0.47978,0.73378 0.16934,0.36689 0.16934,0.64911 v 5.85611 z m 6.50519,0 v -7.93044 h 1.89089 v 7.93044 z m 0.93134,-8.62188 q -0.42334,0 -0.73378,-0.29634 -0.29633,-0.31044 -0.29633,-0.71966 0,-0.40923 0.29633,-0.70556 0.31044,-0.31044 0.73378,-0.31044 0.40922,0 0.70555,0.31044 0.31045,0.29633 0.31045,0.70556 0,0.40922 -0.31045,0.71966 -0.29633,0.29634 -0.70555,0.29634 z m 5.17878,8.69243 v -1.77799 q 0.16933,0 0.36689,-0.0706 0.19755,-0.0706 0.33866,-0.21167 0.14112,-0.14111 0.14112,-0.35277 0,-0.28223 -0.28223,-0.45156 -0.26811,-0.18344 -0.69144,-0.29633 -0.40922,-0.127 -0.86078,-0.23989 -0.43744,-0.11289 -0.77611,-0.26811 -0.31044,-0.14111 -0.62089,-0.40922 -0.29633,-0.26812 -0.508,-0.69145 -0.19755,-0.42333 -0.19755,-1.03011 0,-0.70555 0.254,-1.15711 0.26811,-0.46566 0.66322,-0.73378 0.39511,-0.26811 0.80433,-0.381 0.40923,-0.11288 0.70556,-0.11288 v 1.74977 q -0.32456,0 -0.47978,0.0988 -0.14111,0.0988 -0.18344,0.21167 -0.0282,0.11289 -0.0282,0.18344 0,0.254 0.23989,0.47978 0.254,0.21166 0.79022,0.40922 0.55034,0.18344 1.42523,0.381 0.28222,0.0564 0.55033,0.21167 0.28222,0.15522 0.508,0.40922 0.22578,0.254 0.36689,0.635 0.14111,0.36689 0.14111,0.87489 0,0.80433 -0.36689,1.38288 -0.35278,0.56445 -0.95956,0.86078 -0.60677,0.29633 -1.34055,0.29633 z m -0.635,0 q -0.90311,0 -1.46755,-0.33866 -0.55034,-0.33867 -0.81845,-0.83256 -0.254,-0.508 -0.254,-1.016 l 1.74978,-0.32455 q 0,0.21166 0.11289,0.381 0.127,0.15522 0.31044,0.254 0.18345,0.0847 0.36689,0.0988 z m 1.42522,-5.67266 q 0,-0.35278 -0.18344,-0.508 -0.16934,-0.15522 -0.36689,-0.19755 -0.19756,-0.0565 -0.26811,-0.0565 l 0.0141,-1.74977 q 0.762,0 1.32644,0.33866 0.57856,0.33867 0.889,0.84667 0.32456,0.508 0.32456,1.03011 z m 5.74323,5.60211 q -0.94545,0 -1.46756,-0.32456 -0.52211,-0.32455 -0.73377,-0.90311 -0.19756,-0.59266 -0.19756,-1.38289 v -3.61244 h -0.98778 v -1.82033 h 0.98778 v -2.06022 h 1.89089 v 2.06022 h 0.93133 v 1.83444 h -0.93133 v 3.73945 q 0,0.15522 0.0988,0.33866 0.0988,0.18345 0.42333,0.18345 h 0.40922 l 0.42333,1.94733 z m 3.72532,0 q -0.74789,0 -1.28411,-0.28222 -0.53622,-0.28223 -0.81844,-0.70556 -0.28222,-0.43744 -0.28222,-0.87489 v -0.71966 q 0,-0.14111 0.0282,-0.381 0.0423,-0.254 0.19755,-0.53622 0.15523,-0.28223 0.53623,-0.47978 0.22577,-0.127 0.59266,-0.254 0.381,-0.127 0.79022,-0.254 0.40923,-0.14111 0.77611,-0.28222 0.36689,-0.15523 0.59267,-0.31045 0.23989,-0.16933 0.23989,-0.35278 v -0.32455 q 0,-0.15522 -0.0706,-0.26811 -0.0564,-0.127 -0.19755,-0.19756 -0.127,-0.0847 -0.35278,-0.0847 v -1.73567 q 0.81845,0 1.35467,0.36689 0.53622,0.35278 0.80433,0.86078 0.26811,0.508 0.26811,0.93133 v 3.683 q 0,0.0847 0.0564,0.26811 0.0705,0.18344 0.33866,0.18344 v 1.74978 q -0.45155,0 -0.80433,-0.11289 -0.33867,-0.127 -0.57856,-0.33867 -0.26811,0.22578 -0.62088,0.33867 -0.35278,0.11289 -0.80434,0.11289 v -1.73567 q 0.254,0 0.381,-0.0988 0.127,-0.0988 0.16934,-0.22578 0.0564,-0.14111 0.0564,-0.23989 v -1.15711 q -0.22578,0.127 -0.52211,0.23989 -0.29633,0.11289 -0.60678,0.19755 -0.31044,0.0706 -0.55033,0.14111 -0.22578,0.0706 -0.32456,0.11289 -0.18344,0.0847 -0.18344,0.32456 v 0.19755 q 0,0.16934 0.0564,0.28223 0.0706,0.11288 0.23989,0.16933 0.18345,0.0564 0.52211,0.0564 z m -0.64911,-5.40455 -1.63689,-0.62089 q 0,-0.57856 0.33867,-1.03011 0.35278,-0.45156 0.87489,-0.71967 0.53622,-0.26811 1.08655,-0.26811 v 1.73567 q -0.21166,0 -0.36688,0.0988 -0.14112,0.0988 -0.22578,0.29634 -0.0706,0.19755 -0.0706,0.508 z m 5.10821,0.0564 q 0,-0.59266 0.18345,-1.08655 0.18344,-0.49389 0.52211,-0.84667 0.33866,-0.36689 0.80433,-0.56444 0.46567,-0.19756 1.03011,-0.19756 v 1.83444 q -0.21167,0 -0.36689,0.11289 -0.14111,0.11289 -0.22578,0.32456 -0.0847,0.21166 -0.0847,0.508 v 5.26344 h -1.86267 z m 3.92289,0.0847 q 0,-0.29634 -0.0847,-0.508 -0.0705,-0.21167 -0.22578,-0.32456 -0.15522,-0.11289 -0.36688,-0.11289 v -1.83444 q 0.56444,0 1.03011,0.19756 0.46566,0.19755 0.80433,0.56444 0.33866,0.35278 0.52211,0.84667 0.18344,0.49389 0.18344,1.08655 v 5.34811 h -1.86266 z m 5.19288,5.26344 q -0.60678,0 -1.04422,-0.23989 -0.43745,-0.23989 -0.73378,-0.59267 -0.28222,-0.36689 -0.42333,-0.73377 -0.14111,-0.36689 -0.14111,-0.62089 v -3.66889 q 0,-0.254 0.14111,-0.62089 0.14111,-0.36689 0.42333,-0.70555 0.29633,-0.35278 0.71967,-0.57856 0.43744,-0.23989 1.03011,-0.23989 h 0.46566 v 1.82034 h -0.46566 q -0.21167,0 -0.32456,0.0988 -0.0988,0.0847 -0.14111,0.18345 -0.0282,0.0988 -0.0282,0.11289 v 3.57011 q 0,0.0141 0.0423,0.11288 0.0423,0.0847 0.15522,0.18345 0.11289,0.0847 0.32456,0.0847 h 0.43744 v 1.83444 z m 1.18533,0 v -10.10355 h 1.96144 l -0.0141,10.10355 z m 6.30766,0 v -9.89188 h 1.97556 v 6.05366 h 0.762 v 1.83444 h -0.762 v 2.00378 z m -3.48544,-2.00378 v -1.83444 l 2.68111,-4.60022 v 3.556 l -0.64911,1.04422 h 0.64911 v 1.83444 z m 8.12799,2.07433 q -0.43745,0 -0.74789,-0.31044 -0.31044,-0.31044 -0.31044,-0.74789 0,-0.45155 0.31044,-0.762 0.31044,-0.31044 0.74789,-0.31044 0.45155,0 0.74789,0.31044 0.31044,0.31045 0.31044,0.762 0,0.43745 -0.31044,0.74789 -0.29634,0.31044 -0.74789,0.31044 z m 5.2352,0 v -1.87677 q 0.254,0 0.39511,-0.0847 0.15523,-0.0847 0.21167,-0.21167 0.0564,-0.127 0.0564,-0.254 v -5.68677 h 1.9191 v 5.91255 q 0,0.28222 -0.16933,0.66322 -0.15522,0.36689 -0.47978,0.71967 -0.32455,0.35278 -0.81844,0.59267 -0.47978,0.22577 -1.11478,0.22577 z m -0.64911,0 q -0.635,0 -1.12889,-0.22577 -0.47977,-0.22578 -0.80433,-0.57856 -0.31044,-0.35278 -0.47978,-0.71967 -0.15522,-0.38099 -0.15522,-0.67733 v -5.91255 h 1.91911 v 5.68677 q 0,0.127 0.0564,0.254 0.0564,0.127 0.19755,0.21167 0.14111,0.0847 0.39511,0.0847 z m 7.22488,0 v -1.77799 q 0.16933,0 0.36689,-0.0706 0.19756,-0.0706 0.33867,-0.21167 0.14111,-0.14111 0.14111,-0.35277 0,-0.28223 -0.28222,-0.45156 -0.26812,-0.18344 -0.69145,-0.29633 -0.40922,-0.127 -0.86078,-0.23989 -0.43744,-0.11289 -0.77611,-0.26811 -0.31044,-0.14111 -0.62088,-0.40922 -0.29634,-0.26812 -0.508,-0.69145 -0.19756,-0.42333 -0.19756,-1.03011 0,-0.70555 0.254,-1.15711 0.26811,-0.46566 0.66322,-0.73378 0.39511,-0.26811 0.80433,-0.381 0.40923,-0.11288 0.70556,-0.11288 v 1.74977 q -0.32456,0 -0.47978,0.0988 -0.14111,0.0988 -0.18344,0.21167 -0.0282,0.11289 -0.0282,0.18344 0,0.254 0.23988,0.47978 0.254,0.21166 0.79023,0.40922 0.55033,0.18344 1.42522,0.381 0.28222,0.0564 0.55033,0.21167 0.28222,0.15522 0.508,0.40922 0.22578,0.254 0.36689,0.635 0.14111,0.36689 0.14111,0.87489 0,0.80433 -0.36689,1.38288 -0.35278,0.56445 -0.95955,0.86078 -0.60678,0.29633 -1.34056,0.29633 z m -0.635,0 q -0.90311,0 -1.46755,-0.33866 -0.55034,-0.33867 -0.81845,-0.83256 -0.254,-0.508 -0.254,-1.016 l 1.74978,-0.32455 q 0,0.21166 0.11289,0.381 0.127,0.15522 0.31044,0.254 0.18345,0.0847 0.36689,0.0988 z m 1.42522,-5.67266 q 0,-0.35278 -0.18344,-0.508 -0.16933,-0.15522 -0.36689,-0.19755 -0.19756,-0.0565 -0.26811,-0.0565 l 0.0141,-1.74977 q 0.762,0 1.32644,0.33866 0.57856,0.33867 0.889,0.84667 0.32456,0.508 0.32456,1.03011 z"
       id="text2"
       style="stroke-width:0.264583"
       aria-label="download stencils from istand4.us" />
    <g
       id="g2"
       transform="translate(-2.6573173,1.5875)">
      <g
         id="text1"
         style="white-space:pre"
         transform="matrix(0.31936381,0,0,0.31936381,-63.017959,6.6014624)"
         aria-label="TRUMP IS A BAD PERSON AND YOU KNOW IT.">
        <path
           d="m 538.8614,249.26078 v -107.904 h -28.032 v -26.496 h 83.136 v 26.496 h -28.032 v 107.904 z m 125.75988,0 -2.88,-34.176 q -0.576,-7.488 -2.496,-11.904 -1.728,-4.608 -5.376,-6.72 -3.456,-2.112 -9.408,-2.112 h -2.112 v -24 h 2.496 q 8.64,0 12.48,-4.608 4.032,-4.8 4.032,-10.56 0,-6.912 -4.8,-10.752 -4.608,-4.032 -11.712,-4.032 h -2.496 v -25.536 h 4.224 q 12.864,0 21.696,4.8 9.024,4.8 13.632,13.248 4.8,8.256 4.8,19.2 0,9.792 -3.648,17.28 -3.456,7.488 -9.408,12.288 6.144,3.84 9.024,11.52 3.072,7.488 3.648,14.4 l 3.264,41.664 z m -59.712,0 v -134.4 h 27.072 v 134.4 z m 132.86383,0.96 q -4.224,0 -10.752,-2.112 -6.336,-2.112 -12.48,-6.528 -6.144,-4.416 -10.368,-11.712 -4.224,-7.296 -4.224,-17.664 v -97.344 h 27.264 v 97.344 q 0,3.264 1.344,5.376 1.536,2.112 3.456,3.264 2.112,1.152 3.648,1.728 1.728,0.384 2.112,0.384 z m 10.368,0 v -27.264 q 0.384,0 1.92,-0.384 1.728,-0.576 3.648,-1.728 2.112,-1.152 3.648,-3.264 1.536,-2.112 1.536,-5.376 v -97.344 h 26.88 v 97.344 q 0,10.368 -4.224,17.664 -4.032,7.296 -10.176,11.904 -6.144,4.416 -12.48,6.528 -6.336,1.92 -10.752,1.92 z m 100.60784,-0.96 -48.576,-116.736 v -17.664 h 21.12 l 36.672,88.896 20.352,-45.888 h 1.92 v 62.4 l -12.864,28.992 z m -48.576,0 v -85.248 h 1.728 l 25.344,60.864 v 24.384 z m 90.432,0 v -134.4 h 27.072 v 134.4 z m 43.19983,0 v -134.4 h 27.072 v 134.4 z m 37.44,-61.248 v -26.496 h 6.336 q 1.536,0 3.84,-0.384 2.304,-0.384 4.032,-2.496 1.92,-2.112 1.92,-7.104 0,-4.992 -1.92,-7.104 -1.728,-2.112 -4.032,-2.496 -2.304,-0.384 -3.84,-0.384 h -6.336 v -26.688 h 7.104 q 14.4,0 22.27202,4.8 7.872,4.8 10.944,13.248 3.264,8.448 3.264,19.392 0,11.904 -3.648,19.968 -3.456,7.872 -11.52002,11.904 -7.872,3.84 -21.312,3.84 z m 98.68792,61.248 v -134.4 h 27.072 v 134.4 z m 84.6721,0.576 v -24.96 q 2.112,-0.192 4.224,-1.152 2.112,-1.152 3.84,-2.88 1.728,-1.92 2.688,-4.224 1.152,-2.304 1.152,-4.992 0,-4.8 -2.88,-8.448 -2.88,-3.84 -7.488,-6.528 -4.416,-2.88 -9.024,-4.8 -4.608,-1.92 -8.256,-3.072 -3.648,-1.152 -4.8,-1.536 -5.568,-1.728 -11.136,-6.336 -5.376,-4.608 -9.024,-11.904 -3.456,-7.488 -3.456,-17.088 0,-10.176 3.648,-17.088 3.84,-7.104 9.408,-11.328 5.568,-4.416 11.136,-6.528 5.76,-2.112 9.408,-2.112 v 25.344 q -1.536,0.576 -3.072,1.536 -1.344,0.96 -2.496,2.496 -0.96,1.536 -1.728,3.264 -0.576,1.728 -0.576,3.648 0,3.456 1.728,5.952 1.92,2.496 5.184,4.416 3.264,1.92 7.296,3.84 4.224,1.728 9.024,3.648 4.8,1.92 9.6,4.608 6.144,3.264 11.712,8.064 5.568,4.8 9.216,11.52 3.648,6.528 3.648,15.744 0,10.944 -5.376,20.352 -5.376,9.216 -14.4,14.976 -8.832,5.568 -19.2,5.568 z m -10.56,0 q -7.872,0 -14.4,-3.264 -6.336,-3.264 -11.136,-8.256 -4.608,-4.992 -7.104,-10.176 -2.496,-5.184 -2.496,-9.216 l 24.384,-8.64 q 0,3.84 1.728,6.912 1.728,2.88 4.224,4.8 2.496,1.92 4.8,2.88 z m 19.2,-98.496 q 0,-3.264 -1.536,-5.568 -1.344,-2.304 -3.264,-3.648 -1.92,-1.536 -3.84,-1.92 v -25.344 q 7.68,0 13.824,3.072 6.144,2.88 10.56,7.488 4.416,4.608 6.72,9.408 2.496,4.8 2.496,8.256 z m 149.1841,97.92 -3.84,-16.32 h -19.968 l 5.76,-26.496 h 6.912 l -20.352,-91.584 h 26.688 l 31.68,134.4 z m -64.704,0 24.768,-111.744 h 2.88 l 11.52,53.76 -12.672,57.984 z"
           id="path1" />
        <path
           d="m 516.97313,489.26078 v -23.616 h 0.96 q 4.224,0 7.296,-1.344 3.072,-1.344 5.184,-3.648 2.112,-2.304 3.072,-5.184 1.152,-2.88 1.152,-5.76 0,-6.144 -4.224,-10.944 -4.032,-4.992 -11.904,-4.992 h -1.536 v -23.424 h 1.536 q 5.376,0 8.832,-2.304 3.648,-2.304 5.376,-5.952 1.92,-3.648 1.92,-7.68 0,-4.032 -1.92,-7.68 -1.728,-3.648 -5.568,-5.952 -3.648,-2.304 -9.216,-2.304 h -0.96 v -23.616 h 4.608 q 10.56,0 18.048,3.264 7.68,3.264 12.48,8.64 4.8,5.376 7.104,12.096 2.304,6.72 2.304,13.632 0,8.64 -3.456,16.704 -3.264,8.064 -9.6,12.864 4.224,3.072 7.104,7.872 2.88,4.8 4.416,10.368 1.536,5.568 1.536,11.328 0,9.216 -4.224,17.856 -4.032,8.64 -12.864,14.208 -8.832,5.568 -22.848,5.568 z m -37.44,0 v -134.4 h 26.88 v 134.4 z m 158.78417,0 -3.84,-16.32 h -19.968 l 5.76,-26.496 h 6.912 l -20.352,-91.584 h 26.688 l 31.68,134.4 z m -64.704,0 24.768,-111.744 h 2.88 l 11.52,53.76 -12.672,57.984 z m 140.73598,0 v -27.072 q 0.384,0 2.112,-0.384 1.728,-0.384 3.648,-1.536 2.112,-1.152 3.456,-3.264 1.536,-2.112 1.536,-5.568 v -58.752 q 0,-0.384 -0.384,-1.92 -0.384,-1.728 -1.536,-3.648 -1.152,-2.112 -3.264,-3.648 -2.112,-1.536 -5.568,-1.536 v -27.072 q 10.368,0 17.472,4.224 7.296,4.032 11.712,10.176 4.416,6.144 6.528,12.48 2.112,6.336 2.112,10.944 v 58.752 q 0,10.56 -4.224,17.856 -4.224,7.296 -10.368,11.712 -6.144,4.416 -12.48,6.336 -6.336,1.92 -10.752,1.92 z m -37.44,0 v -134.4 h 27.072 v 134.4 z m 134.78393,0 v -134.4 h 27.072 v 134.4 z m 37.44,-61.248 v -26.496 h 6.336 q 1.536,0 3.84,-0.384 2.304,-0.384 4.032,-2.496 1.92,-2.112 1.92,-7.104 0,-4.992 -1.92,-7.104 -1.728,-2.112 -4.032,-2.496 -2.304,-0.384 -3.84,-0.384 h -6.336 v -26.688 h 7.104 q 14.4,0 22.272,4.8 7.872,4.8 10.944,13.248 3.264,8.448 3.264,19.392 0,11.904 -3.648,19.968 -3.456,7.872 -11.52,11.904 -7.872,3.84 -21.312,3.84 z m 54.52802,61.248 v -134.4 h 69.888 v 26.88 h -42.816 v 27.264 h 24.768 v 27.072 h -24.768 v 26.112 h 42.816 v 27.072 z m 144.96007,0 -2.88,-34.176 q -0.576,-7.488 -2.496,-11.904 -1.728,-4.608 -5.376,-6.72 -3.456,-2.112 -9.408,-2.112 h -2.112 v -24 h 2.496 q 8.64,0 12.48,-4.608 4.032,-4.8 4.032,-10.56 0,-6.912 -4.8,-10.752 -4.608,-4.032 -11.712,-4.032 h -2.496 v -25.536 h 4.224 q 12.864,0 21.696,4.8 9.024,4.8 13.632,13.248 4.8,8.256 4.8,19.2 0,9.792 -3.648,17.28 -3.456,7.488 -9.408,12.288 6.144,3.84 9.024,11.52 3.072,7.488 3.648,14.4 l 3.264,41.664 z m -59.71202,0 v -134.4 h 27.07202 v 134.4 z m 138.43182,0.576 v -24.96 q 2.112,-0.192 4.224,-1.152 2.112,-1.152 3.84,-2.88 1.728,-1.92 2.688,-4.224 1.152,-2.304 1.152,-4.992 0,-4.8 -2.88,-8.448 -2.88,-3.84 -7.488,-6.528 -4.416,-2.88 -9.024,-4.8 -4.608,-1.92 -8.256,-3.072 -3.648,-1.152 -4.8,-1.536 -5.568,-1.728 -11.136,-6.336 -5.376,-4.608 -9.024,-11.904 -3.456,-7.488 -3.456,-17.088 0,-10.176 3.648,-17.088 3.84,-7.104 9.408,-11.328 5.568,-4.416 11.136,-6.528 5.76,-2.112 9.408,-2.112 v 25.344 q -1.536,0.576 -3.072,1.536 -1.344,0.96 -2.496,2.496 -0.96,1.536 -1.728,3.264 -0.576,1.728 -0.576,3.648 0,3.456 1.728,5.952 1.92,2.496 5.184,4.416 3.264,1.92 7.296,3.84 4.224,1.728 9.024,3.648 4.8,1.92 9.6,4.608 6.144,3.264 11.712,8.064 5.568,4.8 9.216,11.52 3.648,6.528 3.648,15.744 0,10.944 -5.376,20.352 -5.376,9.216 -14.4,14.976 -8.832,5.568 -19.2,5.568 z m -10.56,0 q -7.872,0 -14.4,-3.264 -6.336,-3.264 -11.136,-8.256 -4.608,-4.992 -7.104,-10.176 -2.496,-5.184 -2.496,-9.216 l 24.384,-8.64 q 0,3.84 1.728,6.912 1.728,2.88 4.224,4.8 2.496,1.92 4.8,2.88 z m 19.2,-98.496 q 0,-3.264 -1.536,-5.568 -1.344,-2.304 -3.264,-3.648 -1.92,-1.536 -3.84,-1.92 v -25.344 q 7.68,0 13.824,3.072 6.144,2.88 10.56,7.488 4.416,4.608 6.72,9.408 2.496,4.8 2.496,8.256 z m 92.1602,98.88 v -27.264 q 2.496,0 4.608,-0.96 2.304,-1.152 4.032,-2.88 1.92,-1.92 2.88,-4.416 1.152,-2.496 1.152,-5.568 v -53.568 q 0,-3.264 -0.96,-5.76 -0.96,-2.688 -2.688,-4.608 -1.536,-2.112 -3.84,-3.072 -2.304,-1.152 -5.184,-1.152 v -27.072 q 8.064,0 15.168,3.072 7.296,3.072 12.672,8.448 5.568,5.184 8.64,12.288 3.264,6.912 3.264,14.784 v 57.6 q 0,8.448 -2.88,15.744 -2.688,7.296 -7.872,12.864 -5.184,5.376 -12.672,8.448 -7.296,3.072 -16.32,3.072 z m -10.752,0 q -8.064,0 -15.168,-3.072 -7.104,-3.264 -12.672,-8.832 -5.376,-5.568 -8.64,-12.864 -3.072,-7.296 -3.072,-15.36 v -57.6 q 0,-7.872 3.072,-14.784 3.264,-7.104 8.64,-12.48 5.568,-5.376 12.672,-8.256 7.296,-3.072 15.36,-3.072 v 27.072 q -2.88,0 -5.184,1.152 -2.304,0.96 -4.032,3.072 -1.536,1.92 -2.496,4.608 -0.96,2.496 -0.96,5.76 v 53.568 q 0,3.072 0.96,5.76 1.152,2.496 2.88,4.416 1.728,1.728 3.84,2.688 2.304,0.96 4.8,0.96 z m 138.8159,-0.96 -72.576,-116.736 v -17.664 h 22.08 l 63.36,102.144 v 32.256 z m -72.576,0 v -94.464 h 1.536 l 25.536,41.088 v 53.376 z m 83.904,-54.528 -25.536,-41.088 v -38.784 h 27.072 v 79.872 z"
           id="path2" />
        <path
           d="m 325.54954,729.26078 -3.84,-16.32 h -19.968 l 5.76,-26.496 h 6.912 l -20.352,-91.584 h 26.688 l 31.68,134.4 z m -64.704,0 24.768,-111.744 h 2.88 l 11.52,53.76 -12.672,57.984 z m 175.87197,0 -72.576,-116.736 v -17.664 h 22.08 l 63.36,102.144 v 32.256 z m -72.576,0 v -94.464 h 1.536 l 25.536,41.088 v 53.376 z m 83.904,-54.528 -25.536,-41.088 v -38.784 h 27.072 v 79.872 z m 55.10388,54.528 v -27.072 q 0.384,0 2.112,-0.384 1.728,-0.384 3.648,-1.536 2.112,-1.152 3.456,-3.264 1.536,-2.112 1.536,-5.568 v -58.752 q 0,-0.384 -0.384,-1.92 -0.384,-1.728 -1.536,-3.648 -1.152,-2.112 -3.264,-3.648 -2.112,-1.536 -5.568,-1.536 v -27.072 q 10.368,0 17.472,4.224 7.296,4.032 11.712,10.176 4.416,6.144 6.528,12.48 2.112,6.336 2.112,10.944 v 58.752 q 0,10.56 -4.224,17.856 -4.224,7.296 -10.368,11.712 -6.144,4.416 -12.48,6.336 -6.336,1.92 -10.752,1.92 z m -37.44,0 v -134.4 h 27.072 v 134.4 z m 154.17593,0 v -48.384 l -25.152,-86.016 h 28.224 l 24.96,85.824 v 48.576 z m 34.176,-63.552 -12.672,-44.928 7.488,-25.92 h 27.84 l -20.928,70.848 z m 82.94404,64.512 v -27.264 q 2.496,0 4.608,-0.96 2.304,-1.152 4.032,-2.88 1.92,-1.92 2.88,-4.416 1.152,-2.496 1.152,-5.568 v -53.568 q 0,-3.264 -0.96,-5.76 -0.96,-2.688 -2.688,-4.608 -1.536,-2.112 -3.84,-3.072 -2.304,-1.152 -5.184,-1.152 v -27.072 q 8.064,0 15.168,3.072 7.296,3.072 12.672,8.448 5.568,5.184 8.64,12.288 3.264,6.912 3.264,14.784 v 57.6 q 0,8.448 -2.88,15.744 -2.688,7.296 -7.872,12.864 -5.184,5.376 -12.672,8.448 -7.296,3.072 -16.32,3.072 z m -10.752,0 q -8.064,0 -15.168,-3.072 -7.104,-3.264 -12.672,-8.832 -5.376,-5.568 -8.64,-12.864 -3.072,-7.296 -3.072,-15.36 v -57.6 q 0,-7.872 3.072,-14.784 3.264,-7.104 8.64,-12.48 5.568,-5.376 12.672,-8.256 7.296,-3.072 15.36,-3.072 v 27.072 q -2.88,0 -5.184,1.152 -2.304,0.96 -4.032,3.072 -1.536,1.92 -2.496,4.608 -0.96,2.496 -0.96,5.76 v 53.568 q 0,3.072 0.96,5.76 1.152,2.496 2.88,4.416 1.728,1.728 3.84,2.688 2.304,0.96 4.8,0.96 z m 102.14396,0 q -4.224,0 -10.752,-2.112 -6.336,-2.112 -12.48,-6.528 -6.144,-4.416 -10.368,-11.712 -4.224,-7.296 -4.224,-17.664 v -97.344 h 27.264 v 97.344 q 0,3.264 1.344,5.376 1.536,2.112 3.456,3.264 2.112,1.152 3.648,1.728 1.728,0.384 2.112,0.384 z m 10.368,0 v -27.264 q 0.384,0 1.92,-0.384 1.728,-0.576 3.648,-1.728 2.112,-1.152 3.648,-3.264 1.536,-2.112 1.536,-5.376 v -97.344 h 26.88 v 97.344 q 0,10.368 -4.224,17.664 -4.032,7.296 -10.176,11.904 -6.144,4.416 -12.48,6.528 -6.336,1.92 -10.752,1.92 z m 152.44775,-0.96 -21.504,-65.472 20.544,-68.928 h 26.68803 l -20.35203,68.928 21.12003,65.472 z m -56.256,0 v -134.4 h 27.072 v 134.4 z m 166.27213,0 -72.576,-116.736 v -17.664 h 22.08 l 63.36,102.144 v 32.256 z m -72.576,0 v -94.464 h 1.536 l 25.536,41.088 v 53.376 z m 83.904,-54.528 -25.536,-41.088 v -38.784 h 27.072 v 79.872 z m 67.5839,55.488 v -27.264 q 2.496,0 4.608,-0.96 2.304,-1.152 4.032,-2.88 1.92,-1.92 2.88,-4.416 1.152,-2.496 1.152,-5.568 v -53.568 q 0,-3.264 -0.96,-5.76 -0.96,-2.688 -2.688,-4.608 -1.536,-2.112 -3.84,-3.072 -2.304,-1.152 -5.184,-1.152 v -27.072 q 8.064,0 15.168,3.072 7.296,3.072 12.672,8.448 5.568,5.184 8.64,12.288 3.264,6.912 3.264,14.784 v 57.6 q 0,8.448 -2.88,15.744 -2.688,7.296 -7.872,12.864 -5.184,5.376 -12.672,8.448 -7.296,3.072 -16.32,3.072 z m -10.752,0 q -8.064,0 -15.168,-3.072 -7.104,-3.264 -12.672,-8.832 -5.376,-5.568 -8.64,-12.864 -3.072,-7.296 -3.072,-15.36 v -57.6 q 0,-7.872 3.072,-14.784 3.264,-7.104 8.64,-12.48 5.568,-5.376 12.672,-8.256 7.296,-3.072 15.36,-3.072 v 27.072 q -2.88,0 -5.184,1.152 -2.304,0.96 -4.032,3.072 -1.536,1.92 -2.496,4.608 -0.96,2.496 -0.96,5.76 v 53.568 q 0,3.072 0.96,5.76 1.152,2.496 2.88,4.416 1.728,1.728 3.84,2.688 2.304,0.96 4.8,0.96 z m 99.072,-0.96 -38.976,-134.4 h 27.648 l 30.528,104.064 -10.176,30.336 z m 59.904,0 -38.976,-134.4 h 27.648 l 30.336,104.064 -9.984,30.336 z m -36.864,-55.68 -12.672,-43.008 10.56,-35.712 h 27.648 l -23.616,78.72 z m 60.672,0 -12.672,-43.008 10.56,-35.712 h 27.648 l -23.616,78.72 z m 79.6798,55.68 v -134.4 h 27.072 v 134.4 z m 66.0481,0 v -107.904 h -28.032 v -26.496 h 83.136 v 26.496 h -28.032 v 107.904 z m 78.1439,0.96 q -5.952,0 -10.176,-4.224 -4.224,-4.224 -4.224,-10.176 0,-6.144 4.224,-10.368 4.224,-4.224 10.176,-4.224 6.144,0 10.176,4.224 4.224,4.224 4.224,10.368 0,5.952 -4.224,10.176 -4.032,4.224 -10.176,4.224 z"
           id="path3" />
      </g>
      <path
         id="rect2"
         style="stroke-width:0.264583"
         d="M 17.602055,243.39391 H 432.76773 v 4.24877 H 17.602055 Z" />
    </g>
  </g>
</svg>
