<?xml version="1.0" encoding="UTF-8"?>
<svg
   width="600px"
   height="400px"
   viewBox="0 0 600 400"
   version="1.1"
   id="svg1"
   xmlns="http://www.w3.org/2000/svg"
   xmlns:svg="http://www.w3.org/2000/svg">
  <g
     id="layer1">
    <rect
       style="fill:#ffffff"
       id="rect6"
       width="600"
       height="400"
       x="0"
       y="0" />
    <path
       id="path1"
       d="m 135.26276,287.24219 c -0.40534,0 -0.75388,-0.0797 -1.04457,-0.23954 -0.2921,-0.16016 -0.53622,-0.35701 -0.73448,-0.59267 -0.18733,-0.24377 -0.3295,-0.4893 -0.42298,-0.73307 -0.0938,-0.24553 -0.14076,-0.45191 -0.14076,-0.62159 v -3.66819 c 0,-0.16968 0.0469,-0.37641 0.14076,-0.62159 0.0935,-0.24377 0.23565,-0.47943 0.42298,-0.70556 0.19826,-0.23565 0.43815,-0.42862 0.72072,-0.5789 0.29069,-0.15981 0.63394,-0.23954 1.02941,-0.23954 h 0.46566 v 1.82033 h -0.46566 c -0.14076,0 -0.24942,0.0332 -0.32385,0.0991 -0.0663,0.0564 -0.11289,0.11713 -0.14182,0.18345 -0.018,0.066 -0.0279,0.10336 -0.0279,0.11289 v 3.57046 c 0,0.008 0.0138,0.0469 0.0416,0.11289 0.0289,0.0554 0.0797,0.11712 0.15557,0.18344 0.0759,0.0565 0.18345,0.084 0.32526,0.084 h 0.43674 v 1.83409 z m 1.18498,0 v -10.10356 h 1.9611 l -0.0138,10.10356 z m 5.61552,0.0138 c -0.33761,0 -0.66287,-0.0607 -0.97296,-0.1831 -0.30162,-0.12135 -0.56903,-0.29633 -0.80469,-0.52246 -0.23565,-0.22437 -0.42298,-0.49742 -0.56479,-0.81703 -0.13088,-0.32103 -0.19721,-0.67804 -0.19721,-1.07351 v -2.76577 c 0,-0.39406 0.0607,-0.75636 0.18345,-1.08585 0.12241,-0.3295 0.29598,-0.61172 0.52211,-0.84738 0.22613,-0.24412 0.49318,-0.43285 0.80469,-0.56374 0.31009,-0.13229 0.65334,-0.19826 1.0294,-0.19826 v 1.83551 c -0.1404,0 -0.26317,0.037 -0.36653,0.11289 -0.0935,0.0744 -0.16934,0.18344 -0.22578,0.32385 -0.0568,0.1404 -0.0843,0.31009 -0.0843,0.50835 v 2.6102 c 0,0.15981 0.0275,0.30586 0.0843,0.43815 0.0564,0.12136 0.13617,0.22049 0.23953,0.29633 0.10337,0.0646 0.2219,0.0977 0.35278,0.0977 z m 0.70556,0 v -1.8341 c 0.13229,0 0.24941,-0.0332 0.35277,-0.0977 0.10337,-0.0758 0.18345,-0.17497 0.23989,-0.29633 0.0564,-0.13229 0.0854,-0.27834 0.0854,-0.43815 v -2.6102 c 0,-0.19826 -0.0289,-0.36795 -0.0854,-0.50835 -0.0469,-0.14041 -0.12135,-0.24942 -0.22472,-0.32385 -0.10477,-0.0759 -0.22577,-0.11289 -0.36794,-0.11289 v -1.83551 c 0.37641,0 0.72072,0.066 1.03081,0.19826 0.31009,0.13089 0.57891,0.31962 0.80328,0.56374 0.22613,0.23566 0.40111,0.51788 0.52246,0.84738 0.12277,0.32949 0.18309,0.69179 0.18309,1.08585 v 2.76577 c 0,0.39547 -0.0702,0.75248 -0.2106,1.07351 -0.1323,0.31961 -0.31574,0.59266 -0.54999,0.81703 -0.23565,0.22613 -0.50835,0.40111 -0.81844,0.52246 -0.30198,0.12242 -0.62159,0.1831 -0.96061,0.1831 z m 9.44104,-0.0138 -2.45569,-8.04334 h 2.10291 l 2.06022,6.09636 -0.63535,1.94698 z m -3.95076,0 -2.45569,-8.04334 h 2.10291 l 2.06022,6.09636 -0.63535,1.94698 z m 1.90429,-3.23145 -1.00189,-2.87866 0.59267,-1.93323 h 2.10291 l -1.51024,4.81189 z m 3.95076,0 -1.00154,-2.87866 0.59232,-1.93323 h 2.10291 l -1.51025,4.81189 z m 2.32904,-2.11666 c 0,-0.39406 0.0607,-0.75636 0.18309,-1.08585 0.12277,-0.3295 0.29633,-0.61172 0.52246,-0.84738 0.22613,-0.24412 0.49319,-0.43285 0.80328,-0.56374 0.3115,-0.13229 0.65475,-0.19826 1.03082,-0.19826 v 1.83551 c -0.14041,0 -0.26318,0.037 -0.36654,0.11289 -0.0938,0.0744 -0.16933,0.18344 -0.22613,0.32385 -0.0564,0.1404 -0.0854,0.31009 -0.0854,0.50835 v 5.26274 h -1.86161 z m 3.92324,0.0854 c 0,-0.19826 -0.0289,-0.36654 -0.0854,-0.50835 -0.0469,-0.14041 -0.12277,-0.24942 -0.22613,-0.32385 -0.10337,-0.0759 -0.22578,-0.11289 -0.36654,-0.11289 v -1.83551 c 0.37641,0 0.71931,0.066 1.03082,0.19826 0.31009,0.13089 0.57749,0.31962 0.80327,0.56374 0.22613,0.23566 0.3997,0.51788 0.52247,0.84738 0.12276,0.32949 0.18309,0.69179 0.18309,1.08585 v 5.34811 h -1.86161 z m 3.00567,5.26274 v -10.10356 h 2.03094 v 10.10356 z m 5.70088,0.0138 c -0.33901,0 -0.66428,-0.0607 -0.97437,-0.1831 -0.30056,-0.12135 -0.56903,-0.29633 -0.80468,-0.52246 -0.23425,-0.22437 -0.42298,-0.49742 -0.56374,-0.81703 -0.13229,-0.32103 -0.19826,-0.67804 -0.19826,-1.07351 v -2.76577 c 0,-0.39406 0.0617,-0.75636 0.1845,-1.08585 0.12135,-0.3295 0.29633,-0.61172 0.52105,-0.84738 0.22578,-0.24412 0.4946,-0.43285 0.80469,-0.56374 0.31009,-0.13229 0.6544,-0.19826 1.03081,-0.19826 v 1.83551 c -0.14216,0 -0.26458,0.037 -0.36794,0.11289 -0.0938,0.0744 -0.16969,0.18344 -0.22472,0.32385 -0.0564,0.1404 -0.0854,0.31009 -0.0854,0.50835 v 2.6102 c 0,0.15981 0.0289,0.30586 0.0854,0.43815 0.0564,0.12136 0.13652,0.22049 0.23989,0.29633 0.10336,0.0646 0.22048,0.0977 0.35277,0.0977 z m 0.70556,0 v -1.8341 c 0.13088,0 0.24941,-0.0332 0.35278,-0.0977 0.10336,-0.0758 0.18309,-0.17497 0.23953,-0.29633 0.0568,-0.13229 0.0843,-0.27834 0.0843,-0.43815 v -2.6102 c 0,-0.19826 -0.0275,-0.36795 -0.0843,-0.50835 -0.0466,-0.14041 -0.12241,-0.24942 -0.22577,-0.32385 -0.10337,-0.0759 -0.22613,-0.11289 -0.36654,-0.11289 v -1.83551 c 0.37606,0 0.71931,0.066 1.02941,0.19826 0.31009,0.13089 0.57855,0.31962 0.80468,0.56374 0.22613,0.23566 0.3997,0.51788 0.52211,0.84738 0.12136,0.32949 0.18345,0.69179 0.18345,1.08585 v 2.76577 c 0,0.39547 -0.0702,0.75248 -0.21237,1.07351 -0.13089,0.31961 -0.31398,0.59266 -0.54963,0.81703 -0.23566,0.22613 -0.50871,0.40111 -0.8188,0.52246 -0.30162,0.12242 -0.62124,0.1831 -0.95885,0.1831 z m 5.67196,-0.0138 c -0.49883,0 -0.92604,-0.0935 -1.28446,-0.28223 -0.35666,-0.18767 -0.62971,-0.42333 -0.81845,-0.70555 -0.18732,-0.29104 -0.28116,-0.58314 -0.28116,-0.87383 v -0.72073 c 0,-0.0938 0.008,-0.22048 0.0275,-0.38029 0.0275,-0.16969 0.0938,-0.34855 0.1972,-0.53622 0.10336,-0.18874 0.28257,-0.34855 0.53587,-0.47943 0.15169,-0.0854 0.3489,-0.16933 0.59408,-0.25506 0.25364,-0.084 0.51682,-0.16933 0.78951,-0.25329 0.27305,-0.0938 0.53199,-0.18909 0.77576,-0.28258 0.24553,-0.10336 0.44238,-0.20672 0.59267,-0.31009 0.15981,-0.11289 0.23989,-0.23001 0.23989,-0.35278 v -0.32526 c 0,-0.10336 -0.0236,-0.19297 -0.0702,-0.2674 -0.0374,-0.0854 -0.10336,-0.15029 -0.1972,-0.19826 -0.0854,-0.0565 -0.20249,-0.0843 -0.35278,-0.0843 v -1.73602 c 0.54575,0 0.99625,0.12242 1.35467,0.36795 0.35666,0.23425 0.62547,0.52211 0.80469,0.85972 0.1778,0.33902 0.2674,0.64911 0.2674,0.93169 v 3.68335 c 0,0.0564 0.0194,0.14605 0.0564,0.2674 0.0469,0.12242 0.1598,0.1831 0.33901,0.1831 v 1.75013 c -0.30197,0 -0.56903,-0.037 -0.80468,-0.11289 -0.22613,-0.084 -0.4191,-0.1972 -0.57891,-0.33761 -0.1778,0.15028 -0.38594,0.26317 -0.62018,0.33761 -0.23566,0.0759 -0.50412,0.11289 -0.80469,0.11289 v -1.73496 c 0.16933,0 0.29633,-0.0328 0.38171,-0.0991 0.084,-0.066 0.1404,-0.14041 0.16827,-0.22614 0.0385,-0.0935 0.0564,-0.17356 0.0564,-0.23953 v -1.15747 c -0.15029,0.0854 -0.32385,0.1651 -0.52247,0.23954 -0.19685,0.0759 -0.39969,0.14217 -0.60607,0.19861 -0.20673,0.0469 -0.39017,0.0935 -0.54998,0.14041 -0.15028,0.0469 -0.25894,0.0854 -0.32526,0.11289 -0.12277,0.0568 -0.18309,0.16545 -0.18309,0.32526 v 0.1972 c 0,0.11289 0.019,0.20673 0.0564,0.28258 0.0466,0.0744 0.12665,0.13088 0.23954,0.16933 0.12276,0.0374 0.29633,0.0564 0.52246,0.0564 z m -0.64911,-5.40456 -1.63724,-0.62018 c 0,-0.38594 0.11324,-0.72884 0.33902,-1.03082 0.23565,-0.30021 0.52634,-0.5401 0.87524,-0.71931 0.35666,-0.17921 0.71931,-0.26847 1.08585,-0.26847 v 1.73602 c -0.14076,0 -0.26317,0.0332 -0.36654,0.0995 -0.0938,0.0645 -0.16968,0.16369 -0.22613,0.29633 -0.0469,0.13088 -0.0702,0.30021 -0.0702,0.50694 z m 7.35189,5.40456 c -0.40393,0 -0.75248,-0.0797 -1.04458,-0.23954 -0.29069,-0.16016 -0.53622,-0.35701 -0.73307,-0.59267 -0.18873,-0.24377 -0.32949,-0.4893 -0.42298,-0.73307 -0.0953,-0.24553 -0.14217,-0.45191 -0.14217,-0.62159 v -3.66819 c 0,-0.16968 0.0469,-0.37641 0.14217,-0.62159 0.0935,-0.24377 0.23425,-0.47943 0.42298,-0.70556 0.19685,-0.23565 0.43674,-0.42862 0.71932,-0.5789 0.2921,-0.15981 0.63535,-0.23954 1.03081,-0.23954 h 0.46567 v 1.82033 h -0.46567 c -0.14217,0 -0.24941,0.0332 -0.32526,0.0991 -0.0663,0.0564 -0.11289,0.11713 -0.14076,0.18345 -0.0191,0.066 -0.0289,0.10336 -0.0289,0.11289 v 3.57046 c 0,0.008 0.0138,0.0469 0.0427,0.11289 0.0279,0.0564 0.0801,0.11712 0.15593,0.18344 0.0744,0.0565 0.18309,0.084 0.32385,0.084 h 0.43815 v 1.83409 z m 1.18498,0 v -10.10356 h 1.9625 l -0.0152,10.10356 z m 9.24242,0.0705 v -1.778 c 0.11325,0 0.23566,-0.0233 0.36795,-0.0702 0.13088,-0.0469 0.24412,-0.11712 0.33761,-0.21202 0.0953,-0.0938 0.14217,-0.21096 0.14217,-0.35278 0,-0.18768 -0.0938,-0.33761 -0.28258,-0.45085 -0.17921,-0.12241 -0.40922,-0.22189 -0.69179,-0.29598 -0.2727,-0.0857 -0.55951,-0.16545 -0.85972,-0.23989 -0.29246,-0.0758 -0.55139,-0.16545 -0.77753,-0.26881 -0.20672,-0.0938 -0.4131,-0.23001 -0.61983,-0.40923 -0.1972,-0.17921 -0.36653,-0.40922 -0.5087,-0.69179 -0.13088,-0.28258 -0.19684,-0.62548 -0.19684,-1.02941 0,-0.47131 0.084,-0.85584 0.25328,-1.15746 0.17922,-0.31009 0.3997,-0.55527 0.66287,-0.73307 0.26459,-0.17922 0.532,-0.30622 0.80505,-0.38171 0.27269,-0.0744 0.50835,-0.11324 0.70556,-0.11324 v 1.75013 c -0.21661,0 -0.37642,0.0332 -0.47979,0.0995 -0.0935,0.0646 -0.15557,0.13617 -0.18308,0.21061 -0.0194,0.0759 -0.0289,0.13653 -0.0289,0.18344 0,0.16934 0.0797,0.32915 0.23954,0.48084 0.16968,0.14041 0.43427,0.27693 0.79092,0.40781 0.3669,0.12277 0.84208,0.24942 1.42523,0.38171 0.18874,0.0374 0.37183,0.10759 0.55104,0.21237 0.18732,0.10336 0.35701,0.23989 0.5073,0.40922 0.14992,0.16828 0.27269,0.3803 0.36653,0.63394 0.0949,0.24518 0.14182,0.53587 0.14182,0.87489 0,0.53622 -0.12277,0.99766 -0.36654,1.3836 -0.23565,0.37641 -0.55527,0.66287 -0.96062,0.86007 -0.40357,0.19826 -0.8516,0.29633 -1.34091,0.29633 z m -0.63359,0 c -0.60219,0 -1.09149,-0.11183 -1.4679,-0.33761 -0.36795,-0.22613 -0.64065,-0.50447 -0.81845,-0.83255 -0.16933,-0.33902 -0.25506,-0.67804 -0.25506,-1.01706 l 1.75013,-0.32385 c 0,0.14076 0.0388,0.26741 0.11325,0.38029 0.0854,0.10337 0.18873,0.18909 0.31009,0.25506 0.12241,0.055 0.24518,0.0882 0.36794,0.0977 z m 1.42487,-5.67231 c 0,-0.23566 -0.0607,-0.40499 -0.18344,-0.50835 -0.11289,-0.10337 -0.23566,-0.16934 -0.36654,-0.19721 -0.13229,-0.037 -0.22189,-0.0564 -0.26881,-0.0564 l 0.0138,-1.75013 c 0.5087,0 0.95108,0.11324 1.32715,0.33902 0.38593,0.22613 0.68227,0.5087 0.889,0.84631 0.21625,0.33902 0.32385,0.68192 0.32385,1.03082 z m 5.74358,5.60176 c -0.63112,0 -1.12042,-0.10725 -1.46756,-0.32385 -0.34889,-0.21626 -0.59266,-0.51788 -0.73448,-0.90382 -0.13088,-0.39405 -0.1972,-0.85584 -0.1972,-1.38218 v -3.61315 h -0.98813 v -1.82034 h 0.98813 v -2.06022 h 1.89053 v 2.06022 h 0.93169 v 1.83551 h -0.93169 v 3.73838 c 0,0.10337 0.0332,0.21661 0.0995,0.33902 0.0645,0.12277 0.20672,0.18345 0.42298,0.18345 h 0.40922 l 0.42298,1.94698 z m 4.03472,0 c -0.4131,0 -0.77999,-0.0744 -1.10102,-0.22578 -0.31009,-0.15981 -0.56903,-0.35701 -0.77576,-0.59267 -0.20673,-0.23424 -0.3623,-0.47413 -0.46567,-0.71931 -0.10336,-0.24377 -0.15451,-0.46038 -0.15451,-0.64911 v -3.69711 c 0,-0.18768 0.0511,-0.40393 0.15451,-0.64911 0.10337,-0.24413 0.25894,-0.47978 0.46567,-0.70556 0.21625,-0.23566 0.47943,-0.42721 0.79093,-0.57891 0.31009,-0.15028 0.6671,-0.22578 1.07209,-0.22578 v 1.77906 c -0.12241,0 -0.23001,0.0275 -0.32526,0.084 -0.084,0.0564 -0.15417,0.12242 -0.21061,0.19685 -0.0469,0.0759 -0.0702,0.1517 -0.0702,0.22613 v 0.70556 h 2.10149 v -0.69039 c 0,-0.15169 -0.0374,-0.26458 -0.11324,-0.33902 -0.0744,-0.0758 -0.16792,-0.12276 -0.28116,-0.14181 -0.11289,-0.0275 -0.22578,-0.0413 -0.33902,-0.0413 v -1.77906 c 0.38594,0 0.76623,0.0893 1.14265,0.26847 0.38558,0.17921 0.70555,0.42862 0.96026,0.74824 0.26352,0.31997 0.3944,0.69603 0.3944,1.12889 v 2.66629 h -3.86538 v 1.04458 c 0,0.0663 0.0176,0.13652 0.0564,0.21237 0.037,0.0646 0.0977,0.121 0.18309,0.16933 0.0938,0.0469 0.22049,0.0702 0.3803,0.0702 z m 0.74824,0 v -1.72121 c 0.1972,0 0.36266,-0.0328 0.49354,-0.0991 0.13229,-0.066 0.23565,-0.15028 0.3115,-0.25364 0.0744,-0.11289 0.13088,-0.23566 0.16792,-0.36654 l 1.53952,0.57891 c -0.0663,0.30057 -0.21237,0.59655 -0.4385,0.889 -0.22578,0.28081 -0.51647,0.51647 -0.87489,0.70555 -0.34713,0.17745 -0.74683,0.26706 -1.19909,0.26706 z m 3.58457,-5.34811 c 0,-0.39406 0.0603,-0.75636 0.1831,-1.08585 0.12276,-0.3295 0.29633,-0.61172 0.52246,-0.84738 0.22578,-0.24412 0.49318,-0.43285 0.80469,-0.56374 0.31009,-0.13229 0.65299,-0.19826 1.0294,-0.19826 v 1.83551 c -0.14076,0 -0.26317,0.037 -0.36653,0.11289 -0.0938,0.0744 -0.16969,0.18344 -0.22613,0.32385 -0.0564,0.1404 -0.084,0.31009 -0.084,0.50835 v 5.26274 h -1.86302 z m 3.92325,0.0854 c 0,-0.19826 -0.0289,-0.36795 -0.0854,-0.50835 -0.0469,-0.14041 -0.12276,-0.24942 -0.22613,-0.32385 -0.10336,-0.0759 -0.22613,-0.11289 -0.36653,-0.11289 v -1.83551 c 0.37606,0 0.71931,0.066 1.03081,0.19826 0.3101,0.13089 0.57715,0.31962 0.80328,0.56374 0.22613,0.23566 0.3997,0.51788 0.52246,0.84738 0.12242,0.32949 0.18309,0.69179 0.18309,1.08585 v 5.34811 h -1.8616 z m 5.45958,5.26274 c -0.46002,0 -0.85019,-0.0744 -1.16981,-0.22578 -0.3115,-0.15981 -0.56515,-0.35701 -0.762,-0.59267 -0.19861,-0.23424 -0.34466,-0.47413 -0.43815,-0.71931 -0.0843,-0.25365 -0.127,-0.4699 -0.127,-0.64911 v -3.69711 c 0,-0.18768 0.0469,-0.40393 0.14076,-0.64911 0.0949,-0.24413 0.23954,-0.47978 0.43815,-0.70556 0.20673,-0.23566 0.46567,-0.42721 0.77576,-0.57891 0.31962,-0.15028 0.69603,-0.22578 1.12854,-0.22578 v 1.80658 c -0.15981,0 -0.29069,0.0233 -0.39406,0.0702 -0.0953,0.0385 -0.16122,0.0854 -0.19826,0.14182 -0.0374,0.0564 -0.0568,0.11324 -0.0568,0.16968 v 3.66819 c 0,0.0938 0.0236,0.16968 0.0705,0.22613 0.048,0.0564 0.11853,0.0991 0.21202,0.12665 0.10336,0.0194 0.23001,0.0332 0.38029,0.0427 z m 0.63536,0.0138 v -1.81893 c 0.16968,0 0.30586,-0.0152 0.40922,-0.0427 0.11324,-0.037 0.19861,-0.0991 0.25506,-0.18309 0.0564,-0.0953 0.084,-0.22614 0.084,-0.39582 v -0.46567 l 1.7212,0.66287 c 0.01,0.40499 -0.1076,0.7814 -0.35278,1.12995 -0.23424,0.33761 -0.54574,0.61066 -0.93168,0.81738 -0.37606,0.20779 -0.77012,0.30586 -1.18498,0.2974 z m 0.57891,-5.16326 v -0.46602 c 0,-0.15981 -0.0236,-0.28222 -0.0706,-0.36795 -0.0466,-0.084 -0.11712,-0.14464 -0.21202,-0.18309 -0.084,-0.0374 -0.18344,-0.0564 -0.29633,-0.0564 v -1.82034 c 0.42439,0 0.80892,0.10443 1.15746,0.31115 0.3489,0.19721 0.62583,0.46602 0.83256,0.80363 0.20672,0.33902 0.31009,0.71085 0.31009,1.11478 z m 2.97779,5.1495 v -7.93045 h 1.89054 v 7.93045 z m 0.93169,-8.62083 c -0.28258,0 -0.52776,-0.0991 -0.73448,-0.29634 -0.19721,-0.20814 -0.29634,-0.44802 -0.29634,-0.72072 0,-0.2727 0.0991,-0.50694 0.29634,-0.70556 0.20672,-0.20672 0.4519,-0.31009 0.73448,-0.31009 0.2727,0 0.50694,0.10337 0.70555,0.31009 0.20673,0.19862 0.3101,0.43286 0.3101,0.70556 0,0.2727 -0.10337,0.51258 -0.3101,0.72072 -0.19861,0.19721 -0.43285,0.29634 -0.70555,0.29634 z m 2.31352,8.62083 v -10.10356 h 2.0327 v 10.10356 z m 6.08153,0.0705 v -1.778 c 0.11289,0 0.23566,-0.0233 0.36795,-0.0702 0.13088,-0.0469 0.24377,-0.11712 0.33761,-0.21202 0.0949,-0.0938 0.14181,-0.21096 0.14181,-0.35278 0,-0.18768 -0.0938,-0.33761 -0.28257,-0.45085 -0.17921,-0.12241 -0.40922,-0.22189 -0.6918,-0.29598 -0.2727,-0.0857 -0.5595,-0.16545 -0.85972,-0.23989 -0.2921,-0.0758 -0.55139,-0.16545 -0.77717,-0.26881 -0.20673,-0.0938 -0.41345,-0.23001 -0.62018,-0.40923 -0.19861,-0.17921 -0.36654,-0.40922 -0.50871,-0.69179 -0.13088,-0.28258 -0.19685,-0.62548 -0.19685,-1.02941 0,-0.47131 0.084,-0.85584 0.25365,-1.15746 0.17886,-0.31009 0.39935,-0.55527 0.66252,-0.73307 0.26458,-0.17922 0.53199,-0.30622 0.80504,-0.38171 0.27269,-0.0759 0.50835,-0.11324 0.70555,-0.11324 v 1.75013 c -0.2166,0 -0.37641,0.0332 -0.47978,0.0995 -0.0935,0.0646 -0.15557,0.13617 -0.18309,0.21061 -0.0194,0.0759 -0.0289,0.13653 -0.0289,0.18344 0,0.16934 0.0797,0.32915 0.23954,0.48084 0.16969,0.14041 0.43286,0.27693 0.79128,0.40781 0.36654,0.12277 0.84173,0.24942 1.42487,0.38171 0.18874,0.0374 0.37183,0.10759 0.54963,0.21237 0.18873,0.10336 0.35842,0.23989 0.5087,0.40922 0.14993,0.16828 0.2727,0.3803 0.36654,0.63394 0.0949,0.24518 0.14182,0.53587 0.14182,0.87489 0,0.53622 -0.12277,0.99766 -0.36654,1.3836 -0.23566,0.37641 -0.55527,0.66287 -0.96061,0.86007 -0.40358,0.19826 -0.85161,0.29633 -1.34056,0.29633 z m -0.63394,0 c -0.60219,0 -1.09149,-0.11324 -1.46756,-0.33761 -0.36794,-0.22613 -0.64099,-0.50447 -0.81879,-0.83396 -0.16934,-0.33761 -0.25471,-0.67663 -0.25471,-1.01565 l 1.75013,-0.32385 c 0,0.14076 0.037,0.26741 0.11289,0.38029 0.0854,0.10337 0.18874,0.18909 0.31009,0.25365 0.12242,0.0565 0.24518,0.0896 0.36795,0.0991 z m 1.42487,-5.67231 c 0,-0.23566 -0.0621,-0.40499 -0.18345,-0.50835 -0.11288,-0.10337 -0.23565,-0.16934 -0.36794,-0.19721 -0.13088,-0.037 -0.22049,-0.0564 -0.26741,-0.0564 l 0.0141,-1.75013 c 0.50836,0 0.95074,0.11324 1.3268,0.33902 0.38594,0.22613 0.68227,0.5087 0.889,0.84631 0.21625,0.33902 0.32385,0.68192 0.32385,1.03082 z m 6.60365,5.60176 v -5.48852 h -0.98813 v -1.83409 h 0.98813 v -0.55139 c 0,-0.16934 0.0466,-0.37606 0.14181,-0.62019 0.0938,-0.24518 0.23989,-0.4893 0.43674,-0.73448 0.1972,-0.24377 0.44662,-0.4505 0.74824,-0.62018 0.30057,-0.16934 0.65335,-0.25894 1.05834,-0.26847 h 0.94544 l -0.42298,1.82034 h -0.50871 c -0.1404,0 -0.24941,0.0332 -0.32526,0.0991 -0.0741,0.0663 -0.12664,0.13088 -0.15416,0.1972 -0.0194,0.066 -0.0289,0.10866 -0.0289,0.12665 v 0.55139 h 1.01706 v 1.83409 h -1.01706 v 5.48852 z m 3.92324,0 v -8.04334 h 1.91805 v 0.89006 c 0.11289,-0.14181 0.26458,-0.28257 0.45191,-0.42439 0.19861,-0.15028 0.42333,-0.27693 0.67804,-0.38029 0.25364,-0.10337 0.52246,-0.15593 0.80362,-0.15593 0.0854,0 0.16934,0 0.25471,0 0.0843,0 0.16969,0 0.25365,0 l -0.43674,1.89089 c -0.33902,0 -0.66428,0.0991 -0.97437,0.29633 -0.30057,0.18874 -0.54998,0.42827 -0.74825,0.72073 -0.18732,0.29068 -0.28257,0.59231 -0.28257,0.9024 v 4.30354 z m 7.57766,0.0138 c -0.33902,0 -0.66428,-0.0607 -0.97437,-0.1831 -0.30021,-0.12135 -0.56903,-0.29633 -0.80468,-0.52246 -0.23425,-0.22437 -0.42299,-0.49742 -0.56374,-0.81703 -0.1323,-0.32103 -0.19685,-0.67804 -0.19685,-1.07351 v -2.76577 c 0,-0.39406 0.0607,-0.75636 0.18309,-1.08585 0.12135,-0.3295 0.29633,-0.61172 0.52246,-0.84738 0.22472,-0.24412 0.49319,-0.43285 0.80328,-0.56374 0.31009,-0.13229 0.65475,-0.19826 1.03081,-0.19826 v 1.83551 c -0.14181,0 -0.26317,0.037 -0.36794,0.11289 -0.0938,0.0744 -0.16793,0.18344 -0.22472,0.32385 -0.0564,0.1404 -0.0854,0.31009 -0.0854,0.50835 v 2.6102 c 0,0.15981 0.0289,0.30586 0.0854,0.43815 0.0568,0.12136 0.13652,0.22049 0.23989,0.29633 0.10336,0.0646 0.22048,0.0977 0.35277,0.0977 z m 0.70556,0 v -1.8341 c 0.13088,0 0.24941,-0.0332 0.35278,-0.0977 0.10336,-0.0758 0.18344,-0.17497 0.23989,-0.29633 0.0564,-0.13229 0.084,-0.27834 0.084,-0.43815 v -2.6102 c 0,-0.19826 -0.0275,-0.36795 -0.084,-0.50835 -0.0469,-0.14041 -0.12277,-0.24942 -0.22613,-0.32385 -0.10337,-0.0759 -0.22578,-0.11289 -0.36654,-0.11289 v -1.83551 c 0.37641,0 0.71931,0.066 1.0294,0.19826 0.31151,0.13089 0.57891,0.31962 0.80469,0.56374 0.22613,0.23566 0.3997,0.51788 0.52246,0.84738 0.12242,0.32949 0.1831,0.69179 0.1831,1.08585 v 2.76577 c 0,0.39547 -0.0702,0.75248 -0.21202,1.07351 -0.13087,0.31961 -0.31432,0.59266 -0.54998,0.81703 -0.23566,0.22613 -0.50835,0.40111 -0.81844,0.52246 -0.30057,0.12242 -0.6216,0.1831 -0.95921,0.1831 z m 7.35189,-0.0138 v -5.61552 c 0,-0.15981 -0.0526,-0.2921 -0.15557,-0.39546 -0.0938,-0.11289 -0.26741,-0.16934 -0.52247,-0.16934 v -1.87713 c 0.35843,0 0.66851,0.0469 0.93168,0.14217 0.26318,0.0935 0.49883,0.22049 0.70556,0.3803 0.20673,-0.16969 0.44238,-0.29634 0.70556,-0.3803 0.26317,-0.0952 0.56903,-0.14217 0.91757,-0.14217 v 1.87713 c -0.2547,0 -0.42862,0.0564 -0.52211,0.16934 -0.0938,0.11324 -0.14217,0.24412 -0.14217,0.39546 v 5.61552 z m -3.88056,0 v -5.85506 c 0,-0.19861 0.0508,-0.4191 0.15417,-0.66428 0.11324,-0.25364 0.27869,-0.49741 0.49494,-0.73307 0.21626,-0.23565 0.47943,-0.42862 0.78952,-0.57891 0.31962,-0.15028 0.6918,-0.22613 1.11478,-0.22613 v 1.87713 c -0.24377,0 -0.41346,0.066 -0.50694,0.19685 -0.0854,0.12277 -0.12842,0.24554 -0.12842,0.36795 v 5.61552 z m 7.76111,0 v -5.61552 c 0,-0.16933 -0.0469,-0.30586 -0.14181,-0.40922 -0.0938,-0.10337 -0.26741,-0.15558 -0.52247,-0.15558 v -1.87713 c 0.42439,0 0.79516,0.0801 1.11478,0.23989 0.32949,0.15028 0.60219,0.34325 0.8188,0.57891 0.21625,0.23566 0.37606,0.47942 0.48083,0.73448 0.11148,0.24377 0.16793,0.46003 0.16793,0.64911 v 5.85506 z m 6.50417,0 v -7.93045 h 1.8923 v 7.93045 z m 0.93168,-8.62083 c -0.28257,0 -0.52634,-0.0991 -0.73307,-0.29634 -0.19861,-0.20814 -0.29633,-0.44802 -0.29633,-0.72072 0,-0.2727 0.0977,-0.50694 0.29633,-0.70556 0.20673,-0.20672 0.4505,-0.31009 0.73307,-0.31009 0.2727,0 0.50836,0.10337 0.70556,0.31009 0.20673,0.19862 0.3115,0.43286 0.3115,0.70556 0,0.2727 -0.10477,0.51258 -0.3115,0.72072 -0.1972,0.19721 -0.43286,0.29634 -0.70556,0.29634 z m 5.17878,8.69138 v -1.778 c 0.11289,0 0.23566,-0.0233 0.36795,-0.0702 0.13088,-0.0469 0.24377,-0.11712 0.33761,-0.21202 0.0949,-0.0938 0.14181,-0.21096 0.14181,-0.35278 0,-0.18768 -0.0949,-0.33761 -0.28257,-0.45085 -0.17921,-0.12241 -0.40922,-0.22189 -0.6918,-0.29598 -0.2727,-0.0857 -0.55951,-0.16545 -0.85972,-0.23989 -0.2921,-0.0758 -0.55139,-0.16545 -0.77717,-0.26881 -0.20673,-0.0938 -0.41345,-0.23001 -0.62018,-0.40923 -0.19862,-0.17921 -0.36654,-0.40922 -0.50835,-0.69179 -0.13124,-0.28258 -0.19721,-0.62548 -0.19721,-1.02941 0,-0.47131 0.084,-0.85584 0.25365,-1.15746 0.17921,-0.31009 0.39934,-0.55527 0.66287,-0.73307 0.26317,-0.17922 0.53164,-0.30622 0.80469,-0.38171 0.27269,-0.0759 0.50835,-0.11324 0.70555,-0.11324 v 1.75013 c -0.21625,0 -0.37641,0.0332 -0.47978,0.0995 -0.0935,0.0646 -0.15557,0.13617 -0.18309,0.21061 -0.0194,0.0759 -0.0289,0.13653 -0.0289,0.18344 0,0.16934 0.0797,0.32915 0.23989,0.48084 0.16934,0.14041 0.43251,0.27693 0.79093,0.40781 0.36654,0.12277 0.84208,0.24942 1.42487,0.38171 0.18874,0.0374 0.37218,0.10759 0.54963,0.21237 0.18909,0.10336 0.35842,0.23989 0.5087,0.40922 0.15029,0.16828 0.2727,0.3803 0.36654,0.63394 0.0949,0.24518 0.14182,0.53587 0.14182,0.87489 0,0.53622 -0.12242,0.99766 -0.36795,1.3836 -0.23425,0.37641 -0.55386,0.66287 -0.95885,0.86007 -0.40393,0.19826 -0.85196,0.29633 -1.34091,0.29633 z m -0.63394,0 c -0.60219,0 -1.0915,-0.11324 -1.46756,-0.33761 -0.36794,-0.22613 -0.64099,-0.50447 -0.81879,-0.83396 -0.16934,-0.33761 -0.25471,-0.67663 -0.25471,-1.01565 l 1.75013,-0.32385 c 0,0.14076 0.037,0.26741 0.11289,0.38029 0.084,0.10337 0.18874,0.18909 0.31009,0.25365 0.12277,0.0565 0.24518,0.0896 0.36795,0.0991 z m 1.42487,-5.67231 c 0,-0.23566 -0.0621,-0.40499 -0.18345,-0.50835 -0.11289,-0.10337 -0.23565,-0.16934 -0.36794,-0.19721 -0.13088,-0.037 -0.22049,-0.0564 -0.26706,-0.0564 l 0.0138,-1.75013 c 0.50835,0 0.95074,0.11324 1.3268,0.33902 0.38594,0.22613 0.68227,0.5087 0.889,0.84631 0.21625,0.33902 0.32385,0.68192 0.32385,1.03082 z m 5.74216,5.60176 c -0.62971,0 -1.11901,-0.10725 -1.46755,-0.32385 -0.34714,-0.21626 -0.59267,-0.51788 -0.73308,-0.90382 -0.13229,-0.39405 -0.1972,-0.85584 -0.1972,-1.38218 v -3.61315 h -0.98778 v -1.82034 h 0.98778 v -2.06022 h 1.89089 v 2.06022 h 0.93133 v 1.83551 h -0.93133 v 3.73838 c 0,0.10337 0.0332,0.21661 0.0977,0.33902 0.0663,0.12277 0.20814,0.18345 0.42439,0.18345 h 0.40922 l 0.42334,1.94698 z m 3.72639,0 c -0.49882,0 -0.92745,-0.0935 -1.28446,-0.28223 -0.35701,-0.18767 -0.62971,-0.42333 -0.81845,-0.70555 -0.18873,-0.29104 -0.28257,-0.58314 -0.28257,-0.87383 v -0.72073 c 0,-0.0938 0.01,-0.22048 0.0289,-0.38029 0.0275,-0.16969 0.0938,-0.34855 0.1972,-0.53622 0.10336,-0.18874 0.28222,-0.34855 0.53587,-0.47943 0.15028,-0.0854 0.3489,-0.16933 0.59267,-0.25506 0.25505,-0.084 0.51823,-0.16933 0.79092,-0.25329 0.27305,-0.0938 0.53058,-0.18909 0.77576,-0.28258 0.24412,-0.10336 0.44239,-0.20672 0.59267,-0.31009 0.15981,-0.11289 0.23989,-0.23001 0.23989,-0.35278 v -0.32526 c 0,-0.10336 -0.0236,-0.19297 -0.0706,-0.2674 -0.037,-0.0854 -0.10301,-0.15029 -0.19826,-0.19826 -0.084,-0.0565 -0.20108,-0.0843 -0.35278,-0.0843 v -1.73602 c 0.54575,0 0.99766,0.12242 1.35608,0.36795 0.35666,0.23425 0.62406,0.52211 0.80328,0.85972 0.17921,0.33902 0.26881,0.64911 0.26881,0.93169 v 3.68335 c 0,0.0564 0.018,0.14605 0.0564,0.2674 0.0469,0.12242 0.15981,0.1831 0.33761,0.1831 v 1.75013 c -0.30057,0 -0.56904,-0.037 -0.80328,-0.11289 -0.22613,-0.084 -0.4191,-0.1972 -0.57891,-0.33902 -0.17921,0.15169 -0.38594,0.26458 -0.62159,0.33902 -0.23425,0.0759 -0.50306,0.11289 -0.80328,0.11289 v -1.73496 c 0.16934,0 0.29634,-0.0328 0.3803,-0.0991 0.0854,-0.066 0.14181,-0.14041 0.16968,-0.22614 0.037,-0.0935 0.0564,-0.17356 0.0564,-0.23953 v -1.15747 c -0.15029,0.0854 -0.32526,0.1651 -0.52247,0.23954 -0.19685,0.0759 -0.39969,0.14217 -0.60642,0.19861 -0.20638,0.0469 -0.39123,0.0935 -0.55104,0.14041 -0.15028,0.0469 -0.25753,0.0854 -0.32385,0.11289 -0.12277,0.0568 -0.18344,0.16545 -0.18344,0.32526 v 0.1972 c 0,0.11289 0.018,0.20673 0.0568,0.28258 0.0466,0.0744 0.12665,0.13088 0.23954,0.16933 0.12277,0.0374 0.29633,0.0564 0.52246,0.0564 z m -0.64911,-5.40456 -1.63724,-0.62018 c 0,-0.38594 0.11324,-0.72884 0.33902,-1.03082 0.23424,-0.30021 0.52634,-0.5401 0.87524,-0.71931 0.35666,-0.17921 0.71932,-0.26847 1.08585,-0.26847 v 1.73602 c -0.14076,0 -0.26317,0.0332 -0.36653,0.0995 -0.0938,0.0645 -0.16969,0.16369 -0.22614,0.29633 -0.0469,0.13088 -0.0702,0.30021 -0.0702,0.50694 z m 5.10822,0.0565 c 0,-0.39406 0.0607,-0.75636 0.18345,-1.08585 0.12135,-0.3295 0.29633,-0.61172 0.52211,-0.84738 0.22472,-0.24412 0.49354,-0.43285 0.80363,-0.56374 0.3115,-0.13229 0.6544,-0.19826 1.03081,-0.19826 v 1.83551 c -0.14217,0 -0.26317,0.037 -0.36653,0.11289 -0.0952,0.0744 -0.16969,0.18344 -0.22613,0.32385 -0.0565,0.1404 -0.0854,0.31009 -0.0854,0.50835 v 5.26274 h -1.86196 z m 3.92219,0.0854 c 0,-0.19826 -0.0279,-0.36795 -0.0843,-0.50835 -0.0466,-0.14041 -0.12241,-0.24942 -0.22577,-0.32385 -0.10337,-0.0759 -0.22614,-0.11289 -0.36654,-0.11289 v -1.83551 c 0.37606,0 0.71931,0.066 1.0294,0.19826 0.31115,0.13089 0.57856,0.31962 0.80469,0.56374 0.22578,0.23566 0.3997,0.51788 0.52211,0.84738 0.12277,0.32949 0.18345,0.69179 0.18345,1.08585 v 5.34811 h -1.86302 z m 5.19359,5.26274 c -0.40499,0 -0.75247,-0.0797 -1.04457,-0.23954 -0.2921,-0.16016 -0.53587,-0.35701 -0.73449,-0.59267 -0.18732,-0.24377 -0.32914,-0.4893 -0.42298,-0.73307 -0.0938,-0.24553 -0.1404,-0.45191 -0.1404,-0.62159 v -3.66819 c 0,-0.16968 0.0466,-0.37641 0.1404,-0.62159 0.0938,-0.24377 0.23566,-0.47943 0.42298,-0.70556 0.19862,-0.23565 0.43815,-0.42862 0.72073,-0.5789 0.29069,-0.15981 0.63394,-0.23954 1.0294,-0.23954 h 0.46602 v 1.82033 h -0.46602 c -0.1404,0 -0.24941,0.0332 -0.32385,0.0991 -0.066,0.0564 -0.11289,0.11713 -0.14181,0.18345 -0.018,0.066 -0.0275,0.10336 -0.0275,0.11289 v 3.57046 c 0,0.008 0.0138,0.0469 0.0413,0.11148 0.0289,0.0568 0.0801,0.11853 0.15557,0.18485 0.0759,0.0565 0.18344,0.084 0.32526,0.084 h 0.43709 v 1.83409 z m 1.18533,0 v -10.10356 h 1.96074 l -0.0138,10.10356 z m 6.30732,0 v -9.89154 h 1.97591 v 6.05367 h 0.762 v 1.83444 h -0.762 v 2.00343 z m -3.48509,-2.00343 v -1.83444 l 2.68005,-4.59987 v 3.55529 l -0.64911,1.04458 h 0.64911 v 1.83444 z m 8.12764,2.07398 c -0.2921,0 -0.54045,-0.10336 -0.74824,-0.31009 -0.20673,-0.20673 -0.31009,-0.45614 -0.31009,-0.74824 0,-0.30057 0.10336,-0.55421 0.31009,-0.76235 0.20779,-0.20673 0.45614,-0.3101 0.74824,-0.3101 0.30022,0 0.54963,0.10337 0.74824,0.3101 0.20673,0.20814 0.3101,0.46178 0.3101,0.76235 0,0.2921 -0.10337,0.54151 -0.3101,0.74824 -0.19861,0.20673 -0.44802,0.31009 -0.74824,0.31009 z m 5.23523,0 v -1.87713 c 0.16933,0 0.30162,-0.0275 0.39546,-0.084 0.10336,-0.0564 0.17357,-0.12665 0.21061,-0.21237 0.0388,-0.084 0.0564,-0.16792 0.0564,-0.2533 v -5.68713 h 1.91982 v 5.91291 c 0,0.18768 -0.0564,0.40922 -0.16969,0.66287 -0.10336,0.24518 -0.26317,0.48507 -0.47942,0.71932 -0.21626,0.23565 -0.48931,0.43285 -0.81845,0.59407 -0.31997,0.15029 -0.69179,0.22472 -1.11477,0.22472 z m -0.64912,0 c -0.42333,0 -0.79939,-0.0744 -1.12888,-0.22472 -0.31962,-0.15169 -0.58844,-0.34466 -0.80468,-0.57891 -0.20673,-0.23565 -0.36654,-0.47519 -0.47943,-0.72072 -0.10337,-0.25365 -0.15593,-0.47943 -0.15593,-0.67663 v -5.91291 h 1.91981 v 5.68713 c 0,0.0854 0.0194,0.16934 0.0564,0.2533 0.037,0.0857 0.10335,0.15593 0.19719,0.21237 0.0949,0.0564 0.22578,0.0854 0.39547,0.0854 z m 7.2249,0 v -1.778 c 0.11288,0 0.23565,-0.0233 0.36653,-0.0702 0.1323,-0.0469 0.24553,-0.11712 0.33902,-0.21202 0.0938,-0.0938 0.14076,-0.21096 0.14076,-0.35278 0,-0.18768 -0.0938,-0.33761 -0.28258,-0.45085 -0.17779,-0.12241 -0.4078,-0.22189 -0.69038,-0.29598 -0.27305,-0.0857 -0.5595,-0.16545 -0.86149,-0.23989 -0.2921,-0.0758 -0.54963,-0.16545 -0.77576,-0.26881 -0.20672,-0.0938 -0.41345,-0.23001 -0.62159,-0.40923 -0.19685,-0.17921 -0.36654,-0.40922 -0.50694,-0.69179 -0.13229,-0.28258 -0.19862,-0.62548 -0.19862,-1.02941 0,-0.47131 0.0857,-0.85584 0.25506,-1.15746 0.1778,-0.31009 0.3997,-0.55527 0.66287,-0.73307 0.26318,-0.17922 0.532,-0.30622 0.80469,-0.38171 0.27306,-0.0759 0.5073,-0.11324 0.70556,-0.11324 v 1.75013 c -0.21626,0 -0.37607,0.0332 -0.48084,0.0995 -0.0938,0.0646 -0.15452,0.13617 -0.18345,0.21061 -0.0176,0.0759 -0.0275,0.13653 -0.0275,0.18344 0,0.16934 0.0801,0.32915 0.23987,0.48084 0.16935,0.14041 0.43286,0.27693 0.78953,0.40781 0.36794,0.12277 0.84208,0.24942 1.42628,0.38171 0.18733,0.0374 0.37077,0.10759 0.54998,0.21237 0.18873,0.10336 0.357,0.23989 0.50835,0.40922 0.15029,0.16828 0.27305,0.3803 0.36653,0.63394 0.0938,0.24518 0.14076,0.53587 0.14076,0.87489 0,0.53622 -0.12135,0.99766 -0.36654,1.3836 -0.23564,0.37641 -0.55561,0.66287 -0.9592,0.86007 -0.40534,0.19826 -0.85159,0.29633 -1.34091,0.29633 z m -0.63536,0 c -0.60219,0 -1.09114,-0.11324 -1.46756,-0.33761 -0.36653,-0.22613 -0.63923,-0.50447 -0.81844,-0.83396 -0.16969,-0.33761 -0.25365,-0.67663 -0.25365,-1.01565 l 1.75013,-0.32385 c 0,0.14076 0.0374,0.26741 0.11289,0.38029 0.0843,0.10337 0.18768,0.18909 0.3101,0.25365 0.12276,0.0565 0.24412,0.0896 0.36653,0.0991 z m 1.42487,-5.67231 c 0,-0.23566 -0.0603,-0.40499 -0.18309,-0.50835 -0.11289,-0.10337 -0.23425,-0.16934 -0.36654,-0.19721 -0.13229,-0.037 -0.22048,-0.0564 -0.26882,-0.0564 l 0.0152,-1.75013 c 0.5073,0 0.94933,0.11324 1.32574,0.33902 0.38594,0.22613 0.68192,0.5087 0.88865,0.84631 0.21661,0.33902 0.32526,0.68192 0.32526,1.03082 z"
       style="fill:#000000" />
    <g
       id="text1"
       style="stroke-width:0.829247"
       aria-label="HOPE HAS TWO DAUGHTERS - ANGER AND COURAGE. AND THEY ARE BOTH BEAUTIFUL.">
      <path
         style="line-height:1.1em"
         d="M 160.60219,59.43169 V 46.694545 h -2.38821 v -5.660954 h 2.38821 V 28.47335 h 6.2359 v 30.95834 z m -13.44476,0 V 28.47335 h 6.23589 v 12.560241 h 2.38822 v 5.660954 h -2.38822 V 59.43169 Z m 34.806,0.221131 v -6.28012 q 0.57494,0 1.06143,-0.221131 0.53071,-0.265357 0.92875,-0.663393 0.44226,-0.442262 0.66339,-1.017203 0.26536,-0.57494 0.26536,-1.28256 V 37.849305 q 0,-0.751846 -0.22113,-1.326786 -0.22113,-0.619167 -0.61917,-1.061429 -0.35381,-0.486488 -0.88452,-0.707619 -0.53072,-0.265358 -1.19411,-0.265358 v -6.235894 q 1.8575,0 3.49387,0.707619 1.68059,0.70762 2.91893,1.945953 1.28256,1.194108 1.99018,2.830477 0.75184,1.592143 0.75184,3.405417 v 13.26786 q 0,1.945953 -0.66339,3.626549 -0.61917,1.680595 -1.81327,2.963155 -1.19411,1.238334 -2.91893,1.945953 -1.6806,0.707619 -3.75923,0.707619 z m -2.47667,0 q -1.8575,0 -3.49387,-0.707619 -1.63637,-0.751845 -2.91893,-2.034405 -1.23833,-1.28256 -1.99018,-2.963156 -0.70762,-1.680595 -0.70762,-3.538096 v -13.26786 q 0,-1.813274 0.70762,-3.405417 0.75185,-1.636369 1.99018,-2.874703 1.28256,-1.238334 2.91893,-1.901727 1.6806,-0.707619 3.5381,-0.707619 v 6.235894 q -0.66339,0 -1.19411,0.265358 -0.53071,0.221131 -0.92875,0.707619 -0.35381,0.442262 -0.57494,1.061429 -0.22113,0.57494 -0.22113,1.326786 v 12.339109 q 0,0.70762 0.22113,1.326786 0.26536,0.574941 0.66339,1.017203 0.39804,0.398036 0.88453,0.619167 0.53071,0.221131 1.10565,0.221131 z M 194.74479,59.43169 V 28.47335 h 6.2359 v 30.95834 z m 8.62411,-14.108158 v -6.103215 h 1.45946 q 0.35381,0 0.88453,-0.08845 0.53071,-0.08845 0.92875,-0.57494 0.44226,-0.486488 0.44226,-1.63637 0,-1.149881 -0.44226,-1.636369 -0.39804,-0.486488 -0.92875,-0.574941 -0.53072,-0.08845 -0.88453,-0.08845 H 203.3689 V 28.47335 h 1.63637 q 3.31696,0 5.13024,1.105655 1.81327,1.105655 2.52089,3.051608 0.75185,1.945953 0.75185,4.466846 0,2.742025 -0.8403,4.599525 -0.79607,1.813274 -2.65357,2.742024 -1.81328,0.884524 -4.90911,0.884524 z M 215.92914,59.43169 V 28.47335 h 16.09834 v 6.191668 h -9.86244 v 6.280121 h 5.70518 v 6.235894 h -5.70518 v 6.014763 h 9.86244 v 6.235894 z m 43.16477,0 V 46.694545 h -2.38822 v -5.660954 h 2.38822 V 28.47335 h 6.23589 v 30.95834 z m -13.44477,0 V 28.47335 h 6.23589 v 12.560241 h 2.38822 v 5.660954 h -2.38822 V 59.43169 Z m 37.76916,0 -0.88452,-3.759227 h -4.59953 l 1.32679,-6.103215 h 1.59214 L 276.16521,28.47335 h 6.14744 l 7.29732,30.95834 z m -14.90423,0 5.70518,-25.739648 h 0.6634 l 2.65357,12.383336 -2.91893,13.356312 z m 33.34656,0.132679 v -5.749406 q 0.48649,-0.04423 0.97297,-0.265357 0.48649,-0.265358 0.88453,-0.663393 0.39803,-0.442262 0.61916,-0.972977 0.26536,-0.530714 0.26536,-1.149881 0,-1.105655 -0.66339,-1.945953 -0.66339,-0.884524 -1.72482,-1.503691 -1.01721,-0.663393 -2.07863,-1.105655 -1.06143,-0.442262 -1.90173,-0.707619 -0.8403,-0.265357 -1.10566,-0.353809 -1.28256,-0.398036 -2.56512,-1.459465 -1.23833,-1.061429 -2.07863,-2.742024 -0.79607,-1.724822 -0.79607,-3.936132 0,-2.343989 0.8403,-3.936132 0.88452,-1.636369 2.16708,-2.609346 1.28256,-1.017202 2.56512,-1.503691 1.32679,-0.486488 2.16709,-0.486488 v 5.837859 q -0.35381,0.132678 -0.70762,0.353809 -0.30959,0.221131 -0.57494,0.574941 -0.22113,0.353809 -0.39804,0.751845 -0.13268,0.398036 -0.13268,0.840298 0,0.796072 0.39804,1.371012 0.44226,0.574941 1.19411,1.017203 0.75184,0.442262 1.68059,0.884524 0.97298,0.398036 2.07863,0.840298 1.10566,0.442262 2.21131,1.061428 1.41524,0.751846 2.6978,1.857501 1.28256,1.105655 2.12286,2.653572 0.8403,1.503691 0.8403,3.626548 0,2.520894 -1.23834,4.687977 -1.23833,2.122858 -3.31696,3.449644 -2.03441,1.28256 -4.42262,1.28256 z m -2.43244,0 q -1.81328,0 -3.31697,-0.751846 -1.45946,-0.751845 -2.56512,-1.901726 -1.06143,-1.149881 -1.63637,-2.343989 -0.57494,-1.194107 -0.57494,-2.122857 l 5.61673,-1.990179 q 0,0.884524 0.39804,1.592143 0.39803,0.663393 0.97297,1.105655 0.57494,0.442262 1.10566,0.663393 z m 4.42262,-22.688041 q 0,-0.751845 -0.35381,-1.28256 -0.30959,-0.530714 -0.75185,-0.840297 -0.44226,-0.35381 -0.88452,-0.442262 V 28.47335 q 1.76905,0 3.18428,0.707619 1.41524,0.663393 2.43244,1.724822 1.01721,1.061429 1.54792,2.167084 0.57494,1.105655 0.57494,1.901727 z"
         id="path2" />
      <path
         style="line-height:1.1em"
         d="M 78.297297,108.08051 V 83.225387 h -6.457025 v -6.103216 h 19.149944 v 6.103216 h -6.457025 v 24.855123 z m 22.776463,0 -8.977917,-30.958339 h 6.368572 l 7.031965,23.970599 -2.34399,6.98774 z m 13.79858,0 -8.97792,-30.958339 h 6.36857 l 6.98774,23.970599 -2.29976,6.98774 z m -8.49143,-12.825597 -2.91893,-9.906668 2.43244,-8.226074 h 6.36857 l -5.43982,18.132742 z m 13.97547,0 -2.91892,-9.906668 2.43244,-8.226074 h 6.36857 l -5.43982,18.132742 z m 19.68066,13.046727 v -6.28012 q 0.57494,0 1.06143,-0.22113 0.53071,-0.26536 0.92875,-0.66339 0.44226,-0.44226 0.66339,-1.0172 0.26536,-0.574945 0.26536,-1.282564 v -12.33911 q 0,-0.751846 -0.22114,-1.326786 -0.22113,-0.619167 -0.61916,-1.061429 -0.35381,-0.486488 -0.88453,-0.707619 -0.53071,-0.265357 -1.1941,-0.265357 V 76.90104 q 1.8575,0 3.49387,0.70762 1.68059,0.707619 2.91893,1.945952 1.28256,1.194108 1.99017,2.830477 0.75185,1.592143 0.75185,3.405418 v 13.26786 q 0,1.945953 -0.66339,3.626543 -0.61917,1.6806 -1.81328,2.96316 -1.1941,1.23833 -2.91893,1.94595 -1.68059,0.70762 -3.75922,0.70762 z m -2.47667,0 q -1.8575,0 -3.49387,-0.70762 -1.63637,-0.75184 -2.91893,-2.0344 -1.23833,-1.28256 -1.99018,-2.96316 -0.70762,-1.68059 -0.70762,-3.538093 v -13.26786 q 0,-1.813275 0.70762,-3.405418 0.75185,-1.636369 1.99018,-2.874703 1.28256,-1.238333 2.91893,-1.901726 1.6806,-0.70762 3.5381,-0.70762 v 6.235895 q -0.6634,0 -1.19411,0.265357 -0.53072,0.221131 -0.92875,0.707619 -0.35381,0.442262 -0.57494,1.061429 -0.22113,0.57494 -0.22113,1.326786 v 12.33911 q 0,0.707619 0.22113,1.326784 0.26535,0.57494 0.66339,1.0172 0.39804,0.39804 0.88452,0.61917 0.53072,0.22113 1.10566,0.22113 z m 34.05414,-0.22113 v -6.23589 q 0.0884,0 0.48649,-0.0885 0.39804,-0.0884 0.8403,-0.3538 0.48649,-0.26536 0.79607,-0.75185 0.35381,-0.48649 0.35381,-1.28256 V 85.834733 q 0,-0.08845 -0.0884,-0.442262 -0.0885,-0.398036 -0.35381,-0.840298 -0.26536,-0.486488 -0.75185,-0.840298 -0.48649,-0.353809 -1.28256,-0.353809 v -6.235895 q 2.38822,0 4.02459,0.972977 1.68059,0.92875 2.69779,2.343988 1.01721,1.415239 1.5037,2.874703 0.48648,1.459465 0.48648,2.520894 V 99.36795 q 0,2.43244 -0.97297,4.11304 -0.97298,1.68059 -2.38822,2.69779 -1.41524,1.01721 -2.8747,1.45947 -1.45946,0.44226 -2.47667,0.44226 z m -8.62411,0 V 77.122171 h 6.2359 v 30.958339 z m 35.33674,0 -0.88452,-3.75923 h -4.59953 l 1.32679,-6.103211 h 1.59214 l -4.68797,-21.095898 h 6.14744 l 7.29732,30.958339 z m -14.90423,0 5.70518,-25.739647 h 0.6634 l 2.65357,12.383336 -2.91893,13.356311 z m 32.06399,0.22113 q -0.97298,0 -2.47667,-0.48649 -1.45946,-0.48648 -2.8747,-1.50369 -1.41524,-1.0172 -2.38822,-2.69779 -0.97297,-1.6806 -0.97297,-4.068815 V 77.122171 h 6.28012 v 22.422684 q 0,0.751845 0.30958,1.238335 0.35381,0.48649 0.79607,0.75184 0.48649,0.26536 0.8403,0.39804 0.39804,0.0884 0.48649,0.0884 z m 2.38821,0 v -6.28012 q 0.0885,0 0.44227,-0.0884 0.39803,-0.13268 0.84029,-0.39804 0.48649,-0.26535 0.8403,-0.75184 0.35381,-0.48649 0.35381,-1.238335 V 77.122171 h 6.19167 v 22.422684 q 0,2.388215 -0.97298,4.068815 -0.92875,1.68059 -2.34399,2.74202 -1.41523,1.0172 -2.8747,1.50369 -1.45946,0.44226 -2.47667,0.44226 z m 20.4767,0 q -0.97297,0 -2.43244,-0.44226 -1.45946,-0.48649 -2.91893,-1.50369 -1.41523,-1.06143 -2.38821,-2.6978 -0.92875,-1.68059 -0.92875,-4.068809 V 84.905983 q 0.13268,-1.061429 0.66339,-2.432441 0.57494,-1.371013 1.59214,-2.653572 1.06143,-1.28256 2.65358,-2.078632 1.59214,-0.840298 3.75922,-0.840298 v 6.235895 q -1.0172,0 -1.54791,0.486488 -0.53072,0.486488 -0.70762,1.061429 -0.13268,0.57494 -0.13268,0.92875 v 13.975479 q 0,0.751849 0.30958,1.238329 0.35381,0.48649 0.79607,0.75185 0.44227,0.26536 0.79608,0.39804 0.39803,0.0884 0.48648,0.0884 z m 2.38822,0 v -6.23589 q 0.0885,0 0.39803,-0.13268 0.30959,-0.17691 0.6634,-0.48649 0.35381,-0.30958 0.57494,-0.75184 0.26536,-0.44227 0.26536,-1.017207 v -1.459464 h -1.90173 v -5.749406 h 8.18185 v 7.828037 q 0,1.32679 -0.75185,2.74202 -0.75185,1.41524 -1.99018,2.60935 -1.19411,1.14988 -2.65357,1.90173 -1.41524,0.75184 -2.78625,0.75184 z m 2.07863,-20.786312 v -1.724821 q 0,-0.663393 -0.1769,-1.149882 -0.17691,-0.530714 -0.48649,-0.840297 -0.30959,-0.309584 -0.70762,-0.486489 -0.35381,-0.176904 -0.70762,-0.176904 V 76.90104 q 2.07863,0 3.93613,1.194108 1.8575,1.194107 3.05161,3.14006 1.19411,1.901727 1.19411,4.024584 z m 22.82072,20.565182 V 95.343366 h -2.38822 v -5.660954 h 2.38822 V 77.122171 h 6.23589 v 30.958339 z m -13.44477,0 V 77.122171 h 6.2359 v 12.560241 h 2.38821 v 5.660954 h -2.38821 v 12.737144 z m 28.57011,0 V 83.225387 h -6.45703 v -6.103216 h 19.14995 v 6.103216 h -6.45703 v 24.855123 z m 15.21378,0 V 77.122171 h 16.09834 v 6.191668 h -9.86244 v 6.280121 h 5.70518 v 6.235894 h -5.70518 v 6.014766 h 9.86244 v 6.23589 z m 33.39079,0 -0.66339,-7.87226 q -0.13268,-1.724824 -0.57494,-2.742027 -0.39804,-1.061428 -1.23833,-1.547917 -0.79607,-0.486488 -2.16709,-0.486488 h -0.48649 v -5.528275 h 0.57495 q 1.99017,0 2.8747,-1.061429 0.92875,-1.105655 0.92875,-2.432441 0,-1.592143 -1.10566,-2.476667 -1.06143,-0.92875 -2.69779,-0.92875 h -0.57495 v -5.882085 h 0.97298 q 2.96316,0 4.99756,1.105655 2.07863,1.105655 3.14006,3.051608 1.10566,1.901727 1.10566,4.42262 0,2.255536 -0.8403,3.980358 -0.79607,1.724822 -2.16708,2.830477 1.41523,0.884524 2.07863,2.653572 0.70762,1.724822 0.84029,3.316965 l 0.75185,9.597084 z m -13.75434,0 V 77.122171 h 6.23589 v 30.958339 z m 31.88705,0.13268 v -5.74941 q 0.48649,-0.0442 0.97298,-0.26535 0.48649,-0.26536 0.88452,-0.6634 0.39804,-0.44226 0.61917,-0.97297 0.26536,-0.53072 0.26536,-1.149884 0,-1.105655 -0.6634,-1.945953 -0.66339,-0.884524 -1.72482,-1.50369 -1.0172,-0.663393 -2.07863,-1.105655 -1.06143,-0.442262 -1.90173,-0.70762 -0.84029,-0.265357 -1.10565,-0.353809 -1.28256,-0.398036 -2.56512,-1.459465 -1.23833,-1.061429 -2.07863,-2.742024 -0.79607,-1.724822 -0.79607,-3.936132 0,-2.343989 0.84029,-3.936132 0.88453,-1.636369 2.16709,-2.609346 1.28256,-1.017202 2.56512,-1.50369 1.32678,-0.486489 2.16708,-0.486489 v 5.837859 q -0.35381,0.132678 -0.70762,0.353809 -0.30958,0.221131 -0.57494,0.574941 -0.22113,0.35381 -0.39803,0.751845 -0.13268,0.398036 -0.13268,0.840298 0,0.796072 0.39803,1.371012 0.44227,0.574941 1.19411,1.017203 0.75185,0.442262 1.6806,0.884524 0.97297,0.398036 2.07863,0.840298 1.10565,0.442262 2.21131,1.061429 1.41524,0.751845 2.6978,1.8575 1.28256,1.105655 2.12285,2.653572 0.8403,1.503691 0.8403,3.626548 0,2.520891 -1.23833,4.687981 -1.23834,2.12285 -3.31697,3.44964 -2.0344,1.28256 -4.42262,1.28256 z m -2.43244,0 q -1.81327,0 -3.31696,-0.75185 -1.45947,-0.75184 -2.56512,-1.90172 -1.06143,-1.14988 -1.63637,-2.34399 -0.57494,-1.19411 -0.57494,-2.12286 l 5.61672,-1.990177 q 0,0.884524 0.39804,1.592147 0.39804,0.66339 0.97298,1.10565 0.57494,0.44226 1.10565,0.66339 z m 4.42262,-22.688041 q 0,-0.751845 -0.35381,-1.282559 -0.30958,-0.530715 -0.75184,-0.840298 -0.44227,-0.35381 -0.88453,-0.442262 v -5.837859 q 1.76905,0 3.18429,0.70762 1.41524,0.663393 2.43244,1.724821 1.0172,1.061429 1.54792,2.167084 0.57494,1.105655 0.57494,1.901727 z m 20.25563,12.383336 v -5.616727 h 13.97548 v 5.616727 z"
         id="path3" />
      <path
         style="line-height:1.1em"
         d="m 62.420158,156.72933 -0.884524,-3.75922 H 56.93611 l 1.326786,-6.10322 h 1.592143 l -4.687977,-21.0959 h 6.147441 l 7.297323,30.95834 z m -14.904229,0 5.70518,-25.73965 h 0.663393 l 2.653572,12.38334 -2.918929,13.35631 z m 40.511195,0 L 71.30962,129.8398 v -4.06881 h 5.086013 l 14.594646,23.52834 v 7.43 z m -16.717504,0 v -21.75929 h 0.353809 l 5.882085,9.46441 v 12.29488 z m 19.326849,-12.56024 -5.882084,-9.46441 v -8.93369 h 6.235894 v 18.3981 z m 12.560211,12.78137 q -0.97298,0 -2.43244,-0.44226 -1.459465,-0.48649 -2.91893,-1.50369 -1.415238,-1.06143 -2.388215,-2.6978 -0.92875,-1.68059 -0.92875,-4.06881 v -14.6831 q 0.132679,-1.06143 0.663393,-2.43244 0.574941,-1.37101 1.592143,-2.65357 1.061429,-1.28256 2.653572,-2.07863 1.592147,-0.8403 3.759227,-0.8403 v 6.2359 q -1.0172,0 -1.54792,0.48648 -0.53071,0.48649 -0.70762,1.06143 -0.13267,0.57494 -0.13267,0.92875 v 13.97548 q 0,0.75185 0.30958,1.23834 0.35381,0.48648 0.79607,0.75184 0.44226,0.26536 0.79607,0.39804 0.39804,0.0885 0.48649,0.0885 z m 2.38822,0 v -6.23589 q 0.0884,0 0.39803,-0.13268 0.30958,-0.1769 0.66339,-0.48649 0.35381,-0.30958 0.57494,-0.75184 0.26536,-0.44226 0.26536,-1.01721 v -1.45946 h -1.90172 v -5.74941 h 8.18184 v 7.82804 q 0,1.32679 -0.75184,2.74203 -0.75185,1.41523 -1.99018,2.60934 -1.19411,1.14988 -2.65357,1.90173 -1.41524,0.75184 -2.78625,0.75184 z m 2.07863,-20.78631 v -1.72482 q 0,-0.6634 -0.17691,-1.14988 -0.1769,-0.53072 -0.48649,-0.8403 -0.30958,-0.30958 -0.70762,-0.48649 -0.35381,-0.1769 -0.70761,-0.1769 v -6.2359 q 2.07863,0 3.93613,1.19411 1.8575,1.19411 3.0516,3.14006 1.19411,1.90173 1.19411,4.02458 z m 9.4644,20.56518 v -30.95834 h 16.09834 v 6.19167 h -9.86245 v 6.28012 h 5.70518 v 6.2359 h -5.70518 v 6.01476 h 9.86245 v 6.23589 z m 33.39079,0 -0.66339,-7.87226 q -0.13268,-1.72482 -0.57494,-2.74203 -0.39804,-1.06142 -1.23834,-1.54791 -0.79607,-0.48649 -2.16708,-0.48649 h -0.48649 v -5.52828 h 0.57494 q 1.99018,0 2.87471,-1.06142 0.92875,-1.10566 0.92875,-2.43245 0,-1.59214 -1.10566,-2.47666 -1.06143,-0.92875 -2.6978,-0.92875 h -0.57494 v -5.88209 h 0.97298 q 2.96315,0 4.99756,1.10566 2.07863,1.10565 3.14006,3.05161 1.10566,1.90172 1.10566,4.42262 0,2.25553 -0.8403,3.98035 -0.79607,1.72483 -2.16709,2.83048 1.41524,0.88452 2.07863,2.65357 0.70762,1.72482 0.8403,3.31697 l 0.75185,9.59708 z m -13.75435,0 v -30.95834 h 6.2359 v 30.95834 z m 46.96817,0 -0.88452,-3.75922 h -4.59952 l 1.32678,-6.10322 h 1.59214 l -4.68797,-21.0959 h 6.14744 l 7.29732,30.95834 z m -14.90423,0 5.70518,-25.73965 h 0.6634 l 2.65357,12.38334 -2.91893,13.35631 z m 40.5112,0 -16.7175,-26.88953 v -4.06881 h 5.08601 l 14.59465,23.52834 v 7.43 z m -16.7175,0 v -21.75929 h 0.35381 l 5.88208,9.46441 v 12.29488 z m 19.32685,-12.56024 -5.88209,-9.46441 v -8.93369 h 6.2359 v 18.3981 z m 12.69289,12.56024 v -6.23589 q 0.0884,0 0.48649,-0.0884 0.39803,-0.0885 0.84029,-0.35381 0.48649,-0.26536 0.79608,-0.75185 0.35381,-0.48649 0.35381,-1.28256 V 134.4836 q 0,-0.0884 -0.0885,-0.44226 -0.0884,-0.39803 -0.35381,-0.8403 -0.26535,-0.48648 -0.75184,-0.84029 -0.48649,-0.35381 -1.28256,-0.35381 v -6.2359 q 2.38821,0 4.02458,0.97298 1.6806,0.92875 2.6978,2.34399 1.0172,1.41524 1.50369,2.8747 0.48649,1.45947 0.48649,2.52089 v 13.53322 q 0,2.43244 -0.97298,4.11304 -0.97297,1.68059 -2.38821,2.6978 -1.41524,1.0172 -2.8747,1.45946 -1.45947,0.44226 -2.47667,0.44226 z m -8.62411,0 v -30.95834 h 6.23589 v 30.95834 z m 39.58242,0.22113 q -2.38821,0 -4.06881,-0.88452 -1.63637,-0.88452 -2.65357,-2.21131 -1.0172,-1.37101 -1.50369,-2.74202 -0.48649,-1.41524 -0.48649,-2.38822 v -14.90423 q 0,-1.0172 0.48649,-2.38821 0.48649,-1.41524 1.50369,-2.74203 1.0172,-1.32678 2.65357,-2.21131 1.6806,-0.92875 4.06881,-0.92875 v 6.2359 q -0.75184,0 -1.23833,0.30958 -0.48649,0.26536 -0.75185,0.66339 -0.26535,0.35381 -0.39803,0.6634 -0.0884,0.30958 -0.0884,0.39803 v 14.90423 q 0,0.0884 0.0884,0.39804 0.13268,0.30958 0.39803,0.70762 0.26536,0.3538 0.75185,0.61916 0.48649,0.26536 1.23833,0.26536 z m 2.38822,0 v -6.23589 q 0.30958,-0.0885 0.66339,-0.22113 0.39804,-0.17691 0.70762,-0.44226 0.35381,-0.30959 0.48649,-0.6634 0.1769,-0.35381 0.1769,-0.79607 0.0442,-0.44226 0.0442,-0.8403 0,-0.13267 0,-0.26535 0,-0.13268 0,-0.26536 l 6.10322,1.45946 q 0,2.34399 -1.19411,4.24572 -1.19411,1.8575 -3.09584,2.96315 -1.8575,1.06143 -3.8919,1.06143 z m 2.07863,-21.4497 q 0,-0.17691 0,-0.30959 0,-0.1769 0,-0.35381 0,-0.39803 -0.0442,-0.84029 0,-0.44227 -0.1769,-0.79608 -0.13268,-0.26535 -0.35381,-0.48648 -0.17691,-0.26536 -0.44226,-0.44227 -0.26536,-0.1769 -0.57494,-0.30958 -0.26536,-0.13268 -0.48649,-0.1769 v -6.2359 q 1.54792,0 2.96315,0.70762 1.45947,0.70762 2.65358,1.90173 1.1941,1.14988 1.8575,2.65357 0.70762,1.50369 0.70762,3.09583 z m 20.34403,21.4497 v -6.28012 q 0.57494,0 1.06143,-0.22113 0.53071,-0.26536 0.92875,-0.66339 0.44226,-0.44226 0.66339,-1.0172 0.26536,-0.57494 0.26536,-1.28256 v -12.33911 q 0,-0.75185 -0.22114,-1.32679 -0.22113,-0.61917 -0.61916,-1.06143 -0.35381,-0.48649 -0.88453,-0.70762 -0.53071,-0.26535 -1.1941,-0.26535 v -6.2359 q 1.8575,0 3.49387,0.70762 1.68059,0.70762 2.91893,1.94595 1.28256,1.19411 1.99017,2.83048 0.75185,1.59214 0.75185,3.40542 v 13.26786 q 0,1.94595 -0.66339,3.62655 -0.61917,1.68059 -1.81328,2.96315 -1.1941,1.23834 -2.91893,1.94595 -1.68059,0.70762 -3.75922,0.70762 z m -2.47667,0 q -1.8575,0 -3.49387,-0.70762 -1.63637,-0.75184 -2.91893,-2.0344 -1.23833,-1.28256 -1.99018,-2.96316 -0.70762,-1.68059 -0.70762,-3.53809 v -13.26786 q 0,-1.81328 0.70762,-3.40542 0.75185,-1.63637 1.99018,-2.8747 1.28256,-1.23834 2.91893,-1.90173 1.6806,-0.70762 3.5381,-0.70762 v 6.2359 q -0.6634,0 -1.19411,0.26535 -0.53072,0.22113 -0.92875,0.70762 -0.35381,0.44226 -0.57494,1.06143 -0.22113,0.57494 -0.22113,1.32679 v 12.33911 q 0,0.70762 0.22113,1.32678 0.26535,0.57494 0.66339,1.01721 0.39804,0.39803 0.88452,0.61916 0.53072,0.22113 1.10566,0.22113 z m 23.52834,0 q -0.97298,0 -2.47667,-0.48648 -1.45947,-0.48649 -2.8747,-1.5037 -1.41524,-1.0172 -2.38822,-2.69779 -0.97298,-1.6806 -0.97298,-4.06881 v -22.42269 h 6.28012 v 22.42269 q 0,0.75184 0.30959,1.23833 0.35381,0.48649 0.79607,0.75184 0.48649,0.26536 0.8403,0.39804 0.39803,0.0885 0.48649,0.0885 z m 2.38821,0 v -6.28012 q 0.0885,0 0.44226,-0.0885 0.39804,-0.13268 0.8403,-0.39804 0.48649,-0.26535 0.8403,-0.75184 0.35381,-0.48649 0.35381,-1.23833 v -22.42269 h 6.19167 v 22.42269 q 0,2.38821 -0.97298,4.06881 -0.92875,1.68059 -2.34399,2.74202 -1.41524,1.0172 -2.8747,1.50369 -1.45947,0.44226 -2.47667,0.44226 z m 25.73962,-0.22113 -0.66339,-7.87226 q -0.13268,-1.72482 -0.57495,-2.74203 -0.39803,-1.06142 -1.23833,-1.54791 -0.79607,-0.48649 -2.16708,-0.48649 h -0.48649 v -5.52828 h 0.57494 q 1.99018,0 2.8747,-1.06142 0.92875,-1.10566 0.92875,-2.43245 0,-1.59214 -1.10565,-2.47666 -1.06143,-0.92875 -2.6978,-0.92875 h -0.57494 v -5.88209 h 0.97298 q 2.96315,0 4.99756,1.10566 2.07863,1.10565 3.14006,3.05161 1.10565,1.90172 1.10565,4.42262 0,2.25553 -0.8403,3.98035 -0.79607,1.72483 -2.16708,2.83048 1.41524,0.88452 2.07863,2.65357 0.70762,1.72482 0.8403,3.31697 l 0.75184,9.59708 z m -13.75435,0 v -30.95834 h 6.23589 v 30.95834 z m 36.79617,0 -0.88453,-3.75922 h -4.59952 l 1.32678,-6.10322 h 1.59215 l -4.68798,-21.0959 h 6.14744 l 7.29732,30.95834 z m -14.90423,0 5.70518,-25.73965 h 0.66339 l 2.65357,12.38334 -2.91893,13.35631 z m 32.2851,0.22113 q -0.97298,0 -2.43244,-0.44226 -1.45947,-0.48649 -2.91893,-1.50369 -1.41524,-1.06143 -2.38822,-2.6978 -0.92875,-1.68059 -0.92875,-4.06881 v -14.6831 q 0.13268,-1.06143 0.6634,-2.43244 0.57494,-1.37101 1.59214,-2.65357 1.06143,-1.28256 2.65357,-2.07863 1.59214,-0.8403 3.75923,-0.8403 v 6.2359 q -1.0172,0 -1.54792,0.48648 -0.53071,0.48649 -0.70762,1.06143 -0.13268,0.57494 -0.13268,0.92875 v 13.97548 q 0,0.75185 0.30959,1.23834 0.35381,0.48648 0.79607,0.75184 0.44226,0.26536 0.79607,0.39804 0.39804,0.0885 0.48649,0.0885 z m 2.38821,0 v -6.23589 q 0.0885,0 0.39804,-0.13268 0.30958,-0.1769 0.66339,-0.48649 0.35381,-0.30958 0.57494,-0.75184 0.26536,-0.44226 0.26536,-1.01721 v -1.45946 h -1.90173 v -5.74941 h 8.18185 v 7.82804 q 0,1.32679 -0.75185,2.74203 -0.75184,1.41523 -1.99017,2.60934 -1.19411,1.14988 -2.65358,1.90173 -1.41523,0.75184 -2.78625,0.75184 z m 2.07863,-20.78631 v -1.72482 q 0,-0.6634 -0.1769,-1.14988 -0.1769,-0.53072 -0.48649,-0.8403 -0.30958,-0.30958 -0.70762,-0.48649 -0.35381,-0.1769 -0.70762,-0.1769 v -6.2359 q 2.07863,0 3.93614,1.19411 1.8575,1.19411 3.0516,3.14006 1.19411,1.90173 1.19411,4.02458 z m 9.46443,20.56518 v -30.95834 h 16.09833 v 6.19167 h -9.86244 v 6.28012 h 5.70518 v 6.2359 h -5.70518 v 6.01476 h 9.86244 v 6.23589 z m 22.42269,0.22113 q -1.37101,0 -2.34399,-0.97297 -0.97297,-0.97298 -0.97297,-2.34399 0,-1.41524 0.97297,-2.38822 0.97298,-0.97297 2.34399,-0.97297 1.41524,0 2.34399,0.97297 0.97298,0.97298 0.97298,2.38822 0,1.37101 -0.97298,2.34399 -0.92875,0.97297 -2.34399,0.97297 z"
         id="path4" />
      <path
         style="line-height:1.1em"
         d="m 126.5923,205.37815 -0.88452,-3.75922 h -4.59953 l 1.32679,-6.10322 h 1.59214 l -4.68798,-21.0959 h 6.14744 l 7.29733,30.95834 z m -14.90423,0 5.70518,-25.73964 h 0.66339 l 2.65358,12.38333 -2.91893,13.35631 z m 40.51119,0 -16.7175,-26.88953 v -4.06881 h 5.08601 l 14.59465,23.52834 v 7.43 z m -16.7175,0 v -21.75929 h 0.35381 l 5.88209,9.46441 v 12.29488 z m 19.32685,-12.56024 -5.88208,-9.4644 v -8.9337 h 6.23589 v 18.3981 z m 12.69289,12.56024 v -6.23589 q 0.0884,0 0.48649,-0.0884 0.39803,-0.0885 0.8403,-0.35381 0.48648,-0.26536 0.79607,-0.75185 0.35381,-0.48649 0.35381,-1.28256 v -13.53321 q 0,-0.0885 -0.0884,-0.44227 -0.0885,-0.39803 -0.35381,-0.84029 -0.26536,-0.48649 -0.75185,-0.8403 -0.48649,-0.35381 -1.28256,-0.35381 v -6.2359 q 2.38822,0 4.02458,0.97298 1.6806,0.92875 2.6978,2.34399 1.01721,1.41524 1.50369,2.8747 0.48649,1.45947 0.48649,2.5209 v 13.53321 q 0,2.43244 -0.97297,4.11304 -0.97298,1.68059 -2.38822,2.6978 -1.41524,1.0172 -2.8747,1.45946 -1.45947,0.44226 -2.47667,0.44226 z m -8.62411,0 v -30.95834 h 6.2359 v 30.95834 z m 36.3097,0 v -24.85512 h -6.45703 v -6.10322 h 19.14995 v 6.10322 h -6.45703 v 24.85512 z m 28.57009,0 v -12.73714 h -2.38821 v -5.66096 h 2.38821 v -12.56024 h 6.2359 v 30.95834 z m -13.44476,0 v -30.95834 h 6.23589 v 12.56024 h 2.38822 v 5.66096 h -2.38822 v 12.73714 z m 23.30719,0 v -30.95834 h 16.09833 v 6.19167 h -9.86244 v 6.28012 h 5.70518 v 6.2359 h -5.70518 v 6.01476 h 9.86244 v 6.23589 z m 24.10329,0 v -11.145 l -5.79364,-19.81334 h 6.50125 l 5.74941,19.76912 v 11.18922 z m 7.87226,-14.63887 -2.91893,-10.34893 1.72482,-5.97054 h 6.4128 l -4.82065,16.31947 z m 32.24088,14.63887 -0.88452,-3.75922 h -4.59953 l 1.32679,-6.10322 h 1.59214 l -4.68797,-21.0959 h 6.14744 l 7.29732,30.95834 z m -14.90423,0 5.70518,-25.73964 h 0.6634 l 2.65357,12.38333 -2.91893,13.35631 z m 37.54805,0 -0.66339,-7.87226 q -0.13268,-1.72482 -0.57494,-2.74202 -0.39803,-1.06143 -1.23833,-1.54792 -0.79607,-0.48649 -2.16709,-0.48649 h -0.48648 v -5.52827 h 0.57494 q 1.99018,0 2.8747,-1.06143 0.92875,-1.10566 0.92875,-2.43244 0,-1.59215 -1.10566,-2.47667 -1.06142,-0.92875 -2.69779,-0.92875 h -0.57494 v -5.88209 h 0.97297 q 2.96316,0 4.99756,1.10566 2.07863,1.10565 3.14006,3.05161 1.10566,1.90172 1.10566,4.42262 0,2.25553 -0.8403,3.98035 -0.79607,1.72483 -2.16708,2.83048 1.41523,0.88453 2.07863,2.65357 0.70762,1.72483 0.8403,3.31697 l 0.75184,9.59708 z m -13.75434,0 v -30.95834 h 6.23589 v 30.95834 z m 22.33419,0 v -30.95834 h 16.09834 v 6.19167 h -9.86244 v 6.28012 h 5.70518 v 6.2359 h -5.70518 v 6.01476 h 9.86244 v 6.23589 z"
         id="path5" />
      <path
         style="line-height:1.1em"
         d="m 94.727325,254.02697 v -5.43982 h 0.221131 q 0.972977,0 1.680596,-0.30958 0.707619,-0.30958 1.194107,-0.8403 0.486489,-0.53071 0.70762,-1.19411 0.265357,-0.66339 0.265357,-1.32678 0,-1.41524 -0.972977,-2.5209 -0.92875,-1.14988 -2.742024,-1.14988 h -0.35381 v -5.39559 h 0.35381 q 1.238334,0 2.034405,-0.53072 0.840298,-0.53071 1.238334,-1.37101 0.442262,-0.8403 0.442262,-1.76905 0,-0.92875 -0.442262,-1.76905 -0.398036,-0.84029 -1.28256,-1.37101 -0.840298,-0.53071 -2.122858,-0.53071 h -0.221131 v -5.43983 h 1.061429 q 2.432441,0 4.157263,0.75185 1.769043,0.75185 2.874703,1.99018 1.10565,1.23833 1.63637,2.78625 0.53071,1.54792 0.53071,3.14006 0,1.99018 -0.79607,3.84768 -0.75184,1.8575 -2.21131,2.96315 0.97298,0.70762 1.63637,1.81328 0.66339,1.10565 1.0172,2.38821 0.35381,1.28256 0.35381,2.60935 0,2.12286 -0.97297,4.11304 -0.92875,1.99018 -2.96316,3.27274 -2.034403,1.28255 -5.262916,1.28255 z m -8.624109,0 v -30.95834 h 6.191668 v 30.95834 z m 33.611954,0.22114 v -6.28012 q 0.57494,0 1.06143,-0.22114 0.53071,-0.26535 0.92875,-0.66339 0.44226,-0.44226 0.66339,-1.0172 0.26536,-0.57494 0.26536,-1.28256 v -12.33911 q 0,-0.75185 -0.22113,-1.32679 -0.22114,-0.61916 -0.61917,-1.06143 -0.35381,-0.48648 -0.88453,-0.70761 -0.53071,-0.26536 -1.1941,-0.26536 v -6.2359 q 1.8575,0 3.49387,0.70762 1.68059,0.70762 2.91893,1.94596 1.28256,1.1941 1.99017,2.83047 0.75185,1.59215 0.75185,3.40542 v 13.26786 q 0,1.94595 -0.66339,3.62655 -0.61917,1.68059 -1.81328,2.96315 -1.1941,1.23834 -2.91893,1.94596 -1.68059,0.70762 -3.75922,0.70762 z m -2.47667,0 q -1.8575,0 -3.49387,-0.70762 -1.63637,-0.75185 -2.91893,-2.03441 -1.23833,-1.28256 -1.99018,-2.96315 -0.70762,-1.6806 -0.70762,-3.5381 v -13.26786 q 0,-1.81327 0.70762,-3.40542 0.75185,-1.63637 1.99018,-2.8747 1.28256,-1.23833 2.91893,-1.90173 1.6806,-0.70762 3.5381,-0.70762 v 6.2359 q -0.6634,0 -1.19411,0.26536 -0.53072,0.22113 -0.92875,0.70761 -0.35381,0.44227 -0.57494,1.06143 -0.22113,0.57494 -0.22113,1.32679 v 12.33911 q 0,0.70762 0.22113,1.32679 0.26535,0.57494 0.66339,1.0172 0.39804,0.39803 0.88452,0.61916 0.53072,0.22114 1.10566,0.22114 z m 20.52095,-0.22114 v -24.85512 h -6.45703 v -6.10322 h 19.14995 v 6.10322 h -6.45703 v 24.85512 z m 28.5701,0 v -12.73714 h -2.38822 v -5.66095 h 2.38822 v -12.56025 h 6.23589 v 30.95834 z m -13.44477,0 v -30.95834 h 6.23589 v 12.56025 h 2.38822 v 5.66095 h -2.38822 v 12.73714 z m 41.57259,0 v -5.43982 h 0.22113 q 0.97297,0 1.68059,-0.30958 0.70762,-0.30958 1.19411,-0.8403 0.48649,-0.53071 0.70762,-1.19411 0.26536,-0.66339 0.26536,-1.32678 0,-1.41524 -0.97298,-2.5209 -0.92875,-1.14988 -2.74202,-1.14988 h -0.35381 v -5.39559 h 0.35381 q 1.23833,0 2.0344,-0.53072 0.8403,-0.53071 1.23834,-1.37101 0.44226,-0.8403 0.44226,-1.76905 0,-0.92875 -0.44226,-1.76905 -0.39804,-0.84029 -1.28256,-1.37101 -0.8403,-0.53071 -2.12286,-0.53071 h -0.22113 v -5.43983 h 1.06143 q 2.43244,0 4.15726,0.75185 1.76905,0.75185 2.8747,1.99018 1.10566,1.23833 1.63637,2.78625 0.53072,1.54792 0.53072,3.14006 0,1.99018 -0.79608,3.84768 -0.75184,1.8575 -2.21131,2.96315 0.97298,0.70762 1.63637,1.81328 0.6634,1.10565 1.01721,2.38821 0.35381,1.28256 0.35381,2.60935 0,2.12286 -0.97298,4.11304 -0.92875,1.99018 -2.96316,3.27274 -2.0344,1.28255 -5.26291,1.28255 z m -8.62411,0 v -30.95834 h 6.19167 v 30.95834 z m 22.11314,0 v -30.95834 h 16.09834 v 6.19167 h -9.86245 v 6.28012 h 5.70518 v 6.2359 h -5.70518 v 6.01476 h 9.86245 v 6.23589 z m 34.09841,0 -0.88452,-3.75922 h -4.59953 l 1.32679,-6.10322 h 1.59214 l -4.68798,-21.0959 h 6.14745 l 7.29732,30.95834 z m -14.90423,0 5.70518,-25.73964 h 0.6634 l 2.65357,12.38333 -2.91893,13.35631 z m 32.06399,0.22114 q -0.97298,0 -2.47667,-0.48649 -1.45946,-0.48649 -2.8747,-1.50369 -1.41524,-1.01721 -2.38822,-2.6978 -0.97297,-1.6806 -0.97297,-4.06881 v -22.42269 h 6.28012 v 22.42269 q 0,0.75184 0.30958,1.23833 0.35381,0.48649 0.79607,0.75185 0.48649,0.26535 0.8403,0.39803 0.39804,0.0885 0.48649,0.0885 z m 2.38821,0 v -6.28012 q 0.0885,0 0.44227,-0.0885 0.39803,-0.13268 0.84029,-0.39803 0.48649,-0.26536 0.8403,-0.75185 0.35381,-0.48649 0.35381,-1.23833 v -22.42269 h 6.19167 v 22.42269 q 0,2.38821 -0.97298,4.06881 -0.92875,1.68059 -2.34399,2.74202 -1.41523,1.01721 -2.8747,1.50369 -1.45946,0.44227 -2.47667,0.44227 z m 17.24819,-0.22114 v -24.85512 h -6.45702 v -6.10322 h 19.14994 v 6.10322 h -6.45702 v 24.85512 z m 15.21378,0 v -30.95834 h 6.2359 v 30.95834 z m 9.95092,-0.0442 V 223.06863 H 320.104 v 6.19167 h -9.86244 v 6.28012 h 5.70518 v 6.2359 h -5.70518 v 12.20643 z m 27.37598,0.26536 q -0.97298,0 -2.47667,-0.48649 -1.45946,-0.48649 -2.8747,-1.50369 -1.41524,-1.01721 -2.38822,-2.6978 -0.97297,-1.6806 -0.97297,-4.06881 v -22.42269 h 6.28012 v 22.42269 q 0,0.75184 0.30958,1.23833 0.35381,0.48649 0.79607,0.75185 0.48649,0.26535 0.8403,0.39803 0.39803,0.0885 0.48649,0.0885 z m 2.38821,0 v -6.28012 q 0.0885,0 0.44226,-0.0885 0.39804,-0.13268 0.8403,-0.39803 0.48649,-0.26536 0.8403,-0.75185 0.35381,-0.48649 0.35381,-1.23833 v -22.42269 h 6.19167 v 22.42269 q 0,2.38821 -0.97298,4.06881 -0.92875,1.68059 -2.34399,2.74202 -1.41524,1.01721 -2.8747,1.50369 -1.45947,0.44227 -2.47667,0.44227 z m 11.98526,-0.22114 v -30.95834 h 6.23589 v 24.76668 h 10.39316 v 6.19166 z m 21.93621,0.22114 q -1.37101,0 -2.34399,-0.97298 -0.97298,-0.97298 -0.97298,-2.34399 0,-1.41524 0.97298,-2.38821 0.97298,-0.97298 2.34399,-0.97298 1.41524,0 2.34399,0.97298 0.97297,0.97297 0.97297,2.38821 0,1.37101 -0.97297,2.34399 -0.92875,0.97298 -2.34399,0.97298 z"
         id="path6" />
    </g>
  </g>
</svg>
