<?xml version="1.0" encoding="UTF-8"?>
<svg
   width="600px"
   height="400px"
   viewBox="0 0 600 400"
   version="1.1"
   id="svg1"
   xmlns="http://www.w3.org/2000/svg"
   xmlns:svg="http://www.w3.org/2000/svg">
  <g
     id="layer1">
    <path
       id="path1"
       d="m 135.26276,287.24219 c -0.40534,0 -0.75388,-0.0797 -1.04457,-0.23954 -0.2921,-0.16016 -0.53622,-0.35701 -0.73448,-0.59267 -0.18733,-0.24377 -0.3295,-0.4893 -0.42298,-0.73307 -0.0938,-0.24553 -0.14076,-0.45191 -0.14076,-0.62159 v -3.66819 c 0,-0.16968 0.0469,-0.37641 0.14076,-0.62159 0.0935,-0.24377 0.23565,-0.47943 0.42298,-0.70556 0.19826,-0.23565 0.43815,-0.42862 0.72072,-0.5789 0.29069,-0.15981 0.63394,-0.23954 1.02941,-0.23954 h 0.46566 v 1.82033 h -0.46566 c -0.14076,0 -0.24942,0.0332 -0.32385,0.0991 -0.0663,0.0564 -0.11289,0.11713 -0.14182,0.18345 -0.018,0.066 -0.0279,0.10336 -0.0279,0.11289 v 3.57046 c 0,0.008 0.0138,0.0469 0.0416,0.11289 0.0289,0.0554 0.0797,0.11712 0.15557,0.18344 0.0759,0.0565 0.18345,0.084 0.32526,0.084 h 0.43674 v 1.83409 z m 1.18498,0 v -10.10356 h 1.9611 l -0.0138,10.10356 z m 5.61552,0.0138 c -0.33761,0 -0.66287,-0.0607 -0.97296,-0.1831 -0.30162,-0.12135 -0.56903,-0.29633 -0.80469,-0.52246 -0.23565,-0.22437 -0.42298,-0.49742 -0.56479,-0.81703 -0.13088,-0.32103 -0.19721,-0.67804 -0.19721,-1.07351 v -2.76577 c 0,-0.39406 0.0607,-0.75636 0.18345,-1.08585 0.12241,-0.3295 0.29598,-0.61172 0.52211,-0.84738 0.22613,-0.24412 0.49318,-0.43285 0.80469,-0.56374 0.31009,-0.13229 0.65334,-0.19826 1.0294,-0.19826 v 1.83551 c -0.1404,0 -0.26317,0.037 -0.36653,0.11289 -0.0935,0.0744 -0.16934,0.18344 -0.22578,0.32385 -0.0568,0.1404 -0.0843,0.31009 -0.0843,0.50835 v 2.6102 c 0,0.15981 0.0275,0.30586 0.0843,0.43815 0.0564,0.12136 0.13617,0.22049 0.23953,0.29633 0.10337,0.0646 0.2219,0.0977 0.35278,0.0977 z m 0.70556,0 v -1.8341 c 0.13229,0 0.24941,-0.0332 0.35277,-0.0977 0.10337,-0.0758 0.18345,-0.17497 0.23989,-0.29633 0.0564,-0.13229 0.0854,-0.27834 0.0854,-0.43815 v -2.6102 c 0,-0.19826 -0.0289,-0.36795 -0.0854,-0.50835 -0.0469,-0.14041 -0.12135,-0.24942 -0.22472,-0.32385 -0.10477,-0.0759 -0.22577,-0.11289 -0.36794,-0.11289 v -1.83551 c 0.37641,0 0.72072,0.066 1.03081,0.19826 0.31009,0.13089 0.57891,0.31962 0.80328,0.56374 0.22613,0.23566 0.40111,0.51788 0.52246,0.84738 0.12277,0.32949 0.18309,0.69179 0.18309,1.08585 v 2.76577 c 0,0.39547 -0.0702,0.75248 -0.2106,1.07351 -0.1323,0.31961 -0.31574,0.59266 -0.54999,0.81703 -0.23565,0.22613 -0.50835,0.40111 -0.81844,0.52246 -0.30198,0.12242 -0.62159,0.1831 -0.96061,0.1831 z m 9.44104,-0.0138 -2.45569,-8.04334 h 2.10291 l 2.06022,6.09636 -0.63535,1.94698 z m -3.95076,0 -2.45569,-8.04334 h 2.10291 l 2.06022,6.09636 -0.63535,1.94698 z m 1.90429,-3.23145 -1.00189,-2.87866 0.59267,-1.93323 h 2.10291 l -1.51024,4.81189 z m 3.95076,0 -1.00154,-2.87866 0.59232,-1.93323 h 2.10291 l -1.51025,4.81189 z m 2.32904,-2.11666 c 0,-0.39406 0.0607,-0.75636 0.18309,-1.08585 0.12277,-0.3295 0.29633,-0.61172 0.52246,-0.84738 0.22613,-0.24412 0.49319,-0.43285 0.80328,-0.56374 0.3115,-0.13229 0.65475,-0.19826 1.03082,-0.19826 v 1.83551 c -0.14041,0 -0.26318,0.037 -0.36654,0.11289 -0.0938,0.0744 -0.16933,0.18344 -0.22613,0.32385 -0.0564,0.1404 -0.0854,0.31009 -0.0854,0.50835 v 5.26274 h -1.86161 z m 3.92324,0.0854 c 0,-0.19826 -0.0289,-0.36654 -0.0854,-0.50835 -0.0469,-0.14041 -0.12277,-0.24942 -0.22613,-0.32385 -0.10337,-0.0759 -0.22578,-0.11289 -0.36654,-0.11289 v -1.83551 c 0.37641,0 0.71931,0.066 1.03082,0.19826 0.31009,0.13089 0.57749,0.31962 0.80327,0.56374 0.22613,0.23566 0.3997,0.51788 0.52247,0.84738 0.12276,0.32949 0.18309,0.69179 0.18309,1.08585 v 5.34811 h -1.86161 z m 3.00567,5.26274 v -10.10356 h 2.03094 v 10.10356 z m 5.70088,0.0138 c -0.33901,0 -0.66428,-0.0607 -0.97437,-0.1831 -0.30056,-0.12135 -0.56903,-0.29633 -0.80468,-0.52246 -0.23425,-0.22437 -0.42298,-0.49742 -0.56374,-0.81703 -0.13229,-0.32103 -0.19826,-0.67804 -0.19826,-1.07351 v -2.76577 c 0,-0.39406 0.0617,-0.75636 0.1845,-1.08585 0.12135,-0.3295 0.29633,-0.61172 0.52105,-0.84738 0.22578,-0.24412 0.4946,-0.43285 0.80469,-0.56374 0.31009,-0.13229 0.6544,-0.19826 1.03081,-0.19826 v 1.83551 c -0.14216,0 -0.26458,0.037 -0.36794,0.11289 -0.0938,0.0744 -0.16969,0.18344 -0.22472,0.32385 -0.0564,0.1404 -0.0854,0.31009 -0.0854,0.50835 v 2.6102 c 0,0.15981 0.0289,0.30586 0.0854,0.43815 0.0564,0.12136 0.13652,0.22049 0.23989,0.29633 0.10336,0.0646 0.22048,0.0977 0.35277,0.0977 z m 0.70556,0 v -1.8341 c 0.13088,0 0.24941,-0.0332 0.35278,-0.0977 0.10336,-0.0758 0.18309,-0.17497 0.23953,-0.29633 0.0568,-0.13229 0.0843,-0.27834 0.0843,-0.43815 v -2.6102 c 0,-0.19826 -0.0275,-0.36795 -0.0843,-0.50835 -0.0466,-0.14041 -0.12241,-0.24942 -0.22577,-0.32385 -0.10337,-0.0759 -0.22613,-0.11289 -0.36654,-0.11289 v -1.83551 c 0.37606,0 0.71931,0.066 1.02941,0.19826 0.31009,0.13089 0.57855,0.31962 0.80468,0.56374 0.22613,0.23566 0.3997,0.51788 0.52211,0.84738 0.12136,0.32949 0.18345,0.69179 0.18345,1.08585 v 2.76577 c 0,0.39547 -0.0702,0.75248 -0.21237,1.07351 -0.13089,0.31961 -0.31398,0.59266 -0.54963,0.81703 -0.23566,0.22613 -0.50871,0.40111 -0.8188,0.52246 -0.30162,0.12242 -0.62124,0.1831 -0.95885,0.1831 z m 5.67196,-0.0138 c -0.49883,0 -0.92604,-0.0935 -1.28446,-0.28223 -0.35666,-0.18767 -0.62971,-0.42333 -0.81845,-0.70555 -0.18732,-0.29104 -0.28116,-0.58314 -0.28116,-0.87383 v -0.72073 c 0,-0.0938 0.008,-0.22048 0.0275,-0.38029 0.0275,-0.16969 0.0938,-0.34855 0.1972,-0.53622 0.10336,-0.18874 0.28257,-0.34855 0.53587,-0.47943 0.15169,-0.0854 0.3489,-0.16933 0.59408,-0.25506 0.25364,-0.084 0.51682,-0.16933 0.78951,-0.25329 0.27305,-0.0938 0.53199,-0.18909 0.77576,-0.28258 0.24553,-0.10336 0.44238,-0.20672 0.59267,-0.31009 0.15981,-0.11289 0.23989,-0.23001 0.23989,-0.35278 v -0.32526 c 0,-0.10336 -0.0236,-0.19297 -0.0702,-0.2674 -0.0374,-0.0854 -0.10336,-0.15029 -0.1972,-0.19826 -0.0854,-0.0565 -0.20249,-0.0843 -0.35278,-0.0843 v -1.73602 c 0.54575,0 0.99625,0.12242 1.35467,0.36795 0.35666,0.23425 0.62547,0.52211 0.80469,0.85972 0.1778,0.33902 0.2674,0.64911 0.2674,0.93169 v 3.68335 c 0,0.0564 0.0194,0.14605 0.0564,0.2674 0.0469,0.12242 0.1598,0.1831 0.33901,0.1831 v 1.75013 c -0.30197,0 -0.56903,-0.037 -0.80468,-0.11289 -0.22613,-0.084 -0.4191,-0.1972 -0.57891,-0.33761 -0.1778,0.15028 -0.38594,0.26317 -0.62018,0.33761 -0.23566,0.0759 -0.50412,0.11289 -0.80469,0.11289 v -1.73496 c 0.16933,0 0.29633,-0.0328 0.38171,-0.0991 0.084,-0.066 0.1404,-0.14041 0.16827,-0.22614 0.0385,-0.0935 0.0564,-0.17356 0.0564,-0.23953 v -1.15747 c -0.15029,0.0854 -0.32385,0.1651 -0.52247,0.23954 -0.19685,0.0759 -0.39969,0.14217 -0.60607,0.19861 -0.20673,0.0469 -0.39017,0.0935 -0.54998,0.14041 -0.15028,0.0469 -0.25894,0.0854 -0.32526,0.11289 -0.12277,0.0568 -0.18309,0.16545 -0.18309,0.32526 v 0.1972 c 0,0.11289 0.019,0.20673 0.0564,0.28258 0.0466,0.0744 0.12665,0.13088 0.23954,0.16933 0.12276,0.0374 0.29633,0.0564 0.52246,0.0564 z m -0.64911,-5.40456 -1.63724,-0.62018 c 0,-0.38594 0.11324,-0.72884 0.33902,-1.03082 0.23565,-0.30021 0.52634,-0.5401 0.87524,-0.71931 0.35666,-0.17921 0.71931,-0.26847 1.08585,-0.26847 v 1.73602 c -0.14076,0 -0.26317,0.0332 -0.36654,0.0995 -0.0938,0.0645 -0.16968,0.16369 -0.22613,0.29633 -0.0469,0.13088 -0.0702,0.30021 -0.0702,0.50694 z m 7.35189,5.40456 c -0.40393,0 -0.75248,-0.0797 -1.04458,-0.23954 -0.29069,-0.16016 -0.53622,-0.35701 -0.73307,-0.59267 -0.18873,-0.24377 -0.32949,-0.4893 -0.42298,-0.73307 -0.0953,-0.24553 -0.14217,-0.45191 -0.14217,-0.62159 v -3.66819 c 0,-0.16968 0.0469,-0.37641 0.14217,-0.62159 0.0935,-0.24377 0.23425,-0.47943 0.42298,-0.70556 0.19685,-0.23565 0.43674,-0.42862 0.71932,-0.5789 0.2921,-0.15981 0.63535,-0.23954 1.03081,-0.23954 h 0.46567 v 1.82033 h -0.46567 c -0.14217,0 -0.24941,0.0332 -0.32526,0.0991 -0.0663,0.0564 -0.11289,0.11713 -0.14076,0.18345 -0.0191,0.066 -0.0289,0.10336 -0.0289,0.11289 v 3.57046 c 0,0.008 0.0138,0.0469 0.0427,0.11289 0.0279,0.0564 0.0801,0.11712 0.15593,0.18344 0.0744,0.0565 0.18309,0.084 0.32385,0.084 h 0.43815 v 1.83409 z m 1.18498,0 v -10.10356 h 1.9625 l -0.0152,10.10356 z m 9.24242,0.0705 v -1.778 c 0.11325,0 0.23566,-0.0233 0.36795,-0.0702 0.13088,-0.0469 0.24412,-0.11712 0.33761,-0.21202 0.0953,-0.0938 0.14217,-0.21096 0.14217,-0.35278 0,-0.18768 -0.0938,-0.33761 -0.28258,-0.45085 -0.17921,-0.12241 -0.40922,-0.22189 -0.69179,-0.29598 -0.2727,-0.0857 -0.55951,-0.16545 -0.85972,-0.23989 -0.29246,-0.0758 -0.55139,-0.16545 -0.77753,-0.26881 -0.20672,-0.0938 -0.4131,-0.23001 -0.61983,-0.40923 -0.1972,-0.17921 -0.36653,-0.40922 -0.5087,-0.69179 -0.13088,-0.28258 -0.19684,-0.62548 -0.19684,-1.02941 0,-0.47131 0.084,-0.85584 0.25328,-1.15746 0.17922,-0.31009 0.3997,-0.55527 0.66287,-0.73307 0.26459,-0.17922 0.532,-0.30622 0.80505,-0.38171 0.27269,-0.0744 0.50835,-0.11324 0.70556,-0.11324 v 1.75013 c -0.21661,0 -0.37642,0.0332 -0.47979,0.0995 -0.0935,0.0646 -0.15557,0.13617 -0.18308,0.21061 -0.0194,0.0759 -0.0289,0.13653 -0.0289,0.18344 0,0.16934 0.0797,0.32915 0.23954,0.48084 0.16968,0.14041 0.43427,0.27693 0.79092,0.40781 0.3669,0.12277 0.84208,0.24942 1.42523,0.38171 0.18874,0.0374 0.37183,0.10759 0.55104,0.21237 0.18732,0.10336 0.35701,0.23989 0.5073,0.40922 0.14992,0.16828 0.27269,0.3803 0.36653,0.63394 0.0949,0.24518 0.14182,0.53587 0.14182,0.87489 0,0.53622 -0.12277,0.99766 -0.36654,1.3836 -0.23565,0.37641 -0.55527,0.66287 -0.96062,0.86007 -0.40357,0.19826 -0.8516,0.29633 -1.34091,0.29633 z m -0.63359,0 c -0.60219,0 -1.09149,-0.11183 -1.4679,-0.33761 -0.36795,-0.22613 -0.64065,-0.50447 -0.81845,-0.83255 -0.16933,-0.33902 -0.25506,-0.67804 -0.25506,-1.01706 l 1.75013,-0.32385 c 0,0.14076 0.0388,0.26741 0.11325,0.38029 0.0854,0.10337 0.18873,0.18909 0.31009,0.25506 0.12241,0.055 0.24518,0.0882 0.36794,0.0977 z m 1.42487,-5.67231 c 0,-0.23566 -0.0607,-0.40499 -0.18344,-0.50835 -0.11289,-0.10337 -0.23566,-0.16934 -0.36654,-0.19721 -0.13229,-0.037 -0.22189,-0.0564 -0.26881,-0.0564 l 0.0138,-1.75013 c 0.5087,0 0.95108,0.11324 1.32715,0.33902 0.38593,0.22613 0.68227,0.5087 0.889,0.84631 0.21625,0.33902 0.32385,0.68192 0.32385,1.03082 z m 5.74358,5.60176 c -0.63112,0 -1.12042,-0.10725 -1.46756,-0.32385 -0.34889,-0.21626 -0.59266,-0.51788 -0.73448,-0.90382 -0.13088,-0.39405 -0.1972,-0.85584 -0.1972,-1.38218 v -3.61315 h -0.98813 v -1.82034 h 0.98813 v -2.06022 h 1.89053 v 2.06022 h 0.93169 v 1.83551 h -0.93169 v 3.73838 c 0,0.10337 0.0332,0.21661 0.0995,0.33902 0.0645,0.12277 0.20672,0.18345 0.42298,0.18345 h 0.40922 l 0.42298,1.94698 z m 4.03472,0 c -0.4131,0 -0.77999,-0.0744 -1.10102,-0.22578 -0.31009,-0.15981 -0.56903,-0.35701 -0.77576,-0.59267 -0.20673,-0.23424 -0.3623,-0.47413 -0.46567,-0.71931 -0.10336,-0.24377 -0.15451,-0.46038 -0.15451,-0.64911 v -3.69711 c 0,-0.18768 0.0511,-0.40393 0.15451,-0.64911 0.10337,-0.24413 0.25894,-0.47978 0.46567,-0.70556 0.21625,-0.23566 0.47943,-0.42721 0.79093,-0.57891 0.31009,-0.15028 0.6671,-0.22578 1.07209,-0.22578 v 1.77906 c -0.12241,0 -0.23001,0.0275 -0.32526,0.084 -0.084,0.0564 -0.15417,0.12242 -0.21061,0.19685 -0.0469,0.0759 -0.0702,0.1517 -0.0702,0.22613 v 0.70556 h 2.10149 v -0.69039 c 0,-0.15169 -0.0374,-0.26458 -0.11324,-0.33902 -0.0744,-0.0758 -0.16792,-0.12276 -0.28116,-0.14181 -0.11289,-0.0275 -0.22578,-0.0413 -0.33902,-0.0413 v -1.77906 c 0.38594,0 0.76623,0.0893 1.14265,0.26847 0.38558,0.17921 0.70555,0.42862 0.96026,0.74824 0.26352,0.31997 0.3944,0.69603 0.3944,1.12889 v 2.66629 h -3.86538 v 1.04458 c 0,0.0663 0.0176,0.13652 0.0564,0.21237 0.037,0.0646 0.0977,0.121 0.18309,0.16933 0.0938,0.0469 0.22049,0.0702 0.3803,0.0702 z m 0.74824,0 v -1.72121 c 0.1972,0 0.36266,-0.0328 0.49354,-0.0991 0.13229,-0.066 0.23565,-0.15028 0.3115,-0.25364 0.0744,-0.11289 0.13088,-0.23566 0.16792,-0.36654 l 1.53952,0.57891 c -0.0663,0.30057 -0.21237,0.59655 -0.4385,0.889 -0.22578,0.28081 -0.51647,0.51647 -0.87489,0.70555 -0.34713,0.17745 -0.74683,0.26706 -1.19909,0.26706 z m 3.58457,-5.34811 c 0,-0.39406 0.0603,-0.75636 0.1831,-1.08585 0.12276,-0.3295 0.29633,-0.61172 0.52246,-0.84738 0.22578,-0.24412 0.49318,-0.43285 0.80469,-0.56374 0.31009,-0.13229 0.65299,-0.19826 1.0294,-0.19826 v 1.83551 c -0.14076,0 -0.26317,0.037 -0.36653,0.11289 -0.0938,0.0744 -0.16969,0.18344 -0.22613,0.32385 -0.0564,0.1404 -0.084,0.31009 -0.084,0.50835 v 5.26274 h -1.86302 z m 3.92325,0.0854 c 0,-0.19826 -0.0289,-0.36795 -0.0854,-0.50835 -0.0469,-0.14041 -0.12276,-0.24942 -0.22613,-0.32385 -0.10336,-0.0759 -0.22613,-0.11289 -0.36653,-0.11289 v -1.83551 c 0.37606,0 0.71931,0.066 1.03081,0.19826 0.3101,0.13089 0.57715,0.31962 0.80328,0.56374 0.22613,0.23566 0.3997,0.51788 0.52246,0.84738 0.12242,0.32949 0.18309,0.69179 0.18309,1.08585 v 5.34811 h -1.8616 z m 5.45958,5.26274 c -0.46002,0 -0.85019,-0.0744 -1.16981,-0.22578 -0.3115,-0.15981 -0.56515,-0.35701 -0.762,-0.59267 -0.19861,-0.23424 -0.34466,-0.47413 -0.43815,-0.71931 -0.0843,-0.25365 -0.127,-0.4699 -0.127,-0.64911 v -3.69711 c 0,-0.18768 0.0469,-0.40393 0.14076,-0.64911 0.0949,-0.24413 0.23954,-0.47978 0.43815,-0.70556 0.20673,-0.23566 0.46567,-0.42721 0.77576,-0.57891 0.31962,-0.15028 0.69603,-0.22578 1.12854,-0.22578 v 1.80658 c -0.15981,0 -0.29069,0.0233 -0.39406,0.0702 -0.0953,0.0385 -0.16122,0.0854 -0.19826,0.14182 -0.0374,0.0564 -0.0568,0.11324 -0.0568,0.16968 v 3.66819 c 0,0.0938 0.0236,0.16968 0.0705,0.22613 0.048,0.0564 0.11853,0.0991 0.21202,0.12665 0.10336,0.0194 0.23001,0.0332 0.38029,0.0427 z m 0.63536,0.0138 v -1.81893 c 0.16968,0 0.30586,-0.0152 0.40922,-0.0427 0.11324,-0.037 0.19861,-0.0991 0.25506,-0.18309 0.0564,-0.0953 0.084,-0.22614 0.084,-0.39582 v -0.46567 l 1.7212,0.66287 c 0.01,0.40499 -0.1076,0.7814 -0.35278,1.12995 -0.23424,0.33761 -0.54574,0.61066 -0.93168,0.81738 -0.37606,0.20779 -0.77012,0.30586 -1.18498,0.2974 z m 0.57891,-5.16326 v -0.46602 c 0,-0.15981 -0.0236,-0.28222 -0.0706,-0.36795 -0.0466,-0.084 -0.11712,-0.14464 -0.21202,-0.18309 -0.084,-0.0374 -0.18344,-0.0564 -0.29633,-0.0564 v -1.82034 c 0.42439,0 0.80892,0.10443 1.15746,0.31115 0.3489,0.19721 0.62583,0.46602 0.83256,0.80363 0.20672,0.33902 0.31009,0.71085 0.31009,1.11478 z m 2.97779,5.1495 v -7.93045 h 1.89054 v 7.93045 z m 0.93169,-8.62083 c -0.28258,0 -0.52776,-0.0991 -0.73448,-0.29634 -0.19721,-0.20814 -0.29634,-0.44802 -0.29634,-0.72072 0,-0.2727 0.0991,-0.50694 0.29634,-0.70556 0.20672,-0.20672 0.4519,-0.31009 0.73448,-0.31009 0.2727,0 0.50694,0.10337 0.70555,0.31009 0.20673,0.19862 0.3101,0.43286 0.3101,0.70556 0,0.2727 -0.10337,0.51258 -0.3101,0.72072 -0.19861,0.19721 -0.43285,0.29634 -0.70555,0.29634 z m 2.31352,8.62083 v -10.10356 h 2.0327 v 10.10356 z m 6.08153,0.0705 v -1.778 c 0.11289,0 0.23566,-0.0233 0.36795,-0.0702 0.13088,-0.0469 0.24377,-0.11712 0.33761,-0.21202 0.0949,-0.0938 0.14181,-0.21096 0.14181,-0.35278 0,-0.18768 -0.0938,-0.33761 -0.28257,-0.45085 -0.17921,-0.12241 -0.40922,-0.22189 -0.6918,-0.29598 -0.2727,-0.0857 -0.5595,-0.16545 -0.85972,-0.23989 -0.2921,-0.0758 -0.55139,-0.16545 -0.77717,-0.26881 -0.20673,-0.0938 -0.41345,-0.23001 -0.62018,-0.40923 -0.19861,-0.17921 -0.36654,-0.40922 -0.50871,-0.69179 -0.13088,-0.28258 -0.19685,-0.62548 -0.19685,-1.02941 0,-0.47131 0.084,-0.85584 0.25365,-1.15746 0.17886,-0.31009 0.39935,-0.55527 0.66252,-0.73307 0.26458,-0.17922 0.53199,-0.30622 0.80504,-0.38171 0.27269,-0.0759 0.50835,-0.11324 0.70555,-0.11324 v 1.75013 c -0.2166,0 -0.37641,0.0332 -0.47978,0.0995 -0.0935,0.0646 -0.15557,0.13617 -0.18309,0.21061 -0.0194,0.0759 -0.0289,0.13653 -0.0289,0.18344 0,0.16934 0.0797,0.32915 0.23954,0.48084 0.16969,0.14041 0.43286,0.27693 0.79128,0.40781 0.36654,0.12277 0.84173,0.24942 1.42487,0.38171 0.18874,0.0374 0.37183,0.10759 0.54963,0.21237 0.18873,0.10336 0.35842,0.23989 0.5087,0.40922 0.14993,0.16828 0.2727,0.3803 0.36654,0.63394 0.0949,0.24518 0.14182,0.53587 0.14182,0.87489 0,0.53622 -0.12277,0.99766 -0.36654,1.3836 -0.23566,0.37641 -0.55527,0.66287 -0.96061,0.86007 -0.40358,0.19826 -0.85161,0.29633 -1.34056,0.29633 z m -0.63394,0 c -0.60219,0 -1.09149,-0.11324 -1.46756,-0.33761 -0.36794,-0.22613 -0.64099,-0.50447 -0.81879,-0.83396 -0.16934,-0.33761 -0.25471,-0.67663 -0.25471,-1.01565 l 1.75013,-0.32385 c 0,0.14076 0.037,0.26741 0.11289,0.38029 0.0854,0.10337 0.18874,0.18909 0.31009,0.25365 0.12242,0.0565 0.24518,0.0896 0.36795,0.0991 z m 1.42487,-5.67231 c 0,-0.23566 -0.0621,-0.40499 -0.18345,-0.50835 -0.11288,-0.10337 -0.23565,-0.16934 -0.36794,-0.19721 -0.13088,-0.037 -0.22049,-0.0564 -0.26741,-0.0564 l 0.0141,-1.75013 c 0.50836,0 0.95074,0.11324 1.3268,0.33902 0.38594,0.22613 0.68227,0.5087 0.889,0.84631 0.21625,0.33902 0.32385,0.68192 0.32385,1.03082 z m 6.60365,5.60176 v -5.48852 h -0.98813 v -1.83409 h 0.98813 v -0.55139 c 0,-0.16934 0.0466,-0.37606 0.14181,-0.62019 0.0938,-0.24518 0.23989,-0.4893 0.43674,-0.73448 0.1972,-0.24377 0.44662,-0.4505 0.74824,-0.62018 0.30057,-0.16934 0.65335,-0.25894 1.05834,-0.26847 h 0.94544 l -0.42298,1.82034 h -0.50871 c -0.1404,0 -0.24941,0.0332 -0.32526,0.0991 -0.0741,0.0663 -0.12664,0.13088 -0.15416,0.1972 -0.0194,0.066 -0.0289,0.10866 -0.0289,0.12665 v 0.55139 h 1.01706 v 1.83409 h -1.01706 v 5.48852 z m 3.92324,0 v -8.04334 h 1.91805 v 0.89006 c 0.11289,-0.14181 0.26458,-0.28257 0.45191,-0.42439 0.19861,-0.15028 0.42333,-0.27693 0.67804,-0.38029 0.25364,-0.10337 0.52246,-0.15593 0.80362,-0.15593 0.0854,0 0.16934,0 0.25471,0 0.0843,0 0.16969,0 0.25365,0 l -0.43674,1.89089 c -0.33902,0 -0.66428,0.0991 -0.97437,0.29633 -0.30057,0.18874 -0.54998,0.42827 -0.74825,0.72073 -0.18732,0.29068 -0.28257,0.59231 -0.28257,0.9024 v 4.30354 z m 7.57766,0.0138 c -0.33902,0 -0.66428,-0.0607 -0.97437,-0.1831 -0.30021,-0.12135 -0.56903,-0.29633 -0.80468,-0.52246 -0.23425,-0.22437 -0.42299,-0.49742 -0.56374,-0.81703 -0.1323,-0.32103 -0.19685,-0.67804 -0.19685,-1.07351 v -2.76577 c 0,-0.39406 0.0607,-0.75636 0.18309,-1.08585 0.12135,-0.3295 0.29633,-0.61172 0.52246,-0.84738 0.22472,-0.24412 0.49319,-0.43285 0.80328,-0.56374 0.31009,-0.13229 0.65475,-0.19826 1.03081,-0.19826 v 1.83551 c -0.14181,0 -0.26317,0.037 -0.36794,0.11289 -0.0938,0.0744 -0.16793,0.18344 -0.22472,0.32385 -0.0564,0.1404 -0.0854,0.31009 -0.0854,0.50835 v 2.6102 c 0,0.15981 0.0289,0.30586 0.0854,0.43815 0.0568,0.12136 0.13652,0.22049 0.23989,0.29633 0.10336,0.0646 0.22048,0.0977 0.35277,0.0977 z m 0.70556,0 v -1.8341 c 0.13088,0 0.24941,-0.0332 0.35278,-0.0977 0.10336,-0.0758 0.18344,-0.17497 0.23989,-0.29633 0.0564,-0.13229 0.084,-0.27834 0.084,-0.43815 v -2.6102 c 0,-0.19826 -0.0275,-0.36795 -0.084,-0.50835 -0.0469,-0.14041 -0.12277,-0.24942 -0.22613,-0.32385 -0.10337,-0.0759 -0.22578,-0.11289 -0.36654,-0.11289 v -1.83551 c 0.37641,0 0.71931,0.066 1.0294,0.19826 0.31151,0.13089 0.57891,0.31962 0.80469,0.56374 0.22613,0.23566 0.3997,0.51788 0.52246,0.84738 0.12242,0.32949 0.1831,0.69179 0.1831,1.08585 v 2.76577 c 0,0.39547 -0.0702,0.75248 -0.21202,1.07351 -0.13087,0.31961 -0.31432,0.59266 -0.54998,0.81703 -0.23566,0.22613 -0.50835,0.40111 -0.81844,0.52246 -0.30057,0.12242 -0.6216,0.1831 -0.95921,0.1831 z m 7.35189,-0.0138 v -5.61552 c 0,-0.15981 -0.0526,-0.2921 -0.15557,-0.39546 -0.0938,-0.11289 -0.26741,-0.16934 -0.52247,-0.16934 v -1.87713 c 0.35843,0 0.66851,0.0469 0.93168,0.14217 0.26318,0.0935 0.49883,0.22049 0.70556,0.3803 0.20673,-0.16969 0.44238,-0.29634 0.70556,-0.3803 0.26317,-0.0952 0.56903,-0.14217 0.91757,-0.14217 v 1.87713 c -0.2547,0 -0.42862,0.0564 -0.52211,0.16934 -0.0938,0.11324 -0.14217,0.24412 -0.14217,0.39546 v 5.61552 z m -3.88056,0 v -5.85506 c 0,-0.19861 0.0508,-0.4191 0.15417,-0.66428 0.11324,-0.25364 0.27869,-0.49741 0.49494,-0.73307 0.21626,-0.23565 0.47943,-0.42862 0.78952,-0.57891 0.31962,-0.15028 0.6918,-0.22613 1.11478,-0.22613 v 1.87713 c -0.24377,0 -0.41346,0.066 -0.50694,0.19685 -0.0854,0.12277 -0.12842,0.24554 -0.12842,0.36795 v 5.61552 z m 7.76111,0 v -5.61552 c 0,-0.16933 -0.0469,-0.30586 -0.14181,-0.40922 -0.0938,-0.10337 -0.26741,-0.15558 -0.52247,-0.15558 v -1.87713 c 0.42439,0 0.79516,0.0801 1.11478,0.23989 0.32949,0.15028 0.60219,0.34325 0.8188,0.57891 0.21625,0.23566 0.37606,0.47942 0.48083,0.73448 0.11148,0.24377 0.16793,0.46003 0.16793,0.64911 v 5.85506 z m 6.50417,0 v -7.93045 h 1.8923 v 7.93045 z m 0.93168,-8.62083 c -0.28257,0 -0.52634,-0.0991 -0.73307,-0.29634 -0.19861,-0.20814 -0.29633,-0.44802 -0.29633,-0.72072 0,-0.2727 0.0977,-0.50694 0.29633,-0.70556 0.20673,-0.20672 0.4505,-0.31009 0.73307,-0.31009 0.2727,0 0.50836,0.10337 0.70556,0.31009 0.20673,0.19862 0.3115,0.43286 0.3115,0.70556 0,0.2727 -0.10477,0.51258 -0.3115,0.72072 -0.1972,0.19721 -0.43286,0.29634 -0.70556,0.29634 z m 5.17878,8.69138 v -1.778 c 0.11289,0 0.23566,-0.0233 0.36795,-0.0702 0.13088,-0.0469 0.24377,-0.11712 0.33761,-0.21202 0.0949,-0.0938 0.14181,-0.21096 0.14181,-0.35278 0,-0.18768 -0.0949,-0.33761 -0.28257,-0.45085 -0.17921,-0.12241 -0.40922,-0.22189 -0.6918,-0.29598 -0.2727,-0.0857 -0.55951,-0.16545 -0.85972,-0.23989 -0.2921,-0.0758 -0.55139,-0.16545 -0.77717,-0.26881 -0.20673,-0.0938 -0.41345,-0.23001 -0.62018,-0.40923 -0.19862,-0.17921 -0.36654,-0.40922 -0.50835,-0.69179 -0.13124,-0.28258 -0.19721,-0.62548 -0.19721,-1.02941 0,-0.47131 0.084,-0.85584 0.25365,-1.15746 0.17921,-0.31009 0.39934,-0.55527 0.66287,-0.73307 0.26317,-0.17922 0.53164,-0.30622 0.80469,-0.38171 0.27269,-0.0759 0.50835,-0.11324 0.70555,-0.11324 v 1.75013 c -0.21625,0 -0.37641,0.0332 -0.47978,0.0995 -0.0935,0.0646 -0.15557,0.13617 -0.18309,0.21061 -0.0194,0.0759 -0.0289,0.13653 -0.0289,0.18344 0,0.16934 0.0797,0.32915 0.23989,0.48084 0.16934,0.14041 0.43251,0.27693 0.79093,0.40781 0.36654,0.12277 0.84208,0.24942 1.42487,0.38171 0.18874,0.0374 0.37218,0.10759 0.54963,0.21237 0.18909,0.10336 0.35842,0.23989 0.5087,0.40922 0.15029,0.16828 0.2727,0.3803 0.36654,0.63394 0.0949,0.24518 0.14182,0.53587 0.14182,0.87489 0,0.53622 -0.12242,0.99766 -0.36795,1.3836 -0.23425,0.37641 -0.55386,0.66287 -0.95885,0.86007 -0.40393,0.19826 -0.85196,0.29633 -1.34091,0.29633 z m -0.63394,0 c -0.60219,0 -1.0915,-0.11324 -1.46756,-0.33761 -0.36794,-0.22613 -0.64099,-0.50447 -0.81879,-0.83396 -0.16934,-0.33761 -0.25471,-0.67663 -0.25471,-1.01565 l 1.75013,-0.32385 c 0,0.14076 0.037,0.26741 0.11289,0.38029 0.084,0.10337 0.18874,0.18909 0.31009,0.25365 0.12277,0.0565 0.24518,0.0896 0.36795,0.0991 z m 1.42487,-5.67231 c 0,-0.23566 -0.0621,-0.40499 -0.18345,-0.50835 -0.11289,-0.10337 -0.23565,-0.16934 -0.36794,-0.19721 -0.13088,-0.037 -0.22049,-0.0564 -0.26706,-0.0564 l 0.0138,-1.75013 c 0.50835,0 0.95074,0.11324 1.3268,0.33902 0.38594,0.22613 0.68227,0.5087 0.889,0.84631 0.21625,0.33902 0.32385,0.68192 0.32385,1.03082 z m 5.74216,5.60176 c -0.62971,0 -1.11901,-0.10725 -1.46755,-0.32385 -0.34714,-0.21626 -0.59267,-0.51788 -0.73308,-0.90382 -0.13229,-0.39405 -0.1972,-0.85584 -0.1972,-1.38218 v -3.61315 h -0.98778 v -1.82034 h 0.98778 v -2.06022 h 1.89089 v 2.06022 h 0.93133 v 1.83551 h -0.93133 v 3.73838 c 0,0.10337 0.0332,0.21661 0.0977,0.33902 0.0663,0.12277 0.20814,0.18345 0.42439,0.18345 h 0.40922 l 0.42334,1.94698 z m 3.72639,0 c -0.49882,0 -0.92745,-0.0935 -1.28446,-0.28223 -0.35701,-0.18767 -0.62971,-0.42333 -0.81845,-0.70555 -0.18873,-0.29104 -0.28257,-0.58314 -0.28257,-0.87383 v -0.72073 c 0,-0.0938 0.01,-0.22048 0.0289,-0.38029 0.0275,-0.16969 0.0938,-0.34855 0.1972,-0.53622 0.10336,-0.18874 0.28222,-0.34855 0.53587,-0.47943 0.15028,-0.0854 0.3489,-0.16933 0.59267,-0.25506 0.25505,-0.084 0.51823,-0.16933 0.79092,-0.25329 0.27305,-0.0938 0.53058,-0.18909 0.77576,-0.28258 0.24412,-0.10336 0.44239,-0.20672 0.59267,-0.31009 0.15981,-0.11289 0.23989,-0.23001 0.23989,-0.35278 v -0.32526 c 0,-0.10336 -0.0236,-0.19297 -0.0706,-0.2674 -0.037,-0.0854 -0.10301,-0.15029 -0.19826,-0.19826 -0.084,-0.0565 -0.20108,-0.0843 -0.35278,-0.0843 v -1.73602 c 0.54575,0 0.99766,0.12242 1.35608,0.36795 0.35666,0.23425 0.62406,0.52211 0.80328,0.85972 0.17921,0.33902 0.26881,0.64911 0.26881,0.93169 v 3.68335 c 0,0.0564 0.018,0.14605 0.0564,0.2674 0.0469,0.12242 0.15981,0.1831 0.33761,0.1831 v 1.75013 c -0.30057,0 -0.56904,-0.037 -0.80328,-0.11289 -0.22613,-0.084 -0.4191,-0.1972 -0.57891,-0.33902 -0.17921,0.15169 -0.38594,0.26458 -0.62159,0.33902 -0.23425,0.0759 -0.50306,0.11289 -0.80328,0.11289 v -1.73496 c 0.16934,0 0.29634,-0.0328 0.3803,-0.0991 0.0854,-0.066 0.14181,-0.14041 0.16968,-0.22614 0.037,-0.0935 0.0564,-0.17356 0.0564,-0.23953 v -1.15747 c -0.15029,0.0854 -0.32526,0.1651 -0.52247,0.23954 -0.19685,0.0759 -0.39969,0.14217 -0.60642,0.19861 -0.20638,0.0469 -0.39123,0.0935 -0.55104,0.14041 -0.15028,0.0469 -0.25753,0.0854 -0.32385,0.11289 -0.12277,0.0568 -0.18344,0.16545 -0.18344,0.32526 v 0.1972 c 0,0.11289 0.018,0.20673 0.0568,0.28258 0.0466,0.0744 0.12665,0.13088 0.23954,0.16933 0.12277,0.0374 0.29633,0.0564 0.52246,0.0564 z m -0.64911,-5.40456 -1.63724,-0.62018 c 0,-0.38594 0.11324,-0.72884 0.33902,-1.03082 0.23424,-0.30021 0.52634,-0.5401 0.87524,-0.71931 0.35666,-0.17921 0.71932,-0.26847 1.08585,-0.26847 v 1.73602 c -0.14076,0 -0.26317,0.0332 -0.36653,0.0995 -0.0938,0.0645 -0.16969,0.16369 -0.22614,0.29633 -0.0469,0.13088 -0.0702,0.30021 -0.0702,0.50694 z m 5.10822,0.0565 c 0,-0.39406 0.0607,-0.75636 0.18345,-1.08585 0.12135,-0.3295 0.29633,-0.61172 0.52211,-0.84738 0.22472,-0.24412 0.49354,-0.43285 0.80363,-0.56374 0.3115,-0.13229 0.6544,-0.19826 1.03081,-0.19826 v 1.83551 c -0.14217,0 -0.26317,0.037 -0.36653,0.11289 -0.0952,0.0744 -0.16969,0.18344 -0.22613,0.32385 -0.0565,0.1404 -0.0854,0.31009 -0.0854,0.50835 v 5.26274 h -1.86196 z m 3.92219,0.0854 c 0,-0.19826 -0.0279,-0.36795 -0.0843,-0.50835 -0.0466,-0.14041 -0.12241,-0.24942 -0.22577,-0.32385 -0.10337,-0.0759 -0.22614,-0.11289 -0.36654,-0.11289 v -1.83551 c 0.37606,0 0.71931,0.066 1.0294,0.19826 0.31115,0.13089 0.57856,0.31962 0.80469,0.56374 0.22578,0.23566 0.3997,0.51788 0.52211,0.84738 0.12277,0.32949 0.18345,0.69179 0.18345,1.08585 v 5.34811 h -1.86302 z m 5.19359,5.26274 c -0.40499,0 -0.75247,-0.0797 -1.04457,-0.23954 -0.2921,-0.16016 -0.53587,-0.35701 -0.73449,-0.59267 -0.18732,-0.24377 -0.32914,-0.4893 -0.42298,-0.73307 -0.0938,-0.24553 -0.1404,-0.45191 -0.1404,-0.62159 v -3.66819 c 0,-0.16968 0.0466,-0.37641 0.1404,-0.62159 0.0938,-0.24377 0.23566,-0.47943 0.42298,-0.70556 0.19862,-0.23565 0.43815,-0.42862 0.72073,-0.5789 0.29069,-0.15981 0.63394,-0.23954 1.0294,-0.23954 h 0.46602 v 1.82033 h -0.46602 c -0.1404,0 -0.24941,0.0332 -0.32385,0.0991 -0.066,0.0564 -0.11289,0.11713 -0.14181,0.18345 -0.018,0.066 -0.0275,0.10336 -0.0275,0.11289 v 3.57046 c 0,0.008 0.0138,0.0469 0.0413,0.11148 0.0289,0.0568 0.0801,0.11853 0.15557,0.18485 0.0759,0.0565 0.18344,0.084 0.32526,0.084 h 0.43709 v 1.83409 z m 1.18533,0 v -10.10356 h 1.96074 l -0.0138,10.10356 z m 6.30732,0 v -9.89154 h 1.97591 v 6.05367 h 0.762 v 1.83444 h -0.762 v 2.00343 z m -3.48509,-2.00343 v -1.83444 l 2.68005,-4.59987 v 3.55529 l -0.64911,1.04458 h 0.64911 v 1.83444 z m 8.12764,2.07398 c -0.2921,0 -0.54045,-0.10336 -0.74824,-0.31009 -0.20673,-0.20673 -0.31009,-0.45614 -0.31009,-0.74824 0,-0.30057 0.10336,-0.55421 0.31009,-0.76235 0.20779,-0.20673 0.45614,-0.3101 0.74824,-0.3101 0.30022,0 0.54963,0.10337 0.74824,0.3101 0.20673,0.20814 0.3101,0.46178 0.3101,0.76235 0,0.2921 -0.10337,0.54151 -0.3101,0.74824 -0.19861,0.20673 -0.44802,0.31009 -0.74824,0.31009 z m 5.23523,0 v -1.87713 c 0.16933,0 0.30162,-0.0275 0.39546,-0.084 0.10336,-0.0564 0.17357,-0.12665 0.21061,-0.21237 0.0388,-0.084 0.0564,-0.16792 0.0564,-0.2533 v -5.68713 h 1.91982 v 5.91291 c 0,0.18768 -0.0564,0.40922 -0.16969,0.66287 -0.10336,0.24518 -0.26317,0.48507 -0.47942,0.71932 -0.21626,0.23565 -0.48931,0.43285 -0.81845,0.59407 -0.31997,0.15029 -0.69179,0.22472 -1.11477,0.22472 z m -0.64912,0 c -0.42333,0 -0.79939,-0.0744 -1.12888,-0.22472 -0.31962,-0.15169 -0.58844,-0.34466 -0.80468,-0.57891 -0.20673,-0.23565 -0.36654,-0.47519 -0.47943,-0.72072 -0.10337,-0.25365 -0.15593,-0.47943 -0.15593,-0.67663 v -5.91291 h 1.91981 v 5.68713 c 0,0.0854 0.0194,0.16934 0.0564,0.2533 0.037,0.0857 0.10335,0.15593 0.19719,0.21237 0.0949,0.0564 0.22578,0.0854 0.39547,0.0854 z m 7.2249,0 v -1.778 c 0.11288,0 0.23565,-0.0233 0.36653,-0.0702 0.1323,-0.0469 0.24553,-0.11712 0.33902,-0.21202 0.0938,-0.0938 0.14076,-0.21096 0.14076,-0.35278 0,-0.18768 -0.0938,-0.33761 -0.28258,-0.45085 -0.17779,-0.12241 -0.4078,-0.22189 -0.69038,-0.29598 -0.27305,-0.0857 -0.5595,-0.16545 -0.86149,-0.23989 -0.2921,-0.0758 -0.54963,-0.16545 -0.77576,-0.26881 -0.20672,-0.0938 -0.41345,-0.23001 -0.62159,-0.40923 -0.19685,-0.17921 -0.36654,-0.40922 -0.50694,-0.69179 -0.13229,-0.28258 -0.19862,-0.62548 -0.19862,-1.02941 0,-0.47131 0.0857,-0.85584 0.25506,-1.15746 0.1778,-0.31009 0.3997,-0.55527 0.66287,-0.73307 0.26318,-0.17922 0.532,-0.30622 0.80469,-0.38171 0.27306,-0.0759 0.5073,-0.11324 0.70556,-0.11324 v 1.75013 c -0.21626,0 -0.37607,0.0332 -0.48084,0.0995 -0.0938,0.0646 -0.15452,0.13617 -0.18345,0.21061 -0.0176,0.0759 -0.0275,0.13653 -0.0275,0.18344 0,0.16934 0.0801,0.32915 0.23987,0.48084 0.16935,0.14041 0.43286,0.27693 0.78953,0.40781 0.36794,0.12277 0.84208,0.24942 1.42628,0.38171 0.18733,0.0374 0.37077,0.10759 0.54998,0.21237 0.18873,0.10336 0.357,0.23989 0.50835,0.40922 0.15029,0.16828 0.27305,0.3803 0.36653,0.63394 0.0938,0.24518 0.14076,0.53587 0.14076,0.87489 0,0.53622 -0.12135,0.99766 -0.36654,1.3836 -0.23564,0.37641 -0.55561,0.66287 -0.9592,0.86007 -0.40534,0.19826 -0.85159,0.29633 -1.34091,0.29633 z m -0.63536,0 c -0.60219,0 -1.09114,-0.11324 -1.46756,-0.33761 -0.36653,-0.22613 -0.63923,-0.50447 -0.81844,-0.83396 -0.16969,-0.33761 -0.25365,-0.67663 -0.25365,-1.01565 l 1.75013,-0.32385 c 0,0.14076 0.0374,0.26741 0.11289,0.38029 0.0843,0.10337 0.18768,0.18909 0.3101,0.25365 0.12276,0.0565 0.24412,0.0896 0.36653,0.0991 z m 1.42487,-5.67231 c 0,-0.23566 -0.0603,-0.40499 -0.18309,-0.50835 -0.11289,-0.10337 -0.23425,-0.16934 -0.36654,-0.19721 -0.13229,-0.037 -0.22048,-0.0564 -0.26882,-0.0564 l 0.0152,-1.75013 c 0.5073,0 0.94933,0.11324 1.32574,0.33902 0.38594,0.22613 0.68192,0.5087 0.88865,0.84631 0.21661,0.33902 0.32526,0.68192 0.32526,1.03082 z"
       style="fill:#000000;fill-opacity:1;fill-rule:nonzero;stroke:none;stroke-width:0.352778" />
    <g
       id="text1"
       style="stroke-width:1.14205"
       aria-label="NONE OF THIS&#10;IS NORMAL.&#10;NONE OF THIS&#10;IS OKAY.">
      <path
         d="M 95.574856,72.479088 72.551254,35.446416 v -5.603628 h 7.004535 l 20.09997,32.403588 v 10.232712 z m -23.023602,0 V 42.51186 h 0.487272 l 8.100897,13.034526 V 72.479088 Z M 99.168487,55.180932 91.06759,42.146406 V 29.842788 h 8.588169 v 25.338144 z m 21.439933,17.602701 v -8.649078 q 0.79181,0 1.46181,-0.304545 0.73091,-0.365454 1.27909,-0.913635 0.60909,-0.60909 0.91364,-1.400907 0.36545,-0.791817 0.36545,-1.766361 V 42.755496 q 0,-1.035453 -0.30455,-1.82727 -0.30454,-0.852726 -0.85272,-1.461816 -0.48727,-0.669999 -1.21818,-0.974544 -0.73091,-0.365454 -1.64454,-0.365454 v -8.588169 q 2.55817,0 4.81181,0.974544 2.31454,0.974544 4.01999,2.679996 1.76636,1.644543 2.74091,3.898176 1.03545,2.192724 1.03545,4.689993 v 18.2727 q 0,2.679996 -0.91364,4.994538 -0.85272,2.314542 -2.49727,4.080903 -1.64454,1.705452 -4.01999,2.679996 -2.31454,0.974544 -5.17726,0.974544 z m -3.41091,0 q -2.55818,0 -4.81181,-0.974544 -2.25363,-1.035453 -4.01999,-2.801814 -1.70546,-1.766361 -2.74091,-4.080903 -0.97454,-2.314542 -0.97454,-4.87272 v -18.2727 q 0,-2.497269 0.97454,-4.689993 1.03545,-2.253633 2.74091,-3.959085 1.76636,-1.705452 4.01999,-2.619087 2.31454,-0.974544 4.87272,-0.974544 v 8.588169 q -0.91363,0 -1.64454,0.365454 -0.73091,0.304545 -1.27909,0.974544 -0.48727,0.60909 -0.79182,1.461816 -0.30454,0.791817 -0.30454,1.82727 v 16.993611 q 0,0.974544 0.30454,1.82727 0.36546,0.791817 0.91364,1.400907 0.54818,0.548181 1.21818,0.852726 0.7309,0.304545 1.52272,0.304545 z m 44.0372,-0.304545 -23.0236,-37.032672 v -5.603628 h 7.00453 l 20.09997,32.403588 v 10.232712 z m -23.0236,0 V 42.51186 h 0.48727 l 8.10089,13.034526 v 16.932702 z m 26.61723,-17.298156 -8.1009,-13.034526 V 29.842788 h 8.58817 v 25.338144 z m 5.60359,17.298156 v -42.6363 h 22.17088 v 8.52726 H 179.0201 v 8.649078 h 7.85726 v 8.588169 h -7.85726 v 8.283624 h 13.58271 v 8.588169 z m 56.88898,0.304545 v -8.649078 q 0.79182,0 1.46182,-0.304545 0.73091,-0.365454 1.27909,-0.913635 0.60909,-0.60909 0.91363,-1.400907 0.36546,-0.791817 0.36546,-1.766361 V 42.755496 q 0,-1.035453 -0.30455,-1.82727 -0.30454,-0.852726 -0.85272,-1.461816 -0.48728,-0.669999 -1.21818,-0.974544 -0.73091,-0.365454 -1.64455,-0.365454 v -8.588169 q 2.55818,0 4.81181,0.974544 2.31455,0.974544 4.02,2.679996 1.76636,1.644543 2.7409,3.898176 1.03546,2.192724 1.03546,4.689993 v 18.2727 q 0,2.679996 -0.91364,4.994538 -0.85272,2.314542 -2.49727,4.080903 -1.64454,1.705452 -4.01999,2.679996 -2.31454,0.974544 -5.17727,0.974544 z m -3.4109,0 q -2.55818,0 -4.81181,-0.974544 -2.25363,-1.035453 -4.02,-2.801814 -1.70545,-1.766361 -2.7409,-4.080903 -0.97454,-2.314542 -0.97454,-4.87272 v -18.2727 q 0,-2.497269 0.97454,-4.689993 1.03545,-2.253633 2.7409,-3.959085 1.76637,-1.705452 4.02,-2.619087 2.31454,-0.974544 4.87272,-0.974544 v 8.588169 q -0.91364,0 -1.64454,0.365454 -0.73091,0.304545 -1.27909,0.974544 -0.48728,0.60909 -0.79182,1.461816 -0.30455,0.791817 -0.30455,1.82727 v 16.993611 q 0,0.974544 0.30455,1.82727 0.36545,0.791817 0.91363,1.400907 0.54819,0.548181 1.21818,0.852726 0.73091,0.304545 1.52273,0.304545 z m 21.0136,-0.365454 V 29.842788 h 22.17088 v 8.52726 h -13.58271 v 8.649078 h 7.85726 v 8.588169 h -7.85726 v 16.810884 z m 47.56985,0.06091 V 38.24823 h -8.89272 v -8.405442 h 26.3736 v 8.405442 h -8.89271 v 34.230858 z m 39.34718,0 V 54.937296 h -3.28909 v -7.796352 h 3.28909 V 29.842788 h 8.58817 v 42.6363 z m -18.51634,0 v -42.6363 h 8.58817 v 17.298156 h 3.28909 v 7.796352 h -3.28909 v 17.541792 z m 32.09902,0 v -42.6363 h 8.58817 v 42.6363 z m 26.86088,0.182727 v -7.91817 q 0.67,-0.06091 1.34,-0.365454 0.66999,-0.365454 1.21818,-0.913635 0.54818,-0.60909 0.85272,-1.339998 0.36546,-0.730908 0.36546,-1.583634 0,-1.522725 -0.91364,-2.679996 -0.91363,-1.21818 -2.37545,-2.070906 -1.40091,-0.913635 -2.86272,-1.522725 -1.46182,-0.60909 -2.61909,-0.974544 -1.15727,-0.365454 -1.52273,-0.487272 -1.76636,-0.548181 -3.53272,-2.009997 -1.70545,-1.461816 -2.86272,-3.776358 -1.09636,-2.375451 -1.09636,-5.420901 0,-3.228177 1.15727,-5.420901 1.21818,-2.253633 2.98454,-3.593631 1.76636,-1.400907 3.53272,-2.070906 1.82727,-0.669999 2.98454,-0.669999 v 8.039988 q -0.48727,0.182727 -0.97454,0.487272 -0.42636,0.304545 -0.79182,0.791817 -0.30454,0.487272 -0.54818,1.035453 -0.18273,0.548181 -0.18273,1.157271 0,1.096362 0.54818,1.888179 0.60909,0.791817 1.64455,1.400907 1.03545,0.60909 2.31454,1.21818 1.34,0.548181 2.86272,1.157271 1.52273,0.60909 3.04545,1.461816 1.94909,1.035453 3.71545,2.558178 1.76636,1.522725 2.92363,3.65454 1.15727,2.070906 1.15727,4.994538 0,3.471813 -1.70545,6.456354 -1.70545,2.923632 -4.56817,4.750902 -2.80182,1.766361 -6.0909,1.766361 z m -3.35,0 q -2.49727,0 -4.56817,-1.035453 -2.01,-1.035453 -3.53272,-2.619087 -1.46182,-1.583634 -2.25364,-3.228177 -0.79181,-1.644543 -0.79181,-2.923632 l 7.73544,-2.740905 q 0,1.21818 0.54818,2.192724 0.54818,0.913635 1.34,1.522725 0.79181,0.60909 1.52272,0.913635 z m 6.0909,-31.246317 q 0,-1.035453 -0.48727,-1.766361 -0.42636,-0.730908 -1.03545,-1.157271 -0.60909,-0.487272 -1.21818,-0.60909 v -8.039988 q 2.43636,0 4.38545,0.974544 1.94908,0.913635 3.34999,2.375451 1.40091,1.461816 2.13182,2.984541 0.79181,1.522725 0.79181,2.619087 z"
         id="path2" />
      <path
         d="M 96.914831,133.38809 V 90.751788 H 105.503 v 42.636302 z m 26.860889,0.18273 v -7.91817 q 0.67,-0.0609 1.34,-0.36546 0.67,-0.36545 1.21818,-0.91363 0.54818,-0.60909 0.85273,-1.34 0.36545,-0.73091 0.36545,-1.58364 0,-1.52272 -0.91363,-2.67999 -0.91364,-1.21818 -2.37545,-2.07091 -1.40091,-0.91363 -2.86273,-1.52272 -1.46181,-0.60909 -2.61908,-0.97455 -1.15728,-0.36545 -1.52273,-0.48727 -1.76636,-0.54818 -3.53272,-2.01 -1.70545,-1.46181 -2.86272,-3.77635 -1.09637,-2.37545 -1.09637,-5.4209 0,-3.228182 1.15727,-5.420906 1.21818,-2.253633 2.98455,-3.593631 1.76636,-1.400907 3.53272,-2.070906 1.82727,-0.669999 2.98454,-0.669999 v 8.039988 q -0.48727,0.182727 -0.97455,0.487272 -0.42636,0.304545 -0.79181,0.791822 -0.30455,0.48727 -0.54818,1.03545 -0.18273,0.54818 -0.18273,1.15727 0,1.09636 0.54818,1.88818 0.60909,0.79182 1.64454,1.40091 1.03546,0.60909 2.31455,1.21818 1.33999,0.54818 2.86272,1.15727 1.52272,0.60909 3.04545,1.46181 1.94909,1.03546 3.71545,2.55818 1.76636,1.52273 2.92363,3.65454 1.15727,2.07091 1.15727,4.99454 0,3.47181 -1.70545,6.45635 -1.70545,2.92363 -4.56818,4.7509 -2.80181,1.76637 -6.0909,1.76637 z m -3.34999,0 q -2.49727,0 -4.56818,-1.03546 -2.00999,-1.03545 -3.53272,-2.61908 -1.46181,-1.58364 -2.25363,-3.22818 -0.79182,-1.64454 -0.79182,-2.92363 l 7.73544,-2.74091 q 0,1.21818 0.54819,2.19273 0.54818,0.91363 1.33999,1.52272 0.79182,0.60909 1.52273,0.91364 z m 6.0909,-31.24632 q 0,-1.03545 -0.48727,-1.76636 -0.42637,-0.730911 -1.03546,-1.157274 -0.60909,-0.487272 -1.21818,-0.60909 v -8.039988 q 2.43636,0 4.38545,0.974544 1.94909,0.913635 3.35,2.375451 1.4009,1.461816 2.13181,2.984541 0.79182,1.522725 0.79182,2.619087 z m 50.43268,31.06359 -23.02361,-37.032674 v -5.603628 h 7.00454 l 20.09997,32.403592 v 10.23271 z m -23.02361,0 v -29.96723 h 0.48728 l 8.10089,13.03453 v 16.9327 z m 26.61724,-17.29816 -8.1009,-13.03452 V 90.751788 h 8.58817 v 25.338142 z m 21.43993,17.6027 v -8.64907 q 0.79182,0 1.46181,-0.30455 0.73091,-0.36545 1.27909,-0.91363 0.60909,-0.60909 0.91364,-1.40091 0.36545,-0.79182 0.36545,-1.76636 V 103.6645 q 0,-1.03546 -0.30454,-1.82727 -0.30455,-0.85273 -0.85273,-1.46182 -0.48727,-0.669999 -1.21818,-0.974544 -0.73091,-0.365454 -1.64454,-0.365454 v -8.588169 q 2.55818,0 4.81181,0.974544 2.31454,0.974544 4.01999,2.679996 1.76636,1.644543 2.74091,3.898176 1.03545,2.192721 1.03545,4.689991 v 18.2727 q 0,2.68 -0.91363,4.99454 -0.85273,2.31454 -2.49727,4.0809 -1.64455,1.70546 -4.02,2.68 -2.31454,0.97454 -5.17726,0.97454 z m -3.41091,0 q -2.55817,0 -4.81181,-0.97454 -2.25363,-1.03545 -4.01999,-2.80181 -1.70545,-1.76637 -2.74091,-4.08091 -0.97454,-2.31454 -0.97454,-4.87272 v -18.2727 q 0,-2.49727 0.97454,-4.689991 1.03546,-2.253633 2.74091,-3.959085 1.76636,-1.705452 4.01999,-2.619087 2.31455,-0.974544 4.87272,-0.974544 v 8.588169 q -0.91363,0 -1.64454,0.365454 -0.73091,0.304545 -1.27909,0.974544 -0.48727,0.60909 -0.79182,1.46182 -0.30454,0.79181 -0.30454,1.82727 v 16.99361 q 0,0.97454 0.30454,1.82727 0.36546,0.79181 0.91364,1.4009 0.54818,0.54819 1.21818,0.85273 0.73091,0.30455 1.52272,0.30455 z m 39.95629,-0.30454 -0.91363,-10.8418 q -0.18273,-2.37545 -0.79182,-3.77636 -0.54818,-1.46182 -1.70545,-2.13182 -1.09636,-0.67 -2.98454,-0.67 h -0.67 v -7.61362 h 0.79182 q 2.7409,0 3.95908,-1.46182 1.27909,-1.52272 1.27909,-3.34999 0,-2.19273 -1.52272,-3.41091 -1.46182,-1.279085 -3.71545,-1.279085 h -0.79182 v -8.100897 h 1.34 q 4.0809,0 6.88271,1.522725 2.86273,1.522725 4.32454,4.202721 1.52273,2.619087 1.52273,6.090896 0,3.10636 -1.15727,5.48181 -1.09636,2.37546 -2.98454,3.89818 1.94908,1.21818 2.86272,3.65454 0.97454,2.37545 1.15727,4.56818 l 1.03545,13.21725 z m -18.9427,0 V 90.751788 h 8.58817 v 42.636302 z m 46.16898,0 -15.40998,-37.032674 v -5.603628 h 6.69999 l 11.63362,28.200872 6.45635,-14.55726 h 0.60909 v 19.79543 l -4.0809,9.19726 z m -15.40998,0 v -27.0436 h 0.54818 l 8.03999,19.30816 v 7.73544 z m 28.68814,0 V 90.751788 h 8.58817 v 42.636302 z m 33.62171,0 -1.21818,-5.17727 h -6.33454 l 1.82727,-8.40544 h 2.19273 l -6.45636,-29.053592 h 8.46636 l 10.04998,42.636302 z m -20.52633,0 7.85726,-35.44904 h 0.91363 l 3.65454,17.05452 -4.01999,18.39452 z m 32.76903,0 V 90.751788 h 8.58817 v 34.109042 h 14.31361 v 8.52726 z m 30.21091,0.30454 q -1.88818,0 -3.22818,-1.33999 -1.34,-1.34 -1.34,-3.22818 0,-1.94909 1.34,-3.28909 1.34,-1.34 3.22818,-1.34 1.94909,0 3.22818,1.34 1.33999,1.34 1.33999,3.28909 0,1.88818 -1.33999,3.22818 -1.27909,1.33999 -3.22818,1.33999 z"
         id="path3" />
      <path
         d="M 95.574856,194.29709 72.551254,157.26442 v -5.60363 h 7.004535 l 20.09997,32.40359 v 10.23271 z m -23.023602,0 v -29.96723 h 0.487272 l 8.100897,13.03453 v 16.9327 z M 99.168487,176.99893 91.06759,163.96441 v -12.30362 h 8.588169 v 25.33814 z m 21.439933,17.6027 v -8.64907 q 0.79181,0 1.46181,-0.30455 0.73091,-0.36545 1.27909,-0.91363 0.60909,-0.60909 0.91364,-1.40091 0.36545,-0.79182 0.36545,-1.76636 V 164.5735 q 0,-1.03546 -0.30455,-1.82727 -0.30454,-0.85273 -0.85272,-1.46182 -0.48727,-0.67 -1.21818,-0.97454 -0.73091,-0.36546 -1.64454,-0.36546 v -8.58817 q 2.55817,0 4.81181,0.97455 2.31454,0.97454 4.01999,2.67999 1.76636,1.64455 2.74091,3.89818 1.03545,2.19272 1.03545,4.68999 v 18.2727 q 0,2.68 -0.91364,4.99454 -0.85272,2.31454 -2.49727,4.0809 -1.64454,1.70546 -4.01999,2.68 -2.31454,0.97454 -5.17726,0.97454 z m -3.41091,0 q -2.55818,0 -4.81181,-0.97454 -2.25363,-1.03545 -4.01999,-2.80181 -1.70546,-1.76637 -2.74091,-4.08091 -0.97454,-2.31454 -0.97454,-4.87272 v -18.2727 q 0,-2.49727 0.97454,-4.68999 1.03545,-2.25363 2.74091,-3.95909 1.76636,-1.70545 4.01999,-2.61908 2.31454,-0.97455 4.87272,-0.97455 v 8.58817 q -0.91363,0 -1.64454,0.36546 -0.73091,0.30454 -1.27909,0.97454 -0.48727,0.60909 -0.79182,1.46182 -0.30454,0.79181 -0.30454,1.82727 v 16.99361 q 0,0.97454 0.30454,1.82727 0.36546,0.79181 0.91364,1.4009 0.54818,0.54819 1.21818,0.85273 0.7309,0.30455 1.52272,0.30455 z m 44.0372,-0.30454 -23.0236,-37.03267 v -5.60363 h 7.00453 l 20.09997,32.40359 v 10.23271 z m -23.0236,0 v -29.96723 h 0.48727 l 8.10089,13.03453 v 16.9327 z m 26.61723,-17.29816 -8.1009,-13.03452 v -12.30362 h 8.58817 v 25.33814 z m 5.60359,17.29816 v -42.6363 h 22.17088 v 8.52726 H 179.0201 v 8.64908 h 7.85726 v 8.58817 h -7.85726 v 8.28362 h 13.58271 v 8.58817 z m 56.88898,0.30454 v -8.64907 q 0.79182,0 1.46182,-0.30455 0.73091,-0.36545 1.27909,-0.91363 0.60909,-0.60909 0.91363,-1.40091 0.36546,-0.79182 0.36546,-1.76636 V 164.5735 q 0,-1.03546 -0.30455,-1.82727 -0.30454,-0.85273 -0.85272,-1.46182 -0.48728,-0.67 -1.21818,-0.97454 -0.73091,-0.36546 -1.64455,-0.36546 v -8.58817 q 2.55818,0 4.81181,0.97455 2.31455,0.97454 4.02,2.67999 1.76636,1.64455 2.7409,3.89818 1.03546,2.19272 1.03546,4.68999 v 18.2727 q 0,2.68 -0.91364,4.99454 -0.85272,2.31454 -2.49727,4.0809 -1.64454,1.70546 -4.01999,2.68 -2.31454,0.97454 -5.17727,0.97454 z m -3.4109,0 q -2.55818,0 -4.81181,-0.97454 -2.25363,-1.03545 -4.02,-2.80181 -1.70545,-1.76637 -2.7409,-4.08091 -0.97454,-2.31454 -0.97454,-4.87272 v -18.2727 q 0,-2.49727 0.97454,-4.68999 1.03545,-2.25363 2.7409,-3.95909 1.76637,-1.70545 4.02,-2.61908 2.31454,-0.97455 4.87272,-0.97455 v 8.58817 q -0.91364,0 -1.64454,0.36546 -0.73091,0.30454 -1.27909,0.97454 -0.48728,0.60909 -0.79182,1.46182 -0.30455,0.79181 -0.30455,1.82727 v 16.99361 q 0,0.97454 0.30455,1.82727 0.36545,0.79181 0.91363,1.4009 0.54819,0.54819 1.21818,0.85273 0.73091,0.30455 1.52273,0.30455 z m 21.0136,-0.36545 v -42.57539 h 22.17088 v 8.52726 h -13.58271 v 8.64908 h 7.85726 v 8.58817 h -7.85726 v 16.81088 z m 47.56985,0.0609 v -34.23086 h -8.89272 v -8.40544 h 26.3736 v 8.40544 h -8.89271 v 34.23086 z m 39.34718,0 V 176.7553 h -3.28909 v -7.79636 h 3.28909 v -17.29815 h 8.58817 v 42.6363 z m -18.51634,0 v -42.6363 h 8.58817 v 17.29815 h 3.28909 v 7.79636 h -3.28909 v 17.54179 z m 32.09902,0 v -42.6363 h 8.58817 v 42.6363 z m 26.86088,0.18273 v -7.91817 q 0.67,-0.0609 1.34,-0.36546 0.66999,-0.36545 1.21818,-0.91363 0.54818,-0.60909 0.85272,-1.34 0.36546,-0.73091 0.36546,-1.58364 0,-1.52272 -0.91364,-2.67999 -0.91363,-1.21818 -2.37545,-2.07091 -1.40091,-0.91363 -2.86272,-1.52272 -1.46182,-0.60909 -2.61909,-0.97455 -1.15727,-0.36545 -1.52273,-0.48727 -1.76636,-0.54818 -3.53272,-2.01 -1.70545,-1.46181 -2.86272,-3.77635 -1.09636,-2.37545 -1.09636,-5.4209 0,-3.22818 1.15727,-5.42091 1.21818,-2.25363 2.98454,-3.59363 1.76636,-1.4009 3.53272,-2.0709 1.82727,-0.67 2.98454,-0.67 v 8.03999 q -0.48727,0.18272 -0.97454,0.48727 -0.42636,0.30454 -0.79182,0.79182 -0.30454,0.48727 -0.54818,1.03545 -0.18273,0.54818 -0.18273,1.15727 0,1.09636 0.54818,1.88818 0.60909,0.79182 1.64455,1.40091 1.03545,0.60909 2.31454,1.21818 1.34,0.54818 2.86272,1.15727 1.52273,0.60909 3.04545,1.46181 1.94909,1.03546 3.71545,2.55818 1.76636,1.52273 2.92363,3.65454 1.15727,2.07091 1.15727,4.99454 0,3.47181 -1.70545,6.45635 -1.70545,2.92363 -4.56817,4.7509 -2.80182,1.76637 -6.0909,1.76637 z m -3.35,0 q -2.49727,0 -4.56817,-1.03546 -2.01,-1.03545 -3.53272,-2.61908 -1.46182,-1.58364 -2.25364,-3.22818 -0.79181,-1.64454 -0.79181,-2.92363 l 7.73544,-2.74091 q 0,1.21818 0.54818,2.19273 0.54818,0.91363 1.34,1.52272 0.79181,0.60909 1.52272,0.91364 z m 6.0909,-31.24632 q 0,-1.03545 -0.48727,-1.76636 -0.42636,-0.73091 -1.03545,-1.15727 -0.60909,-0.48728 -1.21818,-0.60909 v -8.03999 q 2.43636,0 4.38545,0.97454 1.94908,0.91364 3.34999,2.37545 1.40091,1.46182 2.13182,2.98454 0.79181,1.52273 0.79181,2.61909 z"
         id="path4" />
      <path
         d="m 134.19105,255.20609 v -42.6363 h 8.58817 v 42.6363 z m 26.86089,0.18273 v -7.91817 q 0.67,-0.0609 1.34,-0.36546 0.67,-0.36545 1.21818,-0.91363 0.54818,-0.60909 0.85273,-1.34 0.36545,-0.73091 0.36545,-1.58364 0,-1.52272 -0.91363,-2.67999 -0.91364,-1.21818 -2.37545,-2.07091 -1.40091,-0.91363 -2.86273,-1.52272 -1.46181,-0.60909 -2.61908,-0.97455 -1.15728,-0.36545 -1.52273,-0.48727 -1.76636,-0.54818 -3.53272,-2.01 -1.70545,-1.46181 -2.86272,-3.77635 -1.09637,-2.37545 -1.09637,-5.4209 0,-3.22818 1.15727,-5.42091 1.21818,-2.25363 2.98455,-3.59363 1.76636,-1.4009 3.53272,-2.0709 1.82727,-0.67 2.98454,-0.67 v 8.03999 q -0.48727,0.18272 -0.97455,0.48727 -0.42636,0.30454 -0.79181,0.79182 -0.30455,0.48727 -0.54818,1.03545 -0.18273,0.54818 -0.18273,1.15727 0,1.09636 0.54818,1.88818 0.60909,0.79182 1.64454,1.40091 1.03546,0.60909 2.31455,1.21818 1.33999,0.54818 2.86272,1.15727 1.52272,0.60909 3.04545,1.46181 1.94909,1.03546 3.71545,2.55818 1.76636,1.52273 2.92363,3.65454 1.15727,2.07091 1.15727,4.99454 0,3.47181 -1.70545,6.45635 -1.70545,2.92363 -4.56818,4.75091 -2.80181,1.76636 -6.0909,1.76636 z m -3.34999,0 q -2.49727,0 -4.56818,-1.03546 -2.00999,-1.03545 -3.53272,-2.61908 -1.46181,-1.58364 -2.25363,-3.22818 -0.79182,-1.64454 -0.79182,-2.92363 l 7.73544,-2.74091 q 0,1.21818 0.54819,2.19273 0.54818,0.91363 1.33999,1.52272 0.79182,0.60909 1.52273,0.91364 z m 6.0909,-31.24632 q 0,-1.03545 -0.48727,-1.76636 -0.42637,-0.73091 -1.03546,-1.15727 -0.60909,-0.48728 -1.21818,-0.60909 v -8.03999 q 2.43636,0 4.38545,0.97454 1.94909,0.91364 3.35,2.37545 1.4009,1.46182 2.13181,2.98454 0.79182,1.52273 0.79182,2.61909 z m 43.24541,31.36813 v -8.64907 q 0.79182,0 1.46182,-0.30455 0.73091,-0.36545 1.27909,-0.91363 0.60909,-0.60909 0.91363,-1.40091 0.36546,-0.79182 0.36546,-1.76636 V 225.4825 q 0,-1.03546 -0.30455,-1.82727 -0.30454,-0.85273 -0.85272,-1.46182 -0.48728,-0.67 -1.21818,-0.97454 -0.73091,-0.36546 -1.64455,-0.36546 v -8.58817 q 2.55818,0 4.81181,0.97455 2.31455,0.97454 4.02,2.67999 1.76636,1.64455 2.7409,3.89818 1.03546,2.19272 1.03546,4.68999 v 18.2727 q 0,2.68 -0.91364,4.99454 -0.85272,2.31454 -2.49727,4.0809 -1.64454,1.70546 -4.01999,2.68 -2.31454,0.97454 -5.17727,0.97454 z m -3.4109,0 q -2.55818,0 -4.81181,-0.97454 -2.25363,-1.03545 -4.02,-2.80181 -1.70545,-1.76637 -2.7409,-4.08091 -0.97454,-2.31454 -0.97454,-4.87272 v -18.2727 q 0,-2.49727 0.97454,-4.68999 1.03545,-2.25363 2.7409,-3.95909 1.76637,-1.70545 4.02,-2.61908 2.31454,-0.97455 4.87272,-0.97455 v 8.58817 q -0.91364,0 -1.64454,0.36546 -0.73091,0.30454 -1.27909,0.97454 -0.48728,0.60909 -0.79182,1.46182 -0.30455,0.79181 -0.30455,1.82727 v 16.99361 q 0,0.97454 0.30455,1.82727 0.36545,0.79181 0.91363,1.4009 0.54819,0.54819 1.21818,0.85273 0.73091,0.30455 1.52273,0.30455 z m 38.85993,-0.30454 -6.8218,-20.76997 6.51726,-21.86633 h 8.46635 l -6.45635,21.86633 6.69999,20.76997 z m -17.84633,0 v -42.6363 h 8.58817 v 42.6363 z m 49.64088,0 -1.21818,-5.17727 h -6.33454 l 1.82727,-8.40544 h 2.19273 l -6.45636,-29.05359 h 8.46636 l 10.04998,42.6363 z m -20.52633,0 7.85726,-35.44904 h 0.91363 l 3.65454,17.05452 -4.01999,18.39452 z m 38.92085,0 v -15.34907 l -7.97908,-27.28723 h 8.95362 l 7.91817,27.22632 v 15.40998 z m 10.8418,-20.16088 -4.02,-14.25271 2.37546,-8.22271 h 8.8318 l -6.63908,22.47542 z m 14.31363,20.46542 q -1.88818,0 -3.22818,-1.33999 -1.34,-1.34 -1.34,-3.22818 0,-1.94909 1.34,-3.28909 1.34,-1.34 3.22818,-1.34 1.94908,0 3.22817,1.34 1.34,1.34 1.34,3.28909 0,1.88818 -1.34,3.22818 -1.27909,1.33999 -3.22817,1.33999 z"
         id="path5" />
    </g>
  </g>
</svg>
