<?xml version="1.0" encoding="UTF-8"?>
<svg
   width="600px"
   height="400px"
   viewBox="0 0 600 400"
   version="1.1"
   id="svg1"
   xmlns="http://www.w3.org/2000/svg"
   xmlns:svg="http://www.w3.org/2000/svg">
  <g
     id="layer1">
    <rect
       style="fill:#ffffff"
       id="rect4"
       width="600"
       height="400"
       x="0"
       y="0" />
    <path
       id="path1"
       d="m 135.26276,282.47966 c -0.40534,0 -0.75388,-0.0797 -1.04457,-0.23954 -0.2921,-0.16016 -0.53622,-0.35701 -0.73448,-0.59267 -0.18733,-0.24377 -0.3295,-0.4893 -0.42298,-0.73307 -0.0938,-0.24553 -0.14076,-0.45191 -0.14076,-0.62159 v -3.66819 c 0,-0.16968 0.0469,-0.37641 0.14076,-0.62159 0.0935,-0.24377 0.23565,-0.47943 0.42298,-0.70556 0.19826,-0.23565 0.43815,-0.42862 0.72072,-0.5789 0.29069,-0.15981 0.63394,-0.23954 1.02941,-0.23954 h 0.46566 v 1.82033 h -0.46566 c -0.14076,0 -0.24942,0.0332 -0.32385,0.0991 -0.0663,0.0564 -0.11289,0.11713 -0.14182,0.18345 -0.018,0.066 -0.0279,0.10336 -0.0279,0.11289 v 3.57046 c 0,0.008 0.0138,0.0469 0.0416,0.11289 0.0289,0.0554 0.0797,0.11712 0.15557,0.18344 0.0759,0.0565 0.18345,0.084 0.32526,0.084 h 0.43674 v 1.83409 z m 1.18498,0 V 272.3761 h 1.9611 l -0.0138,10.10356 z m 5.61552,0.0138 c -0.33761,0 -0.66287,-0.0607 -0.97296,-0.1831 -0.30162,-0.12135 -0.56903,-0.29633 -0.80469,-0.52246 -0.23565,-0.22437 -0.42298,-0.49742 -0.56479,-0.81703 -0.13088,-0.32103 -0.19721,-0.67804 -0.19721,-1.07351 v -2.76577 c 0,-0.39406 0.0607,-0.75636 0.18345,-1.08585 0.12241,-0.3295 0.29598,-0.61172 0.52211,-0.84738 0.22613,-0.24412 0.49318,-0.43285 0.80469,-0.56374 0.31009,-0.13229 0.65334,-0.19826 1.0294,-0.19826 v 1.83551 c -0.1404,0 -0.26317,0.037 -0.36653,0.11289 -0.0935,0.0744 -0.16934,0.18344 -0.22578,0.32385 -0.0568,0.1404 -0.0843,0.31009 -0.0843,0.50835 v 2.6102 c 0,0.15981 0.0275,0.30586 0.0843,0.43815 0.0564,0.12136 0.13617,0.22049 0.23953,0.29633 0.10337,0.0646 0.2219,0.0977 0.35278,0.0977 z m 0.70556,0 v -1.8341 c 0.13229,0 0.24941,-0.0332 0.35277,-0.0977 0.10337,-0.0758 0.18345,-0.17497 0.23989,-0.29633 0.0564,-0.13229 0.0854,-0.27834 0.0854,-0.43815 v -2.6102 c 0,-0.19826 -0.0289,-0.36795 -0.0854,-0.50835 -0.0469,-0.14041 -0.12135,-0.24942 -0.22472,-0.32385 -0.10477,-0.0759 -0.22577,-0.11289 -0.36794,-0.11289 v -1.83551 c 0.37641,0 0.72072,0.066 1.03081,0.19826 0.31009,0.13089 0.57891,0.31962 0.80328,0.56374 0.22613,0.23566 0.40111,0.51788 0.52246,0.84738 0.12277,0.32949 0.18309,0.69179 0.18309,1.08585 v 2.76577 c 0,0.39547 -0.0702,0.75248 -0.2106,1.07351 -0.1323,0.31961 -0.31574,0.59266 -0.54999,0.81703 -0.23565,0.22613 -0.50835,0.40111 -0.81844,0.52246 -0.30198,0.12242 -0.62159,0.1831 -0.96061,0.1831 z m 9.44104,-0.0138 -2.45569,-8.04334 h 2.10291 l 2.06022,6.09636 -0.63535,1.94698 z m -3.95076,0 -2.45569,-8.04334 h 2.10291 l 2.06022,6.09636 -0.63535,1.94698 z m 1.90429,-3.23145 -1.00189,-2.87866 0.59267,-1.93323 h 2.10291 l -1.51024,4.81189 z m 3.95076,0 -1.00154,-2.87866 0.59232,-1.93323 h 2.10291 l -1.51025,4.81189 z m 2.32904,-2.11666 c 0,-0.39406 0.0607,-0.75636 0.18309,-1.08585 0.12277,-0.3295 0.29633,-0.61172 0.52246,-0.84738 0.22613,-0.24412 0.49319,-0.43285 0.80328,-0.56374 0.3115,-0.13229 0.65475,-0.19826 1.03082,-0.19826 v 1.83551 c -0.14041,0 -0.26318,0.037 -0.36654,0.11289 -0.0938,0.0744 -0.16933,0.18344 -0.22613,0.32385 -0.0564,0.1404 -0.0854,0.31009 -0.0854,0.50835 v 5.26274 h -1.86161 z m 3.92324,0.0854 c 0,-0.19826 -0.0289,-0.36654 -0.0854,-0.50835 -0.0469,-0.14041 -0.12277,-0.24942 -0.22613,-0.32385 -0.10337,-0.0759 -0.22578,-0.11289 -0.36654,-0.11289 v -1.83551 c 0.37641,0 0.71931,0.066 1.03082,0.19826 0.31009,0.13089 0.57749,0.31962 0.80327,0.56374 0.22613,0.23566 0.3997,0.51788 0.52247,0.84738 0.12276,0.32949 0.18309,0.69179 0.18309,1.08585 v 5.34811 h -1.86161 z m 3.00567,5.26274 v -10.10356 h 2.03094 v 10.10356 z m 5.70088,0.0138 c -0.33901,0 -0.66428,-0.0607 -0.97437,-0.1831 -0.30056,-0.12135 -0.56903,-0.29633 -0.80468,-0.52246 -0.23425,-0.22437 -0.42298,-0.49742 -0.56374,-0.81703 -0.13229,-0.32103 -0.19826,-0.67804 -0.19826,-1.07351 v -2.76577 c 0,-0.39406 0.0617,-0.75636 0.1845,-1.08585 0.12135,-0.3295 0.29633,-0.61172 0.52105,-0.84738 0.22578,-0.24412 0.4946,-0.43285 0.80469,-0.56374 0.31009,-0.13229 0.6544,-0.19826 1.03081,-0.19826 v 1.83551 c -0.14216,0 -0.26458,0.037 -0.36794,0.11289 -0.0938,0.0744 -0.16969,0.18344 -0.22472,0.32385 -0.0564,0.1404 -0.0854,0.31009 -0.0854,0.50835 v 2.6102 c 0,0.15981 0.0289,0.30586 0.0854,0.43815 0.0564,0.12136 0.13652,0.22049 0.23989,0.29633 0.10336,0.0646 0.22048,0.0977 0.35277,0.0977 z m 0.70556,0 v -1.8341 c 0.13088,0 0.24941,-0.0332 0.35278,-0.0977 0.10336,-0.0758 0.18309,-0.17497 0.23953,-0.29633 0.0568,-0.13229 0.0843,-0.27834 0.0843,-0.43815 v -2.6102 c 0,-0.19826 -0.0275,-0.36795 -0.0843,-0.50835 -0.0466,-0.14041 -0.12241,-0.24942 -0.22577,-0.32385 -0.10337,-0.0759 -0.22613,-0.11289 -0.36654,-0.11289 v -1.83551 c 0.37606,0 0.71931,0.066 1.02941,0.19826 0.31009,0.13089 0.57855,0.31962 0.80468,0.56374 0.22613,0.23566 0.3997,0.51788 0.52211,0.84738 0.12136,0.32949 0.18345,0.69179 0.18345,1.08585 v 2.76577 c 0,0.39547 -0.0702,0.75248 -0.21237,1.07351 -0.13089,0.31961 -0.31398,0.59266 -0.54963,0.81703 -0.23566,0.22613 -0.50871,0.40111 -0.8188,0.52246 -0.30162,0.12242 -0.62124,0.1831 -0.95885,0.1831 z m 5.67196,-0.0138 c -0.49883,0 -0.92604,-0.0935 -1.28446,-0.28223 -0.35666,-0.18767 -0.62971,-0.42333 -0.81845,-0.70555 -0.18732,-0.29104 -0.28116,-0.58314 -0.28116,-0.87383 v -0.72073 c 0,-0.0938 0.008,-0.22048 0.0275,-0.38029 0.0275,-0.16969 0.0938,-0.34855 0.1972,-0.53622 0.10336,-0.18874 0.28257,-0.34855 0.53587,-0.47943 0.15169,-0.0854 0.3489,-0.16933 0.59408,-0.25506 0.25364,-0.084 0.51682,-0.16933 0.78951,-0.25329 0.27305,-0.0938 0.53199,-0.18909 0.77576,-0.28258 0.24553,-0.10336 0.44238,-0.20672 0.59267,-0.31009 0.15981,-0.11289 0.23989,-0.23001 0.23989,-0.35278 v -0.32526 c 0,-0.10336 -0.0236,-0.19297 -0.0702,-0.2674 -0.0374,-0.0854 -0.10336,-0.15029 -0.1972,-0.19826 -0.0854,-0.0565 -0.20249,-0.0843 -0.35278,-0.0843 v -1.73602 c 0.54575,0 0.99625,0.12242 1.35467,0.36795 0.35666,0.23425 0.62547,0.52211 0.80469,0.85972 0.1778,0.33902 0.2674,0.64911 0.2674,0.93169 v 3.68335 c 0,0.0564 0.0194,0.14605 0.0564,0.2674 0.0469,0.12242 0.1598,0.1831 0.33901,0.1831 v 1.75013 c -0.30197,0 -0.56903,-0.037 -0.80468,-0.11289 -0.22613,-0.084 -0.4191,-0.1972 -0.57891,-0.33761 -0.1778,0.15028 -0.38594,0.26317 -0.62018,0.33761 -0.23566,0.0759 -0.50412,0.11289 -0.80469,0.11289 v -1.73496 c 0.16933,0 0.29633,-0.0328 0.38171,-0.0991 0.084,-0.066 0.1404,-0.14041 0.16827,-0.22614 0.0385,-0.0935 0.0564,-0.17356 0.0564,-0.23953 v -1.15747 c -0.15029,0.0854 -0.32385,0.1651 -0.52247,0.23954 -0.19685,0.0759 -0.39969,0.14217 -0.60607,0.19861 -0.20673,0.0469 -0.39017,0.0935 -0.54998,0.14041 -0.15028,0.0469 -0.25894,0.0854 -0.32526,0.11289 -0.12277,0.0568 -0.18309,0.16545 -0.18309,0.32526 v 0.1972 c 0,0.11289 0.019,0.20673 0.0564,0.28258 0.0466,0.0744 0.12665,0.13088 0.23954,0.16933 0.12276,0.0374 0.29633,0.0564 0.52246,0.0564 z m -0.64911,-5.40456 -1.63724,-0.62018 c 0,-0.38594 0.11324,-0.72884 0.33902,-1.03082 0.23565,-0.30021 0.52634,-0.5401 0.87524,-0.71931 0.35666,-0.17921 0.71931,-0.26847 1.08585,-0.26847 v 1.73602 c -0.14076,0 -0.26317,0.0332 -0.36654,0.0995 -0.0938,0.0645 -0.16968,0.16369 -0.22613,0.29633 -0.0469,0.13088 -0.0702,0.30021 -0.0702,0.50694 z m 7.35189,5.40456 c -0.40393,0 -0.75248,-0.0797 -1.04458,-0.23954 -0.29069,-0.16016 -0.53622,-0.35701 -0.73307,-0.59267 -0.18873,-0.24377 -0.32949,-0.4893 -0.42298,-0.73307 -0.0953,-0.24553 -0.14217,-0.45191 -0.14217,-0.62159 v -3.66819 c 0,-0.16968 0.0469,-0.37641 0.14217,-0.62159 0.0935,-0.24377 0.23425,-0.47943 0.42298,-0.70556 0.19685,-0.23565 0.43674,-0.42862 0.71932,-0.5789 0.2921,-0.15981 0.63535,-0.23954 1.03081,-0.23954 h 0.46567 v 1.82033 h -0.46567 c -0.14217,0 -0.24941,0.0332 -0.32526,0.0991 -0.0663,0.0564 -0.11289,0.11713 -0.14076,0.18345 -0.0191,0.066 -0.0289,0.10336 -0.0289,0.11289 v 3.57046 c 0,0.008 0.0138,0.0469 0.0427,0.11289 0.0279,0.0564 0.0801,0.11712 0.15593,0.18344 0.0744,0.0565 0.18309,0.084 0.32385,0.084 h 0.43815 v 1.83409 z m 1.18498,0 v -10.10356 h 1.9625 l -0.0152,10.10356 z m 9.24242,0.0705 v -1.778 c 0.11325,0 0.23566,-0.0233 0.36795,-0.0702 0.13088,-0.0469 0.24412,-0.11712 0.33761,-0.21202 0.0953,-0.0938 0.14217,-0.21096 0.14217,-0.35278 0,-0.18768 -0.0938,-0.33761 -0.28258,-0.45085 -0.17921,-0.12241 -0.40922,-0.22189 -0.69179,-0.29598 -0.2727,-0.0857 -0.55951,-0.16545 -0.85972,-0.23989 -0.29246,-0.0758 -0.55139,-0.16545 -0.77753,-0.26881 -0.20672,-0.0938 -0.4131,-0.23001 -0.61983,-0.40923 -0.1972,-0.17921 -0.36653,-0.40922 -0.5087,-0.69179 -0.13088,-0.28258 -0.19684,-0.62548 -0.19684,-1.02941 0,-0.47131 0.084,-0.85584 0.25328,-1.15746 0.17922,-0.31009 0.3997,-0.55527 0.66287,-0.73307 0.26459,-0.17922 0.532,-0.30622 0.80505,-0.38171 0.27269,-0.0744 0.50835,-0.11324 0.70556,-0.11324 v 1.75013 c -0.21661,0 -0.37642,0.0332 -0.47979,0.0995 -0.0935,0.0646 -0.15557,0.13617 -0.18308,0.21061 -0.0194,0.0759 -0.0289,0.13653 -0.0289,0.18344 0,0.16934 0.0797,0.32915 0.23954,0.48084 0.16968,0.14041 0.43427,0.27693 0.79092,0.40781 0.3669,0.12277 0.84208,0.24942 1.42523,0.38171 0.18874,0.0374 0.37183,0.10759 0.55104,0.21237 0.18732,0.10336 0.35701,0.23989 0.5073,0.40922 0.14992,0.16828 0.27269,0.3803 0.36653,0.63394 0.0949,0.24518 0.14182,0.53587 0.14182,0.87489 0,0.53622 -0.12277,0.99766 -0.36654,1.3836 -0.23565,0.37641 -0.55527,0.66287 -0.96062,0.86007 -0.40357,0.19826 -0.8516,0.29633 -1.34091,0.29633 z m -0.63359,0 c -0.60219,0 -1.09149,-0.11183 -1.4679,-0.33761 -0.36795,-0.22613 -0.64065,-0.50447 -0.81845,-0.83255 -0.16933,-0.33902 -0.25506,-0.67804 -0.25506,-1.01706 l 1.75013,-0.32385 c 0,0.14076 0.0388,0.26741 0.11325,0.38029 0.0854,0.10337 0.18873,0.18909 0.31009,0.25506 0.12241,0.055 0.24518,0.0882 0.36794,0.0977 z m 1.42487,-5.67231 c 0,-0.23566 -0.0607,-0.40499 -0.18344,-0.50835 -0.11289,-0.10337 -0.23566,-0.16934 -0.36654,-0.19721 -0.13229,-0.037 -0.22189,-0.0564 -0.26881,-0.0564 l 0.0138,-1.75013 c 0.5087,0 0.95108,0.11324 1.32715,0.33902 0.38593,0.22613 0.68227,0.5087 0.889,0.84631 0.21625,0.33902 0.32385,0.68192 0.32385,1.03082 z m 5.74358,5.60176 c -0.63112,0 -1.12042,-0.10725 -1.46756,-0.32385 -0.34889,-0.21626 -0.59266,-0.51788 -0.73448,-0.90382 -0.13088,-0.39405 -0.1972,-0.85584 -0.1972,-1.38218 v -3.61315 h -0.98813 v -1.82034 h 0.98813 v -2.06022 h 1.89053 v 2.06022 h 0.93169 v 1.83551 h -0.93169 v 3.73838 c 0,0.10337 0.0332,0.21661 0.0995,0.33902 0.0645,0.12277 0.20672,0.18345 0.42298,0.18345 h 0.40922 l 0.42298,1.94698 z m 4.03472,0 c -0.4131,0 -0.77999,-0.0744 -1.10102,-0.22578 -0.31009,-0.15981 -0.56903,-0.35701 -0.77576,-0.59267 -0.20673,-0.23424 -0.3623,-0.47413 -0.46567,-0.71931 -0.10336,-0.24377 -0.15451,-0.46038 -0.15451,-0.64911 v -3.69711 c 0,-0.18768 0.0511,-0.40393 0.15451,-0.64911 0.10337,-0.24413 0.25894,-0.47978 0.46567,-0.70556 0.21625,-0.23566 0.47943,-0.42721 0.79093,-0.57891 0.31009,-0.15028 0.6671,-0.22578 1.07209,-0.22578 v 1.77906 c -0.12241,0 -0.23001,0.0275 -0.32526,0.084 -0.084,0.0564 -0.15417,0.12242 -0.21061,0.19685 -0.0469,0.0759 -0.0702,0.1517 -0.0702,0.22613 v 0.70556 h 2.10149 v -0.69039 c 0,-0.15169 -0.0374,-0.26458 -0.11324,-0.33902 -0.0744,-0.0758 -0.16792,-0.12276 -0.28116,-0.14181 -0.11289,-0.0275 -0.22578,-0.0413 -0.33902,-0.0413 v -1.77906 c 0.38594,0 0.76623,0.0893 1.14265,0.26847 0.38558,0.17921 0.70555,0.42862 0.96026,0.74824 0.26352,0.31997 0.3944,0.69603 0.3944,1.12889 v 2.66629 h -3.86538 v 1.04458 c 0,0.0663 0.0176,0.13652 0.0564,0.21237 0.037,0.0646 0.0977,0.121 0.18309,0.16933 0.0938,0.0469 0.22049,0.0702 0.3803,0.0702 z m 0.74824,0 v -1.72121 c 0.1972,0 0.36266,-0.0328 0.49354,-0.0991 0.13229,-0.066 0.23565,-0.15028 0.3115,-0.25364 0.0744,-0.11289 0.13088,-0.23566 0.16792,-0.36654 l 1.53952,0.57891 c -0.0663,0.30057 -0.21237,0.59655 -0.4385,0.889 -0.22578,0.28081 -0.51647,0.51647 -0.87489,0.70555 -0.34713,0.17745 -0.74683,0.26706 -1.19909,0.26706 z m 3.58457,-5.34811 c 0,-0.39406 0.0603,-0.75636 0.1831,-1.08585 0.12276,-0.3295 0.29633,-0.61172 0.52246,-0.84738 0.22578,-0.24412 0.49318,-0.43285 0.80469,-0.56374 0.31009,-0.13229 0.65299,-0.19826 1.0294,-0.19826 v 1.83551 c -0.14076,0 -0.26317,0.037 -0.36653,0.11289 -0.0938,0.0744 -0.16969,0.18344 -0.22613,0.32385 -0.0564,0.1404 -0.084,0.31009 -0.084,0.50835 v 5.26274 h -1.86302 z m 3.92325,0.0854 c 0,-0.19826 -0.0289,-0.36795 -0.0854,-0.50835 -0.0469,-0.14041 -0.12276,-0.24942 -0.22613,-0.32385 -0.10336,-0.0759 -0.22613,-0.11289 -0.36653,-0.11289 v -1.83551 c 0.37606,0 0.71931,0.066 1.03081,0.19826 0.3101,0.13089 0.57715,0.31962 0.80328,0.56374 0.22613,0.23566 0.3997,0.51788 0.52246,0.84738 0.12242,0.32949 0.18309,0.69179 0.18309,1.08585 v 5.34811 h -1.8616 z m 5.45958,5.26274 c -0.46002,0 -0.85019,-0.0744 -1.16981,-0.22578 -0.3115,-0.15981 -0.56515,-0.35701 -0.762,-0.59267 -0.19861,-0.23424 -0.34466,-0.47413 -0.43815,-0.71931 -0.0843,-0.25365 -0.127,-0.4699 -0.127,-0.64911 v -3.69711 c 0,-0.18768 0.0469,-0.40393 0.14076,-0.64911 0.0949,-0.24413 0.23954,-0.47978 0.43815,-0.70556 0.20673,-0.23566 0.46567,-0.42721 0.77576,-0.57891 0.31962,-0.15028 0.69603,-0.22578 1.12854,-0.22578 v 1.80658 c -0.15981,0 -0.29069,0.0233 -0.39406,0.0702 -0.0953,0.0385 -0.16122,0.0854 -0.19826,0.14182 -0.0374,0.0564 -0.0568,0.11324 -0.0568,0.16968 v 3.66819 c 0,0.0938 0.0236,0.16968 0.0705,0.22613 0.048,0.0564 0.11853,0.0991 0.21202,0.12665 0.10336,0.0194 0.23001,0.0332 0.38029,0.0427 z m 0.63536,0.0138 v -1.81893 c 0.16968,0 0.30586,-0.0152 0.40922,-0.0427 0.11324,-0.037 0.19861,-0.0991 0.25506,-0.18309 0.0564,-0.0953 0.084,-0.22614 0.084,-0.39582 v -0.46567 l 1.7212,0.66287 c 0.01,0.40499 -0.1076,0.7814 -0.35278,1.12995 -0.23424,0.33761 -0.54574,0.61066 -0.93168,0.81738 -0.37606,0.20779 -0.77012,0.30586 -1.18498,0.2974 z m 0.57891,-5.16326 v -0.46602 c 0,-0.15981 -0.0236,-0.28222 -0.0706,-0.36795 -0.0466,-0.084 -0.11712,-0.14464 -0.21202,-0.18309 -0.084,-0.0374 -0.18344,-0.0564 -0.29633,-0.0564 v -1.82034 c 0.42439,0 0.80892,0.10443 1.15746,0.31115 0.3489,0.19721 0.62583,0.46602 0.83256,0.80363 0.20672,0.33902 0.31009,0.71085 0.31009,1.11478 z m 2.97779,5.1495 v -7.93045 h 1.89054 v 7.93045 z m 0.93169,-8.62083 c -0.28258,0 -0.52776,-0.0991 -0.73448,-0.29634 -0.19721,-0.20814 -0.29634,-0.44802 -0.29634,-0.72072 0,-0.2727 0.0991,-0.50694 0.29634,-0.70556 0.20672,-0.20672 0.4519,-0.31009 0.73448,-0.31009 0.2727,0 0.50694,0.10337 0.70555,0.31009 0.20673,0.19862 0.3101,0.43286 0.3101,0.70556 0,0.2727 -0.10337,0.51258 -0.3101,0.72072 -0.19861,0.19721 -0.43285,0.29634 -0.70555,0.29634 z m 2.31352,8.62083 v -10.10356 h 2.0327 v 10.10356 z m 6.08153,0.0705 v -1.778 c 0.11289,0 0.23566,-0.0233 0.36795,-0.0702 0.13088,-0.0469 0.24377,-0.11712 0.33761,-0.21202 0.0949,-0.0938 0.14181,-0.21096 0.14181,-0.35278 0,-0.18768 -0.0938,-0.33761 -0.28257,-0.45085 -0.17921,-0.12241 -0.40922,-0.22189 -0.6918,-0.29598 -0.2727,-0.0857 -0.5595,-0.16545 -0.85972,-0.23989 -0.2921,-0.0758 -0.55139,-0.16545 -0.77717,-0.26881 -0.20673,-0.0938 -0.41345,-0.23001 -0.62018,-0.40923 -0.19861,-0.17921 -0.36654,-0.40922 -0.50871,-0.69179 -0.13088,-0.28258 -0.19685,-0.62548 -0.19685,-1.02941 0,-0.47131 0.084,-0.85584 0.25365,-1.15746 0.17886,-0.31009 0.39935,-0.55527 0.66252,-0.73307 0.26458,-0.17922 0.53199,-0.30622 0.80504,-0.38171 0.27269,-0.0759 0.50835,-0.11324 0.70555,-0.11324 v 1.75013 c -0.2166,0 -0.37641,0.0332 -0.47978,0.0995 -0.0935,0.0646 -0.15557,0.13617 -0.18309,0.21061 -0.0194,0.0759 -0.0289,0.13653 -0.0289,0.18344 0,0.16934 0.0797,0.32915 0.23954,0.48084 0.16969,0.14041 0.43286,0.27693 0.79128,0.40781 0.36654,0.12277 0.84173,0.24942 1.42487,0.38171 0.18874,0.0374 0.37183,0.10759 0.54963,0.21237 0.18873,0.10336 0.35842,0.23989 0.5087,0.40922 0.14993,0.16828 0.2727,0.3803 0.36654,0.63394 0.0949,0.24518 0.14182,0.53587 0.14182,0.87489 0,0.53622 -0.12277,0.99766 -0.36654,1.3836 -0.23566,0.37641 -0.55527,0.66287 -0.96061,0.86007 -0.40358,0.19826 -0.85161,0.29633 -1.34056,0.29633 z m -0.63394,0 c -0.60219,0 -1.09149,-0.11324 -1.46756,-0.33761 -0.36794,-0.22613 -0.64099,-0.50447 -0.81879,-0.83396 -0.16934,-0.33761 -0.25471,-0.67663 -0.25471,-1.01565 l 1.75013,-0.32385 c 0,0.14076 0.037,0.26741 0.11289,0.38029 0.0854,0.10337 0.18874,0.18909 0.31009,0.25365 0.12242,0.0565 0.24518,0.0896 0.36795,0.0991 z m 1.42487,-5.67231 c 0,-0.23566 -0.0621,-0.40499 -0.18345,-0.50835 -0.11288,-0.10337 -0.23565,-0.16934 -0.36794,-0.19721 -0.13088,-0.037 -0.22049,-0.0564 -0.26741,-0.0564 l 0.0141,-1.75013 c 0.50836,0 0.95074,0.11324 1.3268,0.33902 0.38594,0.22613 0.68227,0.5087 0.889,0.84631 0.21625,0.33902 0.32385,0.68192 0.32385,1.03082 z m 6.60365,5.60176 v -5.48852 h -0.98813 v -1.83409 h 0.98813 v -0.55139 c 0,-0.16934 0.0466,-0.37606 0.14181,-0.62019 0.0938,-0.24518 0.23989,-0.4893 0.43674,-0.73448 0.1972,-0.24377 0.44662,-0.4505 0.74824,-0.62018 0.30057,-0.16934 0.65335,-0.25894 1.05834,-0.26847 h 0.94544 l -0.42298,1.82034 h -0.50871 c -0.1404,0 -0.24941,0.0332 -0.32526,0.0991 -0.0741,0.0663 -0.12664,0.13088 -0.15416,0.1972 -0.0194,0.066 -0.0289,0.10866 -0.0289,0.12665 v 0.55139 h 1.01706 v 1.83409 h -1.01706 v 5.48852 z m 3.92324,0 v -8.04334 h 1.91805 v 0.89006 c 0.11289,-0.14181 0.26458,-0.28257 0.45191,-0.42439 0.19861,-0.15028 0.42333,-0.27693 0.67804,-0.38029 0.25364,-0.10337 0.52246,-0.15593 0.80362,-0.15593 0.0854,0 0.16934,0 0.25471,0 0.0843,0 0.16969,0 0.25365,0 l -0.43674,1.89089 c -0.33902,0 -0.66428,0.0991 -0.97437,0.29633 -0.30057,0.18874 -0.54998,0.42827 -0.74825,0.72073 -0.18732,0.29068 -0.28257,0.59231 -0.28257,0.9024 v 4.30354 z m 7.57766,0.0138 c -0.33902,0 -0.66428,-0.0607 -0.97437,-0.1831 -0.30021,-0.12135 -0.56903,-0.29633 -0.80468,-0.52246 -0.23425,-0.22437 -0.42299,-0.49742 -0.56374,-0.81703 -0.1323,-0.32103 -0.19685,-0.67804 -0.19685,-1.07351 v -2.76577 c 0,-0.39406 0.0607,-0.75636 0.18309,-1.08585 0.12135,-0.3295 0.29633,-0.61172 0.52246,-0.84738 0.22472,-0.24412 0.49319,-0.43285 0.80328,-0.56374 0.31009,-0.13229 0.65475,-0.19826 1.03081,-0.19826 v 1.83551 c -0.14181,0 -0.26317,0.037 -0.36794,0.11289 -0.0938,0.0744 -0.16793,0.18344 -0.22472,0.32385 -0.0564,0.1404 -0.0854,0.31009 -0.0854,0.50835 v 2.6102 c 0,0.15981 0.0289,0.30586 0.0854,0.43815 0.0568,0.12136 0.13652,0.22049 0.23989,0.29633 0.10336,0.0646 0.22048,0.0977 0.35277,0.0977 z m 0.70556,0 v -1.8341 c 0.13088,0 0.24941,-0.0332 0.35278,-0.0977 0.10336,-0.0758 0.18344,-0.17497 0.23989,-0.29633 0.0564,-0.13229 0.084,-0.27834 0.084,-0.43815 v -2.6102 c 0,-0.19826 -0.0275,-0.36795 -0.084,-0.50835 -0.0469,-0.14041 -0.12277,-0.24942 -0.22613,-0.32385 -0.10337,-0.0759 -0.22578,-0.11289 -0.36654,-0.11289 v -1.83551 c 0.37641,0 0.71931,0.066 1.0294,0.19826 0.31151,0.13089 0.57891,0.31962 0.80469,0.56374 0.22613,0.23566 0.3997,0.51788 0.52246,0.84738 0.12242,0.32949 0.1831,0.69179 0.1831,1.08585 v 2.76577 c 0,0.39547 -0.0702,0.75248 -0.21202,1.07351 -0.13087,0.31961 -0.31432,0.59266 -0.54998,0.81703 -0.23566,0.22613 -0.50835,0.40111 -0.81844,0.52246 -0.30057,0.12242 -0.6216,0.1831 -0.95921,0.1831 z m 7.35189,-0.0138 v -5.61552 c 0,-0.15981 -0.0526,-0.2921 -0.15557,-0.39546 -0.0938,-0.11289 -0.26741,-0.16934 -0.52247,-0.16934 v -1.87713 c 0.35843,0 0.66851,0.0469 0.93168,0.14217 0.26318,0.0935 0.49883,0.22049 0.70556,0.3803 0.20673,-0.16969 0.44238,-0.29634 0.70556,-0.3803 0.26317,-0.0952 0.56903,-0.14217 0.91757,-0.14217 v 1.87713 c -0.2547,0 -0.42862,0.0564 -0.52211,0.16934 -0.0938,0.11324 -0.14217,0.24412 -0.14217,0.39546 v 5.61552 z m -3.88056,0 v -5.85506 c 0,-0.19861 0.0508,-0.4191 0.15417,-0.66428 0.11324,-0.25364 0.27869,-0.49741 0.49494,-0.73307 0.21626,-0.23565 0.47943,-0.42862 0.78952,-0.57891 0.31962,-0.15028 0.6918,-0.22613 1.11478,-0.22613 v 1.87713 c -0.24377,0 -0.41346,0.066 -0.50694,0.19685 -0.0854,0.12277 -0.12842,0.24554 -0.12842,0.36795 v 5.61552 z m 7.76111,0 v -5.61552 c 0,-0.16933 -0.0469,-0.30586 -0.14181,-0.40922 -0.0938,-0.10337 -0.26741,-0.15558 -0.52247,-0.15558 v -1.87713 c 0.42439,0 0.79516,0.0801 1.11478,0.23989 0.32949,0.15028 0.60219,0.34325 0.8188,0.57891 0.21625,0.23566 0.37606,0.47942 0.48083,0.73448 0.11148,0.24377 0.16793,0.46003 0.16793,0.64911 v 5.85506 z m 6.50417,0 v -7.93045 h 1.8923 v 7.93045 z m 0.93168,-8.62083 c -0.28257,0 -0.52634,-0.0991 -0.73307,-0.29634 -0.19861,-0.20814 -0.29633,-0.44802 -0.29633,-0.72072 0,-0.2727 0.0977,-0.50694 0.29633,-0.70556 0.20673,-0.20672 0.4505,-0.31009 0.73307,-0.31009 0.2727,0 0.50836,0.10337 0.70556,0.31009 0.20673,0.19862 0.3115,0.43286 0.3115,0.70556 0,0.2727 -0.10477,0.51258 -0.3115,0.72072 -0.1972,0.19721 -0.43286,0.29634 -0.70556,0.29634 z m 5.17878,8.69138 v -1.778 c 0.11289,0 0.23566,-0.0233 0.36795,-0.0702 0.13088,-0.0469 0.24377,-0.11712 0.33761,-0.21202 0.0949,-0.0938 0.14181,-0.21096 0.14181,-0.35278 0,-0.18768 -0.0949,-0.33761 -0.28257,-0.45085 -0.17921,-0.12241 -0.40922,-0.22189 -0.6918,-0.29598 -0.2727,-0.0857 -0.55951,-0.16545 -0.85972,-0.23989 -0.2921,-0.0758 -0.55139,-0.16545 -0.77717,-0.26881 -0.20673,-0.0938 -0.41345,-0.23001 -0.62018,-0.40923 -0.19862,-0.17921 -0.36654,-0.40922 -0.50835,-0.69179 -0.13124,-0.28258 -0.19721,-0.62548 -0.19721,-1.02941 0,-0.47131 0.084,-0.85584 0.25365,-1.15746 0.17921,-0.31009 0.39934,-0.55527 0.66287,-0.73307 0.26317,-0.17922 0.53164,-0.30622 0.80469,-0.38171 0.27269,-0.0759 0.50835,-0.11324 0.70555,-0.11324 v 1.75013 c -0.21625,0 -0.37641,0.0332 -0.47978,0.0995 -0.0935,0.0646 -0.15557,0.13617 -0.18309,0.21061 -0.0194,0.0759 -0.0289,0.13653 -0.0289,0.18344 0,0.16934 0.0797,0.32915 0.23989,0.48084 0.16934,0.14041 0.43251,0.27693 0.79093,0.40781 0.36654,0.12277 0.84208,0.24942 1.42487,0.38171 0.18874,0.0374 0.37218,0.10759 0.54963,0.21237 0.18909,0.10336 0.35842,0.23989 0.5087,0.40922 0.15029,0.16828 0.2727,0.3803 0.36654,0.63394 0.0949,0.24518 0.14182,0.53587 0.14182,0.87489 0,0.53622 -0.12242,0.99766 -0.36795,1.3836 -0.23425,0.37641 -0.55386,0.66287 -0.95885,0.86007 -0.40393,0.19826 -0.85196,0.29633 -1.34091,0.29633 z m -0.63394,0 c -0.60219,0 -1.0915,-0.11324 -1.46756,-0.33761 -0.36794,-0.22613 -0.64099,-0.50447 -0.81879,-0.83396 -0.16934,-0.33761 -0.25471,-0.67663 -0.25471,-1.01565 l 1.75013,-0.32385 c 0,0.14076 0.037,0.26741 0.11289,0.38029 0.084,0.10337 0.18874,0.18909 0.31009,0.25365 0.12277,0.0565 0.24518,0.0896 0.36795,0.0991 z m 1.42487,-5.67231 c 0,-0.23566 -0.0621,-0.40499 -0.18345,-0.50835 -0.11289,-0.10337 -0.23565,-0.16934 -0.36794,-0.19721 -0.13088,-0.037 -0.22049,-0.0564 -0.26706,-0.0564 l 0.0138,-1.75013 c 0.50835,0 0.95074,0.11324 1.3268,0.33902 0.38594,0.22613 0.68227,0.5087 0.889,0.84631 0.21625,0.33902 0.32385,0.68192 0.32385,1.03082 z m 5.74216,5.60176 c -0.62971,0 -1.11901,-0.10725 -1.46755,-0.32385 -0.34714,-0.21626 -0.59267,-0.51788 -0.73308,-0.90382 -0.13229,-0.39405 -0.1972,-0.85584 -0.1972,-1.38218 v -3.61315 h -0.98778 v -1.82034 h 0.98778 v -2.06022 h 1.89089 v 2.06022 h 0.93133 v 1.83551 h -0.93133 v 3.73838 c 0,0.10337 0.0332,0.21661 0.0977,0.33902 0.0663,0.12277 0.20814,0.18345 0.42439,0.18345 h 0.40922 l 0.42334,1.94698 z m 3.72639,0 c -0.49882,0 -0.92745,-0.0935 -1.28446,-0.28223 -0.35701,-0.18767 -0.62971,-0.42333 -0.81845,-0.70555 -0.18873,-0.29104 -0.28257,-0.58314 -0.28257,-0.87383 v -0.72073 c 0,-0.0938 0.01,-0.22048 0.0289,-0.38029 0.0275,-0.16969 0.0938,-0.34855 0.1972,-0.53622 0.10336,-0.18874 0.28222,-0.34855 0.53587,-0.47943 0.15028,-0.0854 0.3489,-0.16933 0.59267,-0.25506 0.25505,-0.084 0.51823,-0.16933 0.79092,-0.25329 0.27305,-0.0938 0.53058,-0.18909 0.77576,-0.28258 0.24412,-0.10336 0.44239,-0.20672 0.59267,-0.31009 0.15981,-0.11289 0.23989,-0.23001 0.23989,-0.35278 v -0.32526 c 0,-0.10336 -0.0236,-0.19297 -0.0706,-0.2674 -0.037,-0.0854 -0.10301,-0.15029 -0.19826,-0.19826 -0.084,-0.0565 -0.20108,-0.0843 -0.35278,-0.0843 v -1.73602 c 0.54575,0 0.99766,0.12242 1.35608,0.36795 0.35666,0.23425 0.62406,0.52211 0.80328,0.85972 0.17921,0.33902 0.26881,0.64911 0.26881,0.93169 v 3.68335 c 0,0.0564 0.018,0.14605 0.0564,0.2674 0.0469,0.12242 0.15981,0.1831 0.33761,0.1831 v 1.75013 c -0.30057,0 -0.56904,-0.037 -0.80328,-0.11289 -0.22613,-0.084 -0.4191,-0.1972 -0.57891,-0.33902 -0.17921,0.15169 -0.38594,0.26458 -0.62159,0.33902 -0.23425,0.0759 -0.50306,0.11289 -0.80328,0.11289 v -1.73496 c 0.16934,0 0.29634,-0.0328 0.3803,-0.0991 0.0854,-0.066 0.14181,-0.14041 0.16968,-0.22614 0.037,-0.0935 0.0564,-0.17356 0.0564,-0.23953 v -1.15747 c -0.15029,0.0854 -0.32526,0.1651 -0.52247,0.23954 -0.19685,0.0759 -0.39969,0.14217 -0.60642,0.19861 -0.20638,0.0469 -0.39123,0.0935 -0.55104,0.14041 -0.15028,0.0469 -0.25753,0.0854 -0.32385,0.11289 -0.12277,0.0568 -0.18344,0.16545 -0.18344,0.32526 v 0.1972 c 0,0.11289 0.018,0.20673 0.0568,0.28258 0.0466,0.0744 0.12665,0.13088 0.23954,0.16933 0.12277,0.0374 0.29633,0.0564 0.52246,0.0564 z m -0.64911,-5.40456 -1.63724,-0.62018 c 0,-0.38594 0.11324,-0.72884 0.33902,-1.03082 0.23424,-0.30021 0.52634,-0.5401 0.87524,-0.71931 0.35666,-0.17921 0.71932,-0.26847 1.08585,-0.26847 v 1.73602 c -0.14076,0 -0.26317,0.0332 -0.36653,0.0995 -0.0938,0.0645 -0.16969,0.16369 -0.22614,0.29633 -0.0469,0.13088 -0.0702,0.30021 -0.0702,0.50694 z m 5.10822,0.0565 c 0,-0.39406 0.0607,-0.75636 0.18345,-1.08585 0.12135,-0.3295 0.29633,-0.61172 0.52211,-0.84738 0.22472,-0.24412 0.49354,-0.43285 0.80363,-0.56374 0.3115,-0.13229 0.6544,-0.19826 1.03081,-0.19826 v 1.83551 c -0.14217,0 -0.26317,0.037 -0.36653,0.11289 -0.0952,0.0744 -0.16969,0.18344 -0.22613,0.32385 -0.0565,0.1404 -0.0854,0.31009 -0.0854,0.50835 v 5.26274 h -1.86196 z m 3.92219,0.0854 c 0,-0.19826 -0.0279,-0.36795 -0.0843,-0.50835 -0.0466,-0.14041 -0.12241,-0.24942 -0.22577,-0.32385 -0.10337,-0.0759 -0.22614,-0.11289 -0.36654,-0.11289 v -1.83551 c 0.37606,0 0.71931,0.066 1.0294,0.19826 0.31115,0.13089 0.57856,0.31962 0.80469,0.56374 0.22578,0.23566 0.3997,0.51788 0.52211,0.84738 0.12277,0.32949 0.18345,0.69179 0.18345,1.08585 v 5.34811 h -1.86302 z m 5.19359,5.26274 c -0.40499,0 -0.75247,-0.0797 -1.04457,-0.23954 -0.2921,-0.16016 -0.53587,-0.35701 -0.73449,-0.59267 -0.18732,-0.24377 -0.32914,-0.4893 -0.42298,-0.73307 -0.0938,-0.24553 -0.1404,-0.45191 -0.1404,-0.62159 v -3.66819 c 0,-0.16968 0.0466,-0.37641 0.1404,-0.62159 0.0938,-0.24377 0.23566,-0.47943 0.42298,-0.70556 0.19862,-0.23565 0.43815,-0.42862 0.72073,-0.5789 0.29069,-0.15981 0.63394,-0.23954 1.0294,-0.23954 h 0.46602 v 1.82033 h -0.46602 c -0.1404,0 -0.24941,0.0332 -0.32385,0.0991 -0.066,0.0564 -0.11289,0.11713 -0.14181,0.18345 -0.018,0.066 -0.0275,0.10336 -0.0275,0.11289 v 3.57046 c 0,0.008 0.0138,0.0469 0.0413,0.11148 0.0289,0.0568 0.0801,0.11853 0.15557,0.18485 0.0759,0.0565 0.18344,0.084 0.32526,0.084 h 0.43709 v 1.83409 z m 1.18533,0 v -10.10356 h 1.96074 l -0.0138,10.10356 z m 6.30732,0 v -9.89154 h 1.97591 v 6.05367 h 0.762 v 1.83444 h -0.762 v 2.00343 z m -3.48509,-2.00343 v -1.83444 l 2.68005,-4.59987 v 3.55529 l -0.64911,1.04458 h 0.64911 v 1.83444 z m 8.12764,2.07398 c -0.2921,0 -0.54045,-0.10336 -0.74824,-0.31009 -0.20673,-0.20673 -0.31009,-0.45614 -0.31009,-0.74824 0,-0.30057 0.10336,-0.55421 0.31009,-0.76235 0.20779,-0.20673 0.45614,-0.3101 0.74824,-0.3101 0.30022,0 0.54963,0.10337 0.74824,0.3101 0.20673,0.20814 0.3101,0.46178 0.3101,0.76235 0,0.2921 -0.10337,0.54151 -0.3101,0.74824 -0.19861,0.20673 -0.44802,0.31009 -0.74824,0.31009 z m 5.23523,0 v -1.87713 c 0.16933,0 0.30162,-0.0275 0.39546,-0.084 0.10336,-0.0564 0.17357,-0.12665 0.21061,-0.21237 0.0388,-0.084 0.0564,-0.16792 0.0564,-0.2533 v -5.68713 h 1.91982 v 5.91291 c 0,0.18768 -0.0564,0.40922 -0.16969,0.66287 -0.10336,0.24518 -0.26317,0.48507 -0.47942,0.71932 -0.21626,0.23565 -0.48931,0.43285 -0.81845,0.59407 -0.31997,0.15029 -0.69179,0.22472 -1.11477,0.22472 z m -0.64912,0 c -0.42333,0 -0.79939,-0.0744 -1.12888,-0.22472 -0.31962,-0.15169 -0.58844,-0.34466 -0.80468,-0.57891 -0.20673,-0.23565 -0.36654,-0.47519 -0.47943,-0.72072 -0.10337,-0.25365 -0.15593,-0.47943 -0.15593,-0.67663 v -5.91291 h 1.91981 v 5.68713 c 0,0.0854 0.0194,0.16934 0.0564,0.2533 0.037,0.0857 0.10335,0.15593 0.19719,0.21237 0.0949,0.0564 0.22578,0.0854 0.39547,0.0854 z m 7.2249,0 v -1.778 c 0.11288,0 0.23565,-0.0233 0.36653,-0.0702 0.1323,-0.0469 0.24553,-0.11712 0.33902,-0.21202 0.0938,-0.0938 0.14076,-0.21096 0.14076,-0.35278 0,-0.18768 -0.0938,-0.33761 -0.28258,-0.45085 -0.17779,-0.12241 -0.4078,-0.22189 -0.69038,-0.29598 -0.27305,-0.0857 -0.5595,-0.16545 -0.86149,-0.23989 -0.2921,-0.0758 -0.54963,-0.16545 -0.77576,-0.26881 -0.20672,-0.0938 -0.41345,-0.23001 -0.62159,-0.40923 -0.19685,-0.17921 -0.36654,-0.40922 -0.50694,-0.69179 -0.13229,-0.28258 -0.19862,-0.62548 -0.19862,-1.02941 0,-0.47131 0.0857,-0.85584 0.25506,-1.15746 0.1778,-0.31009 0.3997,-0.55527 0.66287,-0.73307 0.26318,-0.17922 0.532,-0.30622 0.80469,-0.38171 0.27306,-0.0759 0.5073,-0.11324 0.70556,-0.11324 v 1.75013 c -0.21626,0 -0.37607,0.0332 -0.48084,0.0995 -0.0938,0.0646 -0.15452,0.13617 -0.18345,0.21061 -0.0176,0.0759 -0.0275,0.13653 -0.0275,0.18344 0,0.16934 0.0801,0.32915 0.23987,0.48084 0.16935,0.14041 0.43286,0.27693 0.78953,0.40781 0.36794,0.12277 0.84208,0.24942 1.42628,0.38171 0.18733,0.0374 0.37077,0.10759 0.54998,0.21237 0.18873,0.10336 0.357,0.23989 0.50835,0.40922 0.15029,0.16828 0.27305,0.3803 0.36653,0.63394 0.0938,0.24518 0.14076,0.53587 0.14076,0.87489 0,0.53622 -0.12135,0.99766 -0.36654,1.3836 -0.23564,0.37641 -0.55561,0.66287 -0.9592,0.86007 -0.40534,0.19826 -0.85159,0.29633 -1.34091,0.29633 z m -0.63536,0 c -0.60219,0 -1.09114,-0.11324 -1.46756,-0.33761 -0.36653,-0.22613 -0.63923,-0.50447 -0.81844,-0.83396 -0.16969,-0.33761 -0.25365,-0.67663 -0.25365,-1.01565 l 1.75013,-0.32385 c 0,0.14076 0.0374,0.26741 0.11289,0.38029 0.0843,0.10337 0.18768,0.18909 0.3101,0.25365 0.12276,0.0565 0.24412,0.0896 0.36653,0.0991 z m 1.42487,-5.67231 c 0,-0.23566 -0.0603,-0.40499 -0.18309,-0.50835 -0.11289,-0.10337 -0.23425,-0.16934 -0.36654,-0.19721 -0.13229,-0.037 -0.22048,-0.0564 -0.26882,-0.0564 l 0.0152,-1.75013 c 0.5073,0 0.94933,0.11324 1.32574,0.33902 0.38594,0.22613 0.68192,0.5087 0.88865,0.84631 0.21661,0.33902 0.32526,0.68192 0.32526,1.03082 z"
       style="fill:#000000" />
    <g
       id="text1"
       aria-label="STOP ADMIRING SOCIOPATHS.">
      <path
         style="line-height:1em"
         d="M 172.025,84.410036 V 74.237498 q 0.86076,-0.07825 1.72151,-0.469502 0.86075,-0.469502 1.56501,-1.173755 0.70425,-0.782503 1.0955,-1.721506 0.4695,-0.939004 0.4695,-2.034508 0,-1.956257 -1.17375,-3.443013 -1.17376,-1.565006 -3.05176,-2.66051 -1.79976,-1.173755 -3.67777,-1.956258 -1.878,-0.782503 -3.36476,-1.252004 -1.48676,-0.469502 -1.95626,-0.626003 -2.26926,-0.704252 -4.53851,-2.58226 -2.19101,-1.878007 -3.67777,-4.851518 -1.4085,-3.051762 -1.4085,-6.964277 0,-4.147265 1.48675,-6.964276 1.56501,-2.895261 3.83427,-4.616768 2.26926,-1.799756 4.53851,-2.66051 2.34751,-0.860753 3.83427,-0.860753 v 10.329039 q -0.626,0.234751 -1.25201,0.626003 -0.54775,0.391251 -1.01725,1.017254 -0.39125,0.626002 -0.70425,1.330255 -0.23475,0.704252 -0.23475,1.486755 0,1.408506 0.70425,2.42576 0.7825,1.017253 2.11276,1.799756 1.33025,0.782503 2.97351,1.565006 1.7215,0.704253 3.67776,1.486756 1.95626,0.782503 3.91252,1.878007 2.50401,1.330255 4.77327,3.286513 2.26925,1.956257 3.75601,4.695017 1.48676,2.660511 1.48676,6.416525 0,4.460267 -2.19101,8.294531 -2.19101,3.756015 -5.86878,6.103524 -3.59951,2.269258 -7.82503,2.269258 z m -4.30376,0 q -3.20826,0 -5.86877,-1.330255 -2.58226,-1.330255 -4.53852,-3.364763 -1.87801,-2.034507 -2.89526,-4.147265 -1.01726,-2.112758 -1.01726,-3.756015 l 9.93779,-3.521263 q 0,1.565006 0.70425,2.817011 0.70426,1.173754 1.72151,1.956257 1.01725,0.782503 1.95626,1.173755 z m 7.82503,-40.142402 q 0,-1.330255 -0.626,-2.269259 -0.54776,-0.939004 -1.33026,-1.486756 -0.7825,-0.626002 -1.56501,-0.782503 V 29.400077 q 3.13002,0 5.63403,1.252005 2.50401,1.173754 4.30376,3.051761 1.79976,1.878008 2.73876,3.834265 1.01726,1.956257 1.01726,3.364763 z m 26.52692,39.907651 V 40.198618 H 190.64864 V 29.400077 h 33.88238 v 10.798541 h -11.42454 v 43.976667 z m 47.26313,0.391252 V 73.454995 q 1.01725,0 1.87801,-0.391252 0.939,-0.469502 1.64325,-1.173754 0.78251,-0.782503 1.17376,-1.799757 0.4695,-1.017254 0.4695,-2.269259 V 45.98914 q 0,-1.330255 -0.39125,-2.347509 -0.39125,-1.095504 -1.09551,-1.878007 -0.626,-0.860753 -1.565,-1.252005 -0.93901,-0.469501 -2.11276,-0.469501 V 29.008826 q 3.28651,0 6.18177,1.252004 2.97351,1.252005 5.16452,3.443013 2.26926,2.112758 3.52127,5.008019 1.33025,2.817011 1.33025,6.025273 v 23.47509 q 0,3.443013 -1.17375,6.416524 -1.09551,2.973511 -3.20827,5.24277 -2.11275,2.191008 -5.16452,3.443013 -2.97351,1.252005 -6.65127,1.252005 z m -4.38202,0 q -3.28651,0 -6.18177,-1.252005 -2.89526,-1.330255 -5.16452,-3.599514 -2.19101,-2.269258 -3.52126,-5.24277 -1.25201,-2.973511 -1.25201,-6.260023 v -23.47509 q 0,-3.208262 1.25201,-6.025273 1.33025,-2.895261 3.52126,-5.086269 2.26926,-2.191008 5.16452,-3.364763 2.97351,-1.252004 6.26002,-1.252004 v 11.033292 q -1.17375,0 -2.11276,0.469501 -0.939,0.391252 -1.64325,1.252005 -0.626,0.782503 -1.01726,1.878007 -0.39125,1.017254 -0.39125,2.347509 v 21.831833 q 0,1.252005 0.39125,2.347509 0.46951,1.017254 1.17376,1.799757 0.70425,0.704253 1.56501,1.095504 0.939,0.391252 1.95625,0.391252 z m 26.99634,-0.391252 V 29.400077 h 11.03329 V 84.175285 Z M 287.20945,59.21344 V 48.414899 h 2.58226 q 0.626,0 1.565,-0.1565 0.93901,-0.156501 1.64326,-1.017254 0.7825,-0.860753 0.7825,-2.895261 0,-2.034508 -0.7825,-2.895261 -0.70425,-0.860753 -1.64326,-1.017254 -0.939,-0.156501 -1.565,-0.156501 h -2.58226 V 29.400077 h 2.89526 q 5.86877,0 9.07703,1.956257 3.20826,1.956258 4.46027,5.399271 1.33025,3.443013 1.33025,7.90328 0,4.851519 -1.48675,8.138031 -1.40851,3.208262 -4.69502,4.851518 -3.20826,1.565006 -8.68578,1.565006 z"
         id="path2" />
      <path
         style="line-height:1em"
         d="m 113.61123,162.42558 -1.56501,-6.65127 h -8.13803 l 2.34751,-10.79854 h 2.81701 l -8.29453,-37.3254 h 10.87679 l 12.9113,54.77521 z m -26.370354,0 10.094288,-45.54167 h 1.173755 l 4.695021,21.91008 -5.164523,23.63159 z m 57.357454,0 v -11.03329 q 0.1565,0 0.86076,-0.1565 0.70425,-0.1565 1.48675,-0.626 0.86076,-0.4695 1.40851,-1.33026 0.626,-0.86075 0.626,-2.26926 v -23.94459 q 0,-0.1565 -0.1565,-0.7825 -0.1565,-0.70425 -0.626,-1.48676 -0.4695,-0.86075 -1.33026,-1.48675 -0.86075,-0.626 -2.26926,-0.626 v -11.0333 q 4.22552,0 7.12078,1.72151 2.97351,1.64326 4.77327,4.14727 1.79976,2.50401 2.66051,5.08627 0.86075,2.58226 0.86075,4.46026 v 23.94459 q 0,4.30377 -1.7215,7.27728 -1.72151,2.97351 -4.22552,4.77327 -2.50401,1.79976 -5.08627,2.58226 -2.58226,0.7825 -4.38202,0.7825 z m -15.2588,0 v -54.77521 h 11.03329 v 54.77521 z m 56.73147,0 -19.79732,-47.57618 v -7.19903 h 8.60753 l 14.94581,36.22989 8.29453,-18.70182 h 0.7825 v 25.43135 l -5.24277,11.81579 z m -19.79732,0 v -34.74313 h 0.70425 l 10.32904,24.80535 v 9.93778 z m 36.85589,0 v -54.77521 h 11.03329 v 54.77521 z m 17.60624,0 v -54.77521 h 11.03329 v 54.77521 z m 41.9422,0 -1.17376,-13.92855 q -0.23475,-3.05176 -1.01725,-4.85152 -0.70425,-1.87801 -2.19101,-2.73876 -1.4085,-0.86075 -3.83426,-0.86075 h -0.86076 v -9.78129 h 1.01726 q 3.52126,0 5.08627,-1.87801 1.64325,-1.95625 1.64325,-4.30376 0,-2.81701 -1.95625,-4.38202 -1.87801,-1.64326 -4.77327,-1.64326 h -1.01726 v -10.40729 h 1.72151 q 5.24277,0 8.84228,1.95626 3.67777,1.95626 5.55577,5.39927 1.95626,3.36477 1.95626,7.82503 0,3.99077 -1.48675,7.04253 -1.40851,3.05176 -3.83427,5.00802 2.50401,1.565 3.67777,4.69502 1.252,3.05176 1.48675,5.86877 l 1.33026,16.98031 z m -24.33584,0 v -54.77521 h 11.03329 v 54.77521 z m 39.51632,0 v -54.77521 h 11.03329 v 54.77521 z m 47.18497,0 -29.57861,-47.57618 v -7.19903 h 8.99878 l 25.8226,41.62916 v 13.14605 z m -29.57861,0 v -38.49914 h 0.626 l 10.40729,16.74556 v 21.75358 z m 34.19538,-22.22308 -10.40729,-16.74557 v -15.80656 h 11.03329 v 32.55213 z m 22.22302,22.61433 q -1.7215,0 -4.30376,-0.7825 -2.58226,-0.86075 -5.16452,-2.66051 -2.50401,-1.87801 -4.22552,-4.77327 -1.64326,-2.97351 -1.64326,-7.19902 v -25.9791 q 0.23475,-1.87801 1.17376,-4.30377 1.01725,-2.42576 2.81701,-4.69502 1.87801,-2.26926 4.69502,-3.67776 2.81701,-1.48676 6.65127,-1.48676 v 11.0333 q -1.79976,0 -2.73876,0.86075 -0.939,0.86075 -1.252,1.87801 -0.23475,1.01725 -0.23475,1.64325 v 24.7271 q 0,1.33025 0.54775,2.191 0.626,0.86076 1.4085,1.33026 0.78251,0.4695 1.40851,0.70425 0.70425,0.1565 0.86075,0.1565 z m 4.22552,0 v -11.03329 q 0.1565,0 0.70425,-0.23475 0.54775,-0.313 1.17375,-0.86075 0.62601,-0.54775 1.01726,-1.33026 0.4695,-0.7825 0.4695,-1.79975 v -2.58226 h -3.36476 v -10.17254 h 14.4763 v 13.8503 q 0,2.34751 -1.33025,4.85152 -1.33026,2.50401 -3.52127,4.61677 -2.11275,2.0345 -4.69501,3.36476 -2.50401,1.33025 -4.92977,1.33025 z m 3.67776,-36.77764 v -3.05176 q 0,-1.17375 -0.313,-2.0345 -0.313,-0.93901 -0.86075,-1.48676 -0.54775,-0.54775 -1.25201,-0.86075 -0.626,-0.313 -1.252,-0.313 v -11.0333 q 3.67776,0 6.96427,2.11276 3.28652,2.11276 5.39927,5.55577 2.11276,3.36477 2.11276,7.12078 z"
         id="path3" />
      <path
         style="line-height:1em"
         d="m 54.180091,240.91063 v -10.17254 q 0.860753,-0.0782 1.721506,-0.4695 0.860754,-0.4695 1.565006,-1.17375 0.704253,-0.78251 1.095504,-1.72151 0.469502,-0.939 0.469502,-2.03451 0,-1.95626 -1.173754,-3.44301 -1.173755,-1.56501 -3.051762,-2.66051 -1.799757,-1.17376 -3.677764,-1.95626 -1.878007,-0.7825 -3.364763,-1.252 -1.486755,-0.46951 -1.956257,-0.62601 -2.269259,-0.70425 -4.538517,-2.58226 -2.191009,-1.878 -3.677764,-4.85151 -1.408506,-3.05177 -1.408506,-6.96428 0,-4.14727 1.486756,-6.96428 1.565006,-2.89526 3.834265,-4.61676 2.269258,-1.79976 4.538517,-2.66051 2.347509,-0.86076 3.834264,-0.86076 v 10.32904 q -0.626002,0.23475 -1.252004,0.626 -0.547752,0.39126 -1.017254,1.01726 -0.391252,0.626 -0.704253,1.33025 -0.234751,0.70426 -0.234751,1.48676 0,1.4085 0.704253,2.42576 0.782503,1.01725 2.112758,1.79975 1.330255,0.78251 2.973511,1.56501 1.721507,0.70425 3.677764,1.48676 1.956258,0.7825 3.912515,1.878 2.50401,1.33026 4.773268,3.28652 2.269259,1.95625 3.756014,4.69501 1.486756,2.66051 1.486756,6.41653 0,4.46026 -2.191008,8.29453 -2.191009,3.75601 -5.868773,6.10352 -3.599513,2.26926 -7.825029,2.26926 z m -4.303767,0 q -3.208262,0 -5.868772,-1.33025 -2.58226,-1.33026 -4.538517,-3.36477 -1.878007,-2.0345 -2.895261,-4.14726 -1.017254,-2.11276 -1.017254,-3.75602 l 9.937788,-3.52126 q 0,1.56501 0.704252,2.81701 0.704253,1.17376 1.721507,1.95626 1.017254,0.7825 1.956257,1.17375 z m 7.82503,-40.1424 q 0,-1.33026 -0.626002,-2.26926 -0.547752,-0.939 -1.330255,-1.48676 -0.782503,-0.626 -1.565006,-0.7825 v -10.32904 q 3.130012,0 5.634021,1.25201 2.50401,1.17375 4.303767,3.05176 1.799756,1.87801 2.73876,3.83426 1.017254,1.95626 1.017254,3.36477 z m 37.560212,40.2989 v -11.11154 q 1.017254,0 1.878007,-0.39125 0.939004,-0.4695 1.643256,-1.17376 0.782503,-0.7825 1.173755,-1.79975 0.469506,-1.01726 0.469506,-2.26926 v -21.83183 q 0,-1.33026 -0.39126,-2.34751 -0.391247,-1.09551 -1.0955,-1.87801 -0.626003,-0.86075 -1.565006,-1.25201 -0.939004,-0.4695 -2.112758,-0.4695 v -11.03329 q 3.286512,0 6.181774,1.25201 2.97351,1.252 5.16452,3.44301 2.26926,2.11276 3.52126,5.00802 1.33026,2.81701 1.33026,6.02527 v 23.47509 q 0,3.44301 -1.17376,6.41652 -1.0955,2.97352 -3.20826,5.24277 -2.11276,2.19101 -5.16452,3.44302 -2.97351,1.252 -6.651274,1.252 z m -4.382017,0 q -3.286512,0 -6.181773,-1.252 -2.895261,-1.33026 -5.16452,-3.59952 -2.191008,-2.26926 -3.521263,-5.24277 -1.252005,-2.97351 -1.252005,-6.26002 v -23.47509 q 0,-3.20826 1.252005,-6.02527 1.330255,-2.89526 3.521263,-5.08627 2.269259,-2.19101 5.16452,-3.36476 2.973511,-1.25201 6.260024,-1.25201 v 11.03329 q -1.173755,0 -2.112759,0.4695 -0.939003,0.39126 -1.643256,1.25201 -0.626002,0.7825 -1.017254,1.87801 -0.391251,1.01725 -0.391251,2.34751 v 21.83183 q 0,1.252 0.391251,2.34751 0.469502,1.01725 1.173755,1.79975 0.704253,0.70426 1.565006,1.09551 0.939003,0.39125 1.956257,0.39125 z m 42.098641,0 q -4.22552,0 -7.19903,-1.565 -2.89526,-1.56501 -4.69502,-3.91252 -1.79975,-2.42576 -2.66051,-4.85152 -0.86075,-2.50401 -0.86075,-4.22551 v -26.37035 q 0,-1.79976 0.86075,-4.22552 0.86076,-2.50401 2.66051,-4.85152 1.79976,-2.34751 4.69502,-3.91251 2.97351,-1.64326 7.19903,-1.64326 v 11.03329 q -1.33026,0 -2.19101,0.54775 -0.86075,0.46951 -1.33025,1.17376 -0.46951,0.626 -0.70426,1.17375 -0.1565,0.54776 -0.1565,0.70426 v 26.37035 q 0,0.1565 0.1565,0.70425 0.23475,0.54775 0.70426,1.252 0.4695,0.62601 1.33025,1.09551 0.86075,0.4695 2.19101,0.4695 z m 4.22551,0 v -11.03329 q 0.54776,-0.1565 1.17376,-0.39125 0.70425,-0.313 1.252,-0.7825 0.62601,-0.54776 0.86076,-1.17376 0.313,-0.626 0.313,-1.4085 0.0782,-0.78251 0.0782,-1.48676 0,-0.23475 0,-0.4695 0,-0.23475 0,-0.4695 l 10.79854,2.58226 q 0,4.14726 -2.11276,7.51202 -2.11276,3.28652 -5.47752,5.24277 -3.28651,1.87801 -6.88603,1.87801 z m 3.67777,-37.95139 q 0,-0.313 0,-0.54775 0,-0.31301 0,-0.62601 0,-0.70425 -0.0782,-1.48675 0,-0.78251 -0.313,-1.40851 -0.23475,-0.4695 -0.62601,-0.86075 -0.313,-0.4695 -0.7825,-0.7825 -0.4695,-0.31301 -1.01725,-0.54776 -0.4695,-0.23475 -0.86076,-0.313 v -11.03329 q 2.73876,0 5.24277,1.25201 2.58226,1.252 4.69502,3.36476 2.11276,2.03451 3.28651,4.69502 1.25201,2.66051 1.25201,5.47752 z m 15.65002,37.56014 v -54.77521 h 11.03329 v 54.77521 z m 37.95142,0.39125 v -11.11154 q 1.01725,0 1.878,-0.39125 0.93901,-0.4695 1.64326,-1.17376 0.7825,-0.7825 1.17375,-1.79975 0.46951,-1.01726 0.46951,-2.26926 v -21.83183 q 0,-1.33026 -0.39126,-2.34751 -0.39125,-1.09551 -1.0955,-1.87801 -0.626,-0.86075 -1.56501,-1.25201 -0.939,-0.4695 -2.11275,-0.4695 v -11.03329 q 3.28651,0 6.18177,1.25201 2.97351,1.252 5.16452,3.44301 2.26926,2.11276 3.52126,5.00802 1.33026,2.81701 1.33026,6.02527 v 23.47509 q 0,3.44301 -1.17376,6.41652 -1.0955,2.97352 -3.20826,5.24277 -2.11276,2.19101 -5.16452,3.44302 -2.97351,1.252 -6.65127,1.252 z m -4.38202,0 q -3.28651,0 -6.18177,-1.252 -2.89527,-1.33026 -5.16452,-3.59952 -2.19101,-2.26926 -3.52127,-5.24277 -1.252,-2.97351 -1.252,-6.26002 v -23.47509 q 0,-3.20826 1.252,-6.02527 1.33026,-2.89526 3.52127,-5.08627 2.26925,-2.19101 5.16452,-3.36476 2.97351,-1.25201 6.26002,-1.25201 v 11.03329 q -1.17375,0 -2.11276,0.4695 -0.939,0.39126 -1.64325,1.25201 -0.62601,0.7825 -1.01726,1.87801 -0.39125,1.01725 -0.39125,2.34751 v 21.83183 q 0,1.252 0.39125,2.34751 0.4695,1.01725 1.17376,1.79975 0.70425,0.70426 1.565,1.09551 0.93901,0.39125 1.95626,0.39125 z m 26.99635,-0.39125 v -54.77521 h 11.03329 v 54.77521 z m 15.25881,-24.96184 v -10.79855 h 2.58226 q 0.626,0 1.565,-0.1565 0.93901,-0.1565 1.64326,-1.01725 0.7825,-0.86075 0.7825,-2.89526 0,-2.03451 -0.7825,-2.89526 -0.70425,-0.86076 -1.64326,-1.01726 -0.939,-0.1565 -1.565,-0.1565 h -2.58226 v -10.87679 h 2.89526 q 5.86877,0 9.07703,1.95626 3.20827,1.95626 4.46027,5.39927 1.33026,3.44301 1.33026,7.90328 0,4.85152 -1.48676,8.13803 -1.40851,3.20826 -4.69502,4.85152 -3.20826,1.56501 -8.68578,1.56501 z m 47.81093,24.96184 -1.56501,-6.65127 h -8.13803 l 2.34751,-10.79855 h 2.81701 l -8.29453,-37.32539 h 10.87679 l 12.9113,54.77521 z m -26.37035,0 10.09428,-45.54167 h 1.17376 l 4.69502,21.91008 -5.16452,23.63159 z m 51.41043,0 v -43.97667 h -11.42454 v -10.79854 h 33.88238 v 10.79854 h -11.42455 v 43.97667 z m 50.54963,0 v -22.53609 h -4.22551 v -10.01603 h 4.22551 v -22.22309 h 11.03329 v 54.77521 z m -23.78809,0 v -54.77521 h 11.03329 v 22.22309 h 4.22552 v 10.01603 h -4.22552 v 22.53609 z m 58.13996,0.23475 v -10.17254 q 0.86075,-0.0782 1.7215,-0.4695 0.86076,-0.4695 1.56501,-1.17375 0.70425,-0.78251 1.0955,-1.72151 0.46951,-0.939 0.46951,-2.03451 0,-1.95626 -1.17376,-3.44301 -1.17375,-1.56501 -3.05176,-2.66051 -1.79976,-1.17376 -3.67776,-1.95626 -1.87801,-0.7825 -3.36477,-1.252 -1.48675,-0.46951 -1.95625,-0.62601 -2.26926,-0.70425 -4.53852,-2.58226 -2.19101,-1.878 -3.67777,-4.85151 -1.4085,-3.05177 -1.4085,-6.96428 0,-4.14727 1.48675,-6.96428 1.56501,-2.89526 3.83427,-4.61676 2.26926,-1.79976 4.53852,-2.66051 2.34751,-0.86076 3.83426,-0.86076 v 10.32904 q -0.626,0.23475 -1.252,0.626 -0.54776,0.39126 -1.01726,1.01726 -0.39125,0.626 -0.70425,1.33025 -0.23475,0.70426 -0.23475,1.48676 0,1.4085 0.70425,2.42576 0.7825,1.01725 2.11276,1.79975 1.33025,0.78251 2.97351,1.56501 1.72151,0.70425 3.67776,1.48676 1.95626,0.7825 3.91252,1.878 2.50401,1.33026 4.77327,3.28652 2.26926,1.95625 3.75601,4.69501 1.48676,2.66051 1.48676,6.41653 0,4.46026 -2.19101,8.29453 -2.19101,3.75601 -5.86877,6.10352 -3.59952,2.26926 -7.82503,2.26926 z m -4.30377,0 q -3.20826,0 -5.86877,-1.33025 -2.58226,-1.33026 -4.53852,-3.36477 -1.87801,-2.0345 -2.89526,-4.14726 -1.01725,-2.11276 -1.01725,-3.75602 l 9.93778,-3.52126 q 0,1.56501 0.70426,2.81701 0.70425,1.17376 1.7215,1.95626 1.01726,0.7825 1.95626,1.17375 z m 7.82503,-40.1424 q 0,-1.33026 -0.626,-2.26926 -0.54775,-0.939 -1.33026,-1.48676 -0.7825,-0.626 -1.565,-0.7825 v -10.32904 q 3.13001,0 5.63402,1.25201 2.50401,1.17375 4.30377,3.05176 1.79975,1.87801 2.73876,3.83426 1.01725,1.95626 1.01725,3.36477 z m 22.1449,40.2989 q -2.42576,0 -4.14727,-1.7215 -1.7215,-1.72151 -1.7215,-4.14727 0,-2.50401 1.7215,-4.22552 1.72151,-1.7215 4.14727,-1.7215 2.50401,0 4.14727,1.7215 1.7215,1.72151 1.7215,4.22552 0,2.42576 -1.7215,4.14727 -1.64326,1.7215 -4.14727,1.7215 z"
         id="path4" />
    </g>
  </g>
</svg>
