<?xml version="1.0" encoding="UTF-8"?>
<svg
   width="600px"
   height="400px"
   viewBox="0 0 600 400"
   version="1.1"
   id="svg1"
   xmlns="http://www.w3.org/2000/svg"
   xmlns:svg="http://www.w3.org/2000/svg">
  <g
     id="layer1">
    <rect
       style="fill:#ffffff"
       id="rect3"
       width="600"
       height="400"
       x="0"
       y="0" />
    <path
       id="path1"
       d="m 135.26276,282.47966 c -0.40534,0 -0.75388,-0.0797 -1.04457,-0.23954 -0.2921,-0.16016 -0.53622,-0.35701 -0.73448,-0.59267 -0.18733,-0.24377 -0.3295,-0.4893 -0.42298,-0.73307 -0.0938,-0.24553 -0.14076,-0.45191 -0.14076,-0.62159 v -3.66819 c 0,-0.16968 0.0469,-0.37641 0.14076,-0.62159 0.0935,-0.24377 0.23565,-0.47943 0.42298,-0.70556 0.19826,-0.23565 0.43815,-0.42862 0.72072,-0.5789 0.29069,-0.15981 0.63394,-0.23954 1.02941,-0.23954 h 0.46566 v 1.82033 h -0.46566 c -0.14076,0 -0.24942,0.0332 -0.32385,0.0991 -0.0663,0.0564 -0.11289,0.11713 -0.14182,0.18345 -0.018,0.066 -0.0279,0.10336 -0.0279,0.11289 v 3.57046 c 0,0.008 0.0138,0.0469 0.0416,0.11289 0.0289,0.0554 0.0797,0.11712 0.15557,0.18344 0.0759,0.0565 0.18345,0.084 0.32526,0.084 h 0.43674 v 1.83409 z m 1.18498,0 V 272.3761 h 1.9611 l -0.0138,10.10356 z m 5.61552,0.0138 c -0.33761,0 -0.66287,-0.0607 -0.97296,-0.1831 -0.30162,-0.12135 -0.56903,-0.29633 -0.80469,-0.52246 -0.23565,-0.22437 -0.42298,-0.49742 -0.56479,-0.81703 -0.13088,-0.32103 -0.19721,-0.67804 -0.19721,-1.07351 v -2.76577 c 0,-0.39406 0.0607,-0.75636 0.18345,-1.08585 0.12241,-0.3295 0.29598,-0.61172 0.52211,-0.84738 0.22613,-0.24412 0.49318,-0.43285 0.80469,-0.56374 0.31009,-0.13229 0.65334,-0.19826 1.0294,-0.19826 v 1.83551 c -0.1404,0 -0.26317,0.037 -0.36653,0.11289 -0.0935,0.0744 -0.16934,0.18344 -0.22578,0.32385 -0.0568,0.1404 -0.0843,0.31009 -0.0843,0.50835 v 2.6102 c 0,0.15981 0.0275,0.30586 0.0843,0.43815 0.0564,0.12136 0.13617,0.22049 0.23953,0.29633 0.10337,0.0646 0.2219,0.0977 0.35278,0.0977 z m 0.70556,0 v -1.8341 c 0.13229,0 0.24941,-0.0332 0.35277,-0.0977 0.10337,-0.0758 0.18345,-0.17497 0.23989,-0.29633 0.0564,-0.13229 0.0854,-0.27834 0.0854,-0.43815 v -2.6102 c 0,-0.19826 -0.0289,-0.36795 -0.0854,-0.50835 -0.0469,-0.14041 -0.12135,-0.24942 -0.22472,-0.32385 -0.10477,-0.0759 -0.22577,-0.11289 -0.36794,-0.11289 v -1.83551 c 0.37641,0 0.72072,0.066 1.03081,0.19826 0.31009,0.13089 0.57891,0.31962 0.80328,0.56374 0.22613,0.23566 0.40111,0.51788 0.52246,0.84738 0.12277,0.32949 0.18309,0.69179 0.18309,1.08585 v 2.76577 c 0,0.39547 -0.0702,0.75248 -0.2106,1.07351 -0.1323,0.31961 -0.31574,0.59266 -0.54999,0.81703 -0.23565,0.22613 -0.50835,0.40111 -0.81844,0.52246 -0.30198,0.12242 -0.62159,0.1831 -0.96061,0.1831 z m 9.44104,-0.0138 -2.45569,-8.04334 h 2.10291 l 2.06022,6.09636 -0.63535,1.94698 z m -3.95076,0 -2.45569,-8.04334 h 2.10291 l 2.06022,6.09636 -0.63535,1.94698 z m 1.90429,-3.23145 -1.00189,-2.87866 0.59267,-1.93323 h 2.10291 l -1.51024,4.81189 z m 3.95076,0 -1.00154,-2.87866 0.59232,-1.93323 h 2.10291 l -1.51025,4.81189 z m 2.32904,-2.11666 c 0,-0.39406 0.0607,-0.75636 0.18309,-1.08585 0.12277,-0.3295 0.29633,-0.61172 0.52246,-0.84738 0.22613,-0.24412 0.49319,-0.43285 0.80328,-0.56374 0.3115,-0.13229 0.65475,-0.19826 1.03082,-0.19826 v 1.83551 c -0.14041,0 -0.26318,0.037 -0.36654,0.11289 -0.0938,0.0744 -0.16933,0.18344 -0.22613,0.32385 -0.0564,0.1404 -0.0854,0.31009 -0.0854,0.50835 v 5.26274 h -1.86161 z m 3.92324,0.0854 c 0,-0.19826 -0.0289,-0.36654 -0.0854,-0.50835 -0.0469,-0.14041 -0.12277,-0.24942 -0.22613,-0.32385 -0.10337,-0.0759 -0.22578,-0.11289 -0.36654,-0.11289 v -1.83551 c 0.37641,0 0.71931,0.066 1.03082,0.19826 0.31009,0.13089 0.57749,0.31962 0.80327,0.56374 0.22613,0.23566 0.3997,0.51788 0.52247,0.84738 0.12276,0.32949 0.18309,0.69179 0.18309,1.08585 v 5.34811 h -1.86161 z m 3.00567,5.26274 v -10.10356 h 2.03094 v 10.10356 z m 5.70088,0.0138 c -0.33901,0 -0.66428,-0.0607 -0.97437,-0.1831 -0.30056,-0.12135 -0.56903,-0.29633 -0.80468,-0.52246 -0.23425,-0.22437 -0.42298,-0.49742 -0.56374,-0.81703 -0.13229,-0.32103 -0.19826,-0.67804 -0.19826,-1.07351 v -2.76577 c 0,-0.39406 0.0617,-0.75636 0.1845,-1.08585 0.12135,-0.3295 0.29633,-0.61172 0.52105,-0.84738 0.22578,-0.24412 0.4946,-0.43285 0.80469,-0.56374 0.31009,-0.13229 0.6544,-0.19826 1.03081,-0.19826 v 1.83551 c -0.14216,0 -0.26458,0.037 -0.36794,0.11289 -0.0938,0.0744 -0.16969,0.18344 -0.22472,0.32385 -0.0564,0.1404 -0.0854,0.31009 -0.0854,0.50835 v 2.6102 c 0,0.15981 0.0289,0.30586 0.0854,0.43815 0.0564,0.12136 0.13652,0.22049 0.23989,0.29633 0.10336,0.0646 0.22048,0.0977 0.35277,0.0977 z m 0.70556,0 v -1.8341 c 0.13088,0 0.24941,-0.0332 0.35278,-0.0977 0.10336,-0.0758 0.18309,-0.17497 0.23953,-0.29633 0.0568,-0.13229 0.0843,-0.27834 0.0843,-0.43815 v -2.6102 c 0,-0.19826 -0.0275,-0.36795 -0.0843,-0.50835 -0.0466,-0.14041 -0.12241,-0.24942 -0.22577,-0.32385 -0.10337,-0.0759 -0.22613,-0.11289 -0.36654,-0.11289 v -1.83551 c 0.37606,0 0.71931,0.066 1.02941,0.19826 0.31009,0.13089 0.57855,0.31962 0.80468,0.56374 0.22613,0.23566 0.3997,0.51788 0.52211,0.84738 0.12136,0.32949 0.18345,0.69179 0.18345,1.08585 v 2.76577 c 0,0.39547 -0.0702,0.75248 -0.21237,1.07351 -0.13089,0.31961 -0.31398,0.59266 -0.54963,0.81703 -0.23566,0.22613 -0.50871,0.40111 -0.8188,0.52246 -0.30162,0.12242 -0.62124,0.1831 -0.95885,0.1831 z m 5.67196,-0.0138 c -0.49883,0 -0.92604,-0.0935 -1.28446,-0.28223 -0.35666,-0.18767 -0.62971,-0.42333 -0.81845,-0.70555 -0.18732,-0.29104 -0.28116,-0.58314 -0.28116,-0.87383 v -0.72073 c 0,-0.0938 0.008,-0.22048 0.0275,-0.38029 0.0275,-0.16969 0.0938,-0.34855 0.1972,-0.53622 0.10336,-0.18874 0.28257,-0.34855 0.53587,-0.47943 0.15169,-0.0854 0.3489,-0.16933 0.59408,-0.25506 0.25364,-0.084 0.51682,-0.16933 0.78951,-0.25329 0.27305,-0.0938 0.53199,-0.18909 0.77576,-0.28258 0.24553,-0.10336 0.44238,-0.20672 0.59267,-0.31009 0.15981,-0.11289 0.23989,-0.23001 0.23989,-0.35278 v -0.32526 c 0,-0.10336 -0.0236,-0.19297 -0.0702,-0.2674 -0.0374,-0.0854 -0.10336,-0.15029 -0.1972,-0.19826 -0.0854,-0.0565 -0.20249,-0.0843 -0.35278,-0.0843 v -1.73602 c 0.54575,0 0.99625,0.12242 1.35467,0.36795 0.35666,0.23425 0.62547,0.52211 0.80469,0.85972 0.1778,0.33902 0.2674,0.64911 0.2674,0.93169 v 3.68335 c 0,0.0564 0.0194,0.14605 0.0564,0.2674 0.0469,0.12242 0.1598,0.1831 0.33901,0.1831 v 1.75013 c -0.30197,0 -0.56903,-0.037 -0.80468,-0.11289 -0.22613,-0.084 -0.4191,-0.1972 -0.57891,-0.33761 -0.1778,0.15028 -0.38594,0.26317 -0.62018,0.33761 -0.23566,0.0759 -0.50412,0.11289 -0.80469,0.11289 v -1.73496 c 0.16933,0 0.29633,-0.0328 0.38171,-0.0991 0.084,-0.066 0.1404,-0.14041 0.16827,-0.22614 0.0385,-0.0935 0.0564,-0.17356 0.0564,-0.23953 v -1.15747 c -0.15029,0.0854 -0.32385,0.1651 -0.52247,0.23954 -0.19685,0.0759 -0.39969,0.14217 -0.60607,0.19861 -0.20673,0.0469 -0.39017,0.0935 -0.54998,0.14041 -0.15028,0.0469 -0.25894,0.0854 -0.32526,0.11289 -0.12277,0.0568 -0.18309,0.16545 -0.18309,0.32526 v 0.1972 c 0,0.11289 0.019,0.20673 0.0564,0.28258 0.0466,0.0744 0.12665,0.13088 0.23954,0.16933 0.12276,0.0374 0.29633,0.0564 0.52246,0.0564 z m -0.64911,-5.40456 -1.63724,-0.62018 c 0,-0.38594 0.11324,-0.72884 0.33902,-1.03082 0.23565,-0.30021 0.52634,-0.5401 0.87524,-0.71931 0.35666,-0.17921 0.71931,-0.26847 1.08585,-0.26847 v 1.73602 c -0.14076,0 -0.26317,0.0332 -0.36654,0.0995 -0.0938,0.0645 -0.16968,0.16369 -0.22613,0.29633 -0.0469,0.13088 -0.0702,0.30021 -0.0702,0.50694 z m 7.35189,5.40456 c -0.40393,0 -0.75248,-0.0797 -1.04458,-0.23954 -0.29069,-0.16016 -0.53622,-0.35701 -0.73307,-0.59267 -0.18873,-0.24377 -0.32949,-0.4893 -0.42298,-0.73307 -0.0953,-0.24553 -0.14217,-0.45191 -0.14217,-0.62159 v -3.66819 c 0,-0.16968 0.0469,-0.37641 0.14217,-0.62159 0.0935,-0.24377 0.23425,-0.47943 0.42298,-0.70556 0.19685,-0.23565 0.43674,-0.42862 0.71932,-0.5789 0.2921,-0.15981 0.63535,-0.23954 1.03081,-0.23954 h 0.46567 v 1.82033 h -0.46567 c -0.14217,0 -0.24941,0.0332 -0.32526,0.0991 -0.0663,0.0564 -0.11289,0.11713 -0.14076,0.18345 -0.0191,0.066 -0.0289,0.10336 -0.0289,0.11289 v 3.57046 c 0,0.008 0.0138,0.0469 0.0427,0.11289 0.0279,0.0564 0.0801,0.11712 0.15593,0.18344 0.0744,0.0565 0.18309,0.084 0.32385,0.084 h 0.43815 v 1.83409 z m 1.18498,0 v -10.10356 h 1.9625 l -0.0152,10.10356 z m 9.24242,0.0705 v -1.778 c 0.11325,0 0.23566,-0.0233 0.36795,-0.0702 0.13088,-0.0469 0.24412,-0.11712 0.33761,-0.21202 0.0953,-0.0938 0.14217,-0.21096 0.14217,-0.35278 0,-0.18768 -0.0938,-0.33761 -0.28258,-0.45085 -0.17921,-0.12241 -0.40922,-0.22189 -0.69179,-0.29598 -0.2727,-0.0857 -0.55951,-0.16545 -0.85972,-0.23989 -0.29246,-0.0758 -0.55139,-0.16545 -0.77753,-0.26881 -0.20672,-0.0938 -0.4131,-0.23001 -0.61983,-0.40923 -0.1972,-0.17921 -0.36653,-0.40922 -0.5087,-0.69179 -0.13088,-0.28258 -0.19684,-0.62548 -0.19684,-1.02941 0,-0.47131 0.084,-0.85584 0.25328,-1.15746 0.17922,-0.31009 0.3997,-0.55527 0.66287,-0.73307 0.26459,-0.17922 0.532,-0.30622 0.80505,-0.38171 0.27269,-0.0744 0.50835,-0.11324 0.70556,-0.11324 v 1.75013 c -0.21661,0 -0.37642,0.0332 -0.47979,0.0995 -0.0935,0.0646 -0.15557,0.13617 -0.18308,0.21061 -0.0194,0.0759 -0.0289,0.13653 -0.0289,0.18344 0,0.16934 0.0797,0.32915 0.23954,0.48084 0.16968,0.14041 0.43427,0.27693 0.79092,0.40781 0.3669,0.12277 0.84208,0.24942 1.42523,0.38171 0.18874,0.0374 0.37183,0.10759 0.55104,0.21237 0.18732,0.10336 0.35701,0.23989 0.5073,0.40922 0.14992,0.16828 0.27269,0.3803 0.36653,0.63394 0.0949,0.24518 0.14182,0.53587 0.14182,0.87489 0,0.53622 -0.12277,0.99766 -0.36654,1.3836 -0.23565,0.37641 -0.55527,0.66287 -0.96062,0.86007 -0.40357,0.19826 -0.8516,0.29633 -1.34091,0.29633 z m -0.63359,0 c -0.60219,0 -1.09149,-0.11183 -1.4679,-0.33761 -0.36795,-0.22613 -0.64065,-0.50447 -0.81845,-0.83255 -0.16933,-0.33902 -0.25506,-0.67804 -0.25506,-1.01706 l 1.75013,-0.32385 c 0,0.14076 0.0388,0.26741 0.11325,0.38029 0.0854,0.10337 0.18873,0.18909 0.31009,0.25506 0.12241,0.055 0.24518,0.0882 0.36794,0.0977 z m 1.42487,-5.67231 c 0,-0.23566 -0.0607,-0.40499 -0.18344,-0.50835 -0.11289,-0.10337 -0.23566,-0.16934 -0.36654,-0.19721 -0.13229,-0.037 -0.22189,-0.0564 -0.26881,-0.0564 l 0.0138,-1.75013 c 0.5087,0 0.95108,0.11324 1.32715,0.33902 0.38593,0.22613 0.68227,0.5087 0.889,0.84631 0.21625,0.33902 0.32385,0.68192 0.32385,1.03082 z m 5.74358,5.60176 c -0.63112,0 -1.12042,-0.10725 -1.46756,-0.32385 -0.34889,-0.21626 -0.59266,-0.51788 -0.73448,-0.90382 -0.13088,-0.39405 -0.1972,-0.85584 -0.1972,-1.38218 v -3.61315 h -0.98813 v -1.82034 h 0.98813 v -2.06022 h 1.89053 v 2.06022 h 0.93169 v 1.83551 h -0.93169 v 3.73838 c 0,0.10337 0.0332,0.21661 0.0995,0.33902 0.0645,0.12277 0.20672,0.18345 0.42298,0.18345 h 0.40922 l 0.42298,1.94698 z m 4.03472,0 c -0.4131,0 -0.77999,-0.0744 -1.10102,-0.22578 -0.31009,-0.15981 -0.56903,-0.35701 -0.77576,-0.59267 -0.20673,-0.23424 -0.3623,-0.47413 -0.46567,-0.71931 -0.10336,-0.24377 -0.15451,-0.46038 -0.15451,-0.64911 v -3.69711 c 0,-0.18768 0.0511,-0.40393 0.15451,-0.64911 0.10337,-0.24413 0.25894,-0.47978 0.46567,-0.70556 0.21625,-0.23566 0.47943,-0.42721 0.79093,-0.57891 0.31009,-0.15028 0.6671,-0.22578 1.07209,-0.22578 v 1.77906 c -0.12241,0 -0.23001,0.0275 -0.32526,0.084 -0.084,0.0564 -0.15417,0.12242 -0.21061,0.19685 -0.0469,0.0759 -0.0702,0.1517 -0.0702,0.22613 v 0.70556 h 2.10149 v -0.69039 c 0,-0.15169 -0.0374,-0.26458 -0.11324,-0.33902 -0.0744,-0.0758 -0.16792,-0.12276 -0.28116,-0.14181 -0.11289,-0.0275 -0.22578,-0.0413 -0.33902,-0.0413 v -1.77906 c 0.38594,0 0.76623,0.0893 1.14265,0.26847 0.38558,0.17921 0.70555,0.42862 0.96026,0.74824 0.26352,0.31997 0.3944,0.69603 0.3944,1.12889 v 2.66629 h -3.86538 v 1.04458 c 0,0.0663 0.0176,0.13652 0.0564,0.21237 0.037,0.0646 0.0977,0.121 0.18309,0.16933 0.0938,0.0469 0.22049,0.0702 0.3803,0.0702 z m 0.74824,0 v -1.72121 c 0.1972,0 0.36266,-0.0328 0.49354,-0.0991 0.13229,-0.066 0.23565,-0.15028 0.3115,-0.25364 0.0744,-0.11289 0.13088,-0.23566 0.16792,-0.36654 l 1.53952,0.57891 c -0.0663,0.30057 -0.21237,0.59655 -0.4385,0.889 -0.22578,0.28081 -0.51647,0.51647 -0.87489,0.70555 -0.34713,0.17745 -0.74683,0.26706 -1.19909,0.26706 z m 3.58457,-5.34811 c 0,-0.39406 0.0603,-0.75636 0.1831,-1.08585 0.12276,-0.3295 0.29633,-0.61172 0.52246,-0.84738 0.22578,-0.24412 0.49318,-0.43285 0.80469,-0.56374 0.31009,-0.13229 0.65299,-0.19826 1.0294,-0.19826 v 1.83551 c -0.14076,0 -0.26317,0.037 -0.36653,0.11289 -0.0938,0.0744 -0.16969,0.18344 -0.22613,0.32385 -0.0564,0.1404 -0.084,0.31009 -0.084,0.50835 v 5.26274 h -1.86302 z m 3.92325,0.0854 c 0,-0.19826 -0.0289,-0.36795 -0.0854,-0.50835 -0.0469,-0.14041 -0.12276,-0.24942 -0.22613,-0.32385 -0.10336,-0.0759 -0.22613,-0.11289 -0.36653,-0.11289 v -1.83551 c 0.37606,0 0.71931,0.066 1.03081,0.19826 0.3101,0.13089 0.57715,0.31962 0.80328,0.56374 0.22613,0.23566 0.3997,0.51788 0.52246,0.84738 0.12242,0.32949 0.18309,0.69179 0.18309,1.08585 v 5.34811 h -1.8616 z m 5.45958,5.26274 c -0.46002,0 -0.85019,-0.0744 -1.16981,-0.22578 -0.3115,-0.15981 -0.56515,-0.35701 -0.762,-0.59267 -0.19861,-0.23424 -0.34466,-0.47413 -0.43815,-0.71931 -0.0843,-0.25365 -0.127,-0.4699 -0.127,-0.64911 v -3.69711 c 0,-0.18768 0.0469,-0.40393 0.14076,-0.64911 0.0949,-0.24413 0.23954,-0.47978 0.43815,-0.70556 0.20673,-0.23566 0.46567,-0.42721 0.77576,-0.57891 0.31962,-0.15028 0.69603,-0.22578 1.12854,-0.22578 v 1.80658 c -0.15981,0 -0.29069,0.0233 -0.39406,0.0702 -0.0953,0.0385 -0.16122,0.0854 -0.19826,0.14182 -0.0374,0.0564 -0.0568,0.11324 -0.0568,0.16968 v 3.66819 c 0,0.0938 0.0236,0.16968 0.0705,0.22613 0.048,0.0564 0.11853,0.0991 0.21202,0.12665 0.10336,0.0194 0.23001,0.0332 0.38029,0.0427 z m 0.63536,0.0138 v -1.81893 c 0.16968,0 0.30586,-0.0152 0.40922,-0.0427 0.11324,-0.037 0.19861,-0.0991 0.25506,-0.18309 0.0564,-0.0953 0.084,-0.22614 0.084,-0.39582 v -0.46567 l 1.7212,0.66287 c 0.01,0.40499 -0.1076,0.7814 -0.35278,1.12995 -0.23424,0.33761 -0.54574,0.61066 -0.93168,0.81738 -0.37606,0.20779 -0.77012,0.30586 -1.18498,0.2974 z m 0.57891,-5.16326 v -0.46602 c 0,-0.15981 -0.0236,-0.28222 -0.0706,-0.36795 -0.0466,-0.084 -0.11712,-0.14464 -0.21202,-0.18309 -0.084,-0.0374 -0.18344,-0.0564 -0.29633,-0.0564 v -1.82034 c 0.42439,0 0.80892,0.10443 1.15746,0.31115 0.3489,0.19721 0.62583,0.46602 0.83256,0.80363 0.20672,0.33902 0.31009,0.71085 0.31009,1.11478 z m 2.97779,5.1495 v -7.93045 h 1.89054 v 7.93045 z m 0.93169,-8.62083 c -0.28258,0 -0.52776,-0.0991 -0.73448,-0.29634 -0.19721,-0.20814 -0.29634,-0.44802 -0.29634,-0.72072 0,-0.2727 0.0991,-0.50694 0.29634,-0.70556 0.20672,-0.20672 0.4519,-0.31009 0.73448,-0.31009 0.2727,0 0.50694,0.10337 0.70555,0.31009 0.20673,0.19862 0.3101,0.43286 0.3101,0.70556 0,0.2727 -0.10337,0.51258 -0.3101,0.72072 -0.19861,0.19721 -0.43285,0.29634 -0.70555,0.29634 z m 2.31352,8.62083 v -10.10356 h 2.0327 v 10.10356 z m 6.08153,0.0705 v -1.778 c 0.11289,0 0.23566,-0.0233 0.36795,-0.0702 0.13088,-0.0469 0.24377,-0.11712 0.33761,-0.21202 0.0949,-0.0938 0.14181,-0.21096 0.14181,-0.35278 0,-0.18768 -0.0938,-0.33761 -0.28257,-0.45085 -0.17921,-0.12241 -0.40922,-0.22189 -0.6918,-0.29598 -0.2727,-0.0857 -0.5595,-0.16545 -0.85972,-0.23989 -0.2921,-0.0758 -0.55139,-0.16545 -0.77717,-0.26881 -0.20673,-0.0938 -0.41345,-0.23001 -0.62018,-0.40923 -0.19861,-0.17921 -0.36654,-0.40922 -0.50871,-0.69179 -0.13088,-0.28258 -0.19685,-0.62548 -0.19685,-1.02941 0,-0.47131 0.084,-0.85584 0.25365,-1.15746 0.17886,-0.31009 0.39935,-0.55527 0.66252,-0.73307 0.26458,-0.17922 0.53199,-0.30622 0.80504,-0.38171 0.27269,-0.0759 0.50835,-0.11324 0.70555,-0.11324 v 1.75013 c -0.2166,0 -0.37641,0.0332 -0.47978,0.0995 -0.0935,0.0646 -0.15557,0.13617 -0.18309,0.21061 -0.0194,0.0759 -0.0289,0.13653 -0.0289,0.18344 0,0.16934 0.0797,0.32915 0.23954,0.48084 0.16969,0.14041 0.43286,0.27693 0.79128,0.40781 0.36654,0.12277 0.84173,0.24942 1.42487,0.38171 0.18874,0.0374 0.37183,0.10759 0.54963,0.21237 0.18873,0.10336 0.35842,0.23989 0.5087,0.40922 0.14993,0.16828 0.2727,0.3803 0.36654,0.63394 0.0949,0.24518 0.14182,0.53587 0.14182,0.87489 0,0.53622 -0.12277,0.99766 -0.36654,1.3836 -0.23566,0.37641 -0.55527,0.66287 -0.96061,0.86007 -0.40358,0.19826 -0.85161,0.29633 -1.34056,0.29633 z m -0.63394,0 c -0.60219,0 -1.09149,-0.11324 -1.46756,-0.33761 -0.36794,-0.22613 -0.64099,-0.50447 -0.81879,-0.83396 -0.16934,-0.33761 -0.25471,-0.67663 -0.25471,-1.01565 l 1.75013,-0.32385 c 0,0.14076 0.037,0.26741 0.11289,0.38029 0.0854,0.10337 0.18874,0.18909 0.31009,0.25365 0.12242,0.0565 0.24518,0.0896 0.36795,0.0991 z m 1.42487,-5.67231 c 0,-0.23566 -0.0621,-0.40499 -0.18345,-0.50835 -0.11288,-0.10337 -0.23565,-0.16934 -0.36794,-0.19721 -0.13088,-0.037 -0.22049,-0.0564 -0.26741,-0.0564 l 0.0141,-1.75013 c 0.50836,0 0.95074,0.11324 1.3268,0.33902 0.38594,0.22613 0.68227,0.5087 0.889,0.84631 0.21625,0.33902 0.32385,0.68192 0.32385,1.03082 z m 6.60365,5.60176 v -5.48852 h -0.98813 v -1.83409 h 0.98813 v -0.55139 c 0,-0.16934 0.0466,-0.37606 0.14181,-0.62019 0.0938,-0.24518 0.23989,-0.4893 0.43674,-0.73448 0.1972,-0.24377 0.44662,-0.4505 0.74824,-0.62018 0.30057,-0.16934 0.65335,-0.25894 1.05834,-0.26847 h 0.94544 l -0.42298,1.82034 h -0.50871 c -0.1404,0 -0.24941,0.0332 -0.32526,0.0991 -0.0741,0.0663 -0.12664,0.13088 -0.15416,0.1972 -0.0194,0.066 -0.0289,0.10866 -0.0289,0.12665 v 0.55139 h 1.01706 v 1.83409 h -1.01706 v 5.48852 z m 3.92324,0 v -8.04334 h 1.91805 v 0.89006 c 0.11289,-0.14181 0.26458,-0.28257 0.45191,-0.42439 0.19861,-0.15028 0.42333,-0.27693 0.67804,-0.38029 0.25364,-0.10337 0.52246,-0.15593 0.80362,-0.15593 0.0854,0 0.16934,0 0.25471,0 0.0843,0 0.16969,0 0.25365,0 l -0.43674,1.89089 c -0.33902,0 -0.66428,0.0991 -0.97437,0.29633 -0.30057,0.18874 -0.54998,0.42827 -0.74825,0.72073 -0.18732,0.29068 -0.28257,0.59231 -0.28257,0.9024 v 4.30354 z m 7.57766,0.0138 c -0.33902,0 -0.66428,-0.0607 -0.97437,-0.1831 -0.30021,-0.12135 -0.56903,-0.29633 -0.80468,-0.52246 -0.23425,-0.22437 -0.42299,-0.49742 -0.56374,-0.81703 -0.1323,-0.32103 -0.19685,-0.67804 -0.19685,-1.07351 v -2.76577 c 0,-0.39406 0.0607,-0.75636 0.18309,-1.08585 0.12135,-0.3295 0.29633,-0.61172 0.52246,-0.84738 0.22472,-0.24412 0.49319,-0.43285 0.80328,-0.56374 0.31009,-0.13229 0.65475,-0.19826 1.03081,-0.19826 v 1.83551 c -0.14181,0 -0.26317,0.037 -0.36794,0.11289 -0.0938,0.0744 -0.16793,0.18344 -0.22472,0.32385 -0.0564,0.1404 -0.0854,0.31009 -0.0854,0.50835 v 2.6102 c 0,0.15981 0.0289,0.30586 0.0854,0.43815 0.0568,0.12136 0.13652,0.22049 0.23989,0.29633 0.10336,0.0646 0.22048,0.0977 0.35277,0.0977 z m 0.70556,0 v -1.8341 c 0.13088,0 0.24941,-0.0332 0.35278,-0.0977 0.10336,-0.0758 0.18344,-0.17497 0.23989,-0.29633 0.0564,-0.13229 0.084,-0.27834 0.084,-0.43815 v -2.6102 c 0,-0.19826 -0.0275,-0.36795 -0.084,-0.50835 -0.0469,-0.14041 -0.12277,-0.24942 -0.22613,-0.32385 -0.10337,-0.0759 -0.22578,-0.11289 -0.36654,-0.11289 v -1.83551 c 0.37641,0 0.71931,0.066 1.0294,0.19826 0.31151,0.13089 0.57891,0.31962 0.80469,0.56374 0.22613,0.23566 0.3997,0.51788 0.52246,0.84738 0.12242,0.32949 0.1831,0.69179 0.1831,1.08585 v 2.76577 c 0,0.39547 -0.0702,0.75248 -0.21202,1.07351 -0.13087,0.31961 -0.31432,0.59266 -0.54998,0.81703 -0.23566,0.22613 -0.50835,0.40111 -0.81844,0.52246 -0.30057,0.12242 -0.6216,0.1831 -0.95921,0.1831 z m 7.35189,-0.0138 v -5.61552 c 0,-0.15981 -0.0526,-0.2921 -0.15557,-0.39546 -0.0938,-0.11289 -0.26741,-0.16934 -0.52247,-0.16934 v -1.87713 c 0.35843,0 0.66851,0.0469 0.93168,0.14217 0.26318,0.0935 0.49883,0.22049 0.70556,0.3803 0.20673,-0.16969 0.44238,-0.29634 0.70556,-0.3803 0.26317,-0.0952 0.56903,-0.14217 0.91757,-0.14217 v 1.87713 c -0.2547,0 -0.42862,0.0564 -0.52211,0.16934 -0.0938,0.11324 -0.14217,0.24412 -0.14217,0.39546 v 5.61552 z m -3.88056,0 v -5.85506 c 0,-0.19861 0.0508,-0.4191 0.15417,-0.66428 0.11324,-0.25364 0.27869,-0.49741 0.49494,-0.73307 0.21626,-0.23565 0.47943,-0.42862 0.78952,-0.57891 0.31962,-0.15028 0.6918,-0.22613 1.11478,-0.22613 v 1.87713 c -0.24377,0 -0.41346,0.066 -0.50694,0.19685 -0.0854,0.12277 -0.12842,0.24554 -0.12842,0.36795 v 5.61552 z m 7.76111,0 v -5.61552 c 0,-0.16933 -0.0469,-0.30586 -0.14181,-0.40922 -0.0938,-0.10337 -0.26741,-0.15558 -0.52247,-0.15558 v -1.87713 c 0.42439,0 0.79516,0.0801 1.11478,0.23989 0.32949,0.15028 0.60219,0.34325 0.8188,0.57891 0.21625,0.23566 0.37606,0.47942 0.48083,0.73448 0.11148,0.24377 0.16793,0.46003 0.16793,0.64911 v 5.85506 z m 6.50417,0 v -7.93045 h 1.8923 v 7.93045 z m 0.93168,-8.62083 c -0.28257,0 -0.52634,-0.0991 -0.73307,-0.29634 -0.19861,-0.20814 -0.29633,-0.44802 -0.29633,-0.72072 0,-0.2727 0.0977,-0.50694 0.29633,-0.70556 0.20673,-0.20672 0.4505,-0.31009 0.73307,-0.31009 0.2727,0 0.50836,0.10337 0.70556,0.31009 0.20673,0.19862 0.3115,0.43286 0.3115,0.70556 0,0.2727 -0.10477,0.51258 -0.3115,0.72072 -0.1972,0.19721 -0.43286,0.29634 -0.70556,0.29634 z m 5.17878,8.69138 v -1.778 c 0.11289,0 0.23566,-0.0233 0.36795,-0.0702 0.13088,-0.0469 0.24377,-0.11712 0.33761,-0.21202 0.0949,-0.0938 0.14181,-0.21096 0.14181,-0.35278 0,-0.18768 -0.0949,-0.33761 -0.28257,-0.45085 -0.17921,-0.12241 -0.40922,-0.22189 -0.6918,-0.29598 -0.2727,-0.0857 -0.55951,-0.16545 -0.85972,-0.23989 -0.2921,-0.0758 -0.55139,-0.16545 -0.77717,-0.26881 -0.20673,-0.0938 -0.41345,-0.23001 -0.62018,-0.40923 -0.19862,-0.17921 -0.36654,-0.40922 -0.50835,-0.69179 -0.13124,-0.28258 -0.19721,-0.62548 -0.19721,-1.02941 0,-0.47131 0.084,-0.85584 0.25365,-1.15746 0.17921,-0.31009 0.39934,-0.55527 0.66287,-0.73307 0.26317,-0.17922 0.53164,-0.30622 0.80469,-0.38171 0.27269,-0.0759 0.50835,-0.11324 0.70555,-0.11324 v 1.75013 c -0.21625,0 -0.37641,0.0332 -0.47978,0.0995 -0.0935,0.0646 -0.15557,0.13617 -0.18309,0.21061 -0.0194,0.0759 -0.0289,0.13653 -0.0289,0.18344 0,0.16934 0.0797,0.32915 0.23989,0.48084 0.16934,0.14041 0.43251,0.27693 0.79093,0.40781 0.36654,0.12277 0.84208,0.24942 1.42487,0.38171 0.18874,0.0374 0.37218,0.10759 0.54963,0.21237 0.18909,0.10336 0.35842,0.23989 0.5087,0.40922 0.15029,0.16828 0.2727,0.3803 0.36654,0.63394 0.0949,0.24518 0.14182,0.53587 0.14182,0.87489 0,0.53622 -0.12242,0.99766 -0.36795,1.3836 -0.23425,0.37641 -0.55386,0.66287 -0.95885,0.86007 -0.40393,0.19826 -0.85196,0.29633 -1.34091,0.29633 z m -0.63394,0 c -0.60219,0 -1.0915,-0.11324 -1.46756,-0.33761 -0.36794,-0.22613 -0.64099,-0.50447 -0.81879,-0.83396 -0.16934,-0.33761 -0.25471,-0.67663 -0.25471,-1.01565 l 1.75013,-0.32385 c 0,0.14076 0.037,0.26741 0.11289,0.38029 0.084,0.10337 0.18874,0.18909 0.31009,0.25365 0.12277,0.0565 0.24518,0.0896 0.36795,0.0991 z m 1.42487,-5.67231 c 0,-0.23566 -0.0621,-0.40499 -0.18345,-0.50835 -0.11289,-0.10337 -0.23565,-0.16934 -0.36794,-0.19721 -0.13088,-0.037 -0.22049,-0.0564 -0.26706,-0.0564 l 0.0138,-1.75013 c 0.50835,0 0.95074,0.11324 1.3268,0.33902 0.38594,0.22613 0.68227,0.5087 0.889,0.84631 0.21625,0.33902 0.32385,0.68192 0.32385,1.03082 z m 5.74216,5.60176 c -0.62971,0 -1.11901,-0.10725 -1.46755,-0.32385 -0.34714,-0.21626 -0.59267,-0.51788 -0.73308,-0.90382 -0.13229,-0.39405 -0.1972,-0.85584 -0.1972,-1.38218 v -3.61315 h -0.98778 v -1.82034 h 0.98778 v -2.06022 h 1.89089 v 2.06022 h 0.93133 v 1.83551 h -0.93133 v 3.73838 c 0,0.10337 0.0332,0.21661 0.0977,0.33902 0.0663,0.12277 0.20814,0.18345 0.42439,0.18345 h 0.40922 l 0.42334,1.94698 z m 3.72639,0 c -0.49882,0 -0.92745,-0.0935 -1.28446,-0.28223 -0.35701,-0.18767 -0.62971,-0.42333 -0.81845,-0.70555 -0.18873,-0.29104 -0.28257,-0.58314 -0.28257,-0.87383 v -0.72073 c 0,-0.0938 0.01,-0.22048 0.0289,-0.38029 0.0275,-0.16969 0.0938,-0.34855 0.1972,-0.53622 0.10336,-0.18874 0.28222,-0.34855 0.53587,-0.47943 0.15028,-0.0854 0.3489,-0.16933 0.59267,-0.25506 0.25505,-0.084 0.51823,-0.16933 0.79092,-0.25329 0.27305,-0.0938 0.53058,-0.18909 0.77576,-0.28258 0.24412,-0.10336 0.44239,-0.20672 0.59267,-0.31009 0.15981,-0.11289 0.23989,-0.23001 0.23989,-0.35278 v -0.32526 c 0,-0.10336 -0.0236,-0.19297 -0.0706,-0.2674 -0.037,-0.0854 -0.10301,-0.15029 -0.19826,-0.19826 -0.084,-0.0565 -0.20108,-0.0843 -0.35278,-0.0843 v -1.73602 c 0.54575,0 0.99766,0.12242 1.35608,0.36795 0.35666,0.23425 0.62406,0.52211 0.80328,0.85972 0.17921,0.33902 0.26881,0.64911 0.26881,0.93169 v 3.68335 c 0,0.0564 0.018,0.14605 0.0564,0.2674 0.0469,0.12242 0.15981,0.1831 0.33761,0.1831 v 1.75013 c -0.30057,0 -0.56904,-0.037 -0.80328,-0.11289 -0.22613,-0.084 -0.4191,-0.1972 -0.57891,-0.33902 -0.17921,0.15169 -0.38594,0.26458 -0.62159,0.33902 -0.23425,0.0759 -0.50306,0.11289 -0.80328,0.11289 v -1.73496 c 0.16934,0 0.29634,-0.0328 0.3803,-0.0991 0.0854,-0.066 0.14181,-0.14041 0.16968,-0.22614 0.037,-0.0935 0.0564,-0.17356 0.0564,-0.23953 v -1.15747 c -0.15029,0.0854 -0.32526,0.1651 -0.52247,0.23954 -0.19685,0.0759 -0.39969,0.14217 -0.60642,0.19861 -0.20638,0.0469 -0.39123,0.0935 -0.55104,0.14041 -0.15028,0.0469 -0.25753,0.0854 -0.32385,0.11289 -0.12277,0.0568 -0.18344,0.16545 -0.18344,0.32526 v 0.1972 c 0,0.11289 0.018,0.20673 0.0568,0.28258 0.0466,0.0744 0.12665,0.13088 0.23954,0.16933 0.12277,0.0374 0.29633,0.0564 0.52246,0.0564 z m -0.64911,-5.40456 -1.63724,-0.62018 c 0,-0.38594 0.11324,-0.72884 0.33902,-1.03082 0.23424,-0.30021 0.52634,-0.5401 0.87524,-0.71931 0.35666,-0.17921 0.71932,-0.26847 1.08585,-0.26847 v 1.73602 c -0.14076,0 -0.26317,0.0332 -0.36653,0.0995 -0.0938,0.0645 -0.16969,0.16369 -0.22614,0.29633 -0.0469,0.13088 -0.0702,0.30021 -0.0702,0.50694 z m 5.10822,0.0565 c 0,-0.39406 0.0607,-0.75636 0.18345,-1.08585 0.12135,-0.3295 0.29633,-0.61172 0.52211,-0.84738 0.22472,-0.24412 0.49354,-0.43285 0.80363,-0.56374 0.3115,-0.13229 0.6544,-0.19826 1.03081,-0.19826 v 1.83551 c -0.14217,0 -0.26317,0.037 -0.36653,0.11289 -0.0952,0.0744 -0.16969,0.18344 -0.22613,0.32385 -0.0565,0.1404 -0.0854,0.31009 -0.0854,0.50835 v 5.26274 h -1.86196 z m 3.92219,0.0854 c 0,-0.19826 -0.0279,-0.36795 -0.0843,-0.50835 -0.0466,-0.14041 -0.12241,-0.24942 -0.22577,-0.32385 -0.10337,-0.0759 -0.22614,-0.11289 -0.36654,-0.11289 v -1.83551 c 0.37606,0 0.71931,0.066 1.0294,0.19826 0.31115,0.13089 0.57856,0.31962 0.80469,0.56374 0.22578,0.23566 0.3997,0.51788 0.52211,0.84738 0.12277,0.32949 0.18345,0.69179 0.18345,1.08585 v 5.34811 h -1.86302 z m 5.19359,5.26274 c -0.40499,0 -0.75247,-0.0797 -1.04457,-0.23954 -0.2921,-0.16016 -0.53587,-0.35701 -0.73449,-0.59267 -0.18732,-0.24377 -0.32914,-0.4893 -0.42298,-0.73307 -0.0938,-0.24553 -0.1404,-0.45191 -0.1404,-0.62159 v -3.66819 c 0,-0.16968 0.0466,-0.37641 0.1404,-0.62159 0.0938,-0.24377 0.23566,-0.47943 0.42298,-0.70556 0.19862,-0.23565 0.43815,-0.42862 0.72073,-0.5789 0.29069,-0.15981 0.63394,-0.23954 1.0294,-0.23954 h 0.46602 v 1.82033 h -0.46602 c -0.1404,0 -0.24941,0.0332 -0.32385,0.0991 -0.066,0.0564 -0.11289,0.11713 -0.14181,0.18345 -0.018,0.066 -0.0275,0.10336 -0.0275,0.11289 v 3.57046 c 0,0.008 0.0138,0.0469 0.0413,0.11148 0.0289,0.0568 0.0801,0.11853 0.15557,0.18485 0.0759,0.0565 0.18344,0.084 0.32526,0.084 h 0.43709 v 1.83409 z m 1.18533,0 v -10.10356 h 1.96074 l -0.0138,10.10356 z m 6.30732,0 v -9.89154 h 1.97591 v 6.05367 h 0.762 v 1.83444 h -0.762 v 2.00343 z m -3.48509,-2.00343 v -1.83444 l 2.68005,-4.59987 v 3.55529 l -0.64911,1.04458 h 0.64911 v 1.83444 z m 8.12764,2.07398 c -0.2921,0 -0.54045,-0.10336 -0.74824,-0.31009 -0.20673,-0.20673 -0.31009,-0.45614 -0.31009,-0.74824 0,-0.30057 0.10336,-0.55421 0.31009,-0.76235 0.20779,-0.20673 0.45614,-0.3101 0.74824,-0.3101 0.30022,0 0.54963,0.10337 0.74824,0.3101 0.20673,0.20814 0.3101,0.46178 0.3101,0.76235 0,0.2921 -0.10337,0.54151 -0.3101,0.74824 -0.19861,0.20673 -0.44802,0.31009 -0.74824,0.31009 z m 5.23523,0 v -1.87713 c 0.16933,0 0.30162,-0.0275 0.39546,-0.084 0.10336,-0.0564 0.17357,-0.12665 0.21061,-0.21237 0.0388,-0.084 0.0564,-0.16792 0.0564,-0.2533 v -5.68713 h 1.91982 v 5.91291 c 0,0.18768 -0.0564,0.40922 -0.16969,0.66287 -0.10336,0.24518 -0.26317,0.48507 -0.47942,0.71932 -0.21626,0.23565 -0.48931,0.43285 -0.81845,0.59407 -0.31997,0.15029 -0.69179,0.22472 -1.11477,0.22472 z m -0.64912,0 c -0.42333,0 -0.79939,-0.0744 -1.12888,-0.22472 -0.31962,-0.15169 -0.58844,-0.34466 -0.80468,-0.57891 -0.20673,-0.23565 -0.36654,-0.47519 -0.47943,-0.72072 -0.10337,-0.25365 -0.15593,-0.47943 -0.15593,-0.67663 v -5.91291 h 1.91981 v 5.68713 c 0,0.0854 0.0194,0.16934 0.0564,0.2533 0.037,0.0857 0.10335,0.15593 0.19719,0.21237 0.0949,0.0564 0.22578,0.0854 0.39547,0.0854 z m 7.2249,0 v -1.778 c 0.11288,0 0.23565,-0.0233 0.36653,-0.0702 0.1323,-0.0469 0.24553,-0.11712 0.33902,-0.21202 0.0938,-0.0938 0.14076,-0.21096 0.14076,-0.35278 0,-0.18768 -0.0938,-0.33761 -0.28258,-0.45085 -0.17779,-0.12241 -0.4078,-0.22189 -0.69038,-0.29598 -0.27305,-0.0857 -0.5595,-0.16545 -0.86149,-0.23989 -0.2921,-0.0758 -0.54963,-0.16545 -0.77576,-0.26881 -0.20672,-0.0938 -0.41345,-0.23001 -0.62159,-0.40923 -0.19685,-0.17921 -0.36654,-0.40922 -0.50694,-0.69179 -0.13229,-0.28258 -0.19862,-0.62548 -0.19862,-1.02941 0,-0.47131 0.0857,-0.85584 0.25506,-1.15746 0.1778,-0.31009 0.3997,-0.55527 0.66287,-0.73307 0.26318,-0.17922 0.532,-0.30622 0.80469,-0.38171 0.27306,-0.0759 0.5073,-0.11324 0.70556,-0.11324 v 1.75013 c -0.21626,0 -0.37607,0.0332 -0.48084,0.0995 -0.0938,0.0646 -0.15452,0.13617 -0.18345,0.21061 -0.0176,0.0759 -0.0275,0.13653 -0.0275,0.18344 0,0.16934 0.0801,0.32915 0.23987,0.48084 0.16935,0.14041 0.43286,0.27693 0.78953,0.40781 0.36794,0.12277 0.84208,0.24942 1.42628,0.38171 0.18733,0.0374 0.37077,0.10759 0.54998,0.21237 0.18873,0.10336 0.357,0.23989 0.50835,0.40922 0.15029,0.16828 0.27305,0.3803 0.36653,0.63394 0.0938,0.24518 0.14076,0.53587 0.14076,0.87489 0,0.53622 -0.12135,0.99766 -0.36654,1.3836 -0.23564,0.37641 -0.55561,0.66287 -0.9592,0.86007 -0.40534,0.19826 -0.85159,0.29633 -1.34091,0.29633 z m -0.63536,0 c -0.60219,0 -1.09114,-0.11324 -1.46756,-0.33761 -0.36653,-0.22613 -0.63923,-0.50447 -0.81844,-0.83396 -0.16969,-0.33761 -0.25365,-0.67663 -0.25365,-1.01565 l 1.75013,-0.32385 c 0,0.14076 0.0374,0.26741 0.11289,0.38029 0.0843,0.10337 0.18768,0.18909 0.3101,0.25365 0.12276,0.0565 0.24412,0.0896 0.36653,0.0991 z m 1.42487,-5.67231 c 0,-0.23566 -0.0603,-0.40499 -0.18309,-0.50835 -0.11289,-0.10337 -0.23425,-0.16934 -0.36654,-0.19721 -0.13229,-0.037 -0.22048,-0.0564 -0.26882,-0.0564 l 0.0152,-1.75013 c 0.5073,0 0.94933,0.11324 1.32574,0.33902 0.38594,0.22613 0.68192,0.5087 0.88865,0.84631 0.21661,0.33902 0.32526,0.68192 0.32526,1.03082 z"
       style="fill:#000000" />
    <g
       id="text1"
       aria-label="STOP EMPOWERING TERRIBLE PEOPLE.">
      <path
         d="m 29.121217,136.53965 v -7.58032 q 0.641411,-0.0583 1.282822,-0.34986 0.641411,-0.34986 1.166202,-0.87465 0.524791,-0.5831 0.816342,-1.28282 0.34986,-0.69972 0.34986,-1.51606 0,-1.45776 -0.874651,-2.56565 -0.874652,-1.1662 -2.274094,-1.98254 -1.341132,-0.87465 -2.740575,-1.45775 -1.399442,-0.58311 -2.507334,-0.93297 -1.107892,-0.34986 -1.457753,-0.46648 -1.690992,-0.52479 -3.381985,-1.92423 -1.632683,-1.39944 -2.740575,-3.61523 -1.049582,-2.27409 -1.049582,-5.1896 0,-3.09043 1.107892,-5.18959 1.166202,-2.157478 2.857195,-3.4403 1.690993,-1.341133 3.381986,-1.982544 1.749303,-0.641411 2.857195,-0.641411 v 7.696935 q -0.466481,0.17493 -0.932962,0.46648 -0.408171,0.29155 -0.758031,0.75803 -0.291551,0.46648 -0.524791,0.99127 -0.17493,0.52479 -0.17493,1.10789 0,1.04959 0.52479,1.80762 0.583101,0.75803 1.574373,1.34113 0.991272,0.5831 2.215784,1.1662 1.282822,0.52479 2.740575,1.10789 1.457752,0.5831 2.915505,1.39945 1.865923,0.99127 3.556916,2.44902 1.690993,1.45775 2.798885,3.49861 1.107892,1.98254 1.107892,4.78142 0,3.32368 -1.632683,6.18088 -1.632683,2.79888 -4.373258,4.54818 -2.682264,1.691 -5.83101,1.691 z m -3.207055,0 q -2.390714,0 -4.373258,-0.99128 -1.924233,-0.99127 -3.381986,-2.50733 -1.399442,-1.51606 -2.157473,-3.09044 -0.758032,-1.57437 -0.758032,-2.79888 l 7.405383,-2.62395 q 0,1.1662 0.524791,2.09916 0.524791,0.87465 1.282822,1.45775 0.758031,0.5831 1.457753,0.87465 z m 5.83101,-29.91309 q 0,-0.99127 -0.466481,-1.69099 -0.408171,-0.69972 -0.991272,-1.10789 -0.583101,-0.46648 -1.166202,-0.5831 v -7.696935 q 2.332404,0 4.198327,0.932962 1.865924,0.874651 3.207056,2.274094 1.341132,1.399439 2.040853,2.857199 0.758032,1.45775 0.758032,2.50733 z m 19.767176,29.73816 v -32.77028 h -8.513275 v -8.046795 h 25.248274 v 8.046795 h -8.513275 v 32.77028 z m 35.21926,0.29155 v -8.28004 q 0.758031,0 1.399442,-0.29155 0.699722,-0.34986 1.224513,-0.87465 0.583101,-0.5831 0.874651,-1.34113 0.349861,-0.75803 0.349861,-1.691 v -16.26851 q 0,-0.99128 -0.291551,-1.74931 -0.29155,-0.81634 -0.816341,-1.39944 -0.466481,-0.64141 -1.166202,-0.93296 -0.699721,-0.34986 -1.574373,-0.34986 v -8.221725 q 2.449024,0 4.606498,0.932961 2.215784,0.932962 3.848467,2.565645 1.690992,1.574369 2.623954,3.731849 0.991272,2.09916 0.991272,4.48987 v 17.49304 q 0,2.56564 -0.874652,4.78142 -0.816341,2.21579 -2.390714,3.90678 -1.574373,1.63268 -3.848466,2.56564 -2.215784,0.93297 -4.956359,0.93297 z m -3.265366,0 q -2.449024,0 -4.606498,-0.93297 -2.157473,-0.99127 -3.848466,-2.68226 -1.632683,-1.69099 -2.623955,-3.90678 -0.932961,-2.21578 -0.932961,-4.6648 v -17.49304 q 0,-2.39071 0.932961,-4.48987 0.991272,-2.15748 2.623955,-3.790159 1.690993,-1.632683 3.848466,-2.507335 2.215784,-0.932961 4.664808,-0.932961 v 8.221725 q -0.874651,0 -1.574372,0.34986 -0.699721,0.29155 -1.224512,0.93296 -0.466481,0.5831 -0.758032,1.39944 -0.29155,0.75803 -0.29155,1.74931 v 16.26851 q 0,0.93297 0.29155,1.74931 0.349861,0.75803 0.874652,1.34113 0.524791,0.52479 1.166202,0.81634 0.699721,0.29155 1.457752,0.29155 z m 20.116978,-0.29155 V 95.547645 h 8.22172 v 40.817075 z m 11.37047,-18.60093 V 109.717 h 1.92423 q 0.46648,0 1.1662,-0.11662 0.69973,-0.11662 1.22452,-0.75803 0.5831,-0.64141 0.5831,-2.15748 0,-1.51606 -0.5831,-2.15747 -0.52479,-0.64141 -1.22452,-0.75803 -0.69972,-0.11662 -1.1662,-0.11662 h -1.92423 v -8.105105 h 2.15747 q 4.37326,0 6.76397,1.457753 2.39072,1.457752 3.32368,4.023392 0.99127,2.56565 0.99127,5.88932 0,3.61523 -1.10789,6.06426 -1.04958,2.39071 -3.49861,3.61522 -2.39071,1.1662 -6.47242,1.1662 z m 29.97136,18.60093 V 95.547645 h 21.22488 v 8.163415 h -13.00315 v 8.28003 h 7.522 v 8.22173 h -7.522 v 7.93017 h 13.00315 v 8.22173 z m 40.64215,0 -14.75245,-35.45255 v -5.364525 h 6.41411 l 11.13723,26.997575 6.18087,-13.93611 h 0.5831 v 18.95078 l -3.90678,8.80483 z m -14.75245,0 v -25.88969 h 0.52479 l 7.69693,18.4843 v 7.40539 z m 27.46406,0 V 95.547645 h 8.22172 v 40.817075 z m 13.11972,0 V 95.547645 h 8.22173 V 136.36472 Z M 222.769,117.76379 V 109.717 h 1.92424 q 0.46648,0 1.1662,-0.11662 0.69972,-0.11662 1.22451,-0.75803 0.5831,-0.64141 0.5831,-2.15748 0,-1.51606 -0.5831,-2.15747 -0.52479,-0.64141 -1.22451,-0.75803 -0.69972,-0.11662 -1.1662,-0.11662 H 222.769 v -8.105105 h 2.15748 q 4.37326,0 6.76397,1.457753 2.39071,1.457752 3.32368,4.023392 0.99127,2.56565 0.99127,5.88932 0,3.61523 -1.10789,6.06426 -1.04959,2.39071 -3.49861,3.61522 -2.39071,1.1662 -6.47242,1.1662 z m 31.7207,18.89248 v -8.28004 q 0.75803,0 1.39945,-0.29155 0.69972,-0.34986 1.22451,-0.87465 0.5831,-0.5831 0.87465,-1.34113 0.34986,-0.75803 0.34986,-1.691 v -16.26851 q 0,-0.99128 -0.29155,-1.74931 -0.29155,-0.81634 -0.81634,-1.39944 -0.46648,-0.64141 -1.1662,-0.93296 -0.69973,-0.34986 -1.57438,-0.34986 v -8.221725 q 2.44903,0 4.6065,0.932961 2.21578,0.932962 3.84847,2.565645 1.69099,1.574369 2.62395,3.731849 0.99127,2.09916 0.99127,4.48987 v 17.49304 q 0,2.56564 -0.87465,4.78142 -0.81634,2.21579 -2.39071,3.90678 -1.57437,1.63268 -3.84847,2.56564 -2.21578,0.93297 -4.95636,0.93297 z m -3.26536,0 q -2.44903,0 -4.6065,-0.93297 -2.15747,-0.99127 -3.84847,-2.68226 -1.63268,-1.69099 -2.62395,-3.90678 -0.93296,-2.21578 -0.93296,-4.6648 v -17.49304 q 0,-2.39071 0.93296,-4.48987 0.99127,-2.15748 2.62395,-3.790159 1.691,-1.632683 3.84847,-2.507335 2.21578,-0.932961 4.66481,-0.932961 v 8.221725 q -0.87465,0 -1.57438,0.34986 -0.69972,0.29155 -1.22451,0.93296 -0.46648,0.5831 -0.75803,1.39944 -0.29155,0.75803 -0.29155,1.74931 v 16.26851 q 0,0.93297 0.29155,1.74931 0.34986,0.75803 0.87465,1.34113 0.52479,0.52479 1.1662,0.81634 0.69973,0.29155 1.45776,0.29155 z m 30.088,-0.29155 -11.83695,-40.817075 h 8.39666 l 9.2713,31.604075 -3.09043,9.213 z m 18.19275,0 -11.83695,-40.817075 h 8.39666 l 9.21299,31.604075 -3.03212,9.213 z m -11.19554,-16.90993 -3.84846,-13.06147 3.20705,-10.845675 h 8.39666 l -7.17215,23.907145 z m 18.426,0 -3.84847,-13.06147 3.20705,-10.845675 h 8.39666 l -7.17214,23.907145 z m 10.78736,16.90993 V 95.547645 h 21.22488 v 8.163415 h -13.00316 v 8.28003 h 7.52201 v 8.22173 h -7.52201 v 7.93017 h 13.00316 v 8.22173 z m 44.02412,0 -0.87465,-10.3792 q -0.17493,-2.2741 -0.75803,-3.61523 -0.52479,-1.39944 -1.63269,-2.04085 -1.04958,-0.64141 -2.85719,-0.64141 h -0.64141 v -7.28877 h 0.75803 q 2.62395,0 3.79016,-1.39944 1.22451,-1.45775 1.22451,-3.20705 0,-2.09917 -1.45775,-3.26537 -1.39945,-1.22451 -3.55692,-1.22451 h -0.75803 v -7.755245 h 1.28282 q 3.90678,0 6.58904,1.457753 2.74058,1.457752 4.14002,4.023392 1.45775,2.50734 1.45775,5.83101 0,2.97382 -1.10789,5.24791 -1.04958,2.2741 -2.8572,3.73185 1.86593,1.1662 2.74058,3.49861 0.93296,2.27409 1.10789,4.37325 l 0.99127,12.6533 z m -18.13444,0 V 95.547645 h 8.22172 v 40.817075 z m 29.44656,0 V 95.547645 h 8.22173 v 40.817075 z m 35.161,0 -22.04122,-35.45255 v -5.364525 h 6.70566 l 19.24234,31.020975 v 9.7961 z m -22.04122,0 v -28.68857 h 0.46648 l 7.75525,12.47836 v 16.21021 z m 25.48152,-16.56007 -7.75525,-12.47836 V 95.547645 h 8.22173 v 24.257005 z m 16.56003,16.85162 q -1.28282,0 -3.20705,-0.5831 -1.92424,-0.64142 -3.84847,-1.98255 -1.86592,-1.39944 -3.14875,-3.55691 -1.22451,-2.21579 -1.22451,-5.36453 v -19.35896 q 0.17493,-1.39944 0.87465,-3.20705 0.75803,-1.80762 2.09917,-3.498609 1.39944,-1.690993 3.4986,-2.740574 2.09917,-1.107892 4.95636,-1.107892 v 8.221725 q -1.34113,0 -2.04085,0.64141 -0.69972,0.64141 -0.93296,1.39944 -0.17493,0.75803 -0.17493,1.22451 v 18.426 q 0,0.99127 0.40817,1.63268 0.46648,0.64141 1.04958,0.99127 0.5831,0.34986 1.04958,0.52479 0.52479,0.11662 0.64141,0.11662 z m 3.14875,0 v -8.22173 q 0.11662,0 0.52479,-0.17493 0.40817,-0.23324 0.87465,-0.64141 0.46648,-0.40817 0.75803,-0.99127 0.34986,-0.5831 0.34986,-1.34113 v -1.92424 h -2.50733 v -7.58031 h 10.78736 v 10.32089 q 0,1.7493 -0.99127,3.61522 -0.99127,1.86593 -2.62395,3.4403 -1.57437,1.51606 -3.49861,2.50733 -1.86592,0.99128 -3.67353,0.99128 z m 2.74057,-27.40575 v -2.2741 q 0,-0.87465 -0.23324,-1.51606 -0.23324,-0.69972 -0.64141,-1.10789 -0.40817,-0.40817 -0.93296,-0.64141 -0.46648,-0.23324 -0.93296,-0.23324 v -8.221725 q 2.74057,0 5.1896,1.574372 2.44902,1.574373 4.02339,4.140013 1.57437,2.50734 1.57437,5.30622 z"
         id="path2" />
      <path
         d="m 40.87065,209.25234 v -32.77028 h -8.513274 v -8.04679 h 25.248273 v 8.04679 h -8.513274 v 32.77028 z m 20.058636,0 v -40.81707 h 21.224877 v 8.16341 H 69.15101 v 8.28004 h 7.522003 v 8.22172 H 69.15101 v 7.93018 h 13.003153 v 8.22172 z m 44.024144,0 -0.87465,-10.3792 q -0.17493,-2.27409 -0.75804,-3.61522 -0.52479,-1.39945 -1.63268,-2.04086 -1.04958,-0.64141 -2.857193,-0.64141 h -0.641411 v -7.28876 h 0.758031 q 2.623953,0 3.790153,-1.39944 1.22452,-1.45775 1.22452,-3.20706 0,-2.09916 -1.45776,-3.26536 -1.39944,-1.22452 -3.556913,-1.22452 h -0.758031 v -7.75524 h 1.282822 q 3.906772,0 6.589042,1.45775 2.74057,1.45776 4.14002,4.0234 1.45775,2.50733 1.45775,5.83101 0,2.97382 -1.10789,5.24791 -1.04958,2.27409 -2.8572,3.73185 1.86593,1.1662 2.74058,3.4986 0.93296,2.2741 1.10789,4.37326 l 0.99127,12.65329 z m -18.134444,0 v -40.81707 h 8.221724 v 40.81707 z m 47.580994,0 -0.87466,-10.3792 q -0.17493,-2.27409 -0.75803,-3.61522 -0.52479,-1.39945 -1.63268,-2.04086 -1.04958,-0.64141 -2.85719,-0.64141 H 127.636 v -7.28876 h 0.75804 q 2.62395,0 3.79015,-1.39944 1.22451,-1.45775 1.22451,-3.20706 0,-2.09916 -1.45775,-3.26536 -1.39944,-1.22452 -3.55691,-1.22452 H 127.636 v -7.75524 h 1.28283 q 3.90677,0 6.58904,1.45775 2.74057,1.45776 4.14001,4.0234 1.45776,2.50733 1.45776,5.83101 0,2.97382 -1.10789,5.24791 -1.04959,2.27409 -2.8572,3.73185 1.86592,1.1662 2.74058,3.4986 0.93296,2.2741 1.10789,4.37326 l 0.99127,12.65329 z m -18.13445,0 v -40.81707 h 8.22173 v 40.81707 z m 29.44656,0 v -40.81707 h 8.22172 v 40.81707 z m 23.79054,0 v -7.17214 h 0.29155 q 1.28282,0 2.21578,-0.40817 0.93296,-0.40817 1.57438,-1.10789 0.64141,-0.69972 0.93296,-1.57438 0.34986,-0.87465 0.34986,-1.7493 0,-1.86592 -1.28282,-3.32368 -1.22452,-1.51606 -3.61523,-1.51606 h -0.46648 v -7.11383 h 0.46648 q 1.63268,0 2.68226,-0.69972 1.1079,-0.69972 1.63269,-1.80761 0.5831,-1.1079 0.5831,-2.33241 0,-1.22451 -0.5831,-2.3324 -0.52479,-1.10789 -1.691,-1.80762 -1.10789,-0.69972 -2.79888,-0.69972 h -0.29155 v -7.17214 h 1.39944 q 3.20706,0 5.48115,0.99127 2.3324,0.99127 3.79016,2.62396 1.45775,1.63268 2.15747,3.67353 0.69972,2.04086 0.69972,4.14002 0,2.62396 -1.04958,5.07298 -0.99127,2.44902 -2.91551,3.90678 1.28283,0.93296 2.15748,2.39071 0.87465,1.45775 1.34113,3.14875 0.46648,1.69099 0.46648,3.44029 0,2.79889 -1.28282,5.42284 -1.22451,2.62396 -3.90678,4.31495 -2.68226,1.69099 -6.9389,1.69099 z m -11.37047,0 v -40.81707 h 8.16341 v 40.81707 z m 29.1551,0 v -40.81707 h 8.22173 v 32.65366 h 13.70287 v 8.16341 z m 25.24831,0 v -40.81707 h 21.22488 v 8.16341 h -13.00316 v 8.28004 h 7.52201 v 8.22172 h -7.52201 v 7.93018 h 13.00316 v 8.22172 z m 39.30099,0 v -40.81707 h 8.22173 v 40.81707 z m 11.37047,-18.60092 v -8.04679 h 1.92424 q 0.46648,0 1.1662,-0.11662 0.69972,-0.11663 1.22451,-0.75804 0.5831,-0.64141 0.5831,-2.15747 0,-1.51606 -0.5831,-2.15747 -0.52479,-0.64141 -1.22451,-0.75803 -0.69972,-0.11663 -1.1662,-0.11663 h -1.92424 v -8.1051 h 2.15748 q 4.37325,0 6.76397,1.45775 2.39071,1.45776 3.32367,4.0234 0.99128,2.56564 0.99128,5.88932 0,3.61523 -1.1079,6.06425 -1.04958,2.39072 -3.4986,3.61523 -2.39072,1.1662 -6.47242,1.1662 z m 16.56008,18.60092 v -40.81707 h 21.22487 v 8.16341 h -13.00315 v 8.28004 h 7.522 v 8.22172 h -7.522 v 7.93018 h 13.00315 v 8.22172 z m 41.05033,0.29155 v -8.28003 q 0.75803,0 1.39944,-0.29155 0.69973,-0.34986 1.22452,-0.87465 0.5831,-0.58311 0.87465,-1.34114 0.34986,-0.75803 0.34986,-1.69099 v -16.26852 q 0,-0.99127 -0.29155,-1.7493 -0.29155,-0.81634 -0.81634,-1.39944 -0.46648,-0.64141 -1.16621,-0.93296 -0.69972,-0.34987 -1.57437,-0.34987 v -8.22172 q 2.44903,0 4.6065,0.93296 2.21578,0.93296 3.84847,2.56565 1.69099,1.57437 2.62395,3.73184 0.99127,2.09917 0.99127,4.48988 v 17.49303 q 0,2.56565 -0.87465,4.78143 -0.81634,2.21578 -2.39071,3.90678 -1.57438,1.63268 -3.84847,2.56564 -2.21578,0.93296 -4.95636,0.93296 z m -3.26536,0 q -2.44903,0 -4.6065,-0.93296 -2.15748,-0.99127 -3.84847,-2.68226 -1.63268,-1.691 -2.62395,-3.90678 -0.93296,-2.21579 -0.93296,-4.66481 v -17.49303 q 0,-2.39071 0.93296,-4.48988 0.99127,-2.15747 2.62395,-3.79015 1.69099,-1.63269 3.84847,-2.50734 2.21578,-0.93296 4.66481,-0.93296 v 8.22172 q -0.87466,0 -1.57438,0.34987 -0.69972,0.29155 -1.22451,0.93296 -0.46648,0.5831 -0.75803,1.39944 -0.29155,0.75803 -0.29155,1.7493 v 16.26852 q 0,0.93296 0.29155,1.7493 0.34986,0.75803 0.87465,1.34114 0.52479,0.52479 1.1662,0.81634 0.69972,0.29155 1.45776,0.29155 z m 20.11697,-0.29155 v -40.81707 h 8.22173 v 40.81707 z m 11.37047,-18.60092 v -8.04679 h 1.92424 q 0.46648,0 1.1662,-0.11662 0.69972,-0.11663 1.22451,-0.75804 0.5831,-0.64141 0.5831,-2.15747 0,-1.51606 -0.5831,-2.15747 -0.52479,-0.64141 -1.22451,-0.75803 -0.69972,-0.11663 -1.1662,-0.11663 h -1.92424 v -8.1051 h 2.15748 q 4.37325,0 6.76397,1.45775 2.39071,1.45776 3.32367,4.0234 0.99128,2.56564 0.99128,5.88932 0,3.61523 -1.1079,6.06425 -1.04958,2.39072 -3.4986,3.61523 -2.39072,1.1662 -6.47242,1.1662 z m 16.56008,18.60092 v -40.81707 h 8.22172 v 32.65366 h 13.70287 v 8.16341 z m 25.24829,0 v -40.81707 h 21.22487 v 8.16341 h -13.00315 v 8.28004 h 7.522 v 8.22172 h -7.522 v 7.93018 h 13.00315 v 8.22172 z m 29.56324,0.29155 q -1.80761,0 -3.09043,-1.28282 -1.28283,-1.28282 -1.28283,-3.09044 0,-1.86592 1.28283,-3.14874 1.28282,-1.28282 3.09043,-1.28282 1.86593,0 3.09044,1.28282 1.28282,1.28282 1.28282,3.14874 0,1.80762 -1.28282,3.09044 -1.22451,1.28282 -3.09044,1.28282 z"
         id="path3" />
    </g>
  </g>
</svg>
