<?xml version="1.0" encoding="UTF-8"?>
<svg
   width="600px"
   height="400px"
   viewBox="0 0 600 400"
   version="1.1"
   id="svg1"
   xmlns="http://www.w3.org/2000/svg"
   xmlns:svg="http://www.w3.org/2000/svg">
  <g
     id="layer1">
    <rect
       style="fill:#ffffff"
       id="rect4"
       width="600"
       height="400"
       x="0"
       y="0" />
    <path
       id="path1"
       d="m 135.26276,282.47966 c -0.40534,0 -0.75388,-0.0797 -1.04457,-0.23954 -0.2921,-0.16016 -0.53622,-0.35701 -0.73448,-0.59267 -0.18733,-0.24377 -0.3295,-0.4893 -0.42298,-0.73307 -0.0938,-0.24553 -0.14076,-0.45191 -0.14076,-0.62159 v -3.66819 c 0,-0.16968 0.0469,-0.37641 0.14076,-0.62159 0.0935,-0.24377 0.23565,-0.47943 0.42298,-0.70556 0.19826,-0.23565 0.43815,-0.42862 0.72072,-0.5789 0.29069,-0.15981 0.63394,-0.23954 1.02941,-0.23954 h 0.46566 v 1.82033 h -0.46566 c -0.14076,0 -0.24942,0.0332 -0.32385,0.0991 -0.0663,0.0564 -0.11289,0.11713 -0.14182,0.18345 -0.018,0.066 -0.0279,0.10336 -0.0279,0.11289 v 3.57046 c 0,0.008 0.0138,0.0469 0.0416,0.11289 0.0289,0.0554 0.0797,0.11712 0.15557,0.18344 0.0759,0.0565 0.18345,0.084 0.32526,0.084 h 0.43674 v 1.83409 z m 1.18498,0 V 272.3761 h 1.9611 l -0.0138,10.10356 z m 5.61552,0.0138 c -0.33761,0 -0.66287,-0.0607 -0.97296,-0.1831 -0.30162,-0.12135 -0.56903,-0.29633 -0.80469,-0.52246 -0.23565,-0.22437 -0.42298,-0.49742 -0.56479,-0.81703 -0.13088,-0.32103 -0.19721,-0.67804 -0.19721,-1.07351 v -2.76577 c 0,-0.39406 0.0607,-0.75636 0.18345,-1.08585 0.12241,-0.3295 0.29598,-0.61172 0.52211,-0.84738 0.22613,-0.24412 0.49318,-0.43285 0.80469,-0.56374 0.31009,-0.13229 0.65334,-0.19826 1.0294,-0.19826 v 1.83551 c -0.1404,0 -0.26317,0.037 -0.36653,0.11289 -0.0935,0.0744 -0.16934,0.18344 -0.22578,0.32385 -0.0568,0.1404 -0.0843,0.31009 -0.0843,0.50835 v 2.6102 c 0,0.15981 0.0275,0.30586 0.0843,0.43815 0.0564,0.12136 0.13617,0.22049 0.23953,0.29633 0.10337,0.0646 0.2219,0.0977 0.35278,0.0977 z m 0.70556,0 v -1.8341 c 0.13229,0 0.24941,-0.0332 0.35277,-0.0977 0.10337,-0.0758 0.18345,-0.17497 0.23989,-0.29633 0.0564,-0.13229 0.0854,-0.27834 0.0854,-0.43815 v -2.6102 c 0,-0.19826 -0.0289,-0.36795 -0.0854,-0.50835 -0.0469,-0.14041 -0.12135,-0.24942 -0.22472,-0.32385 -0.10477,-0.0759 -0.22577,-0.11289 -0.36794,-0.11289 v -1.83551 c 0.37641,0 0.72072,0.066 1.03081,0.19826 0.31009,0.13089 0.57891,0.31962 0.80328,0.56374 0.22613,0.23566 0.40111,0.51788 0.52246,0.84738 0.12277,0.32949 0.18309,0.69179 0.18309,1.08585 v 2.76577 c 0,0.39547 -0.0702,0.75248 -0.2106,1.07351 -0.1323,0.31961 -0.31574,0.59266 -0.54999,0.81703 -0.23565,0.22613 -0.50835,0.40111 -0.81844,0.52246 -0.30198,0.12242 -0.62159,0.1831 -0.96061,0.1831 z m 9.44104,-0.0138 -2.45569,-8.04334 h 2.10291 l 2.06022,6.09636 -0.63535,1.94698 z m -3.95076,0 -2.45569,-8.04334 h 2.10291 l 2.06022,6.09636 -0.63535,1.94698 z m 1.90429,-3.23145 -1.00189,-2.87866 0.59267,-1.93323 h 2.10291 l -1.51024,4.81189 z m 3.95076,0 -1.00154,-2.87866 0.59232,-1.93323 h 2.10291 l -1.51025,4.81189 z m 2.32904,-2.11666 c 0,-0.39406 0.0607,-0.75636 0.18309,-1.08585 0.12277,-0.3295 0.29633,-0.61172 0.52246,-0.84738 0.22613,-0.24412 0.49319,-0.43285 0.80328,-0.56374 0.3115,-0.13229 0.65475,-0.19826 1.03082,-0.19826 v 1.83551 c -0.14041,0 -0.26318,0.037 -0.36654,0.11289 -0.0938,0.0744 -0.16933,0.18344 -0.22613,0.32385 -0.0564,0.1404 -0.0854,0.31009 -0.0854,0.50835 v 5.26274 h -1.86161 z m 3.92324,0.0854 c 0,-0.19826 -0.0289,-0.36654 -0.0854,-0.50835 -0.0469,-0.14041 -0.12277,-0.24942 -0.22613,-0.32385 -0.10337,-0.0759 -0.22578,-0.11289 -0.36654,-0.11289 v -1.83551 c 0.37641,0 0.71931,0.066 1.03082,0.19826 0.31009,0.13089 0.57749,0.31962 0.80327,0.56374 0.22613,0.23566 0.3997,0.51788 0.52247,0.84738 0.12276,0.32949 0.18309,0.69179 0.18309,1.08585 v 5.34811 h -1.86161 z m 3.00567,5.26274 v -10.10356 h 2.03094 v 10.10356 z m 5.70088,0.0138 c -0.33901,0 -0.66428,-0.0607 -0.97437,-0.1831 -0.30056,-0.12135 -0.56903,-0.29633 -0.80468,-0.52246 -0.23425,-0.22437 -0.42298,-0.49742 -0.56374,-0.81703 -0.13229,-0.32103 -0.19826,-0.67804 -0.19826,-1.07351 v -2.76577 c 0,-0.39406 0.0617,-0.75636 0.1845,-1.08585 0.12135,-0.3295 0.29633,-0.61172 0.52105,-0.84738 0.22578,-0.24412 0.4946,-0.43285 0.80469,-0.56374 0.31009,-0.13229 0.6544,-0.19826 1.03081,-0.19826 v 1.83551 c -0.14216,0 -0.26458,0.037 -0.36794,0.11289 -0.0938,0.0744 -0.16969,0.18344 -0.22472,0.32385 -0.0564,0.1404 -0.0854,0.31009 -0.0854,0.50835 v 2.6102 c 0,0.15981 0.0289,0.30586 0.0854,0.43815 0.0564,0.12136 0.13652,0.22049 0.23989,0.29633 0.10336,0.0646 0.22048,0.0977 0.35277,0.0977 z m 0.70556,0 v -1.8341 c 0.13088,0 0.24941,-0.0332 0.35278,-0.0977 0.10336,-0.0758 0.18309,-0.17497 0.23953,-0.29633 0.0568,-0.13229 0.0843,-0.27834 0.0843,-0.43815 v -2.6102 c 0,-0.19826 -0.0275,-0.36795 -0.0843,-0.50835 -0.0466,-0.14041 -0.12241,-0.24942 -0.22577,-0.32385 -0.10337,-0.0759 -0.22613,-0.11289 -0.36654,-0.11289 v -1.83551 c 0.37606,0 0.71931,0.066 1.02941,0.19826 0.31009,0.13089 0.57855,0.31962 0.80468,0.56374 0.22613,0.23566 0.3997,0.51788 0.52211,0.84738 0.12136,0.32949 0.18345,0.69179 0.18345,1.08585 v 2.76577 c 0,0.39547 -0.0702,0.75248 -0.21237,1.07351 -0.13089,0.31961 -0.31398,0.59266 -0.54963,0.81703 -0.23566,0.22613 -0.50871,0.40111 -0.8188,0.52246 -0.30162,0.12242 -0.62124,0.1831 -0.95885,0.1831 z m 5.67196,-0.0138 c -0.49883,0 -0.92604,-0.0935 -1.28446,-0.28223 -0.35666,-0.18767 -0.62971,-0.42333 -0.81845,-0.70555 -0.18732,-0.29104 -0.28116,-0.58314 -0.28116,-0.87383 v -0.72073 c 0,-0.0938 0.008,-0.22048 0.0275,-0.38029 0.0275,-0.16969 0.0938,-0.34855 0.1972,-0.53622 0.10336,-0.18874 0.28257,-0.34855 0.53587,-0.47943 0.15169,-0.0854 0.3489,-0.16933 0.59408,-0.25506 0.25364,-0.084 0.51682,-0.16933 0.78951,-0.25329 0.27305,-0.0938 0.53199,-0.18909 0.77576,-0.28258 0.24553,-0.10336 0.44238,-0.20672 0.59267,-0.31009 0.15981,-0.11289 0.23989,-0.23001 0.23989,-0.35278 v -0.32526 c 0,-0.10336 -0.0236,-0.19297 -0.0702,-0.2674 -0.0374,-0.0854 -0.10336,-0.15029 -0.1972,-0.19826 -0.0854,-0.0565 -0.20249,-0.0843 -0.35278,-0.0843 v -1.73602 c 0.54575,0 0.99625,0.12242 1.35467,0.36795 0.35666,0.23425 0.62547,0.52211 0.80469,0.85972 0.1778,0.33902 0.2674,0.64911 0.2674,0.93169 v 3.68335 c 0,0.0564 0.0194,0.14605 0.0564,0.2674 0.0469,0.12242 0.1598,0.1831 0.33901,0.1831 v 1.75013 c -0.30197,0 -0.56903,-0.037 -0.80468,-0.11289 -0.22613,-0.084 -0.4191,-0.1972 -0.57891,-0.33761 -0.1778,0.15028 -0.38594,0.26317 -0.62018,0.33761 -0.23566,0.0759 -0.50412,0.11289 -0.80469,0.11289 v -1.73496 c 0.16933,0 0.29633,-0.0328 0.38171,-0.0991 0.084,-0.066 0.1404,-0.14041 0.16827,-0.22614 0.0385,-0.0935 0.0564,-0.17356 0.0564,-0.23953 v -1.15747 c -0.15029,0.0854 -0.32385,0.1651 -0.52247,0.23954 -0.19685,0.0759 -0.39969,0.14217 -0.60607,0.19861 -0.20673,0.0469 -0.39017,0.0935 -0.54998,0.14041 -0.15028,0.0469 -0.25894,0.0854 -0.32526,0.11289 -0.12277,0.0568 -0.18309,0.16545 -0.18309,0.32526 v 0.1972 c 0,0.11289 0.019,0.20673 0.0564,0.28258 0.0466,0.0744 0.12665,0.13088 0.23954,0.16933 0.12276,0.0374 0.29633,0.0564 0.52246,0.0564 z m -0.64911,-5.40456 -1.63724,-0.62018 c 0,-0.38594 0.11324,-0.72884 0.33902,-1.03082 0.23565,-0.30021 0.52634,-0.5401 0.87524,-0.71931 0.35666,-0.17921 0.71931,-0.26847 1.08585,-0.26847 v 1.73602 c -0.14076,0 -0.26317,0.0332 -0.36654,0.0995 -0.0938,0.0645 -0.16968,0.16369 -0.22613,0.29633 -0.0469,0.13088 -0.0702,0.30021 -0.0702,0.50694 z m 7.35189,5.40456 c -0.40393,0 -0.75248,-0.0797 -1.04458,-0.23954 -0.29069,-0.16016 -0.53622,-0.35701 -0.73307,-0.59267 -0.18873,-0.24377 -0.32949,-0.4893 -0.42298,-0.73307 -0.0953,-0.24553 -0.14217,-0.45191 -0.14217,-0.62159 v -3.66819 c 0,-0.16968 0.0469,-0.37641 0.14217,-0.62159 0.0935,-0.24377 0.23425,-0.47943 0.42298,-0.70556 0.19685,-0.23565 0.43674,-0.42862 0.71932,-0.5789 0.2921,-0.15981 0.63535,-0.23954 1.03081,-0.23954 h 0.46567 v 1.82033 h -0.46567 c -0.14217,0 -0.24941,0.0332 -0.32526,0.0991 -0.0663,0.0564 -0.11289,0.11713 -0.14076,0.18345 -0.0191,0.066 -0.0289,0.10336 -0.0289,0.11289 v 3.57046 c 0,0.008 0.0138,0.0469 0.0427,0.11289 0.0279,0.0564 0.0801,0.11712 0.15593,0.18344 0.0744,0.0565 0.18309,0.084 0.32385,0.084 h 0.43815 v 1.83409 z m 1.18498,0 v -10.10356 h 1.9625 l -0.0152,10.10356 z m 9.24242,0.0705 v -1.778 c 0.11325,0 0.23566,-0.0233 0.36795,-0.0702 0.13088,-0.0469 0.24412,-0.11712 0.33761,-0.21202 0.0953,-0.0938 0.14217,-0.21096 0.14217,-0.35278 0,-0.18768 -0.0938,-0.33761 -0.28258,-0.45085 -0.17921,-0.12241 -0.40922,-0.22189 -0.69179,-0.29598 -0.2727,-0.0857 -0.55951,-0.16545 -0.85972,-0.23989 -0.29246,-0.0758 -0.55139,-0.16545 -0.77753,-0.26881 -0.20672,-0.0938 -0.4131,-0.23001 -0.61983,-0.40923 -0.1972,-0.17921 -0.36653,-0.40922 -0.5087,-0.69179 -0.13088,-0.28258 -0.19684,-0.62548 -0.19684,-1.02941 0,-0.47131 0.084,-0.85584 0.25328,-1.15746 0.17922,-0.31009 0.3997,-0.55527 0.66287,-0.73307 0.26459,-0.17922 0.532,-0.30622 0.80505,-0.38171 0.27269,-0.0744 0.50835,-0.11324 0.70556,-0.11324 v 1.75013 c -0.21661,0 -0.37642,0.0332 -0.47979,0.0995 -0.0935,0.0646 -0.15557,0.13617 -0.18308,0.21061 -0.0194,0.0759 -0.0289,0.13653 -0.0289,0.18344 0,0.16934 0.0797,0.32915 0.23954,0.48084 0.16968,0.14041 0.43427,0.27693 0.79092,0.40781 0.3669,0.12277 0.84208,0.24942 1.42523,0.38171 0.18874,0.0374 0.37183,0.10759 0.55104,0.21237 0.18732,0.10336 0.35701,0.23989 0.5073,0.40922 0.14992,0.16828 0.27269,0.3803 0.36653,0.63394 0.0949,0.24518 0.14182,0.53587 0.14182,0.87489 0,0.53622 -0.12277,0.99766 -0.36654,1.3836 -0.23565,0.37641 -0.55527,0.66287 -0.96062,0.86007 -0.40357,0.19826 -0.8516,0.29633 -1.34091,0.29633 z m -0.63359,0 c -0.60219,0 -1.09149,-0.11183 -1.4679,-0.33761 -0.36795,-0.22613 -0.64065,-0.50447 -0.81845,-0.83255 -0.16933,-0.33902 -0.25506,-0.67804 -0.25506,-1.01706 l 1.75013,-0.32385 c 0,0.14076 0.0388,0.26741 0.11325,0.38029 0.0854,0.10337 0.18873,0.18909 0.31009,0.25506 0.12241,0.055 0.24518,0.0882 0.36794,0.0977 z m 1.42487,-5.67231 c 0,-0.23566 -0.0607,-0.40499 -0.18344,-0.50835 -0.11289,-0.10337 -0.23566,-0.16934 -0.36654,-0.19721 -0.13229,-0.037 -0.22189,-0.0564 -0.26881,-0.0564 l 0.0138,-1.75013 c 0.5087,0 0.95108,0.11324 1.32715,0.33902 0.38593,0.22613 0.68227,0.5087 0.889,0.84631 0.21625,0.33902 0.32385,0.68192 0.32385,1.03082 z m 5.74358,5.60176 c -0.63112,0 -1.12042,-0.10725 -1.46756,-0.32385 -0.34889,-0.21626 -0.59266,-0.51788 -0.73448,-0.90382 -0.13088,-0.39405 -0.1972,-0.85584 -0.1972,-1.38218 v -3.61315 h -0.98813 v -1.82034 h 0.98813 v -2.06022 h 1.89053 v 2.06022 h 0.93169 v 1.83551 h -0.93169 v 3.73838 c 0,0.10337 0.0332,0.21661 0.0995,0.33902 0.0645,0.12277 0.20672,0.18345 0.42298,0.18345 h 0.40922 l 0.42298,1.94698 z m 4.03472,0 c -0.4131,0 -0.77999,-0.0744 -1.10102,-0.22578 -0.31009,-0.15981 -0.56903,-0.35701 -0.77576,-0.59267 -0.20673,-0.23424 -0.3623,-0.47413 -0.46567,-0.71931 -0.10336,-0.24377 -0.15451,-0.46038 -0.15451,-0.64911 v -3.69711 c 0,-0.18768 0.0511,-0.40393 0.15451,-0.64911 0.10337,-0.24413 0.25894,-0.47978 0.46567,-0.70556 0.21625,-0.23566 0.47943,-0.42721 0.79093,-0.57891 0.31009,-0.15028 0.6671,-0.22578 1.07209,-0.22578 v 1.77906 c -0.12241,0 -0.23001,0.0275 -0.32526,0.084 -0.084,0.0564 -0.15417,0.12242 -0.21061,0.19685 -0.0469,0.0759 -0.0702,0.1517 -0.0702,0.22613 v 0.70556 h 2.10149 v -0.69039 c 0,-0.15169 -0.0374,-0.26458 -0.11324,-0.33902 -0.0744,-0.0758 -0.16792,-0.12276 -0.28116,-0.14181 -0.11289,-0.0275 -0.22578,-0.0413 -0.33902,-0.0413 v -1.77906 c 0.38594,0 0.76623,0.0893 1.14265,0.26847 0.38558,0.17921 0.70555,0.42862 0.96026,0.74824 0.26352,0.31997 0.3944,0.69603 0.3944,1.12889 v 2.66629 h -3.86538 v 1.04458 c 0,0.0663 0.0176,0.13652 0.0564,0.21237 0.037,0.0646 0.0977,0.121 0.18309,0.16933 0.0938,0.0469 0.22049,0.0702 0.3803,0.0702 z m 0.74824,0 v -1.72121 c 0.1972,0 0.36266,-0.0328 0.49354,-0.0991 0.13229,-0.066 0.23565,-0.15028 0.3115,-0.25364 0.0744,-0.11289 0.13088,-0.23566 0.16792,-0.36654 l 1.53952,0.57891 c -0.0663,0.30057 -0.21237,0.59655 -0.4385,0.889 -0.22578,0.28081 -0.51647,0.51647 -0.87489,0.70555 -0.34713,0.17745 -0.74683,0.26706 -1.19909,0.26706 z m 3.58457,-5.34811 c 0,-0.39406 0.0603,-0.75636 0.1831,-1.08585 0.12276,-0.3295 0.29633,-0.61172 0.52246,-0.84738 0.22578,-0.24412 0.49318,-0.43285 0.80469,-0.56374 0.31009,-0.13229 0.65299,-0.19826 1.0294,-0.19826 v 1.83551 c -0.14076,0 -0.26317,0.037 -0.36653,0.11289 -0.0938,0.0744 -0.16969,0.18344 -0.22613,0.32385 -0.0564,0.1404 -0.084,0.31009 -0.084,0.50835 v 5.26274 h -1.86302 z m 3.92325,0.0854 c 0,-0.19826 -0.0289,-0.36795 -0.0854,-0.50835 -0.0469,-0.14041 -0.12276,-0.24942 -0.22613,-0.32385 -0.10336,-0.0759 -0.22613,-0.11289 -0.36653,-0.11289 v -1.83551 c 0.37606,0 0.71931,0.066 1.03081,0.19826 0.3101,0.13089 0.57715,0.31962 0.80328,0.56374 0.22613,0.23566 0.3997,0.51788 0.52246,0.84738 0.12242,0.32949 0.18309,0.69179 0.18309,1.08585 v 5.34811 h -1.8616 z m 5.45958,5.26274 c -0.46002,0 -0.85019,-0.0744 -1.16981,-0.22578 -0.3115,-0.15981 -0.56515,-0.35701 -0.762,-0.59267 -0.19861,-0.23424 -0.34466,-0.47413 -0.43815,-0.71931 -0.0843,-0.25365 -0.127,-0.4699 -0.127,-0.64911 v -3.69711 c 0,-0.18768 0.0469,-0.40393 0.14076,-0.64911 0.0949,-0.24413 0.23954,-0.47978 0.43815,-0.70556 0.20673,-0.23566 0.46567,-0.42721 0.77576,-0.57891 0.31962,-0.15028 0.69603,-0.22578 1.12854,-0.22578 v 1.80658 c -0.15981,0 -0.29069,0.0233 -0.39406,0.0702 -0.0953,0.0385 -0.16122,0.0854 -0.19826,0.14182 -0.0374,0.0564 -0.0568,0.11324 -0.0568,0.16968 v 3.66819 c 0,0.0938 0.0236,0.16968 0.0705,0.22613 0.048,0.0564 0.11853,0.0991 0.21202,0.12665 0.10336,0.0194 0.23001,0.0332 0.38029,0.0427 z m 0.63536,0.0138 v -1.81893 c 0.16968,0 0.30586,-0.0152 0.40922,-0.0427 0.11324,-0.037 0.19861,-0.0991 0.25506,-0.18309 0.0564,-0.0953 0.084,-0.22614 0.084,-0.39582 v -0.46567 l 1.7212,0.66287 c 0.01,0.40499 -0.1076,0.7814 -0.35278,1.12995 -0.23424,0.33761 -0.54574,0.61066 -0.93168,0.81738 -0.37606,0.20779 -0.77012,0.30586 -1.18498,0.2974 z m 0.57891,-5.16326 v -0.46602 c 0,-0.15981 -0.0236,-0.28222 -0.0706,-0.36795 -0.0466,-0.084 -0.11712,-0.14464 -0.21202,-0.18309 -0.084,-0.0374 -0.18344,-0.0564 -0.29633,-0.0564 v -1.82034 c 0.42439,0 0.80892,0.10443 1.15746,0.31115 0.3489,0.19721 0.62583,0.46602 0.83256,0.80363 0.20672,0.33902 0.31009,0.71085 0.31009,1.11478 z m 2.97779,5.1495 v -7.93045 h 1.89054 v 7.93045 z m 0.93169,-8.62083 c -0.28258,0 -0.52776,-0.0991 -0.73448,-0.29634 -0.19721,-0.20814 -0.29634,-0.44802 -0.29634,-0.72072 0,-0.2727 0.0991,-0.50694 0.29634,-0.70556 0.20672,-0.20672 0.4519,-0.31009 0.73448,-0.31009 0.2727,0 0.50694,0.10337 0.70555,0.31009 0.20673,0.19862 0.3101,0.43286 0.3101,0.70556 0,0.2727 -0.10337,0.51258 -0.3101,0.72072 -0.19861,0.19721 -0.43285,0.29634 -0.70555,0.29634 z m 2.31352,8.62083 v -10.10356 h 2.0327 v 10.10356 z m 6.08153,0.0705 v -1.778 c 0.11289,0 0.23566,-0.0233 0.36795,-0.0702 0.13088,-0.0469 0.24377,-0.11712 0.33761,-0.21202 0.0949,-0.0938 0.14181,-0.21096 0.14181,-0.35278 0,-0.18768 -0.0938,-0.33761 -0.28257,-0.45085 -0.17921,-0.12241 -0.40922,-0.22189 -0.6918,-0.29598 -0.2727,-0.0857 -0.5595,-0.16545 -0.85972,-0.23989 -0.2921,-0.0758 -0.55139,-0.16545 -0.77717,-0.26881 -0.20673,-0.0938 -0.41345,-0.23001 -0.62018,-0.40923 -0.19861,-0.17921 -0.36654,-0.40922 -0.50871,-0.69179 -0.13088,-0.28258 -0.19685,-0.62548 -0.19685,-1.02941 0,-0.47131 0.084,-0.85584 0.25365,-1.15746 0.17886,-0.31009 0.39935,-0.55527 0.66252,-0.73307 0.26458,-0.17922 0.53199,-0.30622 0.80504,-0.38171 0.27269,-0.0759 0.50835,-0.11324 0.70555,-0.11324 v 1.75013 c -0.2166,0 -0.37641,0.0332 -0.47978,0.0995 -0.0935,0.0646 -0.15557,0.13617 -0.18309,0.21061 -0.0194,0.0759 -0.0289,0.13653 -0.0289,0.18344 0,0.16934 0.0797,0.32915 0.23954,0.48084 0.16969,0.14041 0.43286,0.27693 0.79128,0.40781 0.36654,0.12277 0.84173,0.24942 1.42487,0.38171 0.18874,0.0374 0.37183,0.10759 0.54963,0.21237 0.18873,0.10336 0.35842,0.23989 0.5087,0.40922 0.14993,0.16828 0.2727,0.3803 0.36654,0.63394 0.0949,0.24518 0.14182,0.53587 0.14182,0.87489 0,0.53622 -0.12277,0.99766 -0.36654,1.3836 -0.23566,0.37641 -0.55527,0.66287 -0.96061,0.86007 -0.40358,0.19826 -0.85161,0.29633 -1.34056,0.29633 z m -0.63394,0 c -0.60219,0 -1.09149,-0.11324 -1.46756,-0.33761 -0.36794,-0.22613 -0.64099,-0.50447 -0.81879,-0.83396 -0.16934,-0.33761 -0.25471,-0.67663 -0.25471,-1.01565 l 1.75013,-0.32385 c 0,0.14076 0.037,0.26741 0.11289,0.38029 0.0854,0.10337 0.18874,0.18909 0.31009,0.25365 0.12242,0.0565 0.24518,0.0896 0.36795,0.0991 z m 1.42487,-5.67231 c 0,-0.23566 -0.0621,-0.40499 -0.18345,-0.50835 -0.11288,-0.10337 -0.23565,-0.16934 -0.36794,-0.19721 -0.13088,-0.037 -0.22049,-0.0564 -0.26741,-0.0564 l 0.0141,-1.75013 c 0.50836,0 0.95074,0.11324 1.3268,0.33902 0.38594,0.22613 0.68227,0.5087 0.889,0.84631 0.21625,0.33902 0.32385,0.68192 0.32385,1.03082 z m 6.60365,5.60176 v -5.48852 h -0.98813 v -1.83409 h 0.98813 v -0.55139 c 0,-0.16934 0.0466,-0.37606 0.14181,-0.62019 0.0938,-0.24518 0.23989,-0.4893 0.43674,-0.73448 0.1972,-0.24377 0.44662,-0.4505 0.74824,-0.62018 0.30057,-0.16934 0.65335,-0.25894 1.05834,-0.26847 h 0.94544 l -0.42298,1.82034 h -0.50871 c -0.1404,0 -0.24941,0.0332 -0.32526,0.0991 -0.0741,0.0663 -0.12664,0.13088 -0.15416,0.1972 -0.0194,0.066 -0.0289,0.10866 -0.0289,0.12665 v 0.55139 h 1.01706 v 1.83409 h -1.01706 v 5.48852 z m 3.92324,0 v -8.04334 h 1.91805 v 0.89006 c 0.11289,-0.14181 0.26458,-0.28257 0.45191,-0.42439 0.19861,-0.15028 0.42333,-0.27693 0.67804,-0.38029 0.25364,-0.10337 0.52246,-0.15593 0.80362,-0.15593 0.0854,0 0.16934,0 0.25471,0 0.0843,0 0.16969,0 0.25365,0 l -0.43674,1.89089 c -0.33902,0 -0.66428,0.0991 -0.97437,0.29633 -0.30057,0.18874 -0.54998,0.42827 -0.74825,0.72073 -0.18732,0.29068 -0.28257,0.59231 -0.28257,0.9024 v 4.30354 z m 7.57766,0.0138 c -0.33902,0 -0.66428,-0.0607 -0.97437,-0.1831 -0.30021,-0.12135 -0.56903,-0.29633 -0.80468,-0.52246 -0.23425,-0.22437 -0.42299,-0.49742 -0.56374,-0.81703 -0.1323,-0.32103 -0.19685,-0.67804 -0.19685,-1.07351 v -2.76577 c 0,-0.39406 0.0607,-0.75636 0.18309,-1.08585 0.12135,-0.3295 0.29633,-0.61172 0.52246,-0.84738 0.22472,-0.24412 0.49319,-0.43285 0.80328,-0.56374 0.31009,-0.13229 0.65475,-0.19826 1.03081,-0.19826 v 1.83551 c -0.14181,0 -0.26317,0.037 -0.36794,0.11289 -0.0938,0.0744 -0.16793,0.18344 -0.22472,0.32385 -0.0564,0.1404 -0.0854,0.31009 -0.0854,0.50835 v 2.6102 c 0,0.15981 0.0289,0.30586 0.0854,0.43815 0.0568,0.12136 0.13652,0.22049 0.23989,0.29633 0.10336,0.0646 0.22048,0.0977 0.35277,0.0977 z m 0.70556,0 v -1.8341 c 0.13088,0 0.24941,-0.0332 0.35278,-0.0977 0.10336,-0.0758 0.18344,-0.17497 0.23989,-0.29633 0.0564,-0.13229 0.084,-0.27834 0.084,-0.43815 v -2.6102 c 0,-0.19826 -0.0275,-0.36795 -0.084,-0.50835 -0.0469,-0.14041 -0.12277,-0.24942 -0.22613,-0.32385 -0.10337,-0.0759 -0.22578,-0.11289 -0.36654,-0.11289 v -1.83551 c 0.37641,0 0.71931,0.066 1.0294,0.19826 0.31151,0.13089 0.57891,0.31962 0.80469,0.56374 0.22613,0.23566 0.3997,0.51788 0.52246,0.84738 0.12242,0.32949 0.1831,0.69179 0.1831,1.08585 v 2.76577 c 0,0.39547 -0.0702,0.75248 -0.21202,1.07351 -0.13087,0.31961 -0.31432,0.59266 -0.54998,0.81703 -0.23566,0.22613 -0.50835,0.40111 -0.81844,0.52246 -0.30057,0.12242 -0.6216,0.1831 -0.95921,0.1831 z m 7.35189,-0.0138 v -5.61552 c 0,-0.15981 -0.0526,-0.2921 -0.15557,-0.39546 -0.0938,-0.11289 -0.26741,-0.16934 -0.52247,-0.16934 v -1.87713 c 0.35843,0 0.66851,0.0469 0.93168,0.14217 0.26318,0.0935 0.49883,0.22049 0.70556,0.3803 0.20673,-0.16969 0.44238,-0.29634 0.70556,-0.3803 0.26317,-0.0952 0.56903,-0.14217 0.91757,-0.14217 v 1.87713 c -0.2547,0 -0.42862,0.0564 -0.52211,0.16934 -0.0938,0.11324 -0.14217,0.24412 -0.14217,0.39546 v 5.61552 z m -3.88056,0 v -5.85506 c 0,-0.19861 0.0508,-0.4191 0.15417,-0.66428 0.11324,-0.25364 0.27869,-0.49741 0.49494,-0.73307 0.21626,-0.23565 0.47943,-0.42862 0.78952,-0.57891 0.31962,-0.15028 0.6918,-0.22613 1.11478,-0.22613 v 1.87713 c -0.24377,0 -0.41346,0.066 -0.50694,0.19685 -0.0854,0.12277 -0.12842,0.24554 -0.12842,0.36795 v 5.61552 z m 7.76111,0 v -5.61552 c 0,-0.16933 -0.0469,-0.30586 -0.14181,-0.40922 -0.0938,-0.10337 -0.26741,-0.15558 -0.52247,-0.15558 v -1.87713 c 0.42439,0 0.79516,0.0801 1.11478,0.23989 0.32949,0.15028 0.60219,0.34325 0.8188,0.57891 0.21625,0.23566 0.37606,0.47942 0.48083,0.73448 0.11148,0.24377 0.16793,0.46003 0.16793,0.64911 v 5.85506 z m 6.50417,0 v -7.93045 h 1.8923 v 7.93045 z m 0.93168,-8.62083 c -0.28257,0 -0.52634,-0.0991 -0.73307,-0.29634 -0.19861,-0.20814 -0.29633,-0.44802 -0.29633,-0.72072 0,-0.2727 0.0977,-0.50694 0.29633,-0.70556 0.20673,-0.20672 0.4505,-0.31009 0.73307,-0.31009 0.2727,0 0.50836,0.10337 0.70556,0.31009 0.20673,0.19862 0.3115,0.43286 0.3115,0.70556 0,0.2727 -0.10477,0.51258 -0.3115,0.72072 -0.1972,0.19721 -0.43286,0.29634 -0.70556,0.29634 z m 5.17878,8.69138 v -1.778 c 0.11289,0 0.23566,-0.0233 0.36795,-0.0702 0.13088,-0.0469 0.24377,-0.11712 0.33761,-0.21202 0.0949,-0.0938 0.14181,-0.21096 0.14181,-0.35278 0,-0.18768 -0.0949,-0.33761 -0.28257,-0.45085 -0.17921,-0.12241 -0.40922,-0.22189 -0.6918,-0.29598 -0.2727,-0.0857 -0.55951,-0.16545 -0.85972,-0.23989 -0.2921,-0.0758 -0.55139,-0.16545 -0.77717,-0.26881 -0.20673,-0.0938 -0.41345,-0.23001 -0.62018,-0.40923 -0.19862,-0.17921 -0.36654,-0.40922 -0.50835,-0.69179 -0.13124,-0.28258 -0.19721,-0.62548 -0.19721,-1.02941 0,-0.47131 0.084,-0.85584 0.25365,-1.15746 0.17921,-0.31009 0.39934,-0.55527 0.66287,-0.73307 0.26317,-0.17922 0.53164,-0.30622 0.80469,-0.38171 0.27269,-0.0759 0.50835,-0.11324 0.70555,-0.11324 v 1.75013 c -0.21625,0 -0.37641,0.0332 -0.47978,0.0995 -0.0935,0.0646 -0.15557,0.13617 -0.18309,0.21061 -0.0194,0.0759 -0.0289,0.13653 -0.0289,0.18344 0,0.16934 0.0797,0.32915 0.23989,0.48084 0.16934,0.14041 0.43251,0.27693 0.79093,0.40781 0.36654,0.12277 0.84208,0.24942 1.42487,0.38171 0.18874,0.0374 0.37218,0.10759 0.54963,0.21237 0.18909,0.10336 0.35842,0.23989 0.5087,0.40922 0.15029,0.16828 0.2727,0.3803 0.36654,0.63394 0.0949,0.24518 0.14182,0.53587 0.14182,0.87489 0,0.53622 -0.12242,0.99766 -0.36795,1.3836 -0.23425,0.37641 -0.55386,0.66287 -0.95885,0.86007 -0.40393,0.19826 -0.85196,0.29633 -1.34091,0.29633 z m -0.63394,0 c -0.60219,0 -1.0915,-0.11324 -1.46756,-0.33761 -0.36794,-0.22613 -0.64099,-0.50447 -0.81879,-0.83396 -0.16934,-0.33761 -0.25471,-0.67663 -0.25471,-1.01565 l 1.75013,-0.32385 c 0,0.14076 0.037,0.26741 0.11289,0.38029 0.084,0.10337 0.18874,0.18909 0.31009,0.25365 0.12277,0.0565 0.24518,0.0896 0.36795,0.0991 z m 1.42487,-5.67231 c 0,-0.23566 -0.0621,-0.40499 -0.18345,-0.50835 -0.11289,-0.10337 -0.23565,-0.16934 -0.36794,-0.19721 -0.13088,-0.037 -0.22049,-0.0564 -0.26706,-0.0564 l 0.0138,-1.75013 c 0.50835,0 0.95074,0.11324 1.3268,0.33902 0.38594,0.22613 0.68227,0.5087 0.889,0.84631 0.21625,0.33902 0.32385,0.68192 0.32385,1.03082 z m 5.74216,5.60176 c -0.62971,0 -1.11901,-0.10725 -1.46755,-0.32385 -0.34714,-0.21626 -0.59267,-0.51788 -0.73308,-0.90382 -0.13229,-0.39405 -0.1972,-0.85584 -0.1972,-1.38218 v -3.61315 h -0.98778 v -1.82034 h 0.98778 v -2.06022 h 1.89089 v 2.06022 h 0.93133 v 1.83551 h -0.93133 v 3.73838 c 0,0.10337 0.0332,0.21661 0.0977,0.33902 0.0663,0.12277 0.20814,0.18345 0.42439,0.18345 h 0.40922 l 0.42334,1.94698 z m 3.72639,0 c -0.49882,0 -0.92745,-0.0935 -1.28446,-0.28223 -0.35701,-0.18767 -0.62971,-0.42333 -0.81845,-0.70555 -0.18873,-0.29104 -0.28257,-0.58314 -0.28257,-0.87383 v -0.72073 c 0,-0.0938 0.01,-0.22048 0.0289,-0.38029 0.0275,-0.16969 0.0938,-0.34855 0.1972,-0.53622 0.10336,-0.18874 0.28222,-0.34855 0.53587,-0.47943 0.15028,-0.0854 0.3489,-0.16933 0.59267,-0.25506 0.25505,-0.084 0.51823,-0.16933 0.79092,-0.25329 0.27305,-0.0938 0.53058,-0.18909 0.77576,-0.28258 0.24412,-0.10336 0.44239,-0.20672 0.59267,-0.31009 0.15981,-0.11289 0.23989,-0.23001 0.23989,-0.35278 v -0.32526 c 0,-0.10336 -0.0236,-0.19297 -0.0706,-0.2674 -0.037,-0.0854 -0.10301,-0.15029 -0.19826,-0.19826 -0.084,-0.0565 -0.20108,-0.0843 -0.35278,-0.0843 v -1.73602 c 0.54575,0 0.99766,0.12242 1.35608,0.36795 0.35666,0.23425 0.62406,0.52211 0.80328,0.85972 0.17921,0.33902 0.26881,0.64911 0.26881,0.93169 v 3.68335 c 0,0.0564 0.018,0.14605 0.0564,0.2674 0.0469,0.12242 0.15981,0.1831 0.33761,0.1831 v 1.75013 c -0.30057,0 -0.56904,-0.037 -0.80328,-0.11289 -0.22613,-0.084 -0.4191,-0.1972 -0.57891,-0.33902 -0.17921,0.15169 -0.38594,0.26458 -0.62159,0.33902 -0.23425,0.0759 -0.50306,0.11289 -0.80328,0.11289 v -1.73496 c 0.16934,0 0.29634,-0.0328 0.3803,-0.0991 0.0854,-0.066 0.14181,-0.14041 0.16968,-0.22614 0.037,-0.0935 0.0564,-0.17356 0.0564,-0.23953 v -1.15747 c -0.15029,0.0854 -0.32526,0.1651 -0.52247,0.23954 -0.19685,0.0759 -0.39969,0.14217 -0.60642,0.19861 -0.20638,0.0469 -0.39123,0.0935 -0.55104,0.14041 -0.15028,0.0469 -0.25753,0.0854 -0.32385,0.11289 -0.12277,0.0568 -0.18344,0.16545 -0.18344,0.32526 v 0.1972 c 0,0.11289 0.018,0.20673 0.0568,0.28258 0.0466,0.0744 0.12665,0.13088 0.23954,0.16933 0.12277,0.0374 0.29633,0.0564 0.52246,0.0564 z m -0.64911,-5.40456 -1.63724,-0.62018 c 0,-0.38594 0.11324,-0.72884 0.33902,-1.03082 0.23424,-0.30021 0.52634,-0.5401 0.87524,-0.71931 0.35666,-0.17921 0.71932,-0.26847 1.08585,-0.26847 v 1.73602 c -0.14076,0 -0.26317,0.0332 -0.36653,0.0995 -0.0938,0.0645 -0.16969,0.16369 -0.22614,0.29633 -0.0469,0.13088 -0.0702,0.30021 -0.0702,0.50694 z m 5.10822,0.0565 c 0,-0.39406 0.0607,-0.75636 0.18345,-1.08585 0.12135,-0.3295 0.29633,-0.61172 0.52211,-0.84738 0.22472,-0.24412 0.49354,-0.43285 0.80363,-0.56374 0.3115,-0.13229 0.6544,-0.19826 1.03081,-0.19826 v 1.83551 c -0.14217,0 -0.26317,0.037 -0.36653,0.11289 -0.0952,0.0744 -0.16969,0.18344 -0.22613,0.32385 -0.0565,0.1404 -0.0854,0.31009 -0.0854,0.50835 v 5.26274 h -1.86196 z m 3.92219,0.0854 c 0,-0.19826 -0.0279,-0.36795 -0.0843,-0.50835 -0.0466,-0.14041 -0.12241,-0.24942 -0.22577,-0.32385 -0.10337,-0.0759 -0.22614,-0.11289 -0.36654,-0.11289 v -1.83551 c 0.37606,0 0.71931,0.066 1.0294,0.19826 0.31115,0.13089 0.57856,0.31962 0.80469,0.56374 0.22578,0.23566 0.3997,0.51788 0.52211,0.84738 0.12277,0.32949 0.18345,0.69179 0.18345,1.08585 v 5.34811 h -1.86302 z m 5.19359,5.26274 c -0.40499,0 -0.75247,-0.0797 -1.04457,-0.23954 -0.2921,-0.16016 -0.53587,-0.35701 -0.73449,-0.59267 -0.18732,-0.24377 -0.32914,-0.4893 -0.42298,-0.73307 -0.0938,-0.24553 -0.1404,-0.45191 -0.1404,-0.62159 v -3.66819 c 0,-0.16968 0.0466,-0.37641 0.1404,-0.62159 0.0938,-0.24377 0.23566,-0.47943 0.42298,-0.70556 0.19862,-0.23565 0.43815,-0.42862 0.72073,-0.5789 0.29069,-0.15981 0.63394,-0.23954 1.0294,-0.23954 h 0.46602 v 1.82033 h -0.46602 c -0.1404,0 -0.24941,0.0332 -0.32385,0.0991 -0.066,0.0564 -0.11289,0.11713 -0.14181,0.18345 -0.018,0.066 -0.0275,0.10336 -0.0275,0.11289 v 3.57046 c 0,0.008 0.0138,0.0469 0.0413,0.11148 0.0289,0.0568 0.0801,0.11853 0.15557,0.18485 0.0759,0.0565 0.18344,0.084 0.32526,0.084 h 0.43709 v 1.83409 z m 1.18533,0 v -10.10356 h 1.96074 l -0.0138,10.10356 z m 6.30732,0 v -9.89154 h 1.97591 v 6.05367 h 0.762 v 1.83444 h -0.762 v 2.00343 z m -3.48509,-2.00343 v -1.83444 l 2.68005,-4.59987 v 3.55529 l -0.64911,1.04458 h 0.64911 v 1.83444 z m 8.12764,2.07398 c -0.2921,0 -0.54045,-0.10336 -0.74824,-0.31009 -0.20673,-0.20673 -0.31009,-0.45614 -0.31009,-0.74824 0,-0.30057 0.10336,-0.55421 0.31009,-0.76235 0.20779,-0.20673 0.45614,-0.3101 0.74824,-0.3101 0.30022,0 0.54963,0.10337 0.74824,0.3101 0.20673,0.20814 0.3101,0.46178 0.3101,0.76235 0,0.2921 -0.10337,0.54151 -0.3101,0.74824 -0.19861,0.20673 -0.44802,0.31009 -0.74824,0.31009 z m 5.23523,0 v -1.87713 c 0.16933,0 0.30162,-0.0275 0.39546,-0.084 0.10336,-0.0564 0.17357,-0.12665 0.21061,-0.21237 0.0388,-0.084 0.0564,-0.16792 0.0564,-0.2533 v -5.68713 h 1.91982 v 5.91291 c 0,0.18768 -0.0564,0.40922 -0.16969,0.66287 -0.10336,0.24518 -0.26317,0.48507 -0.47942,0.71932 -0.21626,0.23565 -0.48931,0.43285 -0.81845,0.59407 -0.31997,0.15029 -0.69179,0.22472 -1.11477,0.22472 z m -0.64912,0 c -0.42333,0 -0.79939,-0.0744 -1.12888,-0.22472 -0.31962,-0.15169 -0.58844,-0.34466 -0.80468,-0.57891 -0.20673,-0.23565 -0.36654,-0.47519 -0.47943,-0.72072 -0.10337,-0.25365 -0.15593,-0.47943 -0.15593,-0.67663 v -5.91291 h 1.91981 v 5.68713 c 0,0.0854 0.0194,0.16934 0.0564,0.2533 0.037,0.0857 0.10335,0.15593 0.19719,0.21237 0.0949,0.0564 0.22578,0.0854 0.39547,0.0854 z m 7.2249,0 v -1.778 c 0.11288,0 0.23565,-0.0233 0.36653,-0.0702 0.1323,-0.0469 0.24553,-0.11712 0.33902,-0.21202 0.0938,-0.0938 0.14076,-0.21096 0.14076,-0.35278 0,-0.18768 -0.0938,-0.33761 -0.28258,-0.45085 -0.17779,-0.12241 -0.4078,-0.22189 -0.69038,-0.29598 -0.27305,-0.0857 -0.5595,-0.16545 -0.86149,-0.23989 -0.2921,-0.0758 -0.54963,-0.16545 -0.77576,-0.26881 -0.20672,-0.0938 -0.41345,-0.23001 -0.62159,-0.40923 -0.19685,-0.17921 -0.36654,-0.40922 -0.50694,-0.69179 -0.13229,-0.28258 -0.19862,-0.62548 -0.19862,-1.02941 0,-0.47131 0.0857,-0.85584 0.25506,-1.15746 0.1778,-0.31009 0.3997,-0.55527 0.66287,-0.73307 0.26318,-0.17922 0.532,-0.30622 0.80469,-0.38171 0.27306,-0.0759 0.5073,-0.11324 0.70556,-0.11324 v 1.75013 c -0.21626,0 -0.37607,0.0332 -0.48084,0.0995 -0.0938,0.0646 -0.15452,0.13617 -0.18345,0.21061 -0.0176,0.0759 -0.0275,0.13653 -0.0275,0.18344 0,0.16934 0.0801,0.32915 0.23987,0.48084 0.16935,0.14041 0.43286,0.27693 0.78953,0.40781 0.36794,0.12277 0.84208,0.24942 1.42628,0.38171 0.18733,0.0374 0.37077,0.10759 0.54998,0.21237 0.18873,0.10336 0.357,0.23989 0.50835,0.40922 0.15029,0.16828 0.27305,0.3803 0.36653,0.63394 0.0938,0.24518 0.14076,0.53587 0.14076,0.87489 0,0.53622 -0.12135,0.99766 -0.36654,1.3836 -0.23564,0.37641 -0.55561,0.66287 -0.9592,0.86007 -0.40534,0.19826 -0.85159,0.29633 -1.34091,0.29633 z m -0.63536,0 c -0.60219,0 -1.09114,-0.11324 -1.46756,-0.33761 -0.36653,-0.22613 -0.63923,-0.50447 -0.81844,-0.83396 -0.16969,-0.33761 -0.25365,-0.67663 -0.25365,-1.01565 l 1.75013,-0.32385 c 0,0.14076 0.0374,0.26741 0.11289,0.38029 0.0843,0.10337 0.18768,0.18909 0.3101,0.25365 0.12276,0.0565 0.24412,0.0896 0.36653,0.0991 z m 1.42487,-5.67231 c 0,-0.23566 -0.0603,-0.40499 -0.18309,-0.50835 -0.11289,-0.10337 -0.23425,-0.16934 -0.36654,-0.19721 -0.13229,-0.037 -0.22048,-0.0564 -0.26882,-0.0564 l 0.0152,-1.75013 c 0.5073,0 0.94933,0.11324 1.32574,0.33902 0.38594,0.22613 0.68192,0.5087 0.88865,0.84631 0.21661,0.33902 0.32526,0.68192 0.32526,1.03082 z"
       style="fill:#000000" />
    <g
       id="text1"
       transform="matrix(0.74464326,0,0,0.74464326,-403.71209,69.289117)"
       aria-label="NOW WE ALL GET TO SEE WHO YOU WOULD HAVE BEEN IN 1930s GERMANY.">
      <path
         d="M 620.53451,36.976815 600.37452,4.5501681 v -4.90666372 h 6.13333 L 624.10784,28.016821 v 8.959994 z m -20.15999,0 V 10.736831 h 0.42666 l 7.09333,11.413327 V 36.976815 Z M 623.68117,21.830158 616.58784,10.416831 V -0.35649562 h 7.52 V 21.830158 Z m 18.77329,15.413324 v -7.573329 q 0.69333,0 1.28,-0.266666 0.64,-0.32 1.12,-0.8 0.53333,-0.533333 0.8,-1.226666 0.32,-0.693333 0.32,-1.546666 V 10.950164 q 0,-0.906666 -0.26667,-1.5999987 -0.26667,-0.7466663 -0.74667,-1.2799993 -0.42666,-0.5866663 -1.06666,-0.8533328 -0.64,-0.3199998 -1.44,-0.3199998 v -7.51999553 q 2.24,0 4.21333,0.85333283 2.02666,0.8533328 3.52,2.3466653 1.54666,1.4399991 2.4,3.4133313 0.90666,1.9199988 0.90666,4.1066637 v 15.999991 q 0,2.346665 -0.8,4.373331 -0.74666,2.026665 -2.18666,3.573331 -1.44,1.493332 -3.52,2.346665 -2.02667,0.853333 -4.53333,0.853333 z m -2.98667,0 q -2.24,0 -4.21333,-0.853333 -1.97333,-0.906666 -3.52,-2.453332 -1.49333,-1.546665 -2.39999,-3.573331 -0.85334,-2.026665 -0.85334,-4.266664 V 10.096831 q 0,-2.1866649 0.85334,-4.1066637 0.90666,-1.9733322 2.39999,-3.4666646 1.54667,-1.4933325 3.52,-2.293332 2.02667,-0.85333283 4.26667,-0.85333283 V 6.8968334 q -0.8,0 -1.44,0.3199998 -0.64,0.2666665 -1.12,0.8533328 -0.42667,0.533333 -0.69334,1.2799993 -0.26666,0.6933327 -0.26666,1.5999987 v 14.879991 q 0,0.853333 0.26666,1.599999 0.32,0.693333 0.8,1.226666 0.48,0.48 1.06667,0.746667 0.64,0.266666 1.33333,0.266666 z m 27.51998,-0.266667 -10.82666,-37.33331062 h 7.67999 l 8.48,28.90664962 -2.82667,8.426661 z m 16.63999,0 -10.82666,-37.33331062 h 7.67999 l 8.42666,28.90664962 -2.77333,8.426661 z m -10.24,-15.466657 -3.51999,-11.9466595 2.93333,-9.91999412 h 7.67999 L 673.9211,21.510158 Z m 16.85333,0 -3.52,-11.9466595 2.93333,-9.91999412 h 7.68 l -6.56,21.86665362 z m 31.25328,15.466657 -10.82666,-37.33331062 h 7.67999 l 8.48,28.90664962 -2.82667,8.426661 z m 16.63999,0 -10.82666,-37.33331062 h 7.67999 l 8.42666,28.90664962 -2.77333,8.426661 z m -10.24,-15.466657 -3.51999,-11.9466595 2.93333,-9.91999412 h 7.67999 L 728.4277,21.510158 Z m 16.85333,0 -3.52,-11.9466595 2.93333,-9.91999412 h 7.68 l -6.56,21.86665362 z m 9.86665,15.466657 V -0.35649562 h 19.41332 V 7.1101666 h -11.89332 v 7.5733284 h 6.87999 v 7.519996 h -6.87999 v 7.253329 h 11.89332 v 7.519995 z m 53.38661,0 -1.06666,-4.53333 h -5.54666 l 1.59999,-7.359996 h 1.92 l -5.65333,-25.43998462 h 7.41333 l 8.8,37.33331062 z m -17.97332,0 6.88,-31.039981 h 0.8 l 3.2,14.933324 -3.52,16.106657 z m 28.69331,0 V -0.35649562 h 7.51999 V 29.510153 h 12.53333 v 7.466662 z m 23.09335,0 V -0.35649562 h 7.52 V 29.510153 h 12.53332 v 7.466662 z m 45.6,0.266667 q -1.17334,0 -2.93334,-0.533333 -1.75999,-0.586666 -3.51999,-1.813332 -1.70667,-1.28 -2.88,-3.253332 -1.12,-2.026665 -1.12,-4.906663 V 9.0301655 q 0.16,-1.2799993 0.8,-2.9333316 0.69333,-1.6533324 1.92,-3.1999981 1.28,-1.5466658 3.2,-2.5066652 1.91999,-1.01333273 4.53333,-1.01333273 V 6.8968334 q -1.22667,0 -1.86667,0.5866663 -0.64,0.5866663 -0.85333,1.2799992 -0.16,0.693333 -0.16,1.1199994 V 26.736822 q 0,0.906666 0.37333,1.493332 0.42667,0.586666 0.96,0.906666 0.53333,0.32 0.96,0.48 0.48,0.106666 0.58667,0.106666 z m 2.87999,0 v -7.519996 q 0.10667,0 0.48,-0.159999 0.37334,-0.213334 0.8,-0.586667 0.42667,-0.373333 0.69334,-0.906666 0.32,-0.533333 0.32,-1.226666 v -1.759999 h -2.29334 V 18.15016 h 9.86666 v 9.439994 q 0,1.599999 -0.90666,3.306665 -0.90667,1.706666 -2.4,3.146665 -1.44,1.386666 -3.2,2.293332 -1.70666,0.906666 -3.36,0.906666 z m 2.50667,-25.066652 v -2.079999 q 0,-0.799999 -0.21333,-1.3866654 -0.21334,-0.6399996 -0.58667,-1.0133327 -0.37333,-0.3733331 -0.85333,-0.5866663 -0.42667,-0.2133332 -0.85334,-0.2133332 v -7.51999553 q 2.50667,0 4.74667,1.43999914 2.24,1.43999919 3.68,3.78666439 1.43999,2.293332 1.43999,4.8533305 z m 11.41332,24.799985 V -0.35649562 h 19.41332 V 7.1101666 h -11.89332 v 7.5733284 h 6.87999 v 7.519996 h -6.87999 v 7.253329 h 11.89332 v 7.519995 z m 30.02666,0 V 7.0035 h -7.78667 v -7.35999562 h 23.09332 V 7.0035 h -7.78666 v 29.973315 z m 36.9599,0 V 7.0035 h -7.78667 v -7.35999562 h 23.09332 V 7.0035 h -7.78666 v 29.973315 z m 32.21327,0.266667 v -7.573329 q 0.6934,0 1.28,-0.266666 0.64,-0.32 1.12,-0.8 0.5334,-0.533333 0.8,-1.226666 0.32,-0.693333 0.32,-1.546666 V 10.950164 q 0,-0.906666 -0.2666,-1.5999987 -0.2667,-0.7466663 -0.7467,-1.2799993 -0.4267,-0.5866663 -1.0667,-0.8533328 -0.64,-0.3199998 -1.44,-0.3199998 v -7.51999553 q 2.24,0 4.2134,0.85333283 2.0266,0.8533328 3.5199,2.3466653 1.5467,1.4399991 2.4,3.4133313 0.9067,1.9199988 0.9067,4.1066637 v 15.999991 q 0,2.346665 -0.8,4.373331 -0.7467,2.026665 -2.1867,3.573331 -1.44,1.493332 -3.52,2.346665 -2.0266,0.853333 -4.5333,0.853333 z m -2.9866,0 q -2.24004,0 -4.21338,-0.853333 -1.97333,-0.906666 -3.51999,-2.453332 -1.49334,-1.546665 -2.4,-3.573331 -0.85334,-2.026665 -0.85334,-4.266664 V 10.096831 q 0,-2.1866649 0.85334,-4.1066637 0.90666,-1.9733322 2.4,-3.4666646 1.54666,-1.4933325 3.51999,-2.293332 2.02667,-0.85333283 4.26668,-0.85333283 V 6.8968334 q -0.80001,0 -1.44001,0.3199998 -0.64,0.2666665 -1.12,0.8533328 -0.42667,0.533333 -0.69333,1.2799993 -0.26667,0.6933327 -0.26667,1.5999987 v 14.879991 q 0,0.853333 0.26667,1.599999 0.32,0.693333 0.8,1.226666 0.48,0.48 1.06666,0.746667 0.64,0.266666 1.33338,0.266666 z m 42.1866,-0.106667 v -6.933329 q 0.5866,-0.05333 1.1733,-0.32 0.5867,-0.319999 1.0667,-0.799999 0.48,-0.533333 0.7466,-1.173333 0.32,-0.639999 0.32,-1.386666 0,-1.333332 -0.8,-2.346665 -0.8,-1.066666 -2.08,-1.813332 -1.2266,-0.8 -2.5066,-1.333333 -1.28,-0.533333 -2.2934,-0.853333 -1.0133,-0.319999 -1.3333,-0.426666 -1.5467,-0.48 -3.0933,-1.759999 -1.4934,-1.279999 -2.5067,-3.306665 -0.96,-2.079998 -0.96,-4.7466634 0,-2.826665 1.0133,-4.7466639 1.0667,-1.9733321 2.6134,-3.1466648 1.5466,-1.22666589 3.0933,-1.8133322 1.6,-0.58666632 2.6133,-0.58666632 V 6.6835002 q -0.4266,0.1599999 -0.8533,0.4266664 -0.3733,0.2666665 -0.6933,0.6933329 -0.2667,0.4266664 -0.48,0.9066661 -0.16,0.4799998 -0.16,1.0133328 0,0.9599996 0.48,1.6533326 0.5333,0.693333 1.44,1.226666 0.9066,0.533333 2.0266,1.066666 1.1734,0.479999 2.5067,1.013332 1.3333,0.533333 2.6667,1.28 1.7066,0.906666 3.2533,2.239998 1.5466,1.333333 2.56,3.199998 1.0133,1.813333 1.0133,4.373331 0,3.039998 -1.4933,5.65333 -1.4934,2.559999 -4,4.159998 -2.4533,1.546665 -5.3333,1.546665 z m -2.9334,0 q -2.1866,0 -4,-0.906666 -1.76,-0.906666 -3.0933,-2.293332 -1.28,-1.386666 -1.9733,-2.826665 -0.6934,-1.439999 -0.6934,-2.559998 l 6.7734,-2.399999 q 0,1.066666 0.48,1.919999 0.48,0.8 1.1733,1.333333 0.6933,0.533333 1.3333,0.799999 z m 5.3334,-27.3599833 q 0,-0.9066662 -0.4267,-1.5466658 -0.3733,-0.6399996 -0.9067,-1.0133327 -0.5333,-0.4266664 -1.0666,-0.533333 v -7.03999582 q 2.1333,0 3.84,0.85333282 1.7066,0.7999995 2.9333,2.0799988 1.2266,1.2799992 1.8666,2.6133317 0.6934,1.3333326 0.6934,2.293332 z m 11.7333,27.1999833 V -0.35649562 h 19.4134 V 7.1101666 h -11.8934 v 7.5733284 h 6.88 v 7.519996 h -6.88 v 7.253329 h 11.8934 v 7.519995 z m 23.68,0 V -0.35649562 h 19.4134 V 7.1101666 h -11.8934 v 7.5733284 h 6.88 v 7.519996 h -6.88 v 7.253329 h 11.8934 v 7.519995 z"
         id="path2" />
      <path
         d="M 569.89457,103.64344 559.06791,66.31013 h 7.68 l 8.47999,28.90665 -2.82666,8.42666 z m 16.63999,0 -10.82666,-37.33331 h 7.68 l 8.42666,28.90665 -2.77333,8.42666 z m -10.23999,-15.466656 -3.52,-11.94666 2.93333,-9.919994 h 7.68 l -6.56,21.866654 z m 16.85332,0 -3.52,-11.94666 2.93333,-9.919994 h 7.68 l -6.56,21.866654 z M 619.1212,103.64344 V 88.283451 h -2.88 v -6.826663 h 2.88 V 66.31013 h 7.51999 v 37.33331 z m -16.21333,0 V 66.31013 h 7.52 v 15.146658 h 2.88 v 6.826663 h -2.88 v 15.359989 z m 41.97329,0.26667 v -7.573331 q 0.69334,0 1.28,-0.266666 0.64,-0.32 1.12,-0.8 0.53334,-0.533333 0.8,-1.226666 0.32,-0.693333 0.32,-1.546666 V 77.61679 q 0,-0.906666 -0.26667,-1.599999 -0.26666,-0.746666 -0.74666,-1.279999 -0.42667,-0.586666 -1.06667,-0.853333 -0.64,-0.32 -1.44,-0.32 v -7.519995 q 2.24,0 4.21333,0.853333 2.02667,0.853332 3.52,2.346665 1.54667,1.439999 2.4,3.413331 0.90667,1.919999 0.90667,4.106664 v 15.999991 q 0,2.346665 -0.8,4.373331 -0.74667,2.026665 -2.18667,3.573331 -1.44,1.49333 -3.52,2.34667 -2.02666,0.85333 -4.53333,0.85333 z m -2.98666,0 q -2.24,0 -4.21333,-0.85333 -1.97333,-0.90667 -3.52,-2.45334 -1.49333,-1.546662 -2.4,-3.573328 -0.85333,-2.026665 -0.85333,-4.266664 V 76.763457 q 0,-2.186665 0.85333,-4.106664 0.90667,-1.973332 2.4,-3.466664 1.54667,-1.493333 3.52,-2.293332 2.02666,-0.853333 4.26666,-0.853333 v 7.519995 q -0.8,0 -1.44,0.32 -0.64,0.266667 -1.12,0.853333 -0.42666,0.533333 -0.69333,1.279999 -0.26667,0.693333 -0.26667,1.599999 v 14.879991 q 0,0.853333 0.26667,1.599999 0.32,0.693333 0.8,1.226666 0.48,0.48 1.06667,0.746667 0.64,0.266666 1.33333,0.266666 z m 36.05328,-0.26667 V 90.203449 L 670.96111,66.31013 h 7.84 l 6.93333,23.839986 v 13.493324 z m 9.49332,-17.653321 -3.51999,-12.479993 2.08,-7.199996 h 7.73332 l -5.81333,19.679989 z m 23.03999,17.919991 v -7.573331 q 0.69334,0 1.28,-0.266666 0.64,-0.32 1.12,-0.8 0.53333,-0.533333 0.8,-1.226666 0.32,-0.693333 0.32,-1.546666 V 77.61679 q 0,-0.906666 -0.26667,-1.599999 -0.26666,-0.746666 -0.74666,-1.279999 -0.42667,-0.586666 -1.06667,-0.853333 -0.64,-0.32 -1.44,-0.32 v -7.519995 q 2.24,0 4.21333,0.853333 2.02667,0.853332 3.52,2.346665 1.54667,1.439999 2.4,3.413331 0.90667,1.919999 0.90667,4.106664 v 15.999991 q 0,2.346665 -0.8,4.373331 -0.74667,2.026665 -2.18667,3.573331 -1.44,1.49333 -3.52,2.34667 -2.02666,0.85333 -4.53333,0.85333 z m -2.98666,0 q -2.24,0 -4.21333,-0.85333 -1.97333,-0.90667 -3.52,-2.45334 -1.49333,-1.546662 -2.4,-3.573328 -0.85333,-2.026665 -0.85333,-4.266664 V 76.763457 q 0,-2.186665 0.85333,-4.106664 0.90667,-1.973332 2.4,-3.466664 1.54667,-1.493333 3.52,-2.293332 2.02666,-0.853333 4.26666,-0.853333 v 7.519995 q -0.8,0 -1.44,0.32 -0.64,0.266667 -1.12,0.853333 -0.42666,0.533333 -0.69333,1.279999 -0.26667,0.693333 -0.26667,1.599999 v 14.879991 q 0,0.853333 0.26667,1.599999 0.32,0.693333 0.8,1.226666 0.48,0.48 1.06667,0.746667 0.64,0.266666 1.33333,0.266666 z m 28.37332,0 q -1.17334,0 -2.98667,-0.58667 -1.76,-0.58666 -3.46666,-1.81333 -1.70667,-1.22667 -2.88,-3.253332 -1.17333,-2.026665 -1.17333,-4.906664 V 66.31013 h 7.57332 v 27.039984 q 0,0.906666 0.37334,1.493333 0.42666,0.586666 0.96,0.906666 0.58666,0.32 1.01333,0.48 0.48,0.106666 0.58667,0.106666 z m 2.87999,0 v -7.573331 q 0.10667,0 0.53334,-0.106666 0.48,-0.16 1.01333,-0.48 0.58667,-0.32 1.01333,-0.906666 0.42667,-0.586667 0.42667,-1.493333 V 66.31013 h 7.46666 v 27.039984 q 0,2.879999 -1.17333,4.906664 -1.12,2.026662 -2.82667,3.306662 -1.70666,1.22667 -3.46666,1.81333 -1.76,0.53334 -2.98667,0.53334 z m 35.8399,-0.26667 -10.82666,-37.33331 h 7.68 l 8.47999,28.90665 -2.82666,8.42666 z m 16.63999,0 -10.82666,-37.33331 h 7.68 l 8.42666,28.90665 -2.77333,8.42666 z m -10.23999,-15.466656 -3.52,-11.94666 2.93333,-9.919994 h 7.68 l -6.56,21.866654 z m 16.85332,0 -3.52,-11.94666 2.93333,-9.919994 h 7.68 l -6.56,21.866654 z m 23.73332,15.733326 v -7.573331 q 0.69333,0 1.28,-0.266666 0.64,-0.32 1.12,-0.8 0.53333,-0.533333 0.8,-1.226666 0.32,-0.693333 0.32,-1.546666 V 77.61679 q 0,-0.906666 -0.26667,-1.599999 -0.26667,-0.746666 -0.74667,-1.279999 -0.42666,-0.586666 -1.06666,-0.853333 -0.64,-0.32 -1.44,-0.32 v -7.519995 q 2.24,0 4.21333,0.853333 2.02666,0.853332 3.52,2.346665 1.54666,1.439999 2.4,3.413331 0.90666,1.919999 0.90666,4.106664 v 15.999991 q 0,2.346665 -0.8,4.373331 -0.74666,2.026665 -2.18666,3.573331 -1.44,1.49333 -3.52,2.34667 -2.02667,0.85333 -4.53333,0.85333 z m -2.98667,0 q -2.23999,0 -4.21333,-0.85333 -1.97333,-0.90667 -3.51999,-2.45334 -1.49334,-1.546662 -2.4,-3.573328 -0.85334,-2.026665 -0.85334,-4.266664 V 76.763457 q 0,-2.186665 0.85334,-4.106664 0.90666,-1.973332 2.4,-3.466664 1.54666,-1.493333 3.51999,-2.293332 2.02667,-0.853333 4.26667,-0.853333 v 7.519995 q -0.8,0 -1.44,0.32 -0.64,0.266667 -1.12,0.853333 -0.42667,0.533333 -0.69333,1.279999 -0.26667,0.693333 -0.26667,1.599999 v 14.879991 q 0,0.853333 0.26667,1.599999 0.32,0.693333 0.8,1.226666 0.47999,0.48 1.06666,0.746667 0.64,0.266666 1.33333,0.266666 z m 28.37331,0 q -1.17334,0 -2.98667,-0.58667 -1.76,-0.58666 -3.46666,-1.81333 -1.70667,-1.22667 -2.88,-3.253332 -1.17333,-2.026665 -1.17333,-4.906664 V 66.31013 h 7.57332 v 27.039984 q 0,0.906666 0.37334,1.493333 0.42666,0.586666 0.96,0.906666 0.58666,0.32 1.01333,0.48 0.48,0.106666 0.58667,0.106666 z m 2.87999,0 v -7.573331 q 0.10667,0 0.53334,-0.106666 0.48,-0.16 1.01333,-0.48 0.58667,-0.32 1.01333,-0.906666 0.42667,-0.586667 0.42667,-1.493333 V 66.31013 h 7.46666 v 27.039984 q 0,2.879999 -1.17333,4.906664 -1.12,2.026662 -2.82667,3.306662 -1.70666,1.22667 -3.46666,1.81333 -1.76,0.53334 -2.98667,0.53334 z m 14.45329,-0.26667 V 66.31013 h 7.51999 v 29.866649 h 12.53333 v 7.466661 z m 33.49335,0 v -7.519994 q 0.10666,0 0.58666,-0.106667 0.48,-0.106666 1.01333,-0.426666 0.58667,-0.32 0.96,-0.906666 0.42667,-0.586667 0.42667,-1.546666 v -16.31999 q 0,-0.106667 -0.10667,-0.533333 -0.10666,-0.48 -0.42666,-1.013333 -0.32,-0.586666 -0.90667,-1.013333 -0.58666,-0.426666 -1.54666,-0.426666 V 66.31013 q 2.87999,0 4.85333,1.173333 2.02666,1.119999 3.25333,2.826665 1.22666,1.706666 1.81333,3.466665 0.58667,1.759999 0.58667,3.039998 v 16.31999 q 0,2.933332 -1.17334,4.959997 -1.17333,2.026662 -2.87999,3.253332 -1.70667,1.22667 -3.46667,1.76 -1.76,0.53333 -2.98666,0.53333 z m -10.4,0 V 66.31013 h 7.52 v 37.33331 z m 53.5466,0 V 88.283451 h -2.88 v -6.826663 h 2.88 V 66.31013 h 7.52 v 37.33331 z m -16.21332,0 V 66.31013 h 7.51999 v 15.146658 h 2.88 v 6.826663 h -2.88 v 15.359989 z m 45.54662,0 -1.06666,-4.533329 h -5.54667 l 1.6,-7.359996 h 1.92 L 961.52079,66.31013 h 7.41333 l 8.79999,37.33331 z m -17.97332,0 6.88,-31.03998 h 0.8 l 3.19999,14.933324 -3.51999,16.106656 z m 37.70663,0 -10.82666,-37.33331 h 7.68 l 8.47999,28.90665 -2.82666,8.42666 z m 6.4,-15.466656 -3.52,-11.94666 2.93333,-9.919994 h 7.68001 l -6.56001,21.866654 z m 9.76004,15.466656 V 66.31013 h 19.4133 v 7.466663 h -11.8933 v 7.573328 h 6.88 v 7.519996 h -6.88 v 7.253329 h 11.8933 v 7.519994 z m 45.7066,0 v -6.559995 h 0.2667 q 1.1733,0 2.0266,-0.373333 0.8534,-0.373333 1.44,-1.013332 0.5867,-0.64 0.8534,-1.44 0.32,-0.799999 0.32,-1.599999 0,-1.706665 -1.1734,-3.039998 -1.12,-1.386666 -3.3066,-1.386666 h -0.4267 v -6.506662 h 0.4267 q 1.4933,0 2.4533,-0.64 1.0133,-0.64 1.4933,-1.653332 0.5334,-1.013333 0.5334,-2.133333 0,-1.119999 -0.5334,-2.133332 -0.48,-1.013332 -1.5466,-1.653332 -1.0134,-0.64 -2.56,-0.64 h -0.2667 V 66.31013 h 1.28 q 2.9333,0 5.0133,0.906666 2.1334,0.906667 3.4667,2.399999 1.3333,1.493332 1.9733,3.359998 0.64,1.866666 0.64,3.786664 0,2.399999 -0.96,4.639998 -0.9066,2.239998 -2.6666,3.573331 1.1733,0.853333 1.9733,2.186665 0.8,1.333333 1.2267,2.879999 0.4266,1.546665 0.4266,3.146664 0,2.559999 -1.1733,4.959997 -1.12,2.399999 -3.5733,3.946669 -2.4534,1.54666 -6.3467,1.54666 z m -10.4,0 V 66.31013 h 7.4667 v 37.33331 z m 26.6667,0 V 66.31013 h 19.4133 v 7.466663 h -11.8933 v 7.573328 h 6.88 v 7.519996 h -6.88 v 7.253329 h 11.8933 v 7.519994 z m 23.68,0 V 66.31013 h 19.4133 v 7.466663 h -11.8933 v 7.573328 h 6.88 v 7.519996 h -6.88 v 7.253329 h 11.8933 v 7.519994 z m 43.84,0 -20.16,-32.426646 V 66.31013 h 6.1333 l 17.6,28.373317 v 8.959993 z m -20.16,0 V 77.403457 h 0.4267 l 7.0933,11.413327 v 14.826656 z m 23.3067,-15.146656 -7.0934,-11.413327 V 66.31013 h 7.52 v 22.186654 z"
         id="path3" />
      <path
         d="m 657.0145,170.31007 v -37.33331 h 7.51999 v 37.33331 z m 32.16,0 -20.15999,-32.42665 v -4.90666 h 6.13333 l 17.59999,28.37331 v 8.96 z m -20.15999,0 v -26.23999 h 0.42667 l 7.09333,11.41333 v 14.82666 z m 23.30665,-15.14666 -7.09332,-11.41333 v -10.77332 h 7.51999 v 22.18665 z m 20.5866,15.14666 v -27.41332 h -4.05333 v -6.72 l 4.05333,-3.19999 h 7.52 v 37.33331 z m 23.68001,0.0533 v -6.93333 q 1.44,-0.10667 2.18667,-1.01333 0.8,-0.96 1.06666,-2.29333 0.26667,-1.33334 0.26667,-2.72 0.0533,-1.38667 0.0533,-2.4 -0.32,0.16 -0.8,0.32 -0.42666,0.10667 -0.96,0.21333 -0.48,0.0533 -0.96,0.10667 -0.42666,0.0533 -0.85333,0.0533 v -6.93333 q 1.54667,-0.42666 2.29333,-1.70666 0.74667,-1.28 0.74667,-2.72 0,-0.74667 -0.21333,-1.44 -0.16,-0.69333 -0.53334,-1.28 -0.37333,-0.64 -0.96,-1.06666 -0.58666,-0.42667 -1.33333,-0.64 v -6.93333 q 3.52,0 5.65333,1.70666 2.13333,1.65333 3.25333,4.48 1.12,2.82666 1.49334,6.34666 0.37333,3.46667 0.37333,7.14666 0,1.70667 -0.16,4 -0.10667,2.29333 -0.69333,4.69333 -0.53334,2.4 -1.70667,4.48 -1.12,2.02667 -3.14666,3.30666 -1.97334,1.22667 -5.06667,1.22667 z m -2.88,0 q -3.25333,0 -5.43999,-1.6 -2.13334,-1.65333 -3.36,-4.05333 l 5.65333,-3.84 q 0.42667,1.17334 1.33333,1.86667 0.96,0.64 1.81333,0.69333 z m 0,-14.66666 q -3.30666,0 -5.54666,-1.54666 -2.24,-1.54667 -3.41333,-4.10667 -1.12,-2.56 -1.12,-5.54666 0,-3.52 1.38667,-6.08 1.38666,-2.61333 3.67999,-3.99999 2.34667,-1.44 5.01333,-1.44 v 6.93333 q -0.74666,0.21333 -1.33333,0.64 -0.58667,0.42666 -0.96,1.06666 -0.37333,0.58667 -0.58666,1.28 -0.16,0.69333 -0.16,1.44 0,1.44 0.74666,2.72 0.8,1.28 2.29333,1.70666 z m 29.54661,14.61333 v -6.93333 q 0.90666,-0.10667 1.81333,-0.42667 0.90667,-0.37333 1.49333,-1.17333 0.64,-0.85333 0.64,-2.34667 0,-0.90666 -0.32,-1.65333 -0.26666,-0.8 -1.01333,-1.38666 -0.74667,-0.58667 -2.08,-0.90667 -1.33333,-0.37333 -3.46666,-0.37333 v -6.93333 q 2.13333,0 3.46666,-0.32 1.33333,-0.37334 2.08,-0.96 0.74667,-0.64 1.01333,-1.38667 0.32,-0.8 0.32,-1.65333 0,-2.24 -1.28,-2.98667 -1.28,-0.79999 -2.66666,-0.95999 v -6.93333 q 1.6,0 3.46666,0.58666 1.92,0.53334 3.57333,1.76 1.70667,1.22667 2.77334,3.25333 1.06666,2.02667 1.06666,5.01333 0,3.41333 -1.22666,5.38667 -1.22667,1.92 -2.34667,2.66666 1.12,0.74667 2.34667,2.72 1.22666,1.92 1.22666,5.33333 0,2.93333 -1.06666,5.01333 -1.06667,2.02667 -2.77334,3.25333 -1.65333,1.22667 -3.57333,1.81333 -1.86666,0.53334 -3.46666,0.53334 z m -2.93333,0 q -2.61333,0 -4.85333,-1.38667 -2.18667,-1.38666 -3.57333,-3.57333 -1.33334,-2.18666 -1.33334,-4.58666 l 6.45333,-1.22667 q 0,1.49333 0.64,2.34667 0.64,0.85333 1.44,1.17333 0.8,0.32 1.22667,0.32 z m -3.30667,-26.55999 -6.45333,-1.22666 q 0,-2.45333 1.33334,-4.58667 1.38666,-2.18666 3.57333,-3.57333 2.24,-1.38666 4.85333,-1.38666 v 6.93333 q -0.42667,0.0533 -1.22667,0.37333 -0.8,0.32 -1.44,1.12 -0.64,0.8 -0.64,2.34666 z m 33.49336,26.55999 v -7.14666 q 1.12,-0.26667 1.70667,-1.28 0.63999,-1.06667 0.90666,-2.61334 0.26667,-1.54666 0.32,-3.35999 0.10667,-1.86667 0.10667,-3.68 v -1.17333 q 0,-1.81334 -0.10667,-3.62667 -0.0533,-1.86666 -0.32,-3.41333 -0.26667,-1.54667 -0.90666,-2.56 -0.58667,-1.06666 -1.70667,-1.33333 v -7.14666 q 1.70667,0 3.52,0.74666 1.81333,0.74667 3.30666,2.72 1.54667,1.97333 2.45333,5.65333 0.96,3.68 0.96,9.54666 0,5.86667 -0.96,9.54666 -0.90666,3.68 -2.45333,5.65333 -1.49333,1.97333 -3.30666,2.72 -1.81333,0.74667 -3.52,0.74667 z m -2.93333,0 q -1.70667,0 -3.52,-0.74667 -1.81333,-0.74667 -3.36,-2.72 -1.49333,-1.97333 -2.45333,-5.65333 -0.90667,-3.67999 -0.90667,-9.54666 0,-5.86666 0.90667,-9.54666 0.96,-3.68 2.45333,-5.65333 1.54667,-1.97333 3.36,-2.72 1.81333,-0.74666 3.52,-0.74666 v 7.14666 q -1.12,0.26667 -1.76,1.33333 -0.58667,1.01333 -0.85333,2.56 -0.26667,1.54667 -0.37334,3.41333 -0.0533,1.81333 -0.0533,3.62667 v 1.17333 q 0,1.81333 0.0533,3.68 0.10667,1.81333 0.37334,3.35999 0.26666,1.54667 0.85333,2.61334 0.64,1.01333 1.76,1.28 z m 27.84001,0.26666 v -6.71999 q 0.64,0 1.38666,-0.26667 0.74667,-0.26667 1.28,-0.8 0.53333,-0.53333 0.53333,-1.33333 0,-1.06667 -1.06666,-1.70667 -1.01333,-0.69333 -2.61333,-1.12 -1.54667,-0.48 -3.25333,-0.90666 -1.65334,-0.42667 -2.93334,-1.01333 -1.17333,-0.53334 -2.34666,-1.54667 -1.12,-1.01333 -1.92,-2.61333 -0.74667,-1.6 -0.74667,-3.89333 0,-2.66667 0.96,-4.37333 1.01334,-1.76 2.50667,-2.77334 1.49333,-1.01333 3.04,-1.43999 1.54666,-0.42667 2.66666,-0.42667 v 6.61333 q -1.22666,0 -1.81333,0.37333 -0.53333,0.37333 -0.69333,0.8 -0.10667,0.42667 -0.10667,0.69333 0,0.96 0.90667,1.81334 0.95999,0.8 2.98666,1.54666 2.08,0.69333 5.38666,1.44 1.06667,0.21333 2.08,0.8 1.06667,0.58667 1.92,1.54667 0.85333,0.96 1.38667,2.39999 0.53333,1.38667 0.53333,3.30667 0,3.04 -1.38667,5.22666 -1.33333,2.13334 -3.62666,3.25333 -2.29333,1.12 -5.06666,1.12 z m -2.4,0 q -3.41333,0 -5.54667,-1.28 -2.07999,-1.27999 -3.09333,-3.14666 -0.96,-1.92 -0.96,-3.84 l 6.61333,-1.22666 q 0,0.8 0.42667,1.44 0.48,0.58666 1.17333,0.95999 0.69333,0.32 1.38667,0.37334 z m 5.38666,-21.43998 q 0,-1.33334 -0.69333,-1.92 -0.64,-0.58667 -1.38667,-0.74667 -0.74666,-0.21333 -1.01333,-0.21333 l 0.0533,-6.61333 q 2.88,0 5.01333,1.28 2.18667,1.28 3.36,3.2 1.22667,1.92 1.22667,3.89333 z m 32.90665,21.43998 q -1.17333,0 -2.93333,-0.53333 -1.76,-0.58667 -3.52,-1.81333 -1.70666,-1.28 -2.88,-3.25333 -1.12,-2.02667 -1.12,-4.90667 v -17.70665 q 0.16,-1.28 0.8,-2.93333 0.69334,-1.65334 1.92,-3.2 1.28,-1.54667 3.2,-2.50667 1.92,-1.01333 4.53333,-1.01333 v 7.52 q -1.22667,0 -1.86667,0.58666 -0.63999,0.58667 -0.85333,1.28 -0.16,0.69333 -0.16,1.12 v 16.85332 q 0,0.90667 0.37334,1.49334 0.42666,0.58666 0.95999,0.90666 0.53334,0.32 0.96,0.48 0.48,0.10667 0.58667,0.10667 z m 2.88,0 v -7.51999 q 0.10667,0 0.48,-0.16 0.37333,-0.21333 0.8,-0.58667 0.42666,-0.37333 0.69333,-0.90666 0.32,-0.53334 0.32,-1.22667 v -1.76 h -2.29333 v -6.93333 h 9.86666 v 9.44 q 0,1.6 -0.90667,3.30666 -0.90666,1.70667 -2.4,3.14667 -1.43999,1.38666 -3.19999,2.29333 -1.70667,0.90666 -3.36,0.90666 z m 2.50666,-25.06665 v -2.08 q 0,-0.8 -0.21333,-1.38666 -0.21333,-0.64 -0.58667,-1.01334 -0.37333,-0.37333 -0.85333,-0.58666 -0.42666,-0.21333 -0.85333,-0.21333 v -7.52 q 2.50666,0 4.74666,1.44 2.24,1.44 3.68,3.78666 1.44,2.29334 1.44,4.85333 z m 11.41332,24.79999 v -37.33331 h 19.41333 v 7.46666 h -11.89333 v 7.57333 h 6.88 v 7.51999 h -6.88 v 7.25333 h 11.89333 v 7.52 z m 40.26667,0 -0.8,-9.49333 q -0.16,-2.08 -0.69333,-3.30666 -0.48,-1.28 -1.49334,-1.86667 -0.96,-0.58667 -2.61333,-0.58667 h -0.58666 v -6.66666 h 0.69333 q 2.4,0 3.46666,-1.28 1.12,-1.33333 1.12,-2.93333 0,-1.92 -1.33333,-2.98667 -1.28,-1.11999 -3.25333,-1.11999 h -0.69333 v -7.09333 h 1.17333 q 3.57333,0 6.02666,1.33333 2.50667,1.33333 3.78667,3.68 1.33333,2.29333 1.33333,5.33333 0,2.72 -1.01333,4.79999 -0.96,2.08 -2.61334,3.41334 1.70667,1.06666 2.50667,3.19999 0.85333,2.08 1.01333,4 l 0.90667,11.57333 z m -16.58666,0 v -37.33331 h 7.52 v 37.33331 z m 40.42659,0 -13.49333,-32.42665 v -4.90666 h 5.86666 l 10.18666,24.69331 5.65333,-12.74665 h 0.53334 v 17.33332 l -3.57333,8.05333 z m -13.49333,0 v -23.67999 h 0.48 l 7.04,16.90666 v 6.77333 z m 25.11999,0 v -37.33331 h 7.51999 v 37.33331 z m 29.43993,0 -1.06666,-4.53333 h -5.54667 l 1.6,-7.36 h 1.92 l -5.65333,-25.43998 h 7.41333 l 8.8,37.33331 z m -17.97332,0 6.88,-31.03998 h 0.8 l 3.2,14.93332 -3.52,16.10666 z m 48.85332,0 -20.16001,-32.42665 v -4.90666 h 6.13333 l 17.59998,28.37331 v 8.96 z m -20.16001,0 v -26.23999 h 0.42666 l 7.09333,11.41333 v 14.82666 z m 23.30661,-15.14666 -7.0933,-11.41333 v -10.77332 h 7.52 v 22.18665 z m 10.2933,15.14666 v -13.43999 l -6.9866,-23.89332 h 7.84 l 6.9333,23.83998 v 13.49333 z m 9.4934,-17.65333 -3.52,-12.47999 2.08,-7.19999 h 7.7333 l -5.8133,19.67998 z m 12.5333,17.91999 q -1.6533,0 -2.8266,-1.17333 -1.1734,-1.17333 -1.1734,-2.82666 0,-1.70667 1.1734,-2.88 1.1733,-1.17333 2.8266,-1.17333 1.7067,0 2.8267,1.17333 1.1733,1.17333 1.1733,2.88 0,1.65333 -1.1733,2.82666 -1.12,1.17333 -2.8267,1.17333 z"
         id="path4" />
    </g>
  </g>
</svg>
